<svg viewBox="185.70084292863413 374.0369487211718 58.97615707136586 54.005051278828205" id="svg8" version="1.1" xmlns="http://www.w3.org/2000/svg" xmlns:cc="http://creativecommons.org/ns#" xmlns:dc="http://purl.org/dc/elements/1.1/" xmlns:inkscape="http://www.inkscape.org/namespaces/inkscape" xmlns:rdf="http://www.w3.org/1999/02/22-rdf-syntax-ns#" xmlns:sodipodi="http://sodipodi.sourceforge.net/DTD/sodipodi-0.dtd" xmlns:svg="http://www.w3.org/2000/svg"><g><path d="M244.677,428.042c-0.825,0-1.678-0.038-2.581-0.129c-0.001,0-0.002,0-0.004,0l0.102-0.995      c-0.158-0.015-0.285,0.098-0.308,0.179c0.218-0.734-1.583-5.542-2.02-6.438c-0.657-1.345-1.479-2.285-2.44-2.793      c-1.543-0.815-3.586-1.161-5.561-1.496c-1.258-0.213-2.56-0.434-3.697-0.775c-8.454-2.539-16.354-6.418-23.482-11.528l0,0      c-9.157-6.566-15.059-13.987-17.54-22.058c-0.732-2.378-0.772-5.547,1.522-6.652c2.067-0.999,4.315,0.568,5.47,1.59 z" id="path8867" stroke="blue" fill="red"/></g></svg>