<?xml version="1.0" encoding="utf-8"?>
<!-- Generator: Adobe Illustrator 27.5.0, SVG Export Plug-In . SVG Version: 6.00 Build 0)  -->
<svg version="1.1" xmlns="http://www.w3.org/2000/svg" xmlns:xlink="http://www.w3.org/1999/xlink" x="0px" y="0px"
     viewBox="0 0 500 500" style="enable-background:new 0 0 500 500;" xml:space="preserve">

	<g id="fish1">

        <path style="fill:#BFDAEB;" d="M48.256,245.492c0,0,41.008-50.565,103.532-10.058c0,0,17.864,10.87,33.698,10.058
						c0,0,14.617,6.496,0,19.894c0,0-13.397-3.654-36.134,10.556c0,0-33.132,22.331-76.858,2.842c0,0-20.584-7.714-28.299-9.339
						C44.195,269.445,9.686,262.139,48.256,245.492z"/>

        <path style="opacity:0.4;fill:#18463B;" d="M187.548,263.324c0fez.081-0.088,0.171-0.178,0.249-0.266
							c0.663-0.741,1.234-1.459,1.724-2.154c-4.787-1.263-16.984-1.935-40.168,11.52c0,0-33.132,22.332-76.858,2.843
							c0,0-21.971-7.156-32.711-7.092c0.732,0.255,1.421,0.472,2.025,0.648c0.006,0.002,0.011,0.003,0.017,0.005
							c0.13,0.038,0.255,0.074,0.377,0.108c0.021,0.007,0.042,0.013,0.063,0.019c0.109,0.03,0.216,0.059,0.318,0.088
							c0.019,0.005,0.037,0.01,0.055,0.015c0.099,0.026,0.192,0.052,0.282,0.075c0.024,0.007,0.047,0.013,0.07,0.02
							c0.083,0.021,0.162,0.041,0.237,0.061c0.022,0.006,0.046,0.012,0.067,0.018c0.073,0.018,0.141,0.035,0.206,0.051
							c0.02,0.006,0.04,0.011,0.06,0.016c0.06,0.015,0.115,0.027,0.167,0.041c0.019,0.004,0.038,0.009,0.056,0.013
							c0.044,0.011,0.082,0.019,0.119,0.028c0.021,0.005,0.047,0.011,0.066,0.016c0.022,0.005,0.04,0.009,0.059,0.013
							c0.023,0.005,0.049,0.011,0.067,0.016c0.01,0.002,0.017,0.003,0.025,0.005c0.046,0.011,0.075,0.018,0.075,0.018
							c7.715,1.625,28.299,9.339,28.299,9.339c43.727,19.489,76.858-2.842,76.858-2.842c22.736-14.21,36.134-10.556,36.134-10.556
							c0.441-0.404,0.853-0.803,1.242-1.193C187.02,263.898,187.285,263.611,187.548,263.324z"/>

        <path style="fill:#729D93;" d="M151.788,250.617c0,0,22.097,9.854,37.88,10.088c7.023-10.232-4.182-15.213-4.182-15.213
						c-15.834,0.813-33.698-10.058-33.698-10.058c-62.524-40.507-103.532,10.058-103.532,10.058S89.264,210.11,151.788,250.617z"/>
        <path style="fill:#425B57;" d="M151.788,242.949c0,0,24.291,11.104,40.125,10.291c-0.692-5.199-6.427-7.748-6.427-7.748
						c-15.834,0.813-33.698-10.058-33.698-10.058c-62.524-40.507-103.532,10.058-103.532,10.058S89.264,202.442,151.788,242.949z"/>
        <path style="fill:#BFDAEB;" d="M121.509,285.353c0,0-6.909-2.988-12.511-3.361c0,0-4.847-4.347-4.1-0.8
						c0,0,0.895,2.406,2.919,5.565c5.005,0.058,9.667-0.338,13.925-1.011C121.66,285.613,121.594,285.489,121.509,285.353z"/>

        <path style="fill:#BFDAEB;" d="M72.992,269.685l16.525,10.081c10.923-0.186,16.524-8.026,16.524-8.026
							C93.532,265.764,72.992,269.685,72.992,269.685z"/>

        <path style="fill:#18463B;"
              d="M57.471,247.77c0,0,3.547,24.271-14.564,16.432C42.906,264.201,64.192,277.269,57.471,247.77z"/>
        <path style="fill:#18463B;" d="M30.289,258.242c-0.387,1.117-0.371,2.148-0.055,3.092c3.101,0.439,6.697,1.935,6.697,1.935
						C35.938,260.627,32.746,259.074,30.289,258.242z"/>
        <path style="fill:#709E91;" d="M71.849,266.254c0,0,20.54-3.922,33.05,2.055c0,0-5.602,7.841-16.524,8.026l-13.538-5.671
						C74.836,270.664,70.729,269.615,71.849,266.254z"/>
        <path style="fill:#18463B;" d="M100.249,266.607c-2.093,2.287-7.427,7.105-15.914,8.035l4.039,1.692
						c10.923-0.186,16.524-8.026,16.524-8.026C103.443,267.613,101.877,267.057,100.249,266.607z"/>
        <path style="fill:#709E91;" d="M104.898,281.192c0,0,10.27,11.762,19.791,16.431c0,0,3.174-4.852-3.174-14.936
						c0,0-6.909-2.988-12.511-3.361C109.005,279.325,104.151,277.646,104.898,281.192z"/>


        <path style="fill:#18463B;" d="M141.975,229.724c3.855-2.467,9.415-4.734,9.415-4.734
								c-9.336-8.962-2.614-23.713-2.614-23.713c-18.111-0.373-35.961,19.004-35.961,19.004l0.001,0.007
								C121.789,221.414,131.543,224.315,141.975,229.724z"/>
        <path style="fill:#18463B;" d="M185.486,265.387c18.973,14.442,44.14,15.058,44.14,15.058
								c-4.668-14.936-20.726-25.767-20.726-25.767c18.484-12.697,18.484-26.665,18.484-26.665
								c-21.846-0.152-41.898,17.48-41.898,17.48S200.104,251.988,185.486,265.387z"/>
        <path style="fill:#18463B;" d="M149.352,275.942c0,0-6.235,4.195-16.854,7.361l-0.005,0.004c0,0,9.934,8.34,29.912,14.315
								l-2.054-7.157h2.054l-1.68-3.701c0,0,8.027-13.225,19.979-18.829c0,0-2.291-1.51-6.22-2.369
								C168.367,266.629,159.86,269.375,149.352,275.942z"/>


        <path style="fill:#F0EB22;" d="M53.32,254.602c0,2.694-2.184,4.878-4.878,4.878c-2.694,0-4.878-2.184-4.878-4.878
								c0-2.694,2.184-4.881,4.878-4.881C51.137,249.722,53.32,251.908,53.32,254.602z"/>
        <path style="fill:#18463B;" d="M48.442,259.98c-2.966,0-5.378-2.412-5.378-5.378c0-2.967,2.412-5.381,5.378-5.381
								c2.966,0,5.378,2.414,5.378,5.381C53.82,257.568,51.408,259.98,48.442,259.98z M48.442,250.222
								c-2.414,0-4.378,1.966-4.378,4.381c0,2.414,1.964,4.378,4.378,4.378c2.414,0,4.378-1.964,4.378-4.378
								C52.82,252.188,50.856,250.222,48.442,250.222z"/>

        <path style="fill:#18463B;" d="M50.973,254.602c0,1.396-1.134,2.528-2.531,2.528c-1.396,0-2.529-1.132-2.529-2.528
							c0-1.397,1.133-2.53,2.529-2.53C49.839,252.072,50.973,253.205,50.973,254.602z"/>


        <path style="fill:#18463B;" d="M121.516,282.686c0,0-1.898-0.818-4.505-1.652c0.218,0.09,0.342,0.143,0.342,0.143
					c4.966,7.89,4.106,12.562,3.495,14.229c1.276,0.834,2.565,1.59,3.842,2.217C124.689,297.623,127.863,292.771,121.516,282.686z"/>
        <path style="opacity:0.4;fill:#18463B;" d="M149.352,275.942c0,0-6.235,4.195-16.854,7.361l-0.005,0.004
					c0,0,1.354,1.135,4.058,2.864c8.137-2.898,12.801-6.042,12.801-6.042c12.811-8.007,22.655-10.341,28.811-10.855
					c0.826-0.48,1.672-0.933,2.542-1.34c0,0-2.291-1.51-6.22-2.369C168.367,266.629,159.86,269.375,149.352,275.942z"/>
        <path style="opacity:0.4;fill:#18463B;" d="M89.518,274.095l-13.538-5.671c0,0-2.355-0.605-3.011-2.361
					c-0.713,0.114-1.12,0.191-1.12,0.191c-1.12,3.361,2.987,4.41,2.987,4.41l13.538,5.671c10.923-0.186,16.524-8.026,16.524-8.026
					c-0.207-0.1-0.422-0.189-0.633-0.282C101.827,270.361,96.89,273.97,89.518,274.095z"/>
        <path style="opacity:0.4;fill:#18463B;" d="M123.882,287.158c0.849,4.278-0.5,6.378-0.5,6.378
					c-7.027-3.445-14.457-10.75-17.87-14.343c-0.536,0.3-0.846,0.896-0.613,1.999c0,0,10.27,11.762,19.791,16.431
					C124.689,297.623,126.897,294.199,123.882,287.158z"/>

        <path style="opacity:0.3;fill:#FFFFFF;" d="M120.116,241.969c-0.196,2.494-10.381,3.729-22.749,2.757s-22.234-3.782-22.039-6.276
				c0.196-2.494,10.381-3.728,22.749-2.756C110.444,236.666,120.312,239.475,120.116,241.969z"/>
        <path style="opacity:0.3;fill:#FFFFFF;" d="M132.494,247.77c0,2.392-1.938,4.329-4.329,4.329c-2.391,0-4.33-1.938-4.33-4.329
				c0-2.392,1.938-4.329,4.33-4.329C130.556,243.441,132.494,245.379,132.494,247.77z"/>
		
	</g>
    <g id="fish2">

        <path style="fill:#F4673C;" d="M29.222,120.682c0,0,38.055-37.426,72.965-36.797c0,0,37.742,5.032,64.475,13.837
							c0,0,18.556,7.234,29.249-0.314c0,0,8.492,12.58,0,23.273c0,0-17.299-0.943-33.023,5.976c0,0-17.297,11.322-68.248,8.177
							l-44.032-1.572c0,0-15.411-2.831-21.387-5.976l4.088-2.516L29.222,120.682z"/>
        <path style="opacity:0.5;fill:#F4673C;" d="M94.641,134.835c50.95,3.145,68.248-8.177,68.248-8.177
							c15.725-6.919,33.023-5.976,33.023-5.976c3.061-3.854,3.909-7.952,3.75-11.619c-15.09,3.595-32.999,1.434-32.999,1.434
							c-26.733-8.806-64.475-13.838-64.475-13.838c-22.903-0.412-53.424,14.78-71.71,25.278l2.833,2.833l-4.088,2.516
							c5.976,3.145,21.387,5.976,21.387,5.976L94.641,134.835z"/>


        <path style="fill:#F2B171;" d="M162.889,121.389c0,0-17.297,11.321-68.248,8.176l-44.032-1.573
										c0,0-12.064-2.217-18.983-4.907l1.685,1.685l-4.088,2.516c5.976,3.145,21.387,5.976,21.387,5.976l44.032,1.572
										c50.95,3.145,68.248-8.177,68.248-8.177c15.725-6.919,33.023-5.976,33.023-5.976c1.456-1.832,2.402-3.719,2.988-5.59
										C192.741,115.141,175.578,115.805,162.889,121.389z"/>


        <path style="fill:#B23F2A;" d="M33.311,124.771l-4.088,2.516c5.976,3.145,21.387,5.976,21.387,5.976l4.613,0.164
							c3.418-0.955,5.555-1.77,5.555-1.77c17.174-12.87,5.245-24.263,5.245-24.263s-4.355-3.695-11.481-6.607
							c-14.911,9.671-25.318,19.896-25.318,19.896L33.311,124.771z"/>
        <path style="fill:#B23F2A;"
              d="M73.584,130.117c0,0,23.574,7.232,17.598,14.152c0,0-8.806,5.661-25.161-14.152H73.584z"/>
        <path style="fill:#B23F2A;" d="M114.454,132.947l-5.48,2.423c14.018,10.286,23.723,7.642,23.723,7.642
							C135.214,126.343,114.454,132.947,114.454,132.947z"/>
        <path style="fill:#7D2C1D;" d="M70.929,117.837h-0.007c0.226-2.932-1.038-6.402-4.9-10.443c0,0,10.263,12.559-8.53,22.723
							c0,0,4.359-1.343,8.118-4.117c-1.161,2.073-2.725,4.14-4.832,5.657c0,0,8.275-3.491,9.946-12.538
							c0.09-0.381,0.152-0.771,0.188-1.172C70.915,117.909,70.925,117.876,70.929,117.837z"/>

        <path style="fill:#B23F2A;" d="M102.188,83.885c0,0,37.742,5.032,64.475,13.837c38.684-6.604-20.757-16.354-20.757-16.354
								c-25.476-2.516-20.443-17.298-20.443-17.298c-16.983,1.887-24.846,19.813-24.846,19.813l0.04,0.025
								C101.166,83.902,101.679,83.876,102.188,83.885z"/>
        <path style="fill:#B23F2A;" d="M215.097,109.632c19.186-11.05,14.782-22.781,14.782-22.781
								c-15.412-5.525-33.967,10.558-33.967,10.558s8.492,12.58,0,23.273c13.838,14.153,34.403,13.523,34.403,13.523
								C231.694,121.94,215.097,109.632,215.097,109.632z"/>
        <path style="fill:#B23F2A;" d="M177.354,122.239c-4.602,0.896-9.609,2.282-14.466,4.419c0,0-2.476,1.617-8.296,3.458v0.001
								c0,0,23.079,18.871,32.514,10.379C187.106,140.496,187.099,125.055,177.354,122.239z"/>


        <path style="fill:#FBB03B;" d="M54.63,116.019c0,3.155-2.556,5.711-5.71,5.711c-3.153,0-5.709-2.556-5.709-5.711
								c0-3.154,2.556-5.711,5.709-5.711C52.074,110.308,54.63,112.864,54.63,116.019z"/>
        <path style="fill:#7D2C1D;" d="M51.88,116.019c0,1.635-1.325,2.96-2.96,2.96c-1.634,0-2.961-1.325-2.961-2.96
								c0-1.635,1.327-2.96,2.961-2.96C50.556,113.059,51.88,114.383,51.88,116.019z"/>


        <path style="fill:#F79274;" d="M60.52,100.787c31.821-17.163,67.686-9.437,67.686-9.437
						C88.781,78.762,60.52,100.787,60.52,100.787z"/>

        <path style="opacity:0.5;fill:#B23F2A;" d="M177.354,122.239c-4.602,0.896-9.609,2.282-14.466,4.419
					c0,0-2.476,1.617-8.296,3.458v0.001c0,0,2.254,1.842,5.64,4.117c1.828-0.814,2.656-1.357,2.656-1.357
					c7.245-3.188,14.819-4.704,20.886-5.415C182.34,125.087,180.292,123.088,177.354,122.239z"/>


        <path style="opacity:0.2;fill:#FFFFFF;" d="M125.18,100.124c-0.196,2.494-10.381,3.729-22.749,2.757
					c-12.368-0.972-22.234-3.782-22.039-6.276c0.196-2.494,10.381-3.728,22.748-2.756C115.508,94.822,125.375,97.63,125.18,100.124z
					"/>
        <circle style="opacity:0.2;fill:#FFFFFF;" cx="133.229" cy="105.926" r="4.329"/>
			
		
	</g>
    <g id="fish3">
		<path style="opacity:0.3;fill:#808080;" d="M270.833,117.392c0.02,0.135,0.038,0.27,0.067,0.403
			c0.018,0.085,0.044,0.168,0.066,0.252c0.03,0.12,0.06,0.239,0.099,0.357c0.028,0.088,0.064,0.175,0.097,0.263
			c0.041,0.112,0.082,0.224,0.13,0.335c0.038,0.089,0.083,0.177,0.126,0.265c0.052,0.107,0.103,0.215,0.16,0.322
			c0.048,0.088,0.101,0.174,0.152,0.262c0.063,0.104,0.125,0.21,0.192,0.313c0.057,0.087,0.117,0.172,0.178,0.258
			c0.072,0.103,0.146,0.205,0.223,0.306c0.065,0.084,0.132,0.168,0.2,0.251c0.082,0.101,0.166,0.202,0.254,0.302
			c0.071,0.081,0.146,0.163,0.221,0.244c0.093,0.1,0.188,0.2,0.286,0.299c0.077,0.079,0.157,0.157,0.237,0.235
			c0.105,0.1,0.211,0.2,0.319,0.298c0.083,0.075,0.166,0.15,0.252,0.224c0.115,0.101,0.234,0.2,0.354,0.299
			c0.086,0.071,0.173,0.142,0.261,0.212c0.129,0.102,0.26,0.202,0.394,0.302c0.088,0.066,0.176,0.133,0.266,0.198
			c0.143,0.105,0.292,0.208,0.441,0.311c0.085,0.059,0.169,0.117,0.255,0.175c0.163,0.11,0.331,0.218,0.501,0.326
			c0.079,0.051,0.157,0.102,0.238,0.152c0.188,0.117,0.381,0.233,0.576,0.349c0.065,0.038,0.129,0.078,0.195,0.117
			c0.229,0.133,0.464,0.265,0.702,0.396c0.035,0.02,0.068,0.039,0.104,0.059c12.655,6.907,36.645,9.981,36.645,9.981
			c3.547,0.818,7.076,1.485,10.575,2.025l-0.001,0c0,0-0.648,2.334-1.258,5.479c-0.003,0.015-0.006,0.028-0.009,0.043l0,0
			c-1.492,7.717-2.735,20.276,6.347,15.487c0,0,23.685-5.523,10.133-17.877c-0.05-0.045-0.102-0.091-0.151-0.136
			c-0.222-0.199-0.454-0.4-0.695-0.603c-0.069-0.059-0.138-0.117-0.209-0.175c-0.301-0.248-0.612-0.498-0.943-0.751
			c24.826,1.719,46.832-2.388,59.678-5.65c0.001,0.001,0.784,1.159,2.093,2.882c0.002,0.002,0.004,0.004,0.005,0.006
			c0.216,0.284,0.446,0.584,0.69,0.896c0.005,0.007,0.011,0.015,0.017,0.021c0.239,0.308,0.492,0.627,0.756,0.957
			c0.004,0.004,0.007,0.009,0.011,0.013l0,0c6.494,8.096,19.971,22.022,24.33,4.583c0,0,2.494-4.389-2.887-10.313l0,0
			c0,0,0-0.001-0.001-0.001c-0.146-0.161-0.3-0.323-0.457-0.485c-0.036-0.038-0.072-0.075-0.109-0.112
			c-0.153-0.156-0.31-0.312-0.474-0.469c-0.046-0.045-0.096-0.09-0.142-0.134c-0.278-0.263-0.572-0.528-0.883-0.795
			c-0.094-0.081-0.185-0.162-0.281-0.244c-0.12-0.1-0.247-0.202-0.371-0.302c-0.158-0.128-0.317-0.256-0.482-0.385
			c-0.115-0.089-0.232-0.179-0.351-0.268c-0.199-0.151-0.405-0.303-0.616-0.455c-0.101-0.073-0.2-0.146-0.304-0.219
			c-0.322-0.228-0.652-0.456-1-0.686c-2.431,0.566-4.984,1.22-7.671,1.994c17.724-5.112,30.22-5.312,32.523-5.301
			c0.046,0.001,0.088,0.001,0.127,0.002c-0.037-0.001-0.073-0.001-0.111-0.002c0.169,0.001,0.283,0.003,0.336,0.004
			c-0.023,0-0.058-0.001-0.103-0.001c0.085,0.001,0.141,0.002,0.141,0.002c36.924,25.377,25.967,5.597,25.967,5.597
			c-4.191-8.384-3.262-20.729-3.262-20.729c8.152-30.977-21.191,0-21.191,0c-16.269,0.756-28.373-5.297-28.373-5.297
			s2.554,1.268,6.858,2.569c0.02-0.044,2.211-4.968,7.544-8.214c0,0-6.057-17.633-28.18-20.927c0,0-8.617,6.589-14.205,14.573
			l0.163,0.269c-0.631-0.21-1.261-0.417-1.888-0.621h0.004l1.721-7.502c-24.686-28.877-66.605-22.354-66.605-22.354
			c-5.588,10.248-5.208,24.43-5.208,24.43l0.001,0.001c-27.099,9.337-45.857,30.262-45.857,30.262c0,0.212,0.013,0.423,0.034,0.632
			C270.807,117.248,270.823,117.32,270.833,117.392z M409.756,100.669c0.036,0.017,0.073,0.034,0.109,0.051
			C409.829,100.703,409.792,100.686,409.756,100.669z M339.323,81.922c0.246-0.008,0.493-0.015,0.739-0.021
			C339.816,81.907,339.569,81.914,339.323,81.922z M337.233,82.026c0.205-0.014,0.411-0.024,0.617-0.036
			C337.645,82.002,337.438,82.013,337.233,82.026z M335.364,82.173c-0.066,0.006-0.133,0.011-0.198,0.017
			c0.081-0.007,0.162-0.015,0.243-0.022C335.394,82.169,335.379,82.172,335.364,82.173z M410.294,129.81
			c0.01-0.004,0.025-0.009,0.032-0.012C410.316,129.802,410.309,129.805,410.294,129.81z M413.069,102.292
			c0.073,0.037,0.147,0.075,0.22,0.112C413.216,102.367,413.143,102.329,413.069,102.292z M406.403,99.136
			c-0.01-0.004-0.018-0.009-0.028-0.013C406.385,99.127,406.394,99.132,406.403,99.136z M385.028,91.17
			c-0.063-0.02-0.124-0.039-0.185-0.059C384.904,91.13,384.966,91.15,385.028,91.17z M383.238,90.609
			c-0.023-0.007-0.048-0.015-0.072-0.022C383.19,90.594,383.215,90.602,383.238,90.609z M379.813,89.572
			c-0.061-0.019-0.123-0.037-0.186-0.055C379.69,89.536,379.752,89.554,379.813,89.572z M378.151,89.085
			c-0.055-0.016-0.109-0.031-0.163-0.047C378.042,89.054,378.097,89.069,378.151,89.085z M374.818,88.14
			c-0.071-0.02-0.142-0.039-0.213-0.059C374.677,88.101,374.747,88.12,374.818,88.14z M373.276,87.716
			c-0.079-0.021-0.158-0.043-0.237-0.064C373.118,87.673,373.197,87.694,373.276,87.716z M370.077,86.862
			c-0.056-0.014-0.11-0.028-0.166-0.043C369.967,86.834,370.021,86.848,370.077,86.862z M368.68,86.501
			c-0.091-0.023-0.182-0.046-0.271-0.07C368.498,86.454,368.589,86.478,368.68,86.501z M367.155,86.113
			c-0.033-0.008-0.066-0.017-0.1-0.025C367.089,86.097,367.122,86.105,367.155,86.113z M365.698,85.751
			c-0.038-0.01-0.076-0.019-0.114-0.028C365.622,85.731,365.66,85.741,365.698,85.751z M364.419,85.438
			c-0.079-0.019-0.158-0.038-0.236-0.057C364.262,85.399,364.34,85.418,364.419,85.438z M363.089,85.118
			c-0.043-0.01-0.087-0.021-0.13-0.031C363.002,85.097,363.046,85.107,363.089,85.118z M360.632,84.543
			c-0.08-0.019-0.159-0.037-0.239-0.055C360.473,84.506,360.551,84.524,360.632,84.543z M359.502,84.285
			c-0.058-0.013-0.116-0.026-0.174-0.04C359.386,84.258,359.444,84.271,359.502,84.285z M357.343,83.804
			c-0.057-0.013-0.112-0.025-0.169-0.037C357.23,83.779,357.286,83.791,357.343,83.804z M356.41,83.602
			c-0.047-0.01-0.095-0.021-0.142-0.03C356.315,83.581,356.363,83.592,356.41,83.602z M354.664,83.231
			c-0.048-0.01-0.095-0.02-0.143-0.029C354.57,83.212,354.615,83.221,354.664,83.231z M353.987,83.091
			c-0.062-0.013-0.123-0.025-0.184-0.038C353.864,83.066,353.925,83.079,353.987,83.091z M353.314,82.954
			c-0.039-0.008-0.08-0.016-0.118-0.024C353.234,82.938,353.275,82.946,353.314,82.954z M352.666,82.824
			c-0.037-0.007-0.07-0.014-0.106-0.021C352.596,82.81,352.629,82.816,352.666,82.824z M352.199,82.731
			c-0.04-0.008-0.079-0.016-0.117-0.023C352.121,82.716,352.159,82.724,352.199,82.731z M351.786,82.651
			c-0.031-0.006-0.065-0.013-0.096-0.019C351.721,82.638,351.754,82.645,351.786,82.651z M351.164,82.532
			c-0.007-0.001-0.013-0.002-0.02-0.004C351.152,82.53,351.156,82.531,351.164,82.532z M351.046,82.51
			c-0.017-0.003-0.035-0.006-0.047-0.008C351.012,82.503,351.025,82.506,351.046,82.51z M345.764,81.997
			c0.278,0.016,0.556,0.03,0.834,0.049C346.319,82.026,346.042,82.013,345.764,81.997z M348.143,82.177
			c0.212,0.019,0.423,0.036,0.635,0.058c-0.205-0.021-0.409-0.036-0.614-0.056C348.156,82.178,348.149,82.177,348.143,82.177z
			 M344.423,81.928c-0.281-0.011-0.563-0.017-0.843-0.024C343.86,81.911,344.142,81.918,344.423,81.928z M342.245,81.88
			c-0.098,0-0.196,0.001-0.294,0c-0.071,0-0.144-0.004-0.215-0.004C341.906,81.876,342.076,81.879,342.245,81.88z"/>


        <path style="fill:#D2D3E8;" d="M268.349,110.701c0,0,35.939-40.102,80.201-34.049c0,0,39.345,7.188,65.45,21.563
						c0,0,12.104,6.054,28.373,5.297c0,0,13.617,7.945-1.514,15.132c0,0-13.239-0.377-32.912,5.296c0,0-46.156,17.023-95.338,5.674
						C312.609,129.616,268.35,123.944,268.349,110.701z"/>
        <path style="fill:#D2D3E8;" d="M319.622,108.122c0,0,20.226-16.124,22.231,0.334c0,0-3.243,20.814-23.54,5.635
						C318.314,114.09,322.966,110.53,319.622,108.122z"/>
        <path style="fill:#CDBEC3;" d="M407.947,115.249c0,0-46.156,17.024-95.338,5.673c0,0-31.443-4.03-41.325-13.227
						c-1.9,1.855-2.936,3.006-2.936,3.006c0.001,13.243,44.261,18.915,44.261,18.915c49.182,11.349,95.338-5.674,95.338-5.674
						c19.673-5.674,32.912-5.296,32.912-5.296c5.767-2.739,7.351-5.586,7.111-8.063
						C439.696,110.568,422.346,111.096,407.947,115.249z"/>

        <path style="fill:#B6966D;" d="M400.242,126.345c-0.144,0.042-0.287,0.082-0.434,0.122
							C399.957,126.427,400.098,126.387,400.242,126.345z"/>
        <path style="fill:#B6966D;" d="M404.918,124.956c-0.096,0.031-0.19,0.06-0.29,0.092
							C404.728,125.015,404.821,124.986,404.918,124.956z"/>
        <path style="fill:#B6966D;" d="M405.973,124.617c-0.084,0.028-0.178,0.057-0.266,0.086
							C405.797,124.673,405.888,124.645,405.973,124.617z"/>
        <path style="fill:#B6966D;" d="M407.512,124.096c-0.048,0.016-0.096,0.033-0.15,0.053
							C407.423,124.128,407.462,124.114,407.512,124.096z"/>
        <path style="fill:#B6966D;" d="M436.06,118.799c0.299-0.019,0.593-0.037,0.865-0.052
							C436.65,118.762,436.361,118.78,436.06,118.799z"/>
        <path style="fill:#B6966D;" d="M407.856,123.975c-0.022,0.009-0.063,0.022-0.093,0.033
							C407.809,123.991,407.828,123.984,407.856,123.975z"/>
        <path style="fill:#B6966D;" d="M395.958,127.487c-0.184,0.047-0.374,0.094-0.558,0.141
							C395.586,127.581,395.774,127.534,395.958,127.487z"/>
        <path style="fill:#B6966D;" d="M438.674,118.67c0.216-0.007,0.415-0.012,0.601-0.016
							C439.088,118.659,438.893,118.664,438.674,118.67z"/>
        <path style="fill:#B6966D;" d="M437.49,118.718c0.256-0.013,0.503-0.023,0.731-0.032
							C437.992,118.695,437.751,118.706,437.49,118.718z"/>
        <path style="fill:#B6966D;" d="M439.61,118.647c0.186-0.004,0.347-0.004,0.494-0.005
							C439.956,118.643,439.802,118.644,439.61,118.647z"/>
        <path style="fill:#B6966D;" d="M407.947,123.942c1.165-0.336,2.303-0.647,3.42-0.942
							C410.25,123.295,409.112,123.606,407.947,123.942z"/>
        <path style="fill:#B6966D;" d="M401.928,125.865c-0.13,0.037-0.266,0.076-0.396,0.114
							C401.664,125.94,401.797,125.902,401.928,125.865z"/>
        <path style="fill:#B6966D;" d="M353.095,133.446c-0.351,0.01-0.699,0.02-1.052,0.027
							C352.395,133.466,352.744,133.456,353.095,133.446z"/>
        <path style="fill:#B6966D;" d="M356.9,133.307c-0.336,0.017-0.676,0.029-1.014,0.044
							C356.225,133.335,356.564,133.323,356.9,133.307z"/>
        <path style="fill:#B6966D;" d="M268.543,110.489c0.381-0.413,1.318-1.405,2.741-2.794
							c9.882,9.197,41.325,13.227,41.325,13.227c12.299,2.838,24.4,3.902,35.648,3.902c33.725,0,59.69-9.575,59.69-9.575
							c14.219-4.101,31.31-4.667,39.707-4.667c0.107,0,0.212,0,0.316,0c0.014,0.121,0.016,0.244,0.019,0.367
							c-0.027-1.247-0.525-2.405-1.222-3.421c-9.155,0.041-25.679,0.749-39.668,4.784l-0.104,0.031l-0.105,0.038
							c-0.254,0.094-25.897,9.387-58.632,9.387c-12.207,0-23.969-1.287-34.962-3.823l-0.147-0.035l-0.15-0.02
							c-8.427-1.081-31.837-5.394-39.49-12.309C270.78,108.107,269.071,109.917,268.543,110.489z"/>
        <path style="fill:#B6966D;" d="M268.537,110.496c-0.066,0.073-0.107,0.116-0.135,0.146
							C268.434,110.607,268.478,110.559,268.537,110.496z"/>
        <path style="fill:#B6966D;" d="M364.992,132.749c-0.318,0.029-0.637,0.059-0.957,0.086
							C364.355,132.808,364.673,132.778,364.992,132.749z"/>
        <path style="fill:#B6966D;" d="M375.869,131.468c-0.28,0.039-0.561,0.081-0.844,0.122
							C375.308,131.549,375.587,131.509,375.869,131.468z"/>
        <path style="fill:#B6966D;" d="M368.51,132.403c-0.304,0.033-0.611,0.064-0.914,0.095
							C367.898,132.467,368.206,132.436,368.51,132.403z"/>
        <path style="fill:#B6966D;" d="M379.029,130.982c-0.266,0.043-0.537,0.086-0.807,0.128
							C378.492,131.068,378.763,131.026,379.029,130.982z"/>
        <path style="fill:#B6966D;" d="M388.246,129.27c-0.224,0.047-0.455,0.095-0.683,0.142
							C387.791,129.364,388.021,129.317,388.246,129.27z"/>
        <path style="fill:#B6966D;" d="M393.713,128.04c-0.198,0.047-0.395,0.095-0.597,0.143
							C393.32,128.135,393.515,128.088,393.713,128.04z"/>
        <path style="fill:#B6966D;" d="M385.513,129.823c-0.239,0.048-0.479,0.094-0.724,0.141
							C385.034,129.917,385.273,129.871,385.513,129.823z"/>
        <path style="fill:#B6966D;" d="M445.189,115.994c0.084-0.069,0.159-0.138,0.237-0.206
							C445.349,115.855,445.273,115.925,445.189,115.994z"/>
        <path style="fill:#B6966D;" d="M446.471,114.742c0.061-0.07,0.126-0.14,0.182-0.209
							C446.597,114.602,446.531,114.672,446.471,114.742z"/>
        <path style="fill:#B6966D;" d="M447.058,113.976c0.059-0.087,0.107-0.175,0.158-0.261
							C447.167,113.801,447.116,113.889,447.058,113.976z"/>
        <path style="fill:#B6966D;" d="M444.258,116.701c0.052-0.036,0.108-0.073,0.158-0.109
							C444.367,116.628,444.31,116.665,444.258,116.701z"/>
        <path style="fill:#B6966D;" d="M447.398,113.392c0.051-0.099,0.1-0.197,0.145-0.294
							C447.498,113.194,447.449,113.293,447.398,113.392z"/>
        <path style="fill:#B6966D;" d="M446.109,115.144c-0.076,0.078-0.157,0.156-0.238,0.236
							C445.952,115.3,446.033,115.222,446.109,115.144z"/>
        <path style="fill:#B6966D;" d="M447.657,112.814c0.038-0.101,0.08-0.203,0.111-0.304
							C447.737,112.611,447.695,112.713,447.657,112.814z"/>
        <path style="fill:#B6966D;" d="M447.992,111.121c-0.003,0.116-0.008,0.235-0.018,0.352
							C447.984,111.354,447.989,111.237,447.992,111.121z"/>
        <path style="fill:#B6966D;" d="M442.065,118.036c0.119-0.063,0.229-0.126,0.344-0.19
							C442.295,117.909,442.184,117.973,442.065,118.036z"/>
        <path style="fill:#B6966D;" d="M443.166,117.408c0.111-0.067,0.223-0.133,0.329-0.2
							C443.389,117.275,443.277,117.341,443.166,117.408z"/>
        <path style="fill:#B6966D;" d="M447.826,112.291c0.057-0.211,0.097-0.418,0.123-0.624
							C447.923,111.873,447.883,112.081,447.826,112.291z"/>
        <path style="fill:#B6966D;" d="M434.36,118.925c0.358-0.029,0.714-0.059,1.044-0.082
							C435.073,118.866,434.72,118.896,434.36,118.925z"/>
        <path style="fill:#B6966D;" d="M424.685,120.139c0.553-0.092,1.085-0.175,1.615-0.255
							C425.77,119.965,425.238,120.046,424.685,120.139z"/>
        <path style="fill:#B6966D;" d="M427.23,119.742c0.603-0.086,1.177-0.165,1.744-0.238
							C428.407,119.578,427.833,119.655,427.23,119.742z"/>
        <path style="fill:#B6966D;" d="M429.576,119.422c0.748-0.094,1.461-0.177,2.141-0.249
							C431.037,119.245,430.324,119.329,429.576,119.422z"/>
        <path style="fill:#B6966D;" d="M421.951,120.619c0.565-0.105,1.116-0.202,1.658-0.296
							C423.066,120.417,422.518,120.514,421.951,120.619z"/>
        <path style="fill:#B6966D;"
              d="M440.719,118.643c0.085,0.001,0.141,0.002,0.141,0.002S440.811,118.644,440.719,118.643z"/>
        <path style="fill:#B6966D;" d="M432.267,119.119c0.482-0.049,0.957-0.096,1.401-0.137
							C433.224,119.022,432.749,119.069,432.267,119.119z"/>
        <path style="fill:#B6966D;" d="M412.475,122.718c0.733-0.186,1.464-0.372,2.175-0.542
							C413.938,122.346,413.208,122.531,412.475,122.718z"/>
        <path style="fill:#B6966D;" d="M440.321,118.64c-0.009,0-0.027,0-0.035,0c0.133,0,0.226,0.001,0.312,0.003
							C440.515,118.641,440.443,118.64,440.321,118.64z"/>
        <path style="fill:#B6966D;" d="M415.903,121.884c0.632-0.146,1.263-0.29,1.877-0.423
							C417.166,121.594,416.537,121.738,415.903,121.884z"/>
        <path style="fill:#B6966D;" d="M419.034,121.195c0.587-0.122,1.168-0.238,1.735-0.351
							C420.202,120.957,419.623,121.073,419.034,121.195z"/>

        <path style="fill:#D2D3E8;" d="M268.349,110.701c0,6.979,12.291,11.853,23.919,14.903l3.743-3.097
						c0,0,15.982-8.14,5.473-20.621c0,0,2.801-9.28-8.395-11.248C277.855,100.113,268.349,110.701,268.349,110.701z"/>


        <path style="fill:#65535F;" d="M336.397,133.109l-0.011-0.009c-4.322-0.299-8.728-0.78-13.186-1.468l-0.017,0.01
								c0,0-7.729,27.763,5.08,21.01C328.264,152.652,354.08,146.634,336.397,133.109z"/>
        <path style="fill:#65535F;" d="M314.213,80.441c10.413-3.587,22.053-5.47,34.337-3.789c0,0,16.811,3.072,35.743,9.213h0.004
								l1.721-7.502c-24.686-28.877-66.605-22.354-66.605-22.354c-5.588,10.247-5.208,24.43-5.208,24.43L314.213,80.441z"/>
        <path style="fill:#65535F;" d="M386.184,86.491c9.47,3.151,19.339,7.057,27.816,11.725c0,0,2.554,1.268,6.858,2.569
								c0.02-0.045,2.211-4.968,7.544-8.214c0,0-6.057-17.633-28.18-20.927c0,0-8.617,6.589-14.205,14.573L386.184,86.491z"/>
        <path style="fill:#65535F;" d="M466.826,124.242c-4.191-8.384-3.262-20.729-3.262-20.729c8.152-30.977-21.191,0-21.191,0
								s13.617,7.945-1.514,15.132C477.783,144.023,466.826,124.242,466.826,124.242z"/>
        <path style="fill:#65535F;" d="M415.618,121.948c-2.431,0.565-4.984,1.22-7.671,1.994c0,0-4.385,1.614-11.868,3.514
								l-0.004,0.002c0,0,22.08,32.646,27.901,9.358C423.977,136.817,427.843,130.033,415.618,121.948z"/>


        <path style="fill:#4E3F42;" d="M301.483,101.886c9.078,15.13-14.297,22.251-14.32,22.258c1.771,0.551,3.571,1.063,5.352,1.527
						l0,0C318.246,113.36,301.483,101.886,301.483,101.886z"/>
        <path style="fill:#4E3F42;" d="M278.174,111.677c-3.204-5.075-7.432-3.441-7.446-3.435c-1.546,1.533-2.379,2.46-2.379,2.46
						c0,0.88,0.208,1.724,0.573,2.536c2.117-2.97,7.11,1.249,7.11,1.249c8.295,6.422,11.131,3.211,11.131,3.211
						C283.443,118.767,278.174,111.677,278.174,111.677z"/>
        <path style="fill:#65535F;" d="M316.574,107.133c0,0,21.941-17.394,23.948-0.937c0,0-1.069,18.463-22.209,7.894
						C318.314,114.09,319.918,109.541,316.574,107.133z"/>
        <path style="fill:#897A81;" d="M412.634,110.665c0,0,2.124-5.286,0.005-13.176C386.55,83.602,348.55,76.652,348.55,76.652
						c-16.855-2.305-32.496,2.089-45.411,8.407c0.044,0.038,4.123,3.485,5.181,6.653c0,0,4.337-1.969,2.174-5.498
						c0,0,13.222,5.063,14.284,14.57c0,0,6.103-10.4,5.838-19.159c0,0,14.332,12.158,14.865,29.038c0,0,10.582-14.97,4.627-29.038
						c0,0,7.49,7.904,8.066,17.223c0,0,6.416-4.763,4.825-12.984c0,0,8.228,10.624,5.574,30.266c0,0,11.681-10.037,8.495-26.386
						c0,0,12.949,6.743,13.109,17.095c0,0,3.375-6.779,2.816-12.476c0,0,8.657,7.384,7.646,16.299c0,0,4.031-4.942,2.173-11.815
						C402.813,98.85,410.778,103.076,412.634,110.665z"/>

        <path style="fill:#FFD855;stroke:#4E3F42;stroke-miterlimit:10;" d="M291.73,103.419c0,2.523-2.044,4.568-4.567,4.568
							c-2.523,0-4.568-2.044-4.568-4.568c0-2.524,2.045-4.569,4.568-4.569C289.686,98.85,291.73,100.895,291.73,103.419z"/>
        <path style="fill:#4E3F42;" d="M289.532,103.419c0,1.308-1.061,2.368-2.369,2.368c-1.308,0-2.367-1.06-2.367-2.368
							c0-1.309,1.06-2.369,2.367-2.369C288.471,101.05,289.532,102.11,289.532,103.419z"/>


        <path style="opacity:0.3;fill:#FFFFFF;" d="M301.643,89.746c0,0,31.986-23.627,83.508,0.893
					C385.15,90.638,337.445,77.299,301.643,89.746z"/>
        <path style="opacity:0.3;fill:#65535F;" d="M341.853,139.108c-0.874-1.807-2.585-3.802-5.456-5.999l-0.011-0.009
					c-4.322-0.299-8.728-0.78-13.186-1.468l-0.017,0.01c0,0-0.653,2.356-1.267,5.522
					C328.717,138.273,335.396,138.873,341.853,139.108z"/>
        <path style="opacity:0.3;fill:#65535F;" d="M421.09,126.503c-1.311-1.442-3.079-2.974-5.472-4.556
					c-2.431,0.565-4.984,1.22-7.671,1.994c0,0-4.385,1.614-11.868,3.514l-0.004,0.002c0,0,1.394,2.06,3.571,4.775
					c5.287-1.461,8.301-2.569,8.301-2.569C412.745,128.279,417.154,127.26,421.09,126.503z"/>


        <path style="opacity:0.3;fill:#FFFFFF;" d="M366.314,94.889c-0.197,2.494-10.382,3.729-22.75,2.757
					c-12.367-0.972-22.234-3.782-22.038-6.276c0.196-2.494,10.381-3.728,22.749-2.756C356.643,89.586,366.51,92.395,366.314,94.889z
					"/>
        <path style="opacity:0.3;fill:#FFFFFF;" d="M378.692,100.691c0,2.392-1.939,4.329-4.329,4.329c-2.392,0-4.33-1.938-4.33-4.329
					c0-2.392,1.938-4.329,4.33-4.329C376.754,96.362,378.692,98.299,378.692,100.691z"/>
			
		
	</g>
    <g id="fish4">

        <path style="fill:#627E96;" d="M467.766,219.865c-18.759,1.444-27.601,25.756-27.601,25.756v6.956
						c11.363,25.495,26.397,25.972,26.397,25.972C436.74,248.486,467.766,219.865,467.766,219.865z"/>


        <path style="fill:#C4D6EC;" d="M268.928,252.577c0,0,51.905-60.468,171.237-6.956c0,0,14.698,4.019,0,6.956
						c0,0-107.019,48.851-171.237,7.913l9.242-3.443L268.928,252.577z"/>

        <g style="opacity:0.5;">
					<path style="fill:#C4D6EC;" d="M323.938,248.508c0,0,20.444-6.834,36.077,1.824c0,0-7.215,8.463-22.126,10.484
						C337.89,260.816,326.163,257.047,323.938,248.508z"/>
				</g>
        <g style="opacity:0.5;">
					
						<path style="fill:#C4D6EC;" d="M276.397,257.707l-7.47,2.783c55.35,35.283,142.485,3.871,165.5-5.48
							C398.72,265.535,324.77,282.203,276.397,257.707z"/>
					
				</g>

        <path style="fill:#E2CD8C;" d="M440.165,245.621c-119.332-53.512-171.237,6.956-171.237,6.956l4.614,2.231
						c11.381-6.917,38.402-20.156,78.417-20.156c27.625,0,56.85,6.23,86.923,18.492c0.838-0.363,1.283-0.567,1.283-0.567
						C454.863,249.64,440.165,245.621,440.165,245.621z"/>


        <path style="fill:#3C4A77;" d="M444.465,251.4c6.854-2.729-4.3-5.779-4.3-5.779c-119.332-53.512-171.237,6.956-171.237,6.956
							l0.632,0.306C287.929,241.078,348.912,210.792,444.465,251.4z"/>


        <path style="fill:#DEECF3;" d="M268.928,252.577l9.242,4.47l-9.242,3.443c9.275,5.913,19.448,9.943,30.06,12.527
						c5.76,0.064,8.676-0.811,8.676-0.811c17.779-4.807,11.851-23.699,11.851-23.699c-2.198-7.625-9.355-13.043-17.445-16.839
						C279.502,240.266,268.928,252.577,268.928,252.577z"/>


        <path style="fill:#023859;" d="M278.17,257.047l-9.242,3.443c4.889,0.955,15.24,1.32,15.24,1.32L278.17,257.047z"/>


        <path style="fill:#023859;" d="M319.514,248.508c0,0,3.117,19.021-11.851,23.699
							C307.663,272.207,326.997,272.207,319.514,248.508z"/>


        <path style="fill:#627E96;" d="M323.938,248.508c0,0,20.444-10.604,36.077-1.945c0,0-7.215,8.463-22.126,10.484
							C337.89,257.047,330.435,256.467,323.938,248.508z"/>

        <g style="opacity:0.5;">
						
							<path style="fill:#627E96;" d="M337.89,253.391c0,0-7.484-0.107-13.747-4.651c6.445,7.727,13.747,8.308,13.747,8.308
								c13.971-1.893,21.185-9.442,22.04-10.387C355.107,248.939,347.076,252.146,337.89,253.391z"/>
						
					</g>

        <path style="fill:#627E96;" d="M368.692,224.716l0.006-0.008c-18.975-5.258-37.543-20.715-37.543-20.715
							c-6.012,7.937-6.122,21.48-6.122,21.48l0.014,0.003C337.412,223.38,351.926,222.745,368.692,224.716z"/>


        <path style="fill:#627E96;" d="M384.741,227.289l0.003-0.002c-0.283-4.362-3.473-6.7-3.473-6.7l11.212-13.948
							c-12.506,1.924-22.422,18.234-22.422,18.234l0.008,0.01C374.784,225.473,379.67,226.261,384.741,227.289z"/>


        <path style="fill:#627E96;" d="M390.424,269.225l-0.005-0.002c-3.464,0.854-7.043,1.674-10.713,2.438v0.002
							c0,0,5.804,9.531,21.435,9.773C401.141,281.435,390.529,278.66,390.424,269.225z"/>


        <path style="fill:#627E96;" d="M340.535,276.69c-5.925,0.232-11.889,0.199-17.819-0.17l-0.003,0.002
							c0,0,5.797,13.33,14.455,18.381c0,0,7.461-11.414,3.369-18.213H340.535z"/>


        <path style="fill:#4685A5;" d="M299.845,247.822c0,3.342-2.709,6.051-6.052,6.051c-3.343,0-6.051-2.709-6.051-6.051
								c0-3.344,2.708-6.053,6.051-6.053C297.136,241.77,299.845,244.479,299.845,247.822z"/>
        <path style="fill:#023859;" d="M293.793,254.496c-3.682,0-6.676-2.993-6.676-6.674c0-3.682,2.994-6.676,6.676-6.676
								c3.681,0,6.676,2.994,6.676,6.676C300.469,251.503,297.474,254.496,293.793,254.496z M293.793,242.393
								c-2.993,0-5.428,2.436-5.428,5.43c0,2.992,2.435,5.428,5.428,5.428c2.993,0,5.429-2.436,5.429-5.428
								C299.222,244.828,296.786,242.393,293.793,242.393z"/>


        <path style="fill:#023859;" d="M296.931,247.822c0,1.731-1.406,3.137-3.138,3.137c-1.733,0-3.137-1.405-3.137-3.137
								c0-1.734,1.404-3.139,3.137-3.139C295.524,244.684,296.931,246.088,296.931,247.822z"/>


        <g style="opacity:0.5;">
					
						<path style="fill:#627E96;" d="M341.743,281.264c-0.037-1.625-0.376-3.195-1.206-4.574h-0.002
							c-5.925,0.232-11.889,0.199-17.819-0.17l-0.003,0.002c0,0,0.874,2.006,2.445,4.754
							C330.685,281.533,336.232,281.516,341.743,281.264z"/>
					
				</g>
        <g style="opacity:0.5;">
					
						<path style="fill:#627E96;" d="M390.419,269.223c-3.464,0.854-7.043,1.674-10.713,2.438v0.002c0,0,1.099,1.797,3.615,3.852
							c2.74-0.605,5.427-1.238,8.042-1.891c-0.561-1.275-0.921-2.726-0.939-4.398L390.419,269.223z"/>
					
				</g>
        <g style="opacity:0.5;">
					
						<path style="fill:#FFFFFF;"
                              d="M316.458,231.669c0,0,30.757-11.35,71.906,0C388.364,231.669,355.06,225.621,316.458,231.669z"/>
					
				</g>


        <path style="opacity:0.4;fill:#FFFFFF;" d="M373.156,239.095c-0.197,2.495-10.382,3.73-22.75,2.757
					c-12.367-0.971-22.234-3.782-22.038-6.276c0.196-2.494,10.381-3.727,22.749-2.756
					C363.484,233.792,373.352,236.601,373.156,239.095z"/>
        <path style="opacity:0.4;fill:#FFFFFF;" d="M385.534,244.896c0,2.393-1.938,4.33-4.329,4.33c-2.392,0-4.33-1.938-4.33-4.33
					c0-2.391,1.938-4.328,4.33-4.328C383.596,240.568,385.534,242.506,385.534,244.896z"/>
			
		
	</g>
    <g id="fish5">


        <path style="fill:#6B3D26;" d="M435.161,389.286c0,0,14.661-15.741,32.464-15.603c0,0-4.213,2.309-4.757,5.435
						c0,0-4.074,11.01-10.599,12.501c0,0,7.612,2.581,10.737,14.403c0,0,1.492,3.94,4.618,5.98c0,0-18.186-0.568-32.464-18.97
						V389.286z"/>
        <path style="fill:#E1C49C;" d="M271.185,391.202c0,0,53.201-41.574,169.462,0c0,0-96.881,35.232-171.578,4.933l5.839-1.059
						L271.185,391.202z"/>
        <path style="opacity:0.4;fill:#6B3D26;" d="M316.602,387.696c0,0,12.006-4.831,22.549,1.318c0,0-8.052,8.152-16.984,5.834
						C322.166,394.849,317.918,392.82,316.602,387.696z"/>


        <path style="fill:#D5806B;" d="M269.068,396.135c74.697,30.299,171.578-4.933,171.578-4.933
									S343.852,415.232,269.068,396.135z"/>


        <path style="fill:#E1C49C;" d="M274.907,395.076l-5.839,1.059c12.87,5.221,26.401,8.495,39.979,10.34
									c6.569-14.064-2.925-24.128-8.083-28.275c-20.102,5.447-29.779,13.003-29.779,13.003L274.907,395.076z"/>


        <path style="fill:#BF9076;" d="M302.79,393.049c0,0,8.47,4.757,2.136,12.819c2.188,0.346,4.379,0.648,6.57,0.917
						c4.182-5.257,10.264-17.263-7.831-29.287c-2.466,0.616-4.791,1.265-6.972,1.936
						C300.063,381.783,305.015,386.519,302.79,393.049z"/>


        <path style="fill:#8F6744;"
              d="M440.646,391.202c-116.261-41.574-169.462,0-169.462,0S319.972,359.684,440.646,391.202z"/>


        <path style="fill:#6B3D26;" d="M274.907,395.076l6.026,2.863c0,0-4.825,0.224-11.865-1.805L274.907,395.076z"/>
        <path style="fill:#6B3D26;" d="M302.79,393.049c8.594,7.19,0.198,12.351,0.009,12.465c0.974,0.165,1.947,0.327,2.922,0.476
						C314.344,397.535,302.79,393.049,302.79,393.049z"/>

        <path style="fill:#6B3D26;" d="M354.836,372.961l0.023-0.005c-7.186-3.444-13.199-13.272-13.199-13.272l-4.077,4.485
							l-1.224-2.854c-4.894,3.806-7.498,12.078-7.498,12.078l0.007,0.004C336.694,372.734,345.346,372.523,354.836,372.961z"/>
        <path style="fill:#6B3D26;" d="M412.231,382.302h0.035l3.042-2.369c-7.475-1.495-15.084-10.056-15.084-10.056
							c-2.445,1.493-7.285,7.888-7.285,7.888l0.019,0.011C399.136,379.017,405.559,380.516,412.231,382.302z"/>
        <path style="fill:#6B3D26;" d="M392.349,403.473l-0.002,0.004c0,0,2.441,5.535,8.285,8.39l14.677-13.272l-0.002-0.002
							C408.635,400.242,400.888,401.952,392.349,403.473z"/>
        <path style="fill:#6B3D26;" d="M331.732,408.315c-2.995-0.092-6.004-0.241-9.021-0.452l-0.004,0.007
							c0,0,3.055,8.482,8.218,12.015c0,0,2.167-6.009,0.811-11.565L331.732,408.315z"/>

        <path style="fill:#6B3D26;" d="M315.849,385.897c0,0,12.007-4.833,22.551,1.318c0,0-8.054,8.15-16.986,5.833
						C321.413,393.049,317.167,391.022,315.849,385.897z"/>
        <path style="opacity:0.4;fill:#6B3D26;" d="M321.413,390.109c0,0-3.36-1.2-5.521-4.072c1.36,5.017,5.521,7.012,5.521,7.012
						c8.933,2.317,16.986-5.833,16.986-5.833S330.346,392.428,321.413,390.109z"/>

        <path style="fill:#FFD855;stroke:#594135;stroke-miterlimit:10;" d="M296.698,391.202c0,3.212-2.602,5.813-5.813,5.813
							c-3.212,0-5.814-2.6-5.814-5.813c0-3.212,2.602-5.815,5.814-5.815C294.097,385.387,296.698,387.99,296.698,391.202z"/>
        <path style="fill:#594135;" d="M293.898,391.202c0,1.666-1.351,3.013-3.014,3.013c-1.665,0-3.014-1.347-3.014-3.013
							c0-1.668,1.349-3.016,3.014-3.016C292.548,388.186,293.898,389.534,293.898,391.202z"/>


        <path style="fill:#8F6744;" d="M346.545,390.427c0,1.176-0.953,2.127-2.127,2.127c-1.176,0-2.129-0.951-2.129-2.127
					c0-1.176,0.953-2.13,2.129-2.13C345.592,388.297,346.545,389.251,346.545,390.427z"/>
        <path style="fill:#8F6744;" d="M353.76,390.427c0,1.176-0.953,2.127-2.128,2.127c-1.175,0-2.128-0.951-2.128-2.127
					c0-1.176,0.953-2.13,2.128-2.13C352.807,388.297,353.76,389.251,353.76,390.427z"/>
        <path style="fill:#8F6744;" d="M360.975,390.427c0,1.176-0.952,2.127-2.125,2.127c-1.178,0-2.131-0.951-2.131-2.127
					c0-1.176,0.953-2.13,2.131-2.13C360.022,388.297,360.975,389.251,360.975,390.427z"/>
        <path style="fill:#8F6744;" d="M368.189,390.427c0,1.176-0.952,2.127-2.127,2.127s-2.129-0.951-2.129-2.127
					c0-1.176,0.954-2.13,2.129-2.13S368.189,389.251,368.189,390.427z"/>
        <path style="fill:#8F6744;" d="M375.404,390.427c0,1.176-0.952,2.127-2.127,2.127s-2.129-0.951-2.129-2.127
					c0-1.176,0.954-2.13,2.129-2.13S375.404,389.251,375.404,390.427z"/>
        <path style="fill:#8F6744;" d="M382.62,390.427c0,1.176-0.953,2.127-2.126,2.127c-1.177,0-2.131-0.951-2.131-2.127
					c0-1.176,0.954-2.13,2.131-2.13C381.667,388.297,382.62,389.251,382.62,390.427z"/>
        <path style="fill:#8F6744;" d="M389.835,390.427c0,1.176-0.953,2.127-2.128,2.127s-2.129-0.951-2.129-2.127
					c0-1.176,0.954-2.13,2.129-2.13S389.835,389.251,389.835,390.427z"/>
        <path style="fill:#8F6744;" d="M397.05,390.427c0,1.176-0.953,2.127-2.128,2.127c-1.175,0-2.129-0.951-2.129-2.127
					c0-1.176,0.954-2.13,2.129-2.13C396.097,388.297,397.05,389.251,397.05,390.427z"/>
        <path style="fill:#8F6744;" d="M404.265,390.427c0,1.176-0.953,2.127-2.126,2.127c-1.177,0-2.131-0.951-2.131-2.127
					c0-1.176,0.954-2.13,2.131-2.13C403.311,388.297,404.265,389.251,404.265,390.427z"/>


        <path style="fill:#8F6744;" d="M345.852,385.373c0,0.794-0.642,1.437-1.434,1.437c-0.793,0-1.436-0.643-1.436-1.437
							c0-0.791,0.643-1.435,1.436-1.435C345.211,383.938,345.852,384.582,345.852,385.373z"/>
        <path style="fill:#8F6744;" d="M345.135,381.87c0,0.399-0.322,0.72-0.717,0.72c-0.398,0-0.718-0.32-0.718-0.72
							c0-0.393,0.319-0.716,0.718-0.716C344.813,381.154,345.135,381.477,345.135,381.87z"/>


        <path style="fill:#8F6744;" d="M353.066,385.373c0,0.794-0.642,1.437-1.435,1.437c-0.794,0-1.435-0.643-1.435-1.437
							c0-0.791,0.641-1.435,1.435-1.435C352.425,383.938,353.066,384.582,353.066,385.373z"/>
        <path style="fill:#8F6744;" d="M352.349,381.87c0,0.399-0.319,0.72-0.717,0.72c-0.397,0-0.718-0.32-0.718-0.72
							c0-0.393,0.32-0.716,0.718-0.716C352.029,381.154,352.349,381.477,352.349,381.87z"/>


        <path style="fill:#8F6744;" d="M360.283,385.373c0,0.794-0.643,1.437-1.434,1.437c-0.795,0-1.438-0.643-1.438-1.437
							c0-0.791,0.644-1.435,1.438-1.435C359.641,383.938,360.283,384.582,360.283,385.373z"/>
        <path style="fill:#8F6744;" d="M359.564,381.87c0,0.399-0.32,0.72-0.715,0.72c-0.4,0-0.721-0.32-0.721-0.72
							c0-0.393,0.32-0.716,0.721-0.716C359.244,381.154,359.564,381.477,359.564,381.87z"/>


        <path style="fill:#8F6744;" d="M367.497,385.373c0,0.794-0.642,1.437-1.435,1.437c-0.795,0-1.435-0.643-1.435-1.437
							c0-0.791,0.641-1.435,1.435-1.435C366.855,383.938,367.497,384.582,367.497,385.373z"/>
        <path style="fill:#8F6744;" d="M366.779,381.87c0,0.399-0.321,0.72-0.717,0.72c-0.398,0-0.718-0.32-0.718-0.72
							c0-0.393,0.319-0.716,0.718-0.716C366.458,381.154,366.779,381.477,366.779,381.87z"/>


        <path style="fill:#8F6744;" d="M374.711,385.373c0,0.794-0.642,1.437-1.434,1.437c-0.795,0-1.435-0.643-1.435-1.437
							c0-0.791,0.641-1.435,1.435-1.435C374.069,383.938,374.711,384.582,374.711,385.373z"/>
        <path style="fill:#8F6744;" d="M373.993,381.87c0,0.399-0.319,0.72-0.716,0.72c-0.396,0-0.719-0.32-0.719-0.72
							c0-0.393,0.322-0.716,0.719-0.716C373.674,381.154,373.993,381.477,373.993,381.87z"/>


        <path style="fill:#8F6744;" d="M381.928,385.373c0,0.794-0.643,1.437-1.434,1.437c-0.794,0-1.438-0.643-1.438-1.437
							c0-0.791,0.645-1.435,1.438-1.435C381.285,383.938,381.928,384.582,381.928,385.373z"/>
        <path style="fill:#8F6744;" d="M381.209,381.87c0,0.399-0.32,0.72-0.715,0.72c-0.399,0-0.721-0.32-0.721-0.72
							c0-0.393,0.321-0.716,0.721-0.716C380.889,381.154,381.209,381.477,381.209,381.87z"/>


        <path style="fill:#8F6744;" d="M389.142,385.373c0,0.794-0.642,1.437-1.435,1.437c-0.793,0-1.436-0.643-1.436-1.437
							c0-0.791,0.643-1.435,1.436-1.435C388.5,383.938,389.142,384.582,389.142,385.373z"/>
        <path style="fill:#8F6744;" d="M388.424,381.87c0,0.399-0.321,0.72-0.717,0.72c-0.397,0-0.718-0.32-0.718-0.72
							c0-0.393,0.32-0.716,0.718-0.716C388.102,381.154,388.424,381.477,388.424,381.87z"/>


        <path style="fill:#8F6744;" d="M396.356,385.373c0,0.794-0.642,1.437-1.435,1.437c-0.794,0-1.436-0.643-1.436-1.437
							c0-0.791,0.642-1.435,1.436-1.435C395.714,383.938,396.356,384.582,396.356,385.373z"/>


        <path style="fill:#8F6744;" d="M403.573,385.373c0,0.794-0.643,1.437-1.434,1.437c-0.795,0-1.439-0.643-1.439-1.437
							c0-0.791,0.644-1.435,1.439-1.435C402.93,383.938,403.573,384.582,403.573,385.373z"/>


        <path style="fill:#8F6744;" d="M345.851,395.782c0-0.795-0.641-1.438-1.435-1.438c-0.794,0-1.435,0.643-1.435,1.438
							c0,0.791,0.641,1.436,1.435,1.436C345.21,397.218,345.851,396.573,345.851,395.782z"/>
        <path style="fill:#8F6744;" d="M345.133,399.283c0-0.397-0.321-0.718-0.717-0.718c-0.397,0-0.717,0.32-0.717,0.718
							c0,0.396,0.319,0.718,0.717,0.718C344.811,400.001,345.133,399.679,345.133,399.283z"/>


        <path style="fill:#8F6744;" d="M353.066,395.782c0-0.795-0.643-1.438-1.436-1.438c-0.794,0-1.435,0.643-1.435,1.438
							c0,0.791,0.641,1.436,1.435,1.436C352.424,397.218,353.066,396.573,353.066,395.782z"/>
        <path style="fill:#8F6744;" d="M352.349,399.283c0-0.397-0.32-0.718-0.718-0.718c-0.397,0-0.718,0.32-0.718,0.718
							c0,0.396,0.32,0.718,0.718,0.718C352.028,400.001,352.349,399.679,352.349,399.283z"/>


        <path style="fill:#8F6744;" d="M360.28,395.782c0-0.795-0.641-1.438-1.435-1.438c-0.793,0-1.436,0.643-1.436,1.438
							c0,0.791,0.643,1.436,1.436,1.436C359.64,397.218,360.28,396.573,360.28,395.782z"/>
        <path style="fill:#8F6744;" d="M359.563,399.283c0-0.397-0.32-0.718-0.718-0.718c-0.398,0-0.717,0.32-0.717,0.718
							c0,0.396,0.319,0.718,0.717,0.718C359.243,400.001,359.563,399.679,359.563,399.283z"/>


        <path style="fill:#8F6744;" d="M367.495,395.782c0-0.795-0.641-1.438-1.434-1.438c-0.795,0-1.435,0.643-1.435,1.438
							c0,0.791,0.641,1.436,1.435,1.436C366.854,397.218,367.495,396.573,367.495,395.782z"/>
        <path style="fill:#8F6744;" d="M366.777,399.283c0-0.397-0.32-0.718-0.716-0.718c-0.398,0-0.718,0.32-0.718,0.718
							c0,0.396,0.319,0.718,0.718,0.718C366.457,400.001,366.777,399.679,366.777,399.283z"/>


        <path style="fill:#8F6744;" d="M374.711,395.782c0-0.795-0.642-1.438-1.434-1.438c-0.795,0-1.436,0.643-1.436,1.438
							c0,0.791,0.641,1.436,1.436,1.436C374.068,397.218,374.711,396.573,374.711,395.782z"/>
        <path style="fill:#8F6744;" d="M373.993,399.283c0-0.397-0.32-0.718-0.717-0.718c-0.398,0-0.719,0.32-0.719,0.718
							c0,0.396,0.321,0.718,0.719,0.718C373.673,400.001,373.993,399.679,373.993,399.283z"/>


        <path style="fill:#8F6744;" d="M381.925,395.782c0-0.795-0.641-1.438-1.434-1.438c-0.794,0-1.436,0.643-1.436,1.438
							c0,0.791,0.643,1.436,1.436,1.436C381.284,397.218,381.925,396.573,381.925,395.782z"/>
        <path style="fill:#8F6744;" d="M381.208,399.283c0-0.397-0.32-0.718-0.717-0.718c-0.397,0-0.718,0.32-0.718,0.718
							c0,0.396,0.32,0.718,0.718,0.718C380.888,400.001,381.208,399.679,381.208,399.283z"/>


        <path style="fill:#8F6744;" d="M389.14,395.782c0-0.795-0.641-1.438-1.434-1.438c-0.794,0-1.436,0.643-1.436,1.438
							c0,0.791,0.642,1.436,1.436,1.436C388.499,397.218,389.14,396.573,389.14,395.782z"/>
        <path style="fill:#8F6744;" d="M388.422,399.283c0-0.397-0.319-0.718-0.716-0.718c-0.397,0-0.718,0.32-0.718,0.718
							c0,0.396,0.32,0.718,0.718,0.718C388.102,400.001,388.422,399.679,388.422,399.283z"/>


        <path style="fill:#8F6744;" d="M396.356,395.782c0-0.795-0.643-1.438-1.435-1.438c-0.794,0-1.436,0.643-1.436,1.438
							c0,0.791,0.642,1.436,1.436,1.436C395.713,397.218,396.356,396.573,396.356,395.782z"/>


        <path style="fill:#8F6744;" d="M403.57,395.782c0-0.795-0.642-1.438-1.435-1.438c-0.793,0-1.438,0.643-1.438,1.438
							c0,0.791,0.645,1.436,1.438,1.436C402.929,397.218,403.57,396.573,403.57,395.782z"/>


        <path style="opacity:0.5;fill:#6B3D26;" d="M415.309,398.595l-0.002-0.002c-6.672,1.649-14.419,3.359-22.958,4.88l-0.002,0.004
					c0,0,0.495,1.114,1.564,2.6c6.147-1.125,11.872-2.34,17.053-3.551L415.309,398.595z"/>
        <path style="opacity:0.5;fill:#6B3D26;" d="M331.735,408.318l-0.003-0.004c-2.995-0.092-6.004-0.241-9.021-0.452l-0.004,0.007
					c0,0,0.448,1.24,1.289,2.97c2.725,0.174,5.444,0.294,8.15,0.372C332.095,410.254,331.971,409.279,331.735,408.318z"/>


        <path style="opacity:0.4;fill:#FFFFFF;" d="M373.633,382.33c-0.197,2.495-10.382,3.729-22.75,2.757
					c-12.367-0.971-22.234-3.782-22.038-6.276c0.196-2.494,10.381-3.727,22.749-2.756
					C363.961,377.027,373.828,379.836,373.633,382.33z"/>
        <path style="opacity:0.4;fill:#FFFFFF;" d="M386.011,388.132c0,2.393-1.938,4.33-4.329,4.33c-2.392,0-4.33-1.938-4.33-4.33
					c0-2.391,1.938-4.328,4.33-4.328C384.072,383.804,386.011,385.741,386.011,388.132z"/>
			
		
	</g>
    <g id="fish6">


        <path style="fill:#E9CCD0;" d="M30.229,394.523c0,0,66.878-44.354,145.886-11.088c0,0,8.317,2.428,22.524,1.733
					c0,0,11.434,5.543,2.772,14.9c0,0-23.563-2.08-50.592,5.197c0,0-69.998,14.207-120.59-2.08l8.664-3.117L30.229,394.523z"/>
        <path style="opacity:0.5;fill:#3A4445;" d="M80.137,395.366c0,0,38.401-9.05,24.141,7.219c0,0-8.436,6.829-20.286,0
					C83.991,402.585,76.12,397.695,80.137,395.366z"/>
        <path style="fill:#708976;" d="M198.64,385.168c-14.207,0.695-22.524-1.733-22.524-1.733
					c-78.199-32.926-144.504,10.18-145.853,11.067h174.277C205.624,388.555,198.64,385.168,198.64,385.168z"/>
        <path style="fill:#3A4445;" d="M176.115,387.767c0,0,11.666,4.2,27.703,2.263c-1.647-3.137-5.179-4.861-5.179-4.861
					c-14.207,0.695-22.524-1.733-22.524-1.733c-78.199-32.926-144.504,10.18-145.853,11.067h7.568
					C57.485,384.21,112.916,361.157,176.115,387.767z"/>
        <path style="fill:#C4A7AC;" d="M38.894,400.068l-8.664,3.117c11.051,3.559,23.028,5.66,34.999,6.774
					c20.004-12.682,2.881-24.563-5.646-29.187c-18.35,6.454-29.353,13.751-29.353,13.751L38.894,400.068z"/>
        <path style="fill:#E9CCD0;"
              d="M60.667,387.277c0,0,8.838,14.461-5.223,15.867C55.444,403.145,76.533,404.75,60.667,387.277z"/>
        <path style="fill:#A9AA98;" d="M80.351,395.23c0,0,36.557-11.164,22.296,5.104c0,0-8.436,6.83-20.286,0
					C82.36,400.334,76.334,397.56,80.351,395.23z"/>

        <path style="fill:#B0A869;" d="M176.115,383.435c0,0,0.702,0.201,2.007,0.467l6.475-3.656
						c-5.021-11.449-27.117-20.891-27.117-20.891c-10.846,2.611-18.94,13.453-18.94,13.453l0.019,0.01
						C150.593,374.639,163.189,377.992,176.115,383.435z"/>
        <path style="fill:#B0A869;" d="M224.569,373.016c-15.467,0.803-25.93,12.152-25.93,12.152s11.434,5.543,2.772,14.9
						c0,0-1.424-0.127-3.96-0.205c13.654,13.586,27.118,12.32,27.118,12.32c10.645-7.633,0-21.148,0-21.148
						C235.415,377.721,224.569,373.016,224.569,373.016z"/>
        <g style="opacity:0.4;">
						<path style="fill:#B0A869;" d="M224.569,406.846c0,0-10.376,0.973-22.148-7.98c-0.304,0.395-0.631,0.794-1.01,1.203
							c0,0-1.424-0.127-3.96-0.205c13.654,13.586,27.118,12.32,27.118,12.32c4.615-3.311,5.226-7.725,4.439-11.665
							C228.479,402.789,227.155,404.992,224.569,406.846z"/>
					</g>
        <path style="fill:#B0A869;" d="M134.167,372.215l0.014-0.004c-21.29-30.326-49.012-15.068-49.012-15.068
						c-6.629,7.232-7.476,18.336-7.476,18.336l0.008,0.002C93.749,371.719,113.017,369.633,134.167,372.215z"/>
        <path style="fill:#A9AA98;" d="M97.829,410.877c-4.117,0.117-8.353,0.16-12.659,0.103l-0.001,0.002
						c3.816,19.885,14.262,14.66,14.262,14.66C114.875,416.416,97.879,410.893,97.829,410.877z"/>
        <path style="fill:#A9AA98;" d="M150.819,405.266c0,0-1.488,0.301-4.173,0.766c0.003,0.002,8.224,7.76,20.071,9.166
						c0,0,11.252-2.783,6.832-14.246C166.637,401.76,158.885,403.094,150.819,405.266z"/>


        <path style="fill:#FFEB79;" d="M57.497,393.48c0,3.078-2.493,5.568-5.568,5.568c-3.074,0-5.567-2.49-5.567-5.568
							c0-3.076,2.493-5.569,5.567-5.569C55.004,387.911,57.497,390.404,57.497,393.48z"/>
        <path style="fill:#3A4445;" d="M51.929,399.682c-3.419,0-6.2-2.781-6.2-6.201c0-3.42,2.781-6.203,6.2-6.203
							c3.419,0,6.201,2.783,6.201,6.203C58.13,396.9,55.348,399.682,51.929,399.682z M51.929,388.545
							c-2.721,0-4.934,2.214-4.934,4.936c0,2.721,2.213,4.935,4.934,4.935c2.722,0,4.935-2.215,4.935-4.935
							C56.863,390.759,54.65,388.545,51.929,388.545z"/>

        <path style="fill:#3A4445;" d="M54.814,393.48c0,1.596-1.292,2.888-2.886,2.888c-1.594,0-2.888-1.292-2.888-2.888
						s1.294-2.887,2.888-2.887C53.522,390.594,54.814,391.885,54.814,393.48z"/>

        <path style="opacity:0.6;fill:#A9AA98;" d="M97.829,410.877c-4.117,0.117-8.353,0.16-12.659,0.103l-0.001,0.002
					c0.31,1.611,0.666,3.043,1.054,4.341c6.325,0.059,12.485-0.093,18.333-0.38C102.262,412.32,97.854,410.885,97.829,410.877z"/>
        <path style="opacity:0.6;fill:#A9AA98;" d="M174.544,405.166c-0.088-1.256-0.392-2.652-0.994-4.215
					c-6.913,0.809-14.665,2.143-22.73,4.314c0,0-1.488,0.301-4.173,0.766c0.001,0,1.69,1.586,4.621,3.45
					C159.558,407.277,167.512,405.947,174.544,405.166z"/>
        <path style="fill:#3A4445;" d="M65.398,384.395c0.111,0.1,13.336,11.875,3.674,22.751
					C79.745,398.07,72.741,389.67,65.398,384.395z"/>
        <polygon style="fill:#3A4445;" points="30.229,403.185 35.842,398.115 38.894,400.068 				"/>
        <path style="fill:#3A4445;" d="M77.693,377.965l7.476,5.938l1.663-8.422l5.627,7.302l2.403-7.863l3.124,3.985l2.99-3.985
					l8.636,7.863l3.653-9.026l2.823,4.65l4.339-4.65l2.803,7.078l2.159-7.078l6.975,9.026l2.657-7.302l4.816,7.302l4.484-7.302
					l1.495,7.302l2.989-5.206l3.155,6.326l3.155-4.998l5.479,7.308l2.327-5.378l3.986,7.077l1.826-5.129l4.65,8.253l2.325-5.487
					l-0.715-2.568c-40.877-16.857-78.422-13.043-105.028-5.502v2.237l7.726,8.196V377.965z"/>

        <path style="opacity:0.2;fill:#FFFFFF;" d="M130.446,376.072c0.377,3.159-12.016,7.241-27.683,9.116
				c-15.666,1.874-28.673,0.831-29.051-2.327c-0.377-3.16,12.016-7.24,27.682-9.114
				C117.061,371.873,130.067,372.914,130.446,376.072z"/>
        <circle style="opacity:0.2;fill:#FFFFFF;" cx="132.01" cy="383.902" r="4.329"/>
		
	</g>

</svg>
