<svg version="1.1" xmlns="http://www.w3.org/2000/svg" xmlns:xlink="http://www.w3.org/1999/xlink" x="0px" y="0px"
     viewBox="0 0 500 500" style="enable-background:new 0 0 500 500;" xml:space="preserve">
    <g  id="fish1">
        <path id="fff" style="opacity:0.3;fill:#808080;"
              d="M211.316,260.521c18.484-12.697,18.484-26.665,18.484-26.665    c-21.846-0.152-41.898,17.48-41.898,17.48c-15.834,0.813-33.698-10.058-33.698-10.058c-3.341-2.165-6.617-4.054-9.833-5.721    c0.006,0.004,0.013,0.006,0.019,0.01c3.855-2.467,9.415-4.734,9.415-4.734c-9.336-8.962-2.614-23.713-2.614-23.713    c-18.111-0.373-35.961,19.004-35.961,19.004l0.001,0.006c-40.032-5.023-64.559,25.205-64.559,25.205    c-14.713,6.35-18.787,11.34-18.203,15.084c0.003,0.023,0.007,0.047,0.011,0.069c0.785,4.567,8.497,7.267,12.185,8.305    c0.005,0.002,0.011,0.003,0.016,0.005c0.017,0.005,0.032,0.009,0.048,0.014c0.24,0.066,0.462,0.127,0.664,0.18    c0.005,0.001,0.009,0.003,0.014,0.004c0.009,0.002,0.016,0.004,0.024,0.006c0.263,0.069,0.487,0.125,0.668,0.169    c0.014,0.003,0.031,0.007,0.045,0.011c0.006,0.001,0.013,0.003,0.019,0.004c0.285,0.068,0.449,0.103,0.449,0.103    c7.715,1.625,28.299,9.339,28.299,9.339c13.906,6.198,26.737,8.163,37.775,7.965c2.9,2.789,6.676,6.104,10.579,8.657l0,0    l0.001,0.001c1.276,0.835,2.565,1.591,3.84,2.216c0,0,0.032-0.055,0.075-0.135c0.006-0.012,0.01-0.02,0.017-0.032    c0.025-0.049,0.053-0.11,0.086-0.183c0.003-0.007,0.006-0.014,0.01-0.022c0.465-1.039,1.459-4.364-0.995-10.094l0,0l0,0    c-0.225-0.525-0.482-1.072-0.769-1.639c3.416-0.599,6.554-1.368,9.382-2.211c0.001,0.001,0.02,0.016,0.047,0.039    c0.01,0.008,0.013,0.01,0.026,0.021c0.084,0.068,0.245,0.196,0.485,0.381c0.008,0.006,0.015,0.012,0.023,0.018    c0.251,0.192,0.584,0.439,1.001,0.737c0.002,0.001,0.004,0.003,0.005,0.004c0.42,0.3,0.921,0.647,1.507,1.037    c0.01,0.006,0.02,0.013,0.03,0.019c4.354,2.892,13.267,8.016,26.787,12.059l-2.054-7.157h2.054l-1.68-3.701    c0,0,6.907-11.371,17.441-17.492c0.38-0.221,0.766-0.435,1.155-0.642c0.042-0.022,0.083-0.046,0.126-0.068    c0.414-0.218,0.832-0.429,1.256-0.627c0,0-2.29-1.509-6.218-2.368c7.119-1.233,10.999-0.181,10.999-0.181    c18.973,14.442,44.14,15.058,44.14,15.058C227.374,271.351,211.316,260.521,211.316,260.521z M151.699,281.831    c-0.002,0.002-0.001,0.001-0.003,0.002C151.696,281.833,151.697,281.832,151.699,281.831z M138.598,232.785    c-0.002-0.001-0.004-0.002-0.006-0.003C138.594,232.783,138.596,232.784,138.598,232.785z M170.786,272.873    c2.171-0.653,4.151-1.113,5.932-1.43C174.937,271.76,172.956,272.221,170.786,272.873z M153.798,280.55    c0.223-0.133,0.441-0.255,0.662-0.384C154.239,280.295,154.021,280.417,153.798,280.55z M155.775,279.409    c0.263-0.148,0.521-0.286,0.78-0.43C156.296,279.123,156.039,279.261,155.775,279.409z M157.697,278.359    c0.28-0.148,0.554-0.289,0.831-0.432C158.251,278.07,157.977,278.211,157.697,278.359z M159.563,277.398    c0.286-0.143,0.566-0.279,0.848-0.416C160.129,277.119,159.848,277.256,159.563,277.398z M161.376,276.519    c0.287-0.135,0.571-0.265,0.854-0.394C161.947,276.254,161.664,276.384,161.376,276.519z M163.123,275.724    c0.292-0.128,0.582-0.254,0.869-0.376C163.705,275.47,163.415,275.596,163.123,275.724z M164.814,275.005    c0.293-0.121,0.585-0.239,0.874-0.354C165.4,274.765,165.108,274.884,164.814,275.005z M166.439,274.36    c0.298-0.114,0.596-0.228,0.889-0.334C167.036,274.133,166.738,274.246,166.439,274.36z M167.992,273.789    c0.308-0.108,0.615-0.218,0.916-0.318C168.607,273.571,168.299,273.681,167.992,273.789z M169.456,273.291    c0.327-0.106,0.653-0.213,0.972-0.311C170.109,273.078,169.782,273.185,169.456,273.291z"/>


        <path style="fill:#BFDAEB;"
              d="M48.256,245.492c0,0,41.008-50.565,103.532-10.058c0,0,17.864,10.87,33.698,10.058       c0,0,14.617,6.496,0,19.894c0,0-13.397-3.654-36.134,10.556c0,0-33.132,22.331-76.858,2.842c0,0-20.584-7.714-28.299-9.339       C44.195,269.445,9.686,262.139,48.256,245.492z"/>

        <path style="opacity:0.4;fill:#18463B;"
              d="M187.548,263.324c0.081-0.088,0.171-0.178,0.249-0.266        c0.663-0.741,1.234-1.459,1.724-2.154c-4.787-1.263-16.984-1.935-40.168,11.52c0,0-33.132,22.332-76.858,2.843        c0,0-21.971-7.156-32.711-7.092c0.732,0.255,1.421,0.472,2.025,0.648c0.006,0.002,0.011,0.003,0.017,0.005        c0.13,0.038,0.255,0.074,0.377,0.108c0.021,0.007,0.042,0.013,0.063,0.019c0.109,0.03,0.216,0.059,0.318,0.088        c0.019,0.005,0.037,0.01,0.055,0.015c0.099,0.026,0.192,0.052,0.282,0.075c0.024,0.007,0.047,0.013,0.07,0.02        c0.083,0.021,0.162,0.041,0.237,0.061c0.022,0.006,0.046,0.012,0.067,0.018c0.073,0.018,0.141,0.035,0.206,0.051        c0.02,0.006,0.04,0.011,0.06,0.016c0.06,0.015,0.115,0.027,0.167,0.041c0.019,0.004,0.038,0.009,0.056,0.013        c0.044,0.011,0.082,0.019,0.119,0.028c0.021,0.005,0.047,0.011,0.066,0.016c0.022,0.005,0.04,0.009,0.059,0.013        c0.023,0.005,0.049,0.011,0.067,0.016c0.01,0.002,0.017,0.003,0.025,0.005c0.046,0.011,0.075,0.018,0.075,0.018        c7.715,1.625,28.299,9.339,28.299,9.339c43.727,19.489,76.858-2.842,76.858-2.842c22.736-14.21,36.134-10.556,36.134-10.556        c0.441-0.404,0.853-0.803,1.242-1.193C187.02,263.898,187.285,263.611,187.548,263.324z"/>

        <path style="fill:#729D93;"
              d="M151.788,250.617c0,0,22.097,9.854,37.88,10.088c7.023-10.232-4.182-15.213-4.182-15.213       c-15.834,0.813-33.698-10.058-33.698-10.058c-62.524-40.507-103.532,10.058-103.532,10.058S89.264,210.11,151.788,250.617z"/>
        <path style="fill:#425B57;"
              d="M151.788,242.949c0,0,24.291,11.104,40.125,10.291c-0.692-5.199-6.427-7.748-6.427-7.748       c-15.834,0.813-33.698-10.058-33.698-10.058c-62.524-40.507-103.532,10.058-103.532,10.058S89.264,202.442,151.788,242.949z"/>
        <path style="fill:#BFDAEB;"
              d="M121.509,285.353c0,0-6.909-2.988-12.511-3.361c0,0-4.847-4.347-4.1-0.8       c0,0,0.895,2.406,2.919,5.565c5.005,0.058,9.667-0.338,13.925-1.011C121.66,285.613,121.594,285.489,121.509,285.353z"/>

        <path style="fill:#BFDAEB;"
              d="M72.992,269.685l16.525,10.081c10.923-0.186,16.524-8.026,16.524-8.026        C93.532,265.764,72.992,269.685,72.992,269.685z"/>

        <path style="fill:#18463B;"
              d="M57.471,247.77c0,0,3.547,24.271-14.564,16.432C42.906,264.201,64.192,277.269,57.471,247.77z"/>
        <path style="fill:#18463B;"
              d="M30.289,258.242c-0.387,1.117-0.371,2.148-0.055,3.092c3.101,0.439,6.697,1.935,6.697,1.935       C35.938,260.627,32.746,259.074,30.289,258.242z"/>
        <path style="fill:#709E91;"
              d="M71.849,266.254c0,0,20.54-3.922,33.05,2.055c0,0-5.602,7.841-16.524,8.026l-13.538-5.671       C74.836,270.664,70.729,269.615,71.849,266.254z"/>
        <path style="fill:#18463B;"
              d="M100.249,266.607c-2.093,2.287-7.427,7.105-15.914,8.035l4.039,1.692       c10.923-0.186,16.524-8.026,16.524-8.026C103.443,267.613,101.877,267.057,100.249,266.607z"/>
        <path style="fill:#709E91;"
              d="M104.898,281.192c0,0,10.27,11.762,19.791,16.431c0,0,3.174-4.852-3.174-14.936       c0,0-6.909-2.988-12.511-3.361C109.005,279.325,104.151,277.646,104.898,281.192z"/>


        <path style="fill:#18463B;"
              d="M141.975,229.724c3.855-2.467,9.415-4.734,9.415-4.734         c-9.336-8.962-2.614-23.713-2.614-23.713c-18.111-0.373-35.961,19.004-35.961,19.004l0.001,0.007         C121.789,221.414,131.543,224.315,141.975,229.724z"/>
        <path style="fill:#18463B;"
              d="M185.486,265.387c18.973,14.442,44.14,15.058,44.14,15.058         c-4.668-14.936-20.726-25.767-20.726-25.767c18.484-12.697,18.484-26.665,18.484-26.665         c-21.846-0.152-41.898,17.48-41.898,17.48S200.104,251.988,185.486,265.387z"/>
        <path style="fill:#18463B;"
              d="M149.352,275.942c0,0-6.235,4.195-16.854,7.361l-0.005,0.004c0,0,9.934,8.34,29.912,14.315         l-2.054-7.157h2.054l-1.68-3.701c0,0,8.027-13.225,19.979-18.829c0,0-2.291-1.51-6.22-2.369         C168.367,266.629,159.86,269.375,149.352,275.942z"/>


        <path style="fill:#F0EB22;"
              d="M53.32,254.602c0,2.694-2.184,4.878-4.878,4.878c-2.694,0-4.878-2.184-4.878-4.878         c0-2.694,2.184-4.881,4.878-4.881C51.137,249.722,53.32,251.908,53.32,254.602z"/>
        <path style="fill:#18463B;"
              d="M48.442,259.98c-2.966,0-5.378-2.412-5.378-5.378c0-2.967,2.412-5.381,5.378-5.381         c2.966,0,5.378,2.414,5.378,5.381C53.82,257.568,51.408,259.98,48.442,259.98z M48.442,250.222         c-2.414,0-4.378,1.966-4.378,4.381c0,2.414,1.964,4.378,4.378,4.378c2.414,0,4.378-1.964,4.378-4.378         C52.82,252.188,50.856,250.222,48.442,250.222z"/>

        <path style="fill:#18463B;"
              d="M50.973,254.602c0,1.396-1.134,2.528-2.531,2.528c-1.396,0-2.529-1.132-2.529-2.528        c0-1.397,1.133-2.53,2.529-2.53C49.839,252.072,50.973,253.205,50.973,254.602z"/>


        <path style="fill:#18463B;"
              d="M121.516,282.686c0,0-1.898-0.818-4.505-1.652c0.218,0.09,0.342,0.143,0.342,0.143      c4.966,7.89,4.106,12.562,3.495,14.229c1.276,0.834,2.565,1.59,3.842,2.217C124.689,297.623,127.863,292.771,121.516,282.686z"/>
        <path style="opacity:0.4;fill:#18463B;"
              d="M149.352,275.942c0,0-6.235,4.195-16.854,7.361l-0.005,0.004      c0,0,1.354,1.135,4.058,2.864c8.137-2.898,12.801-6.042,12.801-6.042c12.811-8.007,22.655-10.341,28.811-10.855      c0.826-0.48,1.672-0.933,2.542-1.34c0,0-2.291-1.51-6.22-2.369C168.367,266.629,159.86,269.375,149.352,275.942z"/>
        <path style="opacity:0.4;fill:#18463B;"
              d="M89.518,274.095l-13.538-5.671c0,0-2.355-0.605-3.011-2.361      c-0.713,0.114-1.12,0.191-1.12,0.191c-1.12,3.361,2.987,4.41,2.987,4.41l13.538,5.671c10.923-0.186,16.524-8.026,16.524-8.026      c-0.207-0.1-0.422-0.189-0.633-0.282C101.827,270.361,96.89,273.97,89.518,274.095z"/>
        <path style="opacity:0.4;fill:#18463B;"
              d="M123.882,287.158c0.849,4.278-0.5,6.378-0.5,6.378      c-7.027-3.445-14.457-10.75-17.87-14.343c-0.536,0.3-0.846,0.896-0.613,1.999c0,0,10.27,11.762,19.791,16.431      C124.689,297.623,126.897,294.199,123.882,287.158z"/>

        <path style="opacity:0.3;fill:#FFFFFF;"
              d="M120.116,241.969c-0.196,2.494-10.381,3.729-22.749,2.757s-22.234-3.782-22.039-6.276     c0.196-2.494,10.381-3.728,22.749-2.756C110.444,236.666,120.312,239.475,120.116,241.969z"/>
        <path style="opacity:0.3;fill:#FFFFFF;"
              d="M132.494,247.77c0,2.392-1.938,4.329-4.329,4.329c-2.391,0-4.33-1.938-4.33-4.329     c0-2.392,1.938-4.329,4.33-4.329C130.556,243.441,132.494,245.379,132.494,247.77z"/>

    </g>
</svg>
