<svg version="1.1" xmlns="http://www.w3.org/2000/svg" xmlns:xlink="http://www.w3.org/1999/xlink" x="0px" y="0px" viewBox="341.0269550736729 54.46199999999994 100.11445574937318 126.71700000000016" style="enable-background:new 0 0 500 500;" xml:space="preserve"><g id="a3">
		<g>
			<path style="fill:#674EBB;" d="M389.987,116.17c-1.394-2.995-4.659-12.308-1.852-14.05c5.521-3.427,9.45-6.473,9.433-12.218     c-0.016-5.346,0.272-15.104-2.046-15.899c-1.438-0.303-2.034,0.832-2.269,1.891c-0.236,1.058,0.047,2.153,0.266,3.215     c0.666,3.223,0.757,6.565,0.267,9.82c-0.265,1.76-0.755,3.595-2.038,4.829c-1.283,1.233-4.782,2.838-5.996,1.537     c-0.63-0.675-1.852-3.154-2.03-4.06c-1.939-9.879,1.062-19.842-0.165-29.835c-0.098-0.8-0.394-1.792-1.194-1.888     c-0.95-0.114-1.411,1.113-1.538,2.061c-1.798,13.407-3.57,27.253,0.045,40.288c1.151,4.151,2.854,8.433,1.887,12.631     c-0.161,0.7-0.413,1.41-0.926,1.912c-0.925,0.904-2.485,0.862-3.608,0.219c-1.123-0.643-1.891-1.753-2.544-2.87     c-4.318-7.388-5.091-16.248-5.766-24.779c-0.468-5.918-0.935-11.835-1.403-17.753c-0.128-1.613-0.984-3.789-2.547-3.368     c-1.112,0.3-1.389,1.726-1.44,2.877c-0.724,16.282,1.693,32.697,7.078,48.08c-1.682-1.066-3.365-2.131-5.047-3.197     c-0.456-0.289-0.951-0.589-1.491-0.561c-1.659,0.086-1.565,2.686-0.531,3.987c1.949,2.451,5.063,3.618,8.051,4.556     c2.988,0.938,6.131,1.823,8.439,3.94c2.308,2.117,3.431,5.914,1.556,8.423c-1.733,2.318-5.091,2.558-7.973,2.288     c-1.679-0.158-3.404-0.437-4.831-1.335c-1.199-0.755-2.103-1.894-2.899-3.065c-8.531-12.556-6.576-29.266-10.616-43.899     c-0.385-1.394-1.563-3.121-2.849-2.459c-0.718,0.37-0.902,1.301-0.945,2.107c-0.333,6.357,2.988,12.606,2.023,18.899     c-0.063,0.412-0.167,0.86-0.501,1.109c-0.31,0.232-0.735,0.228-1.118,0.168c-2.986-0.467-4.818-3.422-6.307-6.051     c-0.765-1.35-2.498-2.854-3.58-1.743c-0.448,0.46-0.482,1.175-0.441,1.816c0.212,3.36,1.766,6.617,4.244,8.897     c2.436,2.241,5.68,3.541,7.853,6.037c2.293,2.634,3.074,6.21,4.049,9.563c1.401,4.82,3.516,9.698,7.48,12.778     c4.674,3.631,11.371,4.333,15.317,8.744c4.212,4.709,3.775,11.825,3.089,18.105c0,0-2.973,8.747-0.621,10.511     c2.352,1.764,5.412,1.176,5.412,1.176s3.274-0.608,4.584-1.646c3.41-2.705-2.574-13.072-2.698-18.776     c-0.076-3.461-0.522-7.116,1.087-10.182c2.95-5.62,10.646-6.805,14.848-11.562c1.917-2.17,3.025-5.008,5.17-6.953     c4.274-3.877,11.589-3.299,15.221-7.784c1.73-2.137,2.228-5.029,2.19-7.778c-0.039-2.749-0.55-5.477-0.57-8.226     c-0.008-1.083,0.12-2.293,0.941-2.998c1.136-0.975,2.853-0.447,4.349-0.496c2.388-0.079,4.508-1.855,5.451-4.051     c0.942-2.196,0.851-4.722,0.241-7.033c-0.188-0.71-0.738-1.578-1.426-1.323c-0.235,0.087-0.404,0.294-0.536,0.506     c-1.198,1.933-0.22,4.804-1.757,6.48c-1.277,1.393-3.505,1.121-5.356,0.739c-0.438-0.091-0.917-0.207-1.179-0.568     c-0.223-0.306-0.232-0.714-0.22-1.092c0.054-1.695,0.524-2.851,0.951-4.493c0.561-2.158,3.872-2.457,4.704-4.525     c0.263-0.655,0.226-1.387,0.185-2.092c-0.264-4.504-0.529-9.008-0.794-13.512c-1.009-0.331-1.538,1.171-1.523,2.233     c0.027,1.89,0.053,3.78,0.08,5.671c0.022,1.536,0.032,3.131-0.604,4.529c-0.635,1.399-2.114,2.541-3.626,2.271     c-1.68-0.3-2.637-2.111-2.974-3.784c-0.701-3.483,0.184-7.173-0.739-10.604c-0.162-0.601-0.668-1.326-1.234-1.066     c-1.377,4.579-1.328,9.577,0.139,14.128c0.425,1.317,0.968,2.614,1.119,3.99c0.207,1.883-0.335,3.756-0.732,5.609     c-0.82,3.826-1.035,7.783-0.633,11.675c0.306,2.959,0.932,6.12-0.402,8.78c-0.823,1.641-2.298,2.856-3.835,3.859     c-1.273,0.831-2.671,1.568-4.188,1.682c-1.516,0.114-3.173-0.529-3.877-1.877c-0.806-1.545-0.161-3.452,0.75-4.938     c0.912-1.486,2.106-2.867,2.477-4.57c0.538-2.468-0.677-5.428,0.942-7.367c1.072-1.284,2.989-1.525,4.206-2.673     c1.601-1.509,1.521-4.049,1.169-6.22c-0.378-2.333-0.933-4.637-1.658-6.887c-0.091-0.283-0.241-0.614-0.537-0.649     c-0.343-0.041-0.569,0.347-0.661,0.68c-0.415,1.508-0.075,3.106,0.225,4.641c0.3,1.535,0.551,3.17-0.021,4.625     c-0.572,1.455-2.276,2.58-3.716,1.969c-1.455-0.617-1.818-2.475-1.98-4.047c-0.144-1.399-0.282-2.858,0.211-4.175     c0.302-0.808,0.826-1.514,1.181-2.301c0.793-1.757,0.693-3.771,0.548-5.693c-0.595-7.888-1.685-15.738-3.262-23.489     c-0.208-1.022-0.703-2.284-1.746-2.286c-2.634,8.572,1.308,17.645,1.906,26.592c0.027,0.409,0.044,0.836-0.121,1.211     c-0.314,0.71-1.185,1.002-1.961,0.988c-2.088-0.039-3.854-1.734-4.634-3.672c-0.78-1.937-0.779-4.088-0.772-6.176     c0.007-2.089-0.004-4.241-0.805-6.17c-0.163-0.392-0.446-0.828-0.87-0.818c-0.568,0.014-0.76,0.758-0.777,1.326     c-0.13,4.285,0.179,8.583,0.922,12.805c0.177,1.007,0.388,2.034,0.917,2.91c0.967,1.602,2.832,2.448,3.982,3.924     c1.169,1.501,1.476,3.479,1.745,5.362c0.446,3.126,0.892,6.253,1.338,9.379c0.166,1.163,0.329,2.371-0.018,3.493     c-0.208,0.673-0.656,1.305-1.234,1.689l-0.457,0.212c-1.172,0.543-2.642,0.19-3.584-0.694c-0.941-0.884-1.385-2.214-1.375-3.505     c0.005-0.657,0.116-1.326-0.04-1.965c-0.156-0.639-0.693-1.255-1.349-1.213c-0.981,0.063-1.284,1.345-1.316,2.328     c-0.072,2.168-0.121,4.445,0.873,6.374c0.98,1.901,2.856,3.217,3.844,5.114c1.026,1.97,0.969,4.305,0.888,6.525     c-0.062,1.689-0.133,3.422-0.796,4.977c-0.935,2.194-2.911,3.738-4.808,5.183c-2.133,1.625-4.826,3.337-7.305,2.313     c-2.011-0.831-2.939-3.14-3.397-5.267c-0.369-1.711-0.565-3.52-0.045-5.19c0.76-2.442,2.883-4.157,4.786-5.866     c1.903-1.709,3.802-3.825,3.84-6.382c0.018-1.24-0.859-2.741-2.071-2.478c-1.058,0.229-1.377,1.542-1.63,2.595     c-0.341,1.422-0.992,2.856-2.202,3.676s-3.076,0.782-3.956-0.386"/>
            <path style="fill:#472D90;" d="M388.128,180.201c-1.182,0-2.954-0.23-4.477-1.372c-2.525-1.894,0.043-9.87,0.43-11.02     c0.706-6.477,1.048-13.171-2.971-17.663c-2.146-2.399-5.11-3.652-8.248-4.979c-2.413-1.021-4.909-2.076-7.003-3.703     c-4.476-3.477-6.511-9.104-7.653-13.033c-0.123-0.423-0.243-0.851-0.363-1.279c-0.813-2.89-1.652-5.878-3.583-8.096     c-1.18-1.355-2.673-2.335-4.255-3.373c-1.212-0.796-2.466-1.619-3.56-2.625c-2.579-2.373-4.184-5.738-4.404-9.233     c-0.044-0.699-0.018-1.581,0.582-2.196c0.403-0.415,0.913-0.596,1.486-0.521c1.146,0.148,2.3,1.33,2.887,2.367     c1.533,2.706,3.255,5.383,5.95,5.804c0.352,0.056,0.602,0.03,0.741-0.074c0.186-0.139,0.259-0.475,0.307-0.785     c0.505-3.299-0.19-6.541-0.926-9.975c-0.62-2.889-1.26-5.876-1.103-8.875c0.068-1.313,0.466-2.14,1.215-2.525     c0.489-0.252,1.015-0.268,1.52-0.047c0.992,0.434,1.739,1.728,2.04,2.816c1.474,5.339,2.163,11.015,2.829,16.504     c1.207,9.947,2.347,19.342,7.719,27.247c0.699,1.03,1.573,2.182,2.751,2.923c1.358,0.854,3.019,1.111,4.612,1.26     c3.7,0.347,6.23-0.356,7.526-2.089c1.749-2.34,0.587-5.847-1.494-7.754c-2.079-1.906-4.926-2.794-7.679-3.652l-0.572-0.179     c-2.925-0.919-6.22-2.116-8.292-4.722c-0.829-1.042-1.105-2.686-0.628-3.743c0.291-0.644,0.832-1.019,1.525-1.054     c0.722-0.029,1.333,0.353,1.784,0.637l3.844,2.436c-5.047-14.967-7.342-31.156-6.642-46.917c0.085-1.914,0.694-3.037,1.81-3.338     c0.565-0.151,1.116-0.054,1.594,0.282c1.019,0.719,1.489,2.35,1.582,3.529l1.403,17.753c0.635,8.03,1.354,17.132,5.699,24.565     c0.581,0.994,1.315,2.09,2.361,2.689c0.875,0.502,2.228,0.622,3.009-0.143c0.468-0.457,0.674-1.17,0.789-1.667     c0.781-3.388-0.271-6.925-1.288-10.345c-0.203-0.683-0.405-1.363-0.593-2.04c-3.7-13.341-1.765-27.764-0.059-40.488     c0.22-1.64,1.049-2.615,2.093-2.491c0.51,0.062,1.399,0.445,1.63,2.324c0.573,4.661,0.231,9.364-0.099,13.911     c-0.379,5.229-0.772,10.635,0.259,15.889c0.165,0.84,1.357,3.229,1.905,3.814c0.189,0.204,0.496,0.313,0.911,0.324     c1.455,0.035,3.527-1.068,4.373-1.88c1.25-1.201,1.667-3.059,1.89-4.543c0.484-3.215,0.396-6.46-0.262-9.644l-0.066-0.314     c-0.213-1.008-0.434-2.051-0.199-3.111c0.389-1.745,1.433-2.573,2.861-2.271c2.298,0.784,2.464,7.093,2.444,14.64l-0.002,1.748     c0.018,6.131-4.369,9.354-9.67,12.645c-2.04,1.266-0.123,8.39,1.695,12.636c0.807,0.616,2.109,0.505,2.945-0.06     c0.94-0.637,1.611-1.773,1.996-3.378c0.27-1.126,0.639-2.669,2.01-2.967c0.555-0.122,1.098,0.018,1.567,0.402     c0.678,0.555,1.125,1.589,1.11,2.572c-0.042,2.829-2.163,5.091-4.006,6.747l-0.517,0.462c-1.708,1.519-3.475,3.091-4.125,5.182     c-0.527,1.695-0.247,3.528,0.057,4.937c0.57,2.644,1.613,4.296,3.1,4.91c2.203,0.909,4.679-0.626,6.811-2.249     c1.754-1.337,3.743-2.851,4.651-4.981c0.636-1.49,0.697-3.172,0.756-4.799c0.075-2.049,0.16-4.37-0.832-6.275     c-0.463-0.889-1.135-1.645-1.846-2.444c-0.727-0.817-1.478-1.661-1.999-2.672c-1.079-2.093-0.995-4.603-0.928-6.619     c0.056-1.691,0.723-2.741,1.784-2.81c0.947-0.049,1.668,0.775,1.868,1.593c0.129,0.528,0.101,1.045,0.075,1.546     c-0.01,0.181-0.02,0.361-0.021,0.541c-0.01,1.258,0.434,2.401,1.217,3.137c0.842,0.791,2.087,1.04,3.031,0.605l0.457-0.212     c0.402-0.274,0.788-0.806,0.967-1.383c0.32-1.037,0.15-2.226,0-3.275l-1.338-9.379c-0.246-1.729-0.526-3.69-1.644-5.126     c-0.481-0.618-1.101-1.121-1.757-1.652c-0.826-0.67-1.681-1.363-2.259-2.321c-0.57-0.945-0.797-2.04-0.981-3.081     c-0.749-4.251-1.061-8.593-0.93-12.907c0.034-1.099,0.519-1.793,1.265-1.811c0.33,0.005,0.93,0.126,1.345,1.126     c0.858,2.064,0.851,4.348,0.844,6.363c-0.007,2.029-0.015,4.127,0.735,5.988c0.663,1.646,2.212,3.322,4.18,3.358     c0.578,0.025,1.277-0.198,1.495-0.69c0.116-0.263,0.104-0.611,0.079-0.976c-0.2-3-0.792-6.077-1.365-9.052     c-1.129-5.867-2.297-11.934-0.52-17.72l0.109-0.353l0.37,0c1.089,0.001,1.883,0.955,2.235,2.686     c1.576,7.743,2.676,15.667,3.27,23.551c0.158,2.089,0.231,4.115-0.591,5.936c-0.16,0.356-0.353,0.696-0.547,1.036     c-0.239,0.419-0.464,0.814-0.621,1.234c-0.462,1.235-0.313,2.677-0.182,3.949c0.147,1.425,0.47,3.126,1.678,3.638     c0.555,0.235,1.097,0.107,1.454-0.042c0.704-0.296,1.318-0.928,1.602-1.65c0.521-1.324,0.283-2.873-0.004-4.347l-0.032-0.163     c-0.303-1.543-0.616-3.139-0.185-4.707c0.193-0.699,0.669-1.105,1.203-1.044c0.437,0.053,0.758,0.387,0.953,0.993     c0.731,2.27,1.295,4.611,1.676,6.96c0.327,2.019,0.546,4.906-1.319,6.664c-0.619,0.584-1.377,0.942-2.11,1.29     c-0.796,0.377-1.549,0.733-2.055,1.339c-0.874,1.046-0.8,2.507-0.723,4.054c0.052,1.027,0.105,2.089-0.115,3.1     c-0.298,1.365-1.072,2.515-1.822,3.627c-0.245,0.364-0.49,0.728-0.717,1.098c-0.616,1.003-1.531,2.915-0.733,4.444     c0.551,1.057,1.955,1.715,3.396,1.61c1.498-0.113,2.899-0.916,3.952-1.603c1.163-0.759,2.809-1.966,3.661-3.664     c1.086-2.166,0.782-4.771,0.488-7.29c-0.048-0.407-0.095-0.813-0.137-1.214c-0.409-3.959-0.193-7.94,0.642-11.832     c0.063-0.294,0.129-0.588,0.196-0.883c0.34-1.506,0.693-3.063,0.528-4.566c-0.11-1.003-0.439-1.959-0.789-2.972     c-0.105-0.306-0.211-0.612-0.31-0.919c-1.495-4.637-1.545-9.76-0.143-14.425l0.065-0.216l0.205-0.094     c0.293-0.134,0.618-0.132,0.913,0.006c0.542,0.254,0.885,0.905,1.014,1.384c0.509,1.894,0.487,3.862,0.465,5.766     c-0.018,1.619-0.037,3.293,0.281,4.87c0.296,1.47,1.127,3.132,2.572,3.39c1.308,0.233,2.566-0.848,3.083-1.985     c0.601-1.323,0.578-2.913,0.559-4.316l-0.079-5.67c-0.012-0.862,0.288-2.021,0.977-2.527c0.352-0.26,0.779-0.326,1.202-0.188     l0.323,0.106l0.814,13.851c0.04,0.684,0.09,1.536-0.22,2.308c-0.463,1.151-1.523,1.788-2.548,2.404     c-0.975,0.586-1.896,1.139-2.136,2.061c-0.104,0.403-0.212,0.778-0.315,1.138c-0.312,1.086-0.581,2.024-0.62,3.245     c-0.009,0.283-0.007,0.6,0.126,0.783c0.15,0.207,0.5,0.294,0.876,0.372c1.807,0.374,3.801,0.596,4.885-0.587     c0.709-0.773,0.8-1.906,0.897-3.105c0.091-1.132,0.185-2.302,0.804-3.3c0.227-0.367,0.485-0.6,0.787-0.712     c0.327-0.121,0.667-0.099,0.981,0.064c0.581,0.302,0.95,1.024,1.102,1.6c0.503,1.903,0.865,4.725-0.265,7.357     c-1.083,2.523-3.451,4.272-5.894,4.353c-0.441,0.018-0.894-0.018-1.332-0.049c-1.049-0.074-2.043-0.146-2.707,0.425     c-0.692,0.594-0.773,1.709-0.767,2.615c0.01,1.378,0.149,2.786,0.283,4.146c0.131,1.331,0.268,2.706,0.287,4.076     c0.048,3.43-0.726,6.155-2.301,8.1c-2.037,2.516-5.168,3.509-8.196,4.47c-2.541,0.807-5.169,1.64-7.077,3.37     c-1.163,1.055-2.002,2.375-2.892,3.772c-0.679,1.066-1.381,2.169-2.239,3.142c-1.897,2.148-4.478,3.585-6.973,4.975     c-3.198,1.781-6.219,3.463-7.807,6.489c-1.303,2.482-1.191,5.461-1.082,8.343c0.02,0.535,0.04,1.068,0.052,1.596     c0.046,2.131,0.97,5.035,1.864,7.844c1.547,4.865,3.009,9.46,0.645,11.335c-1.391,1.103-4.664,1.721-4.803,1.747     C389.404,180.105,388.887,180.201,388.128,180.201z M343.866,102.09c-0.203,0-0.372,0.076-0.527,0.235     c-0.325,0.334-0.331,0.942-0.3,1.435c0.205,3.241,1.692,6.361,4.083,8.56c1.033,0.951,2.252,1.751,3.431,2.524     c1.569,1.03,3.191,2.094,4.46,3.553c2.079,2.387,2.95,5.485,3.792,8.481c0.12,0.425,0.239,0.85,0.361,1.27     c1.754,6.033,4.075,10.012,7.307,12.522c1.992,1.547,4.426,2.577,6.779,3.572c3.101,1.311,6.308,2.667,8.603,5.233     c4.304,4.812,3.915,12.069,3.214,18.493l-0.023,0.106c-1.104,3.25-2.296,8.825-0.795,9.951c2.15,1.612,4.989,1.089,5.018,1.084     c0.88-0.163,3.374-0.76,4.367-1.547c1.823-1.446,0.399-5.921-0.977-10.249c-0.915-2.876-1.861-5.85-1.911-8.125     c-0.011-0.523-0.031-1.051-0.051-1.58c-0.113-3.012-0.231-6.127,1.196-8.845c1.727-3.29,5.021-5.124,8.206-6.897     c2.422-1.349,4.926-2.743,6.709-4.763c0.807-0.914,1.487-1.982,2.146-3.017c0.885-1.392,1.801-2.831,3.063-3.976     c2.069-1.877,4.803-2.744,7.446-3.583c3.021-0.958,5.874-1.864,7.722-4.146c1.424-1.758,2.124-4.267,2.079-7.457     c-0.019-1.327-0.152-2.682-0.282-3.992c-0.137-1.383-0.278-2.813-0.288-4.238c-0.008-1.121,0.111-2.519,1.116-3.38     c0.977-0.838,2.28-0.747,3.43-0.663c0.414,0.029,0.83,0.061,1.227,0.047c2.063-0.068,4.075-1.575,5.008-3.749     c1.018-2.371,0.68-4.956,0.217-6.707c-0.117-0.442-0.367-0.849-0.596-0.968c-0.073-0.038-0.122-0.033-0.173-0.015     c-0.084,0.031-0.18,0.132-0.284,0.301c-0.491,0.792-0.572,1.793-0.657,2.854c-0.105,1.315-0.215,2.674-1.156,3.701     c-1.422,1.552-3.742,1.322-5.825,0.891c-0.436-0.09-1.093-0.227-1.483-0.764c-0.303-0.419-0.331-0.921-0.315-1.402     c0.043-1.345,0.341-2.386,0.657-3.489c0.101-0.353,0.207-0.719,0.309-1.114c0.342-1.316,1.484-2.003,2.589-2.666     c0.924-0.555,1.797-1.08,2.135-1.92c0.227-0.564,0.186-1.261,0.149-1.876l-0.764-13.01c-0.316,0.251-0.563,1.003-0.553,1.695     l0.079,5.671c0.021,1.508,0.045,3.217-0.648,4.743c-0.689,1.518-2.341,2.883-4.169,2.556c-1.939-0.347-3.016-2.385-3.376-4.177     c-0.338-1.68-0.319-3.408-0.3-5.078c0.021-1.921,0.042-3.734-0.431-5.495c-0.08-0.297-0.243-0.553-0.382-0.676     c-1.232,4.371-1.147,9.133,0.246,13.455c0.097,0.301,0.2,0.601,0.304,0.9c0.351,1.02,0.714,2.074,0.837,3.188     c0.183,1.669-0.188,3.31-0.547,4.896c-0.066,0.291-0.131,0.582-0.194,0.873c-0.813,3.789-1.022,7.664-0.624,11.519     c0.041,0.397,0.088,0.798,0.135,1.201c0.311,2.665,0.633,5.42-0.587,7.854c-0.96,1.915-2.748,3.23-4.008,4.054     c-1.153,0.752-2.698,1.632-4.423,1.762c-1.555,0.12-3.501-0.502-4.358-2.145c-1.026-1.967,0.04-4.247,0.768-5.431     c0.235-0.382,0.487-0.758,0.741-1.133c0.728-1.082,1.417-2.104,1.673-3.282c0.192-0.88,0.142-1.875,0.094-2.836     c-0.084-1.671-0.171-3.398,0.954-4.745c0.647-0.776,1.536-1.196,2.395-1.603c0.693-0.328,1.348-0.638,1.852-1.113     c1.156-1.09,1.48-2.926,1.018-5.777c-0.373-2.299-0.924-4.592-1.641-6.814c-0.064-0.201-0.118-0.278-0.141-0.306     c0.018,0.041-0.053,0.151-0.099,0.316c-0.369,1.341-0.079,2.819,0.202,4.248l0.032,0.163c0.316,1.619,0.573,3.33-0.046,4.905     c-0.379,0.964-1.201,1.809-2.145,2.206c-0.765,0.321-1.537,0.335-2.232,0.041c-1.689-0.716-2.107-2.757-2.282-4.456     c-0.143-1.381-0.304-2.947,0.24-4.402c0.185-0.495,0.441-0.944,0.689-1.379c0.178-0.313,0.357-0.625,0.505-0.952     c0.725-1.606,0.652-3.494,0.505-5.449c-0.591-7.842-1.686-15.724-3.253-23.427c-0.097-0.476-0.361-1.48-0.909-1.792     c-1.515,5.407-0.449,10.941,0.677,16.79c0.579,3.005,1.177,6.112,1.381,9.174c0.032,0.474,0.045,0.976-0.163,1.447     c-0.431,0.972-1.506,1.317-2.428,1.286c-2.425-0.045-4.303-2.034-5.089-3.984c-0.823-2.044-0.815-4.24-0.808-6.365     c0.006-1.92,0.013-4.098-0.768-5.976c-0.139-0.335-0.303-0.509-0.394-0.509c-0.001,0-0.001,0-0.002,0     c-0.125,0.003-0.275,0.364-0.291,0.842c-0.129,4.246,0.179,8.52,0.915,12.703c0.174,0.987,0.371,1.939,0.853,2.738     c0.487,0.808,1.238,1.416,2.032,2.061c0.671,0.544,1.364,1.106,1.916,1.815c1.281,1.646,1.594,3.837,1.845,5.598l1.338,9.379     c0.165,1.153,0.351,2.46-0.036,3.711c-0.248,0.803-0.771,1.517-1.435,1.958l-0.524,0.25c-1.302,0.603-3.004,0.281-4.136-0.784     c-0.986-0.926-1.544-2.337-1.533-3.874c0.001-0.195,0.012-0.391,0.022-0.586c0.024-0.448,0.046-0.871-0.047-1.255     c-0.103-0.42-0.473-0.875-0.832-0.832c-0.582,0.038-0.821,1.018-0.849,1.845c-0.066,1.999-0.142,4.266,0.817,6.128     c0.463,0.898,1.14,1.659,1.857,2.465c0.721,0.81,1.466,1.647,1.986,2.646c1.115,2.14,1.021,4.709,0.944,6.774     c-0.06,1.638-0.127,3.494-0.835,5.155c-1.011,2.372-3.204,4.043-4.965,5.384c-2.357,1.794-5.126,3.481-7.798,2.377     c-1.809-0.747-3.052-2.639-3.695-5.623c-0.329-1.528-0.63-3.528-0.034-5.444c0.733-2.356,2.605-4.021,4.416-5.632l0.514-0.459     c1.691-1.519,3.638-3.576,3.674-6.017c0.01-0.673-0.303-1.423-0.744-1.784c-0.231-0.189-0.466-0.253-0.722-0.198     c-0.756,0.164-1.03,1.305-1.249,2.222c-0.445,1.856-1.255,3.192-2.408,3.974c-1.046,0.708-2.58,0.884-3.727,0.274l-0.338,0.158     c-0.007-0.015-0.097-0.219-0.242-0.568c-0.118-0.108-0.228-0.229-0.328-0.363l0.138-0.104c-1.212-3.018-4.354-11.712-1.23-13.651     c5.221-3.241,9.214-6.167,9.197-11.792l0.002-1.753c0.012-4.57,0.034-13.077-1.71-13.675c-0.258-0.051-1.223-0.254-1.62,1.526     c-0.188,0.848,0.001,1.741,0.201,2.687l0.067,0.319c0.682,3.3,0.774,6.663,0.272,9.996c-0.248,1.641-0.719,3.705-2.187,5.115     c-1.1,1.057-3.447,2.217-5.093,2.158c-0.692-0.019-1.236-0.234-1.615-0.641c-0.682-0.73-1.951-3.265-2.155-4.304     c-1.057-5.384-0.66-10.859-0.275-16.153c0.327-4.5,0.664-9.152,0.104-13.717c-0.04-0.324-0.212-1.387-0.757-1.453     c-0.541-0.072-0.889,0.938-0.982,1.631c-1.694,12.63-3.614,26.944,0.031,40.088c0.186,0.671,0.387,1.345,0.588,2.022     c1.054,3.545,2.144,7.21,1.304,10.855c-0.143,0.619-0.408,1.516-1.064,2.157c-1.147,1.12-2.984,0.996-4.206,0.296     c-1.25-0.715-2.081-1.944-2.728-3.052c-4.46-7.631-5.189-16.854-5.832-24.991l-1.403-17.753     c-0.082-1.038-0.507-2.329-1.162-2.791c-0.236-0.166-0.477-0.209-0.757-0.133c-0.806,0.217-1.027,1.434-1.071,2.417     c-0.716,16.11,1.722,32.671,7.05,47.893l0.475,1.357l-6.261-3.967c-0.436-0.276-0.835-0.517-1.197-0.483     c-0.318,0.016-0.529,0.164-0.665,0.466c-0.319,0.707-0.086,1.974,0.499,2.71c1.896,2.384,5.025,3.516,7.81,4.39l0.57,0.178     c2.858,0.891,5.813,1.813,8.057,3.87c2.401,2.202,3.703,6.303,1.619,9.09c-1.519,2.032-4.354,2.865-8.421,2.487     c-1.716-0.162-3.515-0.444-5.05-1.41c-1.335-0.84-2.289-2.093-3.046-3.208c-5.508-8.105-6.716-18.061-7.884-27.688     c-0.662-5.453-1.346-11.091-2.8-16.358c-0.237-0.859-0.821-1.88-1.477-2.167c-0.229-0.101-0.439-0.094-0.661,0.02     c-0.4,0.206-0.627,0.774-0.674,1.689c-0.15,2.867,0.476,5.788,1.082,8.613c0.723,3.371,1.47,6.855,0.937,10.336     c-0.078,0.51-0.222,1.079-0.695,1.434c-0.368,0.276-0.858,0.363-1.495,0.263c-3.136-0.49-5.012-3.381-6.666-6.299     c-0.472-0.833-1.383-1.77-2.145-1.868C343.941,102.093,343.904,102.09,343.866,102.09z"/>
		</g>
        <g>
			<g>
				<g>
					<path style="fill:#898E89;" d="M387.6,168.924c1.857,2.231,2.653,5.163,2.446,7.992c-0.027,0.363-0.079,0.748-0.328,1.026       c-0.304,0.339-0.814,0.424-1.282,0.484c-5.904,0.757-11.894,0.917-17.834,0.476c-0.544-0.04-1.149-0.115-1.493-0.515       c-0.231-0.269-0.291-0.63-0.33-0.973c-0.191-1.701-0.053-3.433,0.407-5.087c0.444-1.596,1.216-3.156,2.506-4.27       c2.127-1.837,5.594-2.109,8.339-2.518C382.925,165.108,385.858,166.831,387.6,168.924z"/>
                    <path style="fill:#686B68;" d="M377.159,179.645c-2.202,0-4.402-0.082-6.594-0.244c-0.643-0.047-1.367-0.143-1.835-0.688       c-0.311-0.362-0.399-0.812-0.448-1.243c-0.2-1.775-0.058-3.551,0.422-5.277c0.539-1.936,1.434-3.455,2.661-4.515       c1.986-1.716,4.964-2.128,7.591-2.492c0.342-0.047,0.676-0.094,1.001-0.142c3.323-0.494,6.402,1.608,8.026,3.56l0,0       c1.853,2.226,2.786,5.268,2.56,8.348c-0.034,0.462-0.113,0.943-0.455,1.323c-0.449,0.499-1.164,0.591-1.59,0.646       C384.747,179.403,380.952,179.645,377.159,179.645z M380.959,165.97c-0.282,0-0.567,0.02-0.854,0.063       c-0.328,0.049-0.666,0.096-1.011,0.143c-2.49,0.345-5.313,0.736-7.075,2.258c-1.075,0.929-1.866,2.283-2.351,4.025       c-0.446,1.602-0.578,3.25-0.392,4.897c0.028,0.254,0.07,0.538,0.212,0.703c0.218,0.254,0.708,0.31,1.15,0.343       c5.905,0.437,11.87,0.278,17.734-0.474c0.391-0.05,0.788-0.116,0.974-0.323c0.133-0.148,0.177-0.398,0.201-0.729       c0.207-2.823-0.643-5.606-2.332-7.635l0,0C385.9,167.664,383.546,165.97,380.959,165.97z"/>
				</g>
			</g>
            <g>
				<g>
					<path style="fill:#9DA29D;" d="M403.815,169.311c2.066,2.482,2.951,5.743,2.72,8.889c-0.03,0.403-0.088,0.832-0.365,1.141       c-0.339,0.377-0.906,0.472-1.426,0.539c-6.566,0.842-13.228,1.02-19.835,0.53c-0.605-0.045-1.279-0.128-1.661-0.573       c-0.257-0.299-0.324-0.7-0.367-1.083c-0.213-1.891-0.059-3.819,0.453-5.658c0.493-1.775,1.352-3.51,2.787-4.749       c2.366-2.044,6.222-2.346,9.275-2.8C398.617,165.067,401.878,166.984,403.815,169.311z"/>
                    <path style="fill:#747774;" d="M392.201,181.179c-2.446,0-4.892-0.09-7.328-0.271c-0.704-0.052-1.497-0.157-2.003-0.746       c-0.352-0.41-0.434-0.913-0.484-1.353c-0.221-1.966-0.064-3.934,0.468-5.848c0.596-2.142,1.586-3.822,2.942-4.994       c2.196-1.898,5.5-2.355,8.414-2.758c0.38-0.053,0.753-0.105,1.115-0.158c3.675-0.548,7.078,1.781,8.875,3.94l0,0       c2.051,2.464,3.084,5.834,2.835,9.245c-0.037,0.503-0.121,1.026-0.491,1.438c-0.485,0.541-1.267,0.641-1.734,0.701       C400.637,180.911,396.418,181.179,392.201,181.179z M396.429,165.97c-0.316,0-0.636,0.023-0.957,0.07       c-0.365,0.054-0.741,0.106-1.125,0.16c-2.777,0.384-5.924,0.82-7.897,2.524c-1.205,1.041-2.09,2.556-2.632,4.504       c-0.497,1.79-0.645,3.63-0.438,5.468c0.034,0.305,0.082,0.619,0.249,0.814c0.256,0.297,0.814,0.362,1.318,0.4       c6.569,0.487,13.208,0.311,19.734-0.527c0.445-0.057,0.898-0.133,1.117-0.377c0.16-0.178,0.211-0.465,0.238-0.843       c0.23-3.156-0.719-6.266-2.606-8.533l0,0C401.961,167.864,399.326,165.97,396.429,165.97z"/>
				</g>
			</g>
		</g>
        <g>
			<path style="fill:#686B68;" d="M372.288,172.226c-0.093,0-0.187-0.026-0.27-0.08c-0.232-0.149-0.299-0.459-0.149-0.691     c1.044-1.617,2.9-2.417,4.392-3.06c0.254-0.111,0.547,0.007,0.657,0.261c0.109,0.253-0.007,0.547-0.261,0.657     c-1.367,0.59-3.068,1.323-3.948,2.685C372.613,172.145,372.452,172.226,372.288,172.226z"/>
		</g>
        <g>
			<path style="fill:#686B68;" d="M375.206,172.071c-0.144,0-0.287-0.062-0.385-0.181c-0.176-0.213-0.147-0.528,0.065-0.704     l1.27-1.052c0.286-0.237,0.768-0.638,1.376-0.564c0.274,0.031,0.472,0.278,0.44,0.553c-0.031,0.274-0.278,0.473-0.553,0.44     c-0.176-0.018-0.414,0.167-0.625,0.341l-1.27,1.052C375.431,172.034,375.318,172.071,375.206,172.071z"/>
		</g>
        <g>
			<path style="fill:#747774;" d="M402.369,177.852c-0.053,0-0.107-0.008-0.16-0.026c-0.262-0.088-0.402-0.372-0.313-0.634     c0.309-0.914,0.454-1.867,0.429-2.832c-0.007-0.276,0.211-0.506,0.487-0.513c0.004,0,0.009,0,0.013,0     c0.27,0,0.493,0.216,0.5,0.487c0.027,1.083-0.135,2.153-0.482,3.178C402.772,177.721,402.577,177.852,402.369,177.852z"/>
		</g>
        <g>
			<path style="fill:#747774;" d="M400.609,176.981h-0.085c-0.276,0-0.5-0.224-0.5-0.5s0.224-0.5,0.5-0.5     c0.276,0,0.543,0.224,0.543,0.5S400.886,176.981,400.609,176.981z"/>
		</g>
        <g>
			<path style="fill:#898E89;" d="M379.691,169.297c-0.276,0-0.5-0.224-0.5-0.5c0-0.276,0.224-0.543,0.5-0.543     c0.276,0,0.5,0.181,0.5,0.457v0.085C380.191,169.073,379.968,169.297,379.691,169.297z"/>
		</g>
        <g>
			<path style="fill:#472D90;" d="M384.395,147.718c-0.136,0-0.271-0.055-0.37-0.164c-1.466-1.611-3.128-3.042-4.939-4.253     c-0.23-0.153-0.292-0.464-0.138-0.693c0.153-0.229,0.464-0.29,0.693-0.138c1.879,1.255,3.603,2.74,5.123,4.411     c0.186,0.204,0.171,0.521-0.033,0.706C384.635,147.675,384.515,147.718,384.395,147.718z"/>
		</g>
        <g>
			<path style="fill:#472D90;" d="M387.605,147.678c-0.109,0-0.22-0.036-0.312-0.109c-1.515-1.213-2.952-2.55-4.271-3.974     c-0.188-0.203-0.176-0.519,0.027-0.707c0.202-0.188,0.519-0.176,0.706,0.027c1.285,1.388,2.686,2.691,4.163,3.872     c0.215,0.173,0.25,0.487,0.078,0.703C387.897,147.614,387.752,147.678,387.605,147.678z"/>
		</g>
        <g>
			<path style="fill:#472D90;" d="M351.887,113.159c-0.276,0-0.5-0.224-0.5-0.5v-0.151c0-0.276,0.224-0.5,0.5-0.5     c0.276,0,0.5,0.224,0.5,0.5v0.151C352.387,112.935,352.163,113.159,351.887,113.159z"/>
		</g>
        <g>
			<path style="fill:#472D90;" d="M357.058,117.507c-0.184,0-0.361-0.102-0.448-0.277c-0.668-1.342-1.484-2.615-2.425-3.784     c-0.173-0.215-0.139-0.53,0.076-0.703c0.215-0.173,0.529-0.139,0.703,0.076c0.986,1.225,1.841,2.559,2.542,3.966     c0.123,0.247,0.022,0.547-0.225,0.67C357.209,117.49,357.132,117.507,357.058,117.507z"/>
		</g>
        <g>
			<path style="fill:#472D90;" d="M384.555,124.946c-0.146,0-0.291-0.063-0.39-0.186c-1.224-1.518-2.805-2.758-4.571-3.588     c-0.25-0.118-0.357-0.416-0.24-0.665c0.118-0.251,0.417-0.358,0.665-0.24c1.903,0.894,3.605,2.23,4.924,3.865     c0.173,0.215,0.14,0.53-0.075,0.703C384.776,124.91,384.665,124.946,384.555,124.946z"/>
		</g>
        <g>
			<path style="fill:#472D90;" d="M383.388,120.544c-0.276,0-0.5-0.224-0.5-0.5v-0.15c0-0.276,0.224-0.5,0.5-0.5     c0.276,0,0.5,0.224,0.5,0.5v0.15C383.888,120.32,383.664,120.544,383.388,120.544z"/>
		</g>
        <g>
			<path style="fill:#472D90;" d="M410.877,127.242c-0.139,0-0.278-0.058-0.376-0.171c-0.182-0.208-0.161-0.523,0.048-0.705     c0.843-0.736,1.864-1.262,2.953-1.519c0.453-0.107,0.915-0.169,1.362-0.229c0.856-0.114,1.666-0.222,2.331-0.627     c0.235-0.144,0.543-0.069,0.687,0.166c0.144,0.236,0.069,0.544-0.167,0.687c-0.844,0.515-1.797,0.642-2.719,0.765     c-0.425,0.057-0.852,0.112-1.264,0.21c-0.932,0.221-1.805,0.67-2.526,1.299C411.111,127.202,410.993,127.242,410.877,127.242z"/>
		</g>
        <g>
			<path style="fill:#472D90;" d="M419.562,124.011c-0.128,0-0.256-0.049-0.354-0.146l-0.151-0.151     c-0.195-0.195-0.195-0.512,0-0.707c0.195-0.195,0.512-0.195,0.707,0l0.151,0.151c0.195,0.195,0.195,0.512,0,0.707     C419.817,123.962,419.69,124.011,419.562,124.011z"/>
		</g>
	</g></svg>