<svg version="1.1" xmlns="http://www.w3.org/2000/svg" xmlns:xlink="http://www.w3.org/1999/xlink" x="0px" y="0px" viewBox="59.11884281839137 290.86842583265644 81.49045141045976 157.80657416734357" style="enable-background:new 0 0 500 500;" xml:space="preserve"><g id="a1">
		<g>
			<g>
				<path style="fill:#5537A1;" d="M120.41,347.146c0.82-8.804,1.641-17.649,1.11-26.475c-0.172-2.857-0.486-5.705-0.579-8.565      c-0.143-4.358,0.224-8.715,0.592-13.06c0.084-0.992,0.185-2.035,0.749-2.856c1.084-1.578,3.331-1.688,5.245-1.638      c2.019,0.053,4.038,0.106,6.057,0.158c1.806,0.047,3.926,0.268,4.85,1.82c0.47,0.789,0.506,1.752,0.529,2.669      c0.087,3.432,0.174,6.864,0.262,10.295c0.054,2.12,0.107,4.249-0.158,6.353c-0.292,2.315-0.966,4.561-1.473,6.839      c-0.799,3.591-1.184,7.274-1.144,10.953c0.037,3.452,0.439,6.976-0.476,10.305c-0.759,2.763-2.378,5.201-3.486,7.844      c-1.128,2.691-1.742,5.626-3.33,8.074c-2.893,4.46-8.594,6.454-13.906,6.236c-0.405-0.017-0.822-0.048-1.184-0.231      c-1.268-0.644-1.023-2.515-0.503-3.838c0.547-1.39,1.143-3.065,2.05-4.267c0.727-0.964,2.52-1.113,3.283-2.06      C120.676,353.49,120.157,349.855,120.41,347.146z"/>
                <path style="fill:#43288B;" d="M116.011,366.612c-0.264,0-0.524-0.005-0.781-0.016c-0.456-0.019-0.94-0.056-1.39-0.285      c-1.537-0.781-1.36-2.895-0.741-4.467l0.184-0.471c0.508-1.308,1.085-2.791,1.933-3.915c0.447-0.593,1.161-0.903,1.852-1.204      c0.587-0.255,1.141-0.497,1.44-0.868c1.222-1.517,1.266-3.822,1.309-6.051c0.015-0.788,0.03-1.531,0.095-2.236l0,0      c0.806-8.647,1.639-17.589,1.108-26.399c-0.067-1.117-0.156-2.232-0.245-3.347c-0.136-1.712-0.277-3.481-0.334-5.232      c-0.145-4.397,0.23-8.831,0.593-13.119c0.08-0.956,0.181-2.146,0.835-3.098c1.191-1.734,3.534-1.907,5.67-1.855l6.058,0.159      c2.028,0.053,4.239,0.339,5.267,2.064c0.548,0.921,0.577,2.025,0.6,2.913l0.261,10.295c0.054,2.104,0.109,4.279-0.162,6.428      c-0.207,1.637-0.604,3.252-0.988,4.815c-0.169,0.689-0.338,1.378-0.492,2.07c-0.791,3.552-1.172,7.199-1.133,10.839      c0.008,0.744,0.033,1.49,0.058,2.238c0.091,2.716,0.185,5.524-0.553,8.205c-0.488,1.775-1.324,3.426-2.132,5.023      c-0.475,0.938-0.966,1.907-1.375,2.882c-0.381,0.91-0.711,1.873-1.03,2.803c-0.623,1.815-1.266,3.693-2.341,5.35      C126.465,364.927,120.675,366.612,116.011,366.612z M120.908,347.192c-0.063,0.669-0.077,1.395-0.091,2.163      c-0.045,2.285-0.094,4.875-1.53,6.659c-0.454,0.564-1.149,0.866-1.821,1.158c-0.598,0.26-1.164,0.506-1.452,0.89      c-0.765,1.013-1.314,2.427-1.799,3.675l-0.185,0.475c-0.375,0.952-0.741,2.699,0.264,3.209c0.271,0.138,0.617,0.163,0.978,0.177      c4.512,0.176,10.408-1.296,13.465-6.008c1.008-1.554,1.604-3.292,2.234-5.13c0.325-0.946,0.66-1.924,1.055-2.865      c0.422-1.007,0.921-1.994,1.404-2.947c0.786-1.552,1.599-3.157,2.061-4.835c0.697-2.535,0.605-5.266,0.517-7.907      c-0.025-0.755-0.05-1.509-0.059-2.26c-0.04-3.716,0.349-7.44,1.156-11.067c0.156-0.699,0.327-1.395,0.498-2.091      c0.377-1.535,0.767-3.123,0.967-4.702c0.262-2.074,0.208-4.211,0.154-6.278l-0.261-10.295c-0.02-0.811-0.044-1.73-0.459-2.427      c-0.778-1.308-2.678-1.53-4.434-1.576l-6.058-0.159c-1.965-0.048-3.902,0.086-4.82,1.421c-0.504,0.733-0.588,1.733-0.663,2.615      c-0.36,4.259-0.732,8.664-0.59,13.002c0.057,1.728,0.197,3.485,0.332,5.186c0.089,1.121,0.179,2.243,0.246,3.366      C122.554,329.526,121.717,338.507,120.908,347.192L120.908,347.192z"/>
			</g>
            <g>
				<path style="fill:#5537A1;" d="M101.992,398.308c0.058-4.441,1.547-8.804,1.346-13.242c-0.211-4.646-2.258-9.067-2.755-13.695      c-0.576-5.364,0.951-10.815,0.025-16.137c-0.435-2.5-1.401-4.902-1.795-7.408c-0.403-2.564-0.197-5.171-0.261-7.76      c-0.103-4.196-0.914-8.347-1.723-12.478c-1.291-6.593-2.583-13.187-3.874-19.78c-0.522-2.664-0.984-5.632,0.595-7.89      c0.847-1.212,2.179-2.042,3.515-2.767c4.244-2.301,8.93-3.885,13.766-4.653c0.958-0.152,2.006-0.258,2.847,0.202      c1.311,0.717,1.489,2.396,1.515,3.818c0.188,10.106,0.377,20.213,0.566,30.319c0.053,2.845,0.106,5.695,0.438,8.524      c0.297,2.536,0.818,5.062,0.786,7.613c-0.046,3.664-1.23,7.246-1.326,10.909c-0.153,5.821,2.44,11.488,2.26,17.309      c-0.176,5.684-2.978,11.027-3.523,16.689c-0.623,6.466,1.727,12.873,1.916,19.366c0.101,3.491-0.543,7.23-3.063,9.788      c-0.981,0.996-2.349,1.802-3.788,1.656c-2.735-0.278-4.153-6.81-4.954-8.839C103.042,406.153,101.94,402.276,101.992,398.308z"/>
                <path style="fill:#43288B;" d="M109.786,419.208c-0.127,0-0.254-0.006-0.379-0.019c-2.523-0.257-3.911-4.643-4.83-7.544      c-0.207-0.654-0.384-1.217-0.539-1.609c-1.783-4.515-2.592-8.244-2.546-11.734c0.027-2.075,0.363-4.148,0.688-6.152      c0.376-2.316,0.764-4.711,0.658-7.061c-0.111-2.462-0.769-4.929-1.404-7.314c-0.549-2.061-1.117-4.191-1.349-6.35      c-0.271-2.523-0.084-5.082,0.097-7.557c0.207-2.824,0.42-5.745-0.067-8.548c-0.205-1.179-0.54-2.368-0.864-3.518      c-0.356-1.263-0.724-2.57-0.933-3.897c-0.285-1.816-0.271-3.664-0.259-5.452c0.006-0.792,0.012-1.583-0.008-2.374      c-0.102-4.166-0.921-8.349-1.714-12.394l-3.874-19.78c-0.566-2.887-0.98-5.905,0.675-8.273c0.911-1.303,2.31-2.173,3.686-2.919      c4.32-2.342,9.005-3.926,13.926-4.707c1.01-0.16,2.172-0.286,3.165,0.256c1.51,0.826,1.745,2.611,1.775,4.247l0.565,30.319      c0.052,2.79,0.106,5.671,0.435,8.476c0.085,0.727,0.189,1.454,0.293,2.18c0.255,1.792,0.52,3.644,0.497,5.498      c-0.024,1.914-0.354,3.817-0.673,5.658c-0.298,1.723-0.607,3.504-0.653,5.257c-0.075,2.838,0.533,5.715,1.121,8.497      c0.605,2.866,1.231,5.83,1.139,8.815c-0.097,3.115-0.972,6.151-1.819,9.088c-0.717,2.487-1.458,5.059-1.706,7.633      c-0.354,3.673,0.286,7.425,0.904,11.053c0.459,2.692,0.933,5.477,1.014,8.25c0.128,4.447-0.95,7.863-3.207,10.154      C112.447,418.558,111.076,419.208,109.786,419.208z M112.177,292.868c-0.422,0-0.859,0.06-1.268,0.125      c-4.809,0.764-9.387,2.311-13.607,4.599c-1.269,0.688-2.552,1.48-3.344,2.614c-1.43,2.046-1.038,4.831-0.513,7.507l3.873,19.78      c0.8,4.086,1.628,8.311,1.732,12.561c0.02,0.801,0.014,1.604,0.008,2.406c-0.013,1.747-0.026,3.553,0.247,5.289      c0.199,1.269,0.559,2.546,0.907,3.782c0.331,1.174,0.673,2.388,0.887,3.618c0.508,2.924,0.291,5.907,0.079,8.792      c-0.178,2.431-0.361,4.944-0.1,7.377c0.224,2.082,0.782,4.176,1.321,6.2c0.649,2.436,1.321,4.956,1.437,7.526      c0.111,2.453-0.286,4.9-0.669,7.266c-0.319,1.969-0.649,4.004-0.676,6.005l0,0c-0.045,3.356,0.743,6.964,2.476,11.354      c0.161,0.408,0.347,0.994,0.563,1.674c0.789,2.491,2.108,6.661,3.978,6.851c1.092,0.115,2.326-0.439,3.381-1.51      c2.058-2.088,3.04-5.259,2.919-9.422c-0.079-2.704-0.547-5.453-1-8.111c-0.629-3.693-1.28-7.512-0.914-11.317      c0.257-2.667,1.011-5.284,1.741-7.814c0.83-2.878,1.688-5.853,1.78-8.842c0.089-2.864-0.524-5.768-1.118-8.576      c-0.6-2.839-1.22-5.775-1.142-8.73c0.048-1.826,0.363-3.644,0.668-5.402c0.313-1.802,0.636-3.665,0.658-5.5      c0.022-1.776-0.236-3.59-0.487-5.343c-0.105-0.735-0.21-1.47-0.295-2.205c-0.335-2.853-0.389-5.76-0.441-8.571l-0.565-30.321      c-0.025-1.35-0.194-2.808-1.255-3.389C113.067,292.936,112.63,292.868,112.177,292.868z"/>
			</g>
            <g>
				<path style="fill:#7C59CD;" d="M142.766,357.564c-0.104-6.72-14.383-2.264-17.661,1.193c-3.278,3.457-0.967,11.171-2.355,13.799      c-0.934,1.768-0.544,5.974-0.189,8.537c0.154,1.111-0.137,2.214-0.785,3.161c-1.561,2.286-2.791,7.676-6.46,15.54      c-4.485,9.613-18.262,9.692-18.262,9.692l1.034,6.213c37.674-0.281,44.783-51.415,44.783-51.415S142.87,364.284,142.766,357.564      z"/>
                <path style="fill:#6848B7;" d="M97.663,416.202l-1.2-7.213l0.587-0.004c0.135-0.001,13.515-0.194,17.812-9.403      c1.861-3.989,3.08-7.308,4.06-9.974c0.952-2.592,1.64-4.464,2.44-5.637c0.594-0.869,0.837-1.841,0.703-2.811      c-0.419-3.028-0.718-7.02,0.242-8.839c0.49-0.927,0.46-2.755,0.428-4.69c-0.054-3.273-0.114-6.983,2.007-9.22      c2.642-2.785,11.761-6.054,16.08-4.371c1.573,0.613,2.418,1.829,2.444,3.514l0.104,6.72      c-0.077,0.592-7.609,51.641-45.279,51.923L97.663,416.202z M97.64,409.967l0.87,5.226c36.45-0.655,43.795-50.474,43.865-50.979      l-0.109-6.644c-0.02-1.282-0.611-2.132-1.808-2.598c-3.928-1.533-12.577,1.581-14.991,4.127c-1.84,1.94-1.783,5.433-1.732,8.515      c0.035,2.157,0.065,4.02-0.544,5.173c-0.643,1.217-0.692,4.219-0.136,8.235c0.169,1.22-0.131,2.435-0.867,3.512      c-0.73,1.069-1.4,2.893-2.328,5.417c-0.986,2.684-2.213,6.025-4.092,10.052C111.681,408.766,100.378,409.837,97.64,409.967z"/>
			</g>
            <g>
				<path style="fill:#7C59CD;" d="M97.053,402.175c0,0-9.986-5.613-12.085-14.08c-3.816-15.394-2.385-44.145-4.355-47.061      c-3.616-5.351-14.731-7.751-18.574-7.562c-3.843,0.189,0.64,21.93,6.191,45.372c5.551,23.442,27.327,26.467,27.327,26.467"/>
                <path style="fill:#6848B7;" d="M95.489,405.806c-0.221-0.031-22.18-3.344-27.744-26.847      c-6.877-29.039-8.927-42.604-6.857-45.357c0.293-0.39,0.683-0.607,1.127-0.629c3.984-0.193,15.25,2.216,19.012,7.782      c0.886,1.31,1.109,6.395,1.429,15.269c0.373,10.353,0.836,23.236,2.997,31.952c2.023,8.163,11.746,13.71,11.844,13.764      l-0.49,0.872c-0.416-0.234-10.199-5.818-12.325-14.396c-2.186-8.816-2.651-21.758-3.026-32.156      c-0.263-7.302-0.49-13.608-1.258-14.745c-3.499-5.176-14.434-7.52-18.135-7.342c-0.098,0.005-0.23,0.035-0.377,0.232      c-2.671,3.553,4.377,33.32,7.03,44.525c5.404,22.822,26.695,26.057,26.909,26.087L95.489,405.806z"/>
			</g>
            <g>
				<path style="fill:#7C59CD;" d="M105.13,433.976c-1.837,0.697-3.914,0.211-5.227-1.25c-3.73-4.152-10.533-13.885-10.391-29.536      c0.195-21.54-0.979-20.76-0.002-27.388s-2.337-11.501-2.532-20.077c-0.195-8.577-3.704-21.442,0-23.391      c3.704-1.949,18.713-3.314,19.882,0c1.17,3.314,0.975,14.23,0,16.959c-0.975,2.729,2.144,6.628,1.949,14.425      c-0.195,7.797-1.17,19.298-2.144,24.171c-0.975,4.873,2.144,15.984,0.195,26.51c-1.054,5.69-0.057,10.412,1.081,13.549      C108.824,430.377,107.548,433.058,105.13,433.976L105.13,433.976z"/>
                <path style="fill:#6848B7;" d="M103.409,434.794c-1.455,0-2.864-0.606-3.878-1.735c-3.989-4.44-10.661-14.227-10.52-29.875      c0.095-10.488-0.132-15.614-0.282-19.006c-0.157-3.541-0.222-5.006,0.286-8.45c0.514-3.49-0.188-6.455-1-9.889      c-0.678-2.866-1.446-6.113-1.537-10.104c-0.062-2.737-0.47-5.953-0.864-9.063c-0.905-7.136-1.686-13.299,1.131-14.782      c3.185-1.677,14.471-2.961,18.795-1.264c0.961,0.377,1.564,0.895,1.792,1.54c1.204,3.412,1.03,14.408-0.001,17.293      c-0.396,1.109,0,2.525,0.547,4.486c0.649,2.324,1.538,5.506,1.431,9.783c-0.205,8.211-1.212,19.546-2.154,24.256      c-0.386,1.931-0.094,5.001,0.245,8.554c0.496,5.205,1.112,11.682-0.048,17.949c-1.05,5.672-0.003,10.357,1.06,13.288      c0.965,2.661-0.428,5.651-3.105,6.667l0,0C104.685,434.679,104.042,434.794,103.409,434.794z M99.487,330.822      c-4.684,0-10.28,0.902-12.276,1.953c-2.204,1.16-1.391,7.571-0.605,13.771c0.398,3.136,0.809,6.378,0.872,9.167      c0.088,3.886,0.811,6.941,1.51,9.896c0.801,3.387,1.558,6.586,1.016,10.265c-0.494,3.35-0.43,4.787-0.276,8.26      c0.15,3.403,0.378,8.545,0.283,19.06c-0.139,15.31,6.371,24.865,10.264,29.198c1.178,1.311,3.013,1.749,4.678,1.117l0,0      c2.168-0.823,3.298-3.242,2.518-5.392c-1.105-3.048-2.194-7.918-1.103-13.81c1.135-6.13,0.526-12.53,0.036-17.672      c-0.346-3.632-0.645-6.769-0.229-8.845c0.933-4.665,1.93-15.92,2.134-24.085c0.104-4.126-0.727-7.1-1.394-9.489      c-0.575-2.058-1.029-3.683-0.526-5.091c0.964-2.701,1.128-13.428-0.001-16.624c-0.124-0.354-0.544-0.68-1.213-0.942      C103.849,331.038,101.777,330.822,99.487,330.822z"/>
			</g>
            <g>
				<path style="fill:#A17AFA;" d="M118.27,410.508c0.308-1.908,1.075-3.741,0.986-5.681c-0.119-2.605-1.818-4.809-3.803-5.847      c-1.984-1.038-4.215-1.114-6.378-1.035c-1.989,0.072-4.066,0.294-5.753,1.567c-1.687,1.273-2.828,3.905-2.088,6.133      c0.322,0.967,0.948,1.747,1.298,2.699c0.578,1.572,0.339,3.378,0.248,5.095c-0.301,5.663-1.146,6.921,0.277,12.329      c-0.398-1.058-0.214,11.596,5.039,11.621c6.014,0.029,6.702-2.392,8.528-5.896c1.826-3.504,2.343-7.825,2.033-11.947      C118.431,416.528,117.789,413.482,118.27,410.508z"/>
                <path style="fill:#8D69E4;" d="M108.201,437.889c-0.036,0-0.071,0-0.107,0c-4.027-0.02-5.196-6.27-5.511-8.956      c-0.23-1.96-0.199-2.867-0.077-3.297c-0.989-3.861-0.814-5.612-0.529-8.472c0.104-1.051,0.224-2.243,0.303-3.751l0.048-0.786      c0.093-1.413,0.189-2.874-0.266-4.11c-0.154-0.417-0.368-0.803-0.594-1.212c-0.259-0.468-0.527-0.951-0.71-1.501      c-0.86-2.588,0.523-5.378,2.261-6.69c1.773-1.338,3.948-1.592,6.036-1.668c2.202-0.081,4.534-0.003,6.628,1.092      c2.354,1.231,3.953,3.691,4.071,6.267c0.061,1.333-0.256,2.607-0.563,3.838c-0.159,0.638-0.323,1.298-0.428,1.946      c-0.34,2.104-0.092,4.316,0.147,6.455c0.092,0.822,0.184,1.644,0.246,2.464c0.246,3.273,0.083,8.05-2.088,12.216      c-0.149,0.287-0.291,0.565-0.428,0.836C115.072,435.65,113.935,437.889,108.201,437.889z M103.15,425.765l0.307,0.133      c-0.164,0.658,0.137,6.893,2.313,9.689c0.678,0.871,1.44,1.297,2.329,1.301c0.035,0,0.071,0,0.106,0      c5.118,0,6.033-1.805,7.544-4.782c0.139-0.274,0.282-0.556,0.433-0.846c2.062-3.957,2.213-8.535,1.978-11.679      c-0.061-0.808-0.152-1.618-0.243-2.428c-0.247-2.206-0.503-4.487-0.141-6.727l0,0c0.112-0.69,0.281-1.37,0.445-2.028      c0.303-1.215,0.589-2.363,0.535-3.55c-0.102-2.227-1.49-4.358-3.536-5.428c-1.887-0.986-4.061-1.053-6.128-0.979      c-1.792,0.065-3.84,0.238-5.469,1.467c-1.481,1.118-2.602,3.509-1.914,5.576c0.154,0.462,0.388,0.885,0.635,1.332      c0.235,0.424,0.477,0.862,0.658,1.352c0.528,1.436,0.425,3.004,0.325,4.521l-0.047,0.773c-0.082,1.532-0.202,2.736-0.308,3.798      c-0.28,2.812-0.449,4.508,0.568,8.378L103.15,425.765z"/>
			</g>
            <g>
				<ellipse style="fill:#7C59CD;" cx="110.386" cy="402.239" rx="5.917" ry="2.168"/>
                <path style="fill:#7C59CD;" d="M110.386,404.907c-3.189,0-6.417-0.917-6.417-2.668c0-3.502,12.834-3.502,12.834,0      C116.803,403.99,113.575,404.907,110.386,404.907z M110.386,400.571c-3.307,0-5.417,0.988-5.417,1.667      c0,0.68,2.11,1.668,5.417,1.668c3.307,0,5.417-0.988,5.417-1.668C115.803,401.559,113.693,400.571,110.386,400.571z"/>
			</g>
            <g>
				<path style="fill:#5537A1;" d="M76.937,340.095c-0.186,0.679-3.14,0.461-6.598-0.487c-3.458-0.948-6.109-2.267-5.923-2.947      c0.186-0.679,3.14-0.462,6.598,0.487C74.471,338.096,77.123,339.416,76.937,340.095z"/>
                <path style="fill:#5537A1;" d="M75.585,340.991c-0.229,0-0.481-0.01-0.758-0.031c-1.277-0.094-2.919-0.403-4.621-0.87      c-1.126-0.309-6.72-1.932-6.273-3.562c0.449-1.629,6.087-0.172,7.213,0.136c1.703,0.467,3.271,1.038,4.418,1.609      c1.454,0.724,2.026,1.326,1.854,1.952l0,0C77.276,340.747,76.702,340.991,75.585,340.991z M65.016,336.826      c0.476,0.456,2.284,1.43,5.456,2.3c3.172,0.871,5.223,0.954,5.866,0.804c-0.475-0.456-2.283-1.43-5.456-2.3      C67.709,336.76,65.658,336.677,65.016,336.826z"/>
			</g>
            <g>
				<path style="fill:#5537A1;" d="M103.609,332.984c0.052,0.758-3.033,1.586-6.889,1.85c-3.857,0.264-7.025-0.137-7.077-0.894      c-0.052-0.758,3.033-1.586,6.889-1.85C100.388,331.826,103.557,332.227,103.609,332.984z"/>
                <path style="fill:#5537A1;" d="M94.411,335.416c-1.007,0-1.934-0.05-2.72-0.15c-1.716-0.217-2.502-0.615-2.548-1.292      c-0.122-1.781,6.104-2.298,7.354-2.383c1.896-0.128,3.694-0.106,5.063,0.067c1.716,0.217,2.501,0.615,2.548,1.292      c0.122,1.781-6.104,2.297-7.354,2.383C95.947,335.388,95.157,335.416,94.411,335.416z M90.233,333.9      c0.571,0.306,2.778,0.688,6.453,0.436c3.674-0.251,5.808-0.93,6.333-1.31c-0.572-0.306-2.778-0.688-6.453-0.436      C92.892,332.84,90.757,333.519,90.233,333.9z"/>
			</g>
            <g>
				<path style="fill:#5537A1;" d="M140.1,356.468c0.173,0.74-2.556,2.009-6.096,2.836c-3.539,0.827-6.549,0.897-6.721,0.158      c-0.173-0.74,2.556-2.01,6.096-2.836C136.918,355.799,139.927,355.729,140.1,356.468z"/>
                <path style="fill:#5537A1;" d="M129.154,360.481c-1.21,0-2.198-0.221-2.358-0.904c-0.151-0.648,0.462-1.269,1.932-1.953      c1.182-0.55,2.793-1.077,4.537-1.484c1.152-0.27,6.915-1.523,7.322,0.215c0.151,0.648-0.462,1.269-1.932,1.952      c-1.182,0.55-2.793,1.077-4.537,1.484C133.419,359.955,131.022,360.481,129.154,360.481z M127.84,359.332      c0.552,0.221,2.66,0.278,6.05-0.515c3.392-0.792,5.256-1.778,5.652-2.219c-0.551-0.22-2.659-0.278-6.05,0.514      C130.1,357.905,128.236,358.891,127.84,359.332z"/>
			</g>
            <g>
				<path style="fill:#43288B;" d="M112.377,296.451c0.323,1.034-2.77,2.921-6.91,4.215c-4.139,1.294-7.757,1.505-8.08,0.471      c-0.323-1.034,2.77-2.921,6.909-4.215C108.436,295.628,112.054,295.417,112.377,296.451z"/>
			</g>
            <g>
				<path style="fill:#43288B;" d="M136.377,298.243c-0.055,1.082-2.806,1.82-6.143,1.648s-5.997-1.187-5.942-2.269      c0.056-1.082,2.806-1.82,6.143-1.648C133.772,296.146,136.433,297.162,136.377,298.243z"/>
			</g>
		</g>
        <g>
			<g>
				<g>
					<path style="fill:#9DA29D;" d="M107.113,431.498c2.635,3.166,3.764,7.325,3.47,11.338c-0.038,0.514-0.112,1.062-0.465,1.455       c-0.432,0.481-1.156,0.602-1.818,0.687c-8.376,1.074-16.874,1.301-25.302,0.676c-0.772-0.057-1.631-0.164-2.118-0.731       c-0.327-0.381-0.413-0.893-0.468-1.381c-0.271-2.413-0.075-4.871,0.578-7.218c0.63-2.264,1.725-4.478,3.555-6.058       c3.018-2.607,7.937-2.992,11.832-3.572C100.481,426.084,104.642,428.529,107.113,431.498z"/>
                    <path style="fill:#747774;" d="M92.3,446.499c-3.118,0-6.234-0.115-9.34-0.346c-0.87-0.065-1.85-0.192-2.46-0.903       c-0.424-0.494-0.524-1.111-0.586-1.651c-0.281-2.493-0.081-4.985,0.592-7.408c0.753-2.706,2.002-4.827,3.711-6.303       c2.771-2.393,6.962-2.974,10.66-3.486c0.486-0.067,0.963-0.133,1.425-0.202c4.632-0.687,8.926,2.251,11.196,4.978l0,0       c2.594,3.116,3.9,7.379,3.584,11.695c-0.045,0.618-0.148,1.258-0.592,1.752c-0.54,0.602-1.347,0.749-2.127,0.85       C103.047,446.157,97.672,446.499,92.3,446.499z M97.689,427.098c-0.41,0-0.823,0.029-1.24,0.091       c-0.465,0.069-0.945,0.136-1.435,0.204c-3.561,0.493-7.597,1.052-10.144,3.252c-1.557,1.345-2.701,3.301-3.4,5.814       c-0.64,2.299-0.829,4.663-0.563,7.028c0.046,0.409,0.111,0.833,0.351,1.111c0.361,0.42,1.106,0.508,1.776,0.558       c8.389,0.623,16.867,0.396,25.201-0.673c0.593-0.076,1.199-0.179,1.51-0.525c0.255-0.284,0.309-0.747,0.339-1.158       c0.297-4.06-0.926-8.063-3.355-10.982l0,0C104.832,429.54,101.432,427.098,97.689,427.098z"/>
				</g>
			</g>
            <g>
				<g>
					<path style="fill:#898E89;" d="M130.119,432.047c2.931,3.521,4.186,8.147,3.859,12.611c-0.042,0.572-0.125,1.181-0.518,1.619       c-0.48,0.535-1.285,0.67-2.022,0.764c-9.316,1.195-18.768,1.447-28.141,0.751c-0.858-0.064-1.814-0.182-2.356-0.813       c-0.364-0.424-0.459-0.994-0.521-1.536c-0.302-2.683-0.083-5.418,0.643-8.027c0.7-2.518,1.919-4.98,3.954-6.738       c3.357-2.9,8.827-3.328,13.159-3.973C122.744,426.026,127.371,428.746,130.119,432.047z"/>
                    <path style="fill:#686B68;" d="M113.641,448.675c-3.466,0-6.93-0.128-10.381-0.384c-0.956-0.071-2.033-0.211-2.698-0.985       c-0.461-0.537-0.571-1.214-0.638-1.806c-0.311-2.764-0.089-5.529,0.658-8.217c0.834-2.999,2.216-5.348,4.109-6.983       c3.069-2.651,7.722-3.295,11.827-3.864c0.541-0.075,1.071-0.148,1.585-0.225c5.126-0.76,9.885,2.495,12.4,5.517l0,0       c2.876,3.455,4.324,8.181,3.974,12.967c-0.05,0.677-0.162,1.378-0.644,1.915c-0.588,0.655-1.475,0.817-2.332,0.927       C125.591,448.295,119.615,448.675,113.641,448.675z M119.638,427.098c-0.459,0-0.921,0.033-1.387,0.102       c-0.517,0.077-1.051,0.151-1.596,0.226c-3.968,0.55-8.465,1.173-11.311,3.63c-1.741,1.504-3.019,3.689-3.799,6.494       c-0.713,2.564-0.924,5.201-0.627,7.838c0.052,0.464,0.126,0.944,0.403,1.266c0.416,0.483,1.257,0.584,2.014,0.64       c9.331,0.692,18.765,0.441,28.041-0.749c0.67-0.086,1.355-0.203,1.714-0.602c0.295-0.33,0.357-0.855,0.391-1.321       c0.332-4.53-1.034-8.997-3.745-12.254C127.618,429.824,123.821,427.098,119.638,427.098z"/>
				</g>
			</g>
		</g>
        <g>
			<path style="fill:#6848B7;" d="M65.424,350.83c-0.227,0-0.432-0.155-0.486-0.385c-0.542-2.282-0.856-4.63-0.936-6.979     c-0.009-0.276,0.207-0.507,0.482-0.517c0.286-0.028,0.508,0.207,0.517,0.483c0.077,2.282,0.383,4.564,0.909,6.782     c0.064,0.268-0.102,0.538-0.371,0.602C65.501,350.826,65.462,350.83,65.424,350.83z"/>
		</g>
        <g>
			<path style="fill:#6848B7;" d="M67.695,354.467c-0.238,0-0.449-0.17-0.492-0.412c-0.371-2.078-0.459-4.199-0.263-6.303     c0.026-0.275,0.271-0.48,0.544-0.452c0.275,0.026,0.477,0.27,0.452,0.544c-0.188,2.015-0.104,4.044,0.251,6.034     c0.048,0.272-0.132,0.532-0.404,0.58C67.754,354.465,67.724,354.467,67.695,354.467z"/>
		</g>
        <g>
			<path style="fill:#6848B7;" d="M105.288,370.026c-0.021,0-0.041-0.001-0.062-0.004c-0.274-0.034-0.469-0.283-0.435-0.557     l0.755-6.114c0.034-0.274,0.291-0.471,0.557-0.435c0.274,0.034,0.469,0.283,0.435,0.557l-0.755,6.114     C105.753,369.841,105.537,370.026,105.288,370.026z"/>
		</g>
        <g>
			<path style="fill:#6848B7;" d="M103.305,364.354c-0.014,0-0.027,0-0.041-0.001c-0.275-0.022-0.48-0.264-0.458-0.539     c0.158-1.952,0.099-3.926-0.176-5.866c-0.039-0.273,0.151-0.526,0.425-0.565c0.275-0.041,0.526,0.151,0.565,0.425     c0.285,2.013,0.347,4.061,0.183,6.087C103.781,364.155,103.562,364.354,103.305,364.354z"/>
		</g>
        <g>
			<path style="fill:#6848B7;" d="M96.541,419.306c-0.156,0-0.311-0.073-0.408-0.21c-2.1-2.95-3.271-6.568-3.301-10.189     c-0.002-0.276,0.22-0.501,0.496-0.504c0.299,0.009,0.502,0.22,0.504,0.496c0.027,3.417,1.134,6.832,3.115,9.616     c0.16,0.225,0.108,0.537-0.117,0.697C96.743,419.276,96.641,419.306,96.541,419.306z"/>
		</g>
        <g>
			<path style="fill:#6848B7;" d="M96.705,413.022c-0.173,0-0.342-0.09-0.434-0.251c-1.169-2.037-1.776-4.355-1.757-6.704     c0.003-0.275,0.226-0.496,0.5-0.496c0.002,0,0.003,0,0.004,0c0.276,0.002,0.499,0.228,0.496,0.504     c-0.018,2.172,0.545,4.315,1.624,6.199c0.138,0.239,0.055,0.545-0.185,0.682C96.875,413,96.79,413.022,96.705,413.022z"/>
		</g>
        <g>
			<path style="fill:#747774;" d="M83.578,443.089c-0.011,0-0.021,0-0.032-0.001c-0.276-0.017-0.485-0.255-0.467-0.531     c0.107-1.679,0.46-3.329,1.05-4.905c0.097-0.258,0.384-0.388,0.644-0.293c0.258,0.097,0.39,0.385,0.293,0.644     c-0.555,1.484-0.887,3.038-0.988,4.618C84.06,442.885,83.84,443.089,83.578,443.089z"/>
		</g>
        <g>
			<path style="fill:#747774;" d="M86.579,440.299c-0.038,0-0.076-0.004-0.115-0.013c-0.269-0.063-0.436-0.333-0.373-0.601     c0.385-1.639,1.296-3.151,2.564-4.258c0.208-0.182,0.523-0.16,0.706,0.048c0.181,0.208,0.16,0.524-0.048,0.706     c-1.112,0.97-1.911,2.296-2.248,3.732C87.011,440.144,86.805,440.299,86.579,440.299z"/>
		</g>
        <g>
			<path style="fill:#686B68;" d="M104.988,435.816c-0.089,0-0.179-0.023-0.26-0.073c-0.236-0.144-0.31-0.452-0.166-0.688     c0.64-1.046,1.523-1.951,2.553-2.617c0.919-0.593,1.775-0.823,2.545-0.685c0.271,0.049,0.453,0.309,0.404,0.581     c-0.049,0.271-0.313,0.45-0.581,0.404c-0.513-0.093-1.127,0.09-1.826,0.541c-0.905,0.585-1.68,1.38-2.242,2.299     C105.321,435.731,105.156,435.816,104.988,435.816z"/>
		</g>
        <g>
			<path style="fill:#686B68;" d="M109.08,434.868c-0.192,0-0.375-0.111-0.458-0.298c-0.111-0.253,0.004-0.548,0.256-0.659     c1.408-0.62,2.897-1.015,4.426-1.174c0.278-0.024,0.521,0.171,0.549,0.446c0.028,0.275-0.171,0.521-0.446,0.549     c-1.426,0.148-2.815,0.516-4.127,1.094C109.216,434.854,109.147,434.868,109.08,434.868z"/>
		</g>
        <g>
			<path style="fill:#6848B7;" d="M137.946,367.604c-0.095,0-0.192-0.027-0.277-0.084c-0.229-0.153-0.291-0.464-0.138-0.693     c0.765-1.145,1.196-2.534,1.213-3.912c0.003-0.274,0.227-0.494,0.5-0.494c0.002,0,0.004,0,0.006,0     c0.276,0.004,0.497,0.23,0.494,0.506c-0.02,1.569-0.51,3.151-1.381,4.455C138.266,367.526,138.107,367.604,137.946,367.604z"/>
		</g>
        <g>
			<path style="fill:#6848B7;" d="M135.087,370.924c-0.027,0-0.055-0.002-0.083-0.007c-0.273-0.045-0.456-0.303-0.411-0.576     l0.961-5.758c0.046-0.272,0.296-0.459,0.576-0.411c0.272,0.045,0.456,0.303,0.411,0.576l-0.962,5.758     C135.539,370.751,135.327,370.924,135.087,370.924z"/>
		</g>
        <g>
			<path style="fill:#6848B7;" d="M120.308,396.225c-0.085,0-0.171-0.021-0.25-0.067c-0.239-0.139-0.321-0.444-0.182-0.683     l2.859-4.932c0.139-0.239,0.443-0.321,0.684-0.182c0.239,0.139,0.32,0.444,0.182,0.684l-2.859,4.931     C120.648,396.136,120.48,396.225,120.308,396.225z"/>
		</g>
        <g>
			<path style="fill:#6848B7;" d="M124.077,394.223c-0.098,0-0.197-0.029-0.283-0.088c-0.228-0.157-0.285-0.468-0.128-0.695     c0.682-0.989,1.236-2.064,1.648-3.194c0.095-0.259,0.383-0.392,0.641-0.299c0.26,0.094,0.394,0.381,0.299,0.641     c-0.44,1.21-1.034,2.36-1.764,3.419C124.392,394.147,124.236,394.223,124.077,394.223z"/>
		</g>
        <g>
			<path style="fill:#8D69E4;" d="M108.929,412.65c-0.082,0-0.166-0.021-0.243-0.063c-1.939-1.081-3.414-2.923-4.043-5.053     c-0.078-0.265,0.073-0.543,0.338-0.621c0.262-0.079,0.543,0.073,0.621,0.338c0.556,1.881,1.858,3.507,3.572,4.463     c0.241,0.134,0.328,0.439,0.193,0.68C109.274,412.557,109.104,412.65,108.929,412.65z"/>
		</g>
        <g>
			<path style="fill:#8D69E4;" d="M107.283,416.137c-0.144,0-0.286-0.061-0.385-0.18c-1.19-1.429-1.986-3.153-2.301-4.986     c-0.047-0.272,0.136-0.53,0.408-0.577c0.272-0.047,0.53,0.136,0.577,0.408c0.285,1.659,1.006,3.221,2.084,4.515     c0.177,0.212,0.148,0.527-0.064,0.704C107.509,416.099,107.395,416.137,107.283,416.137z"/>
		</g>
        <g>
			<path style="fill:#43288B;" d="M98.199,317.416c-0.215,0-0.414-0.14-0.479-0.356c-1.091-3.635-1.755-7.4-1.973-11.19     c-0.016-0.276,0.195-0.512,0.47-0.528c0.264-0.015,0.512,0.195,0.528,0.47c0.213,3.713,0.863,7.4,1.933,10.96     c0.079,0.265-0.071,0.543-0.335,0.623C98.295,317.409,98.246,317.416,98.199,317.416z"/>
		</g>
        <g>
			<path style="fill:#43288B;" d="M101.064,319.377c-0.197,0-0.384-0.118-0.463-0.312c-1.233-3.04-1.88-6.247-1.922-9.531     c-0.003-0.276,0.217-0.503,0.494-0.506c0.284-0.03,0.503,0.217,0.506,0.494c0.04,3.114,0.679,6.284,1.849,9.168     c0.104,0.256-0.02,0.547-0.275,0.651C101.19,319.365,101.126,319.377,101.064,319.377z"/>
		</g>
        <g>
			<path style="fill:#43288B;" d="M129.302,344.698c-0.053,0-0.106-0.008-0.16-0.026c-0.262-0.088-0.402-0.372-0.314-0.634     c0.787-2.337,1.243-4.771,1.355-7.234c0.012-0.276,0.246-0.494,0.522-0.477c0.276,0.013,0.489,0.247,0.477,0.522     c-0.117,2.556-0.59,5.082-1.406,7.507C129.705,344.566,129.511,344.698,129.302,344.698z"/>
		</g>
        <g>
			<path style="fill:#43288B;" d="M127.845,339.002c-0.041,0-0.083-0.005-0.124-0.016c-0.268-0.068-0.429-0.34-0.361-0.608     c0.484-1.902,0.665-3.859,0.539-5.817c-0.018-0.275,0.191-0.513,0.467-0.531c0.275-0.015,0.513,0.191,0.531,0.467     c0.133,2.063-0.058,4.125-0.568,6.129C128.271,338.851,128.068,339.002,127.845,339.002z"/>
		</g>
        <g>
			<path style="fill:#43288B;" d="M125.408,306.22c-0.129,0-0.257-0.049-0.355-0.148c-0.933-0.941-1.53-2.239-1.638-3.56     c-0.022-0.275,0.183-0.517,0.458-0.539c0.272-0.015,0.516,0.183,0.539,0.458c0.088,1.09,0.581,2.161,1.351,2.937     c0.194,0.196,0.193,0.513-0.003,0.707C125.662,306.172,125.535,306.22,125.408,306.22z"/>
		</g>
        <g>
			<path style="fill:#43288B;" d="M125.073,308.71c-0.117,0-0.234-0.041-0.329-0.124c-0.819-0.716-1.499-1.562-2.023-2.512     c-0.133-0.242-0.045-0.546,0.197-0.679c0.243-0.133,0.547-0.046,0.679,0.197c0.467,0.849,1.074,1.603,1.805,2.242     c0.208,0.182,0.229,0.498,0.047,0.706C125.35,308.652,125.212,308.71,125.073,308.71z"/>
		</g>
	</g></svg>