<svg version="1.1" xmlns="http://www.w3.org/2000/svg" xmlns:xlink="http://www.w3.org/1999/xlink" x="0px" y="0px" viewBox="361.4466525075917 312.8013302023815 61.306865309873615 135.8736697976185" style="enable-background:new 0 0 500 500;" xml:space="preserve"><g id="a6">
		<g>
			<g>
				<g>
					<g>
						<path style="fill:#3A6676;" d="M394.744,396.129c-0.764-4.598,0.056-9.376,2.321-13.533c1.025-1.88,2.345-3.654,2.974-5.671        c0.629-2.016,0.417-4.425-1.288-5.898c-0.996-0.86-2.394-1.316-3.268-2.275c-1.998-2.191-0.222-5.35,1.408-7.731        c1.904-2.782,3.597-6.28,1.901-9.205c-0.49-0.845-1.229-1.559-1.754-2.387c-3.105-4.898,2.173-11.592-1.15-16.378        c-0.656-0.945-1.601-1.714-2.241-2.668c-2.326-3.467,1.609-7.703,1.036-11.689c-0.229-1.59-2.424-4.29-4.226-4.383        c-3.606-0.186-5.853,2.115-6.477,3.831c-1.48,4.073-0.214,8.826-0.419,13.114c-0.06,1.244-0.07,2.517-0.553,3.681        c-0.673,1.621-2.191,2.856-2.971,4.438c-2.193,4.448,2.062,9.488,1.597,14.343c-0.334,3.491-3.102,6.601-2.894,10.106        c0.141,2.381,1.656,4.575,1.866,6.953c0.241,2.734-1.265,5.442-0.74,8.148c0.296,1.525,1.217,2.905,2.262,4.151        c2.368,2.827,5.43,5.151,7.827,7.959c2.397,2.808,4.135,6.386,3.223,9.782"/>
                        <path style="fill:#2F535B;" d="M393.659,400.948l-0.966-0.259c1.008-3.755-1.522-7.456-3.121-9.328        c-1.157-1.355-2.503-2.626-3.805-3.856c-1.376-1.299-2.798-2.643-4.025-4.107c-0.849-1.014-2.019-2.57-2.369-4.377        c-0.301-1.551,0.019-3.08,0.327-4.56c0.263-1.258,0.511-2.446,0.406-3.639c-0.097-1.093-0.486-2.146-0.898-3.261        c-0.439-1.186-0.892-2.412-0.969-3.706c-0.121-2.039,0.697-3.93,1.488-5.758c0.622-1.438,1.264-2.924,1.408-4.425        c0.188-1.971-0.464-4.049-1.095-6.059c-0.884-2.816-1.799-5.728-0.453-8.458c0.388-0.788,0.94-1.484,1.475-2.158        c0.592-0.747,1.151-1.453,1.482-2.251c0.404-0.972,0.451-2.033,0.5-3.156l0.016-0.357c0.07-1.462-0.038-3.025-0.142-4.536        c-0.202-2.935-0.411-5.969,0.59-8.725c0.647-1.783,3.045-4.357,6.973-4.16c2.148,0.111,4.446,3.077,4.695,4.811        c0.26,1.807-0.331,3.611-0.902,5.356c-0.729,2.228-1.418,4.332-0.214,6.126c0.307,0.457,0.69,0.871,1.097,1.31        c0.393,0.424,0.8,0.862,1.14,1.352c1.8,2.592,1.251,5.659,0.72,8.625c-0.507,2.836-0.987,5.515,0.442,7.77        c0.228,0.36,0.501,0.698,0.789,1.056c0.341,0.423,0.693,0.861,0.976,1.348c1.464,2.525,0.835,5.71-1.922,9.738        c-1.584,2.315-3.18,5.216-1.45,7.112c0.436,0.479,1.038,0.828,1.675,1.198c0.529,0.307,1.076,0.625,1.551,1.035        c2,1.728,2.054,4.452,1.438,6.426c-0.457,1.468-1.265,2.809-2.046,4.105c-0.33,0.549-0.661,1.098-0.965,1.656        c-2.205,4.046-3.01,8.739-2.267,13.212l-0.986,0.164c-0.78-4.692,0.063-9.613,2.375-13.854        c0.311-0.571,0.649-1.132,0.987-1.693c0.785-1.303,1.526-2.534,1.948-3.887c0.522-1.671,0.497-3.96-1.137-5.371        c-0.405-0.35-0.888-0.63-1.399-0.927c-0.674-0.392-1.372-0.797-1.912-1.389c-2.203-2.415-0.428-5.731,1.364-8.351        c2.518-3.677,3.133-6.514,1.882-8.671c-0.244-0.42-0.557-0.81-0.889-1.223c-0.293-0.364-0.596-0.74-0.854-1.148        c-1.637-2.583-1.101-5.582-0.582-8.481c0.518-2.894,1.007-5.627-0.557-7.879c-0.299-0.431-0.664-0.825-1.051-1.242        c-0.415-0.447-0.844-0.91-1.194-1.432c-1.476-2.199-0.678-4.637,0.094-6.994c0.535-1.636,1.089-3.328,0.862-4.903        c-0.21-1.462-2.298-3.88-3.757-3.955c-3.382-0.169-5.435,1.999-5.981,3.503c-0.929,2.557-0.728,5.484-0.532,8.315        c0.106,1.54,0.216,3.132,0.143,4.653l-0.016,0.353c-0.051,1.16-0.104,2.36-0.575,3.496c-0.385,0.926-1.014,1.72-1.622,2.488        c-0.525,0.662-1.02,1.287-1.362,1.979c-1.168,2.37-0.353,4.967,0.51,7.716c0.661,2.104,1.344,4.28,1.136,6.453        c-0.158,1.658-0.833,3.218-1.485,4.727c-0.778,1.8-1.514,3.502-1.407,5.302c0.068,1.146,0.477,2.25,0.909,3.418        c0.417,1.128,0.848,2.294,0.957,3.521c0.118,1.34-0.157,2.658-0.423,3.932c-0.302,1.446-0.587,2.811-0.325,4.165        c0.233,1.202,0.918,2.449,2.154,3.925c1.189,1.419,2.59,2.743,3.945,4.023c1.321,1.247,2.687,2.538,3.879,3.934        C392.059,392.733,394.785,396.751,393.659,400.948z"/>
					</g>
                    <g>
						<path style="fill:#2F535B;" d="M389.88,314.855c-1.145,3.271-2.35,6.585-2.559,10.029c-0.113,1.714,0.04,3.425,0.51,5.071        c0.456,1.651,1.128,3.246,1.736,4.886c0.608,1.634,1.164,3.345,1.285,5.153c0.134,1.813-0.219,3.601-0.669,5.291        c-0.444,1.699-1.001,3.343-1.307,5.011c-0.333,1.675-0.339,3.319,0.102,4.967c0.197,0.835,0.421,1.705,0.49,2.634        c0.065,0.934-0.073,1.876-0.325,2.744c-0.508,1.74-1.345,3.28-1.753,4.894c-0.428,1.599-0.217,3.277,0.307,4.887        c0.52,1.615,1.288,3.177,1.892,4.834c1.228,3.333,1.622,6.852,1.953,10.305c0.309,3.461,0.571,6.933,1.523,10.284l-0.05,0.008        l0.017-0.891l0.034,0.891l0.007,0.172l-0.056-0.164c-2.286-6.626-1.611-13.918-4.162-20.323        c-0.638-1.59-1.425-3.152-1.984-4.846c-0.568-1.673-0.835-3.584-0.368-5.375c0.439-1.768,1.271-3.328,1.717-4.935        c0.224-0.803,0.331-1.608,0.27-2.409c-0.061-0.808-0.288-1.628-0.479-2.484c-0.454-1.722-0.437-3.644-0.066-5.369        c0.339-1.753,0.918-3.408,1.366-5.067c0.456-1.655,0.795-3.331,0.685-5c-0.108-1.672-0.582-3.323-1.142-4.955        c-0.557-1.633-1.197-3.268-1.624-4.983c-0.44-1.715-0.563-3.516-0.386-5.268C387.222,321.325,388.53,318.048,389.88,314.855z"/>
					</g>
				</g>
                <g>
					<g>
						<path style="fill:#498089;" d="M375.896,408.254c-1.687-1.944-2.542-4.4-2.371-6.813c0.26-3.678,2.769-7.447,1.105-10.849        c-0.63-1.288-1.806-2.344-2.412-3.641c-1.642-3.512,1.285-7.68-0.342-11.197c-0.638-1.38-1.905-2.47-2.834-3.724        c-1.778-2.4-2.266-5.463-1.303-8.178c0.565-1.593,1.601-3.072,1.864-4.721c0.498-3.125-1.837-6.025-2.607-9.11        c-0.432-1.733-0.361-3.555,0.206-5.26c0.621-1.868,2.229-3.798,4.511-3.846c1.878-0.039,3.459,1.234,4.381,2.626        c3.81,5.756-0.222,13.322,2.658,19.456c1.389,2.958,4.32,5.396,4.891,8.544c0.744,4.101-2.756,8.195-1.702,12.246        c0.798,3.07,4.061,5.376,4.736,8.468c0.741,3.394-1.828,6.826-1.174,10.233c0.405,2.11,2.02,3.994,2.114,6.13        c0.072,1.643-0.765,3.2-1.289,4.782c-0.466,1.406-0.767,3.069-0.094,4.532C384.116,414.028,378.85,411.659,375.896,408.254z"/>
                        <path style="fill:#3A6676;" d="M385.794,418.172c-1.187-2.189-3.488-3.937-5.713-5.628c-1.623-1.233-3.301-2.508-4.562-3.962        h-0.001c-1.762-2.032-2.67-4.647-2.492-7.175c0.095-1.352,0.48-2.706,0.853-4.015c0.665-2.34,1.293-4.551,0.302-6.579        c-0.287-0.587-0.699-1.126-1.136-1.698c-0.466-0.61-0.948-1.241-1.28-1.951c-0.888-1.9-0.546-3.934-0.215-5.901        c0.318-1.894,0.619-3.683-0.127-5.298c-0.383-0.828-1.018-1.552-1.69-2.319c-0.37-0.422-0.752-0.859-1.093-1.317        c-1.879-2.536-2.393-5.767-1.372-8.643c0.224-0.632,0.518-1.244,0.802-1.836c0.457-0.951,0.888-1.848,1.039-2.797        c0.296-1.855-0.498-3.651-1.337-5.553c-0.479-1.084-0.974-2.206-1.262-3.357c-0.456-1.827-0.381-3.742,0.217-5.539        c0.681-2.047,2.483-4.136,4.975-4.188c1.763-0.029,3.602,1.027,4.808,2.85c2.115,3.195,1.918,6.919,1.727,10.521        c-0.163,3.066-0.33,6.237,0.967,8.999c0.536,1.141,1.336,2.238,2.111,3.299c1.208,1.655,2.457,3.367,2.82,5.368        c0.382,2.105-0.279,4.175-0.918,6.178c-0.669,2.098-1.301,4.079-0.793,6.032c0.366,1.407,1.288,2.648,2.265,3.963        c1.037,1.395,2.108,2.838,2.476,4.524c0.401,1.839-0.097,3.657-0.579,5.416c-0.46,1.677-0.894,3.262-0.593,4.83        c0.168,0.878,0.563,1.719,0.981,2.608c0.534,1.136,1.086,2.309,1.142,3.595c0.059,1.327-0.418,2.571-0.879,3.774        c-0.152,0.395-0.303,0.79-0.434,1.186c-0.572,1.727-0.753,3.41-0.259,4.486L385.794,418.172z M376.274,407.927        c1.193,1.375,2.83,2.619,4.412,3.821c1.659,1.26,3.357,2.551,4.661,4.06c0.028-0.776,0.197-1.628,0.507-2.563        c0.136-0.411,0.293-0.82,0.45-1.23c0.444-1.159,0.864-2.253,0.814-3.373c-0.048-1.085-0.533-2.119-1.047-3.214        c-0.426-0.906-0.866-1.843-1.059-2.845c-0.345-1.796,0.141-3.568,0.611-5.282c0.47-1.717,0.915-3.34,0.566-4.938        c-0.322-1.475-1.284-2.77-2.302-4.141c-0.991-1.333-2.015-2.712-2.43-4.307c-0.581-2.233,0.126-4.447,0.808-6.587        c0.629-1.973,1.223-3.836,0.886-5.696c-0.322-1.775-1.449-3.321-2.643-4.957c-0.802-1.099-1.632-2.236-2.208-3.464        c-1.404-2.989-1.229-6.287-1.061-9.477c0.19-3.598,0.371-6.997-1.562-9.917c-0.38-0.575-1.792-2.46-3.953-2.401        c-2.005,0.042-3.478,1.79-4.047,3.503c-0.538,1.616-0.605,3.338-0.195,4.981c0.266,1.068,0.744,2.149,1.206,3.195        c0.861,1.951,1.753,3.968,1.41,6.114c-0.174,1.093-0.657,2.099-1.125,3.072c-0.273,0.568-0.555,1.156-0.761,1.737        c-0.909,2.562-0.448,5.445,1.233,7.713c0.315,0.426,0.685,0.847,1.041,1.254c0.689,0.787,1.402,1.6,1.845,2.558        c0.876,1.896,0.536,3.924,0.206,5.884c-0.319,1.899-0.621,3.693,0.135,5.311c0.286,0.613,0.715,1.173,1.168,1.768        c0.447,0.585,0.909,1.19,1.24,1.866c1.159,2.372,0.449,4.873-0.239,7.292c-0.358,1.26-0.728,2.564-0.817,3.812        C373.864,403.743,374.684,406.094,376.274,407.927L376.274,407.927z"/>
					</g>
                    <g>
						<path style="fill:#3A6676;" d="M385.458,416.829c-0.168-1.616-0.473-3.211-1.078-4.694c-0.591-1.485-1.53-2.851-2.278-4.377        c-0.724-1.541-1.341-3.052-1.898-4.652c-0.531-1.592-0.934-3.269-0.934-4.985c-0.011-3.425,1.351-6.612,0.94-9.834        c-0.418-3.229-2.559-5.945-3.764-9.073c-0.293-0.789-0.54-1.603-0.66-2.447c-0.113-0.844-0.11-1.703-0.01-2.534        c0.17-1.653,0.555-3.299,0.18-4.874c-0.369-1.576-1.624-2.781-2.379-4.286c-0.772-1.493-1.203-3.156-1.257-4.832        c-0.069-1.688,0.365-3.324,0.709-4.933c0.353-1.604,0.563-3.289,0.071-4.877c-0.465-1.586-1.358-3.006-2.025-4.524        c-0.671-1.49-1.078-3.257-0.423-4.824c-0.633,1.576-0.204,3.322,0.483,4.798c0.683,1.504,1.595,2.911,2.088,4.514        c0.521,1.61,0.326,3.339-0.008,4.951c-0.327,1.624-0.732,3.242-0.643,4.886c0.072,1.637,0.515,3.254,1.283,4.695        c0.734,1.443,2.029,2.633,2.466,4.341c0.421,1.691,0.032,3.387-0.109,5.007c-0.205,1.632,0.085,3.243,0.699,4.757        c1.191,3.022,3.407,5.719,3.916,9.171c0.461,3.445-0.884,6.69-0.81,9.908c0.068,3.225,1.508,6.306,2.864,9.256        c0.725,1.442,1.7,2.816,2.363,4.409c0.67,1.583,1.013,3.273,1.208,4.946L385.458,416.829z"/>
					</g>
				</g>
                <g>
					<g>
						<path style="fill:#498089;" d="M399.82,415.68c-0.109-5.029-0.018-14.602-1.767-19.211c-0.791-2.085-1.869-4.084-2.276-6.276        c-0.408-2.192,0.009-4.723,1.742-6.125c1.012-0.819,2.365-1.173,3.272-2.107c2.073-2.135,0.693-5.643-0.621-8.313        c-1.535-3.12-2.806-6.978-0.951-9.919c0.536-0.849,1.294-1.537,1.861-2.365c3.356-4.899-0.989-12.471,2.562-17.231        c0.701-0.94,1.657-1.667,2.344-2.618c2.496-3.456,0.663-8.325,1.562-12.492c0.358-1.662,1.53-3.451,3.229-3.406        c1.923,0.051,2.918,2.285,3.348,4.16c1.019,4.447,1.439,9.032,1.243,13.59c-0.057,1.322-0.162,2.671,0.186,3.948        c0.485,1.777,1.797,3.225,2.385,4.971c1.654,4.91-2.793,9.854-2.797,15.035c-0.003,3.726,2.313,7.273,1.8,10.964        c-0.348,2.507-1.967,4.691-2.379,7.189c-0.474,2.872,0.694,5.877-0.043,8.693c-0.415,1.587-1.405,2.963-2.497,4.186        c-2.477,2.775-5.56,4.954-8.062,7.706c-2.502,2.752-4.457,6.38-3.909,10.059L399.82,415.68z"/>
                        <path style="fill:#3A6676;" d="M399.729,419.381l-0.407-3.571l-0.002-0.119c-0.013-0.617-0.023-1.302-0.035-2.038        c-0.078-5.194-0.196-13.045-1.7-17.006c-0.235-0.62-0.497-1.232-0.757-1.844c-0.613-1.44-1.248-2.93-1.544-4.518        c-0.395-2.123-0.098-4.973,1.919-6.605c0.485-0.392,1.028-0.679,1.553-0.956c0.629-0.332,1.223-0.646,1.674-1.111        c1.823-1.877,0.578-5.125-0.71-7.744c-2.208-4.49-2.51-7.894-0.925-10.406c0.308-0.487,0.677-0.917,1.035-1.334        c0.303-0.353,0.59-0.686,0.837-1.047c1.559-2.276,1.35-5.171,1.13-8.236c-0.229-3.172-0.464-6.453,1.443-9.011        c0.362-0.485,0.783-0.912,1.19-1.324c0.421-0.427,0.82-0.831,1.149-1.287c1.428-1.978,1.338-4.487,1.242-7.143        c-0.062-1.713-0.125-3.485,0.236-5.161c0.403-1.867,1.74-3.83,3.732-3.8c1.777,0.047,3.17,1.705,3.822,4.547        c1.031,4.496,1.453,9.113,1.255,13.724l-0.017,0.375c-0.053,1.15-0.109,2.339,0.186,3.421        c0.241,0.883,0.703,1.684,1.192,2.532c0.439,0.76,0.893,1.546,1.184,2.411c1.005,2.983-0.11,5.967-1.189,8.852        c-0.776,2.076-1.58,4.223-1.581,6.344c-0.001,1.615,0.469,3.254,0.923,4.838c0.574,2,1.167,4.068,0.871,6.194        c-0.188,1.35-0.722,2.602-1.238,3.813c-0.489,1.147-0.952,2.23-1.143,3.389c-0.209,1.266-0.083,2.553,0.05,3.916        c0.155,1.585,0.315,3.225-0.103,4.822c-0.489,1.867-1.723,3.401-2.608,4.393c-1.283,1.437-2.739,2.728-4.147,3.977        c-1.332,1.182-2.71,2.403-3.918,3.732c-1.676,1.842-4.655,8.018-4.043,12.121L399.729,419.381z M410.717,326.116        c-1.334,0-2.356,1.506-2.681,3.012c-0.335,1.554-0.274,3.262-0.214,4.914c0.097,2.708,0.198,5.509-1.431,7.765        c-0.375,0.518-0.819,0.969-1.249,1.404c-0.4,0.406-0.779,0.789-1.1,1.219c-1.685,2.26-1.473,5.214-1.248,8.342        c0.224,3.102,0.454,6.309-1.302,8.873c-0.278,0.406-0.596,0.776-0.903,1.134c-0.35,0.407-0.68,0.791-0.948,1.216        c-1.385,2.194-1.065,5.279,0.977,9.431c1.433,2.914,2.788,6.557,0.531,8.882c-0.562,0.579-1.255,0.945-1.925,1.299        c-0.505,0.267-0.982,0.518-1.391,0.849c-1.676,1.356-1.907,3.806-1.565,5.646c0.275,1.479,0.86,2.853,1.48,4.308        c0.266,0.624,0.532,1.249,0.772,1.882c1.317,3.469,1.611,9.645,1.719,14.652c0.873-2.23,2.303-4.07,3.352-5.223        c1.244-1.368,2.642-2.608,3.994-3.807c1.387-1.23,2.821-2.502,4.065-3.895c1.298-1.453,2.057-2.718,2.387-3.98        c0.373-1.425,0.228-2.905,0.075-4.471c-0.134-1.367-0.272-2.781-0.042-4.177c0.21-1.277,0.719-2.467,1.21-3.618        c0.513-1.203,0.998-2.339,1.167-3.558c0.266-1.917-0.272-3.794-0.843-5.781c-0.474-1.651-0.963-3.358-0.962-5.115        c0.002-2.301,0.837-4.534,1.645-6.693c1.064-2.847,2.07-5.535,1.178-8.182c-0.26-0.77-0.669-1.479-1.102-2.23        c-0.5-0.866-1.017-1.761-1.292-2.769c-0.336-1.233-0.277-2.502-0.22-3.729l0.017-0.371c0.194-4.522-0.221-9.049-1.231-13.457        c-0.256-1.118-1.049-3.723-2.873-3.771C410.749,326.116,410.733,326.116,410.717,326.116z"/>
					</g>
                    <g>
						<path style="fill:#3A6676;" d="M399.215,416.138c-0.133-3.963,0.527-7.884,1.572-11.656c0.528-1.887,1.151-3.745,1.856-5.569        c0.7-1.83,1.512-3.598,2.187-5.401c0.682-1.801,1.206-3.642,1.362-5.548c0.179-1.898,0.166-3.932,0.936-5.825        c0.743-1.853,1.96-3.436,2.241-5.286c0.281-1.852-0.451-3.702-1.134-5.504c-0.342-0.911-0.68-1.839-0.888-2.814        c-0.207-0.973-0.247-2-0.076-2.982c0.323-1.981,1.25-3.747,2.097-5.484c0.848-1.734,1.709-3.504,1.888-5.413        c0.22-1.923-0.585-3.751-1.255-5.566c-0.332-0.915-0.615-1.868-0.707-2.85c-0.099-0.98-0.04-1.966,0.105-2.932        c0.293-1.936,0.909-3.79,1.373-5.672c1.049-3.733,0.776-7.841-0.914-11.357c1.729,3.494,2.053,7.622,1.04,11.387        c-0.445,1.894-1.039,3.753-1.306,5.67c-0.133,0.956-0.179,1.926-0.072,2.88c0.1,0.956,0.385,1.879,0.725,2.785        c0.68,1.784,1.539,3.662,1.335,5.683c-0.167,1.994-1.033,3.809-1.861,5.556c-0.832,1.748-1.716,3.5-1.998,5.384        c-0.334,1.89,0.286,3.751,1,5.54c0.691,1.781,1.508,3.707,1.227,5.774c-0.302,2.054-1.549,3.686-2.214,5.439        c-0.695,1.751-0.672,3.697-0.829,5.65c-0.139,1.978-0.669,3.918-1.342,5.755c-0.668,1.846-1.46,3.623-2.13,5.431        c-0.68,1.808-1.277,3.645-1.78,5.505c-0.996,3.717-1.601,7.559-1.437,11.377L399.215,416.138z"/>
					</g>
				</g>
                <g>
					<g>
						<path style="fill:#6CBDBD;" d="M392.383,422.365c0-3.331-1.818-8.124-3.661-10.714c-1.843-2.589-4.054-5.013-5.076-8.022        c-0.513-1.508-0.704-3.11-0.737-4.703c-0.033-1.582,0.117-3.258,1.036-4.547c0.878-1.232,2.45-2.14,2.542-3.65        c0.111-1.825-2.045-3.052-2.33-4.858c-0.371-2.355,2.453-3.934,3.205-6.197c1.087-3.271-2.418-6.414-2.348-9.86        c0.04-2.01,1.284-3.76,2.154-5.573c0.924-1.925,1.452-4.039,1.544-6.172c0.128-2.972-0.581-5.968-0.13-8.909        c0.451-2.941,2.662-5.995,5.635-5.886c1.134,0.042,2.212,0.546,3.114,1.233c3.285,2.503,4.201,7.205,3.372,11.251        c-0.647,3.156-2.135,6.636-0.455,9.386c0.5,0.818,1.236,1.461,1.834,2.211c1.707,2.14,2.174,5.203,1.185,7.755        c-0.608,1.567-1.698,2.897-2.44,4.406c-0.742,1.508-1.094,3.397-0.197,4.818c0.576,0.913,1.569,1.477,2.26,2.306        c1.066,1.279,1.293,3.197,0.556,4.69c-0.683,1.383-2.127,2.504-2.086,4.046c0.035,1.331,1.174,2.329,1.822,3.492        c1.536,2.759,0.167,6.283-1.864,8.701c-2.031,2.418-4.705,4.305-6.356,6.997C393.412,417.092,392.611,418.949,392.383,422.365        "/>
                        <path style="fill:#589C9E;" d="M392.882,422.399l-0.999-0.033c0-3.341-1.853-8.013-3.568-10.424        c-0.425-0.597-0.87-1.185-1.315-1.774c-1.483-1.961-3.017-3.989-3.828-6.376c-0.475-1.397-0.725-2.985-0.764-4.853        c-0.031-1.477,0.069-3.362,1.129-4.847c0.311-0.437,0.693-0.825,1.063-1.201c0.688-0.7,1.338-1.361,1.388-2.19        c0.049-0.805-0.488-1.528-1.057-2.294c-0.55-0.74-1.118-1.505-1.268-2.456c-0.254-1.615,0.748-2.861,1.716-4.066        c0.605-0.752,1.23-1.53,1.508-2.366c0.542-1.632-0.217-3.29-1.022-5.045c-0.681-1.486-1.385-3.022-1.352-4.667        c0.034-1.661,0.812-3.123,1.564-4.537c0.22-0.414,0.439-0.826,0.639-1.242c0.89-1.854,1.407-3.921,1.495-5.977        c0.052-1.216-0.042-2.472-0.133-3.686c-0.129-1.727-0.263-3.513,0.008-5.277c0.49-3.195,2.92-6.452,6.148-6.31        c1.132,0.042,2.307,0.503,3.398,1.335c3.135,2.389,4.531,7.001,3.558,11.75c-0.133,0.647-0.3,1.309-0.469,1.974        c-0.628,2.477-1.278,5.038-0.049,7.05c0.288,0.472,0.667,0.886,1.068,1.324c0.25,0.273,0.5,0.547,0.73,0.836        c1.822,2.285,2.316,5.522,1.26,8.247c-0.368,0.949-0.902,1.811-1.418,2.643c-0.362,0.584-0.737,1.188-1.039,1.803        c-0.389,0.791-1.19,2.798-0.223,4.331c0.292,0.461,0.72,0.836,1.174,1.232c0.358,0.313,0.728,0.636,1.048,1.021        c1.184,1.421,1.439,3.572,0.62,5.231c-0.256,0.52-0.602,0.992-0.938,1.449c-0.576,0.785-1.119,1.527-1.097,2.362        c0.02,0.762,0.508,1.439,1.025,2.156c0.254,0.353,0.517,0.717,0.733,1.106c1.726,3.099,0.046,6.928-1.918,9.266        c-0.811,0.965-1.727,1.853-2.613,2.71c-1.402,1.358-2.727,2.641-3.699,4.226C393.866,417.307,393.104,419.072,392.882,422.399        z M394.062,343.773c-2.6,0-4.57,2.75-4.986,5.464c-0.253,1.652-0.13,3.303,0.001,5.052c0.093,1.242,0.189,2.527,0.134,3.803        c-0.094,2.191-0.645,4.392-1.593,6.367c-0.206,0.428-0.431,0.853-0.658,1.278c-0.73,1.371-1.418,2.666-1.447,4.088        c-0.029,1.415,0.627,2.846,1.261,4.23c0.85,1.854,1.728,3.772,1.062,5.777c-0.335,1.006-1.017,1.855-1.678,2.677        c-0.871,1.084-1.693,2.106-1.507,3.285c0.111,0.708,0.583,1.343,1.082,2.015c0.65,0.876,1.323,1.782,1.252,2.951        c-0.073,1.202-0.886,2.029-1.673,2.83c-0.358,0.364-0.696,0.708-0.961,1.081c-0.889,1.246-0.971,2.923-0.943,4.246        c0.037,1.764,0.269,3.253,0.711,4.552c0.759,2.234,2.243,4.197,3.678,6.095c0.451,0.597,0.901,1.192,1.332,1.797        c1.265,1.776,2.599,4.726,3.285,7.55c0.442-1.648,1.139-3.006,2.12-4.605c1.038-1.693,2.471-3.081,3.856-4.422        c0.868-0.84,1.766-1.71,2.543-2.636c1.759-2.094,3.288-5.481,1.81-8.136c-0.188-0.338-0.422-0.663-0.67-1.007        c-0.583-0.809-1.186-1.645-1.214-2.715c-0.031-1.177,0.641-2.094,1.291-2.98c0.324-0.442,0.63-0.859,0.848-1.3        c0.649-1.315,0.447-3.022-0.492-4.149c-0.269-0.323-0.594-0.607-0.938-0.907c-0.487-0.426-0.992-0.867-1.361-1.452        c-0.871-1.38-0.808-3.314,0.171-5.306c0.324-0.658,0.711-1.284,1.086-1.888c0.515-0.831,1.001-1.615,1.336-2.478        c0.931-2.399,0.495-5.25-1.109-7.262c-0.216-0.271-0.451-0.528-0.686-0.784c-0.416-0.455-0.845-0.924-1.184-1.478        c-1.449-2.372-0.746-5.14-0.067-7.817c0.165-0.65,0.329-1.296,0.459-1.929c0.681-3.322,0.255-8.132-3.185-10.753        c-0.646-0.492-1.661-1.087-2.829-1.131C394.153,343.774,394.107,343.773,394.062,343.773z"/>
					</g>
                    <g>
						<path style="fill:#589C9E;" d="M391.724,422.378c0.05-3.393,0.437-6.644,0.338-9.951c0.019-3.322-0.034-6.61-0.297-9.913        c-0.184-1.664-0.049-3.401,0.236-5.04c0.285-1.657,0.669-3.258,1.017-4.891c0.387-1.637,0.942-3.203,1.325-4.797        c0.373-1.591,0.557-3.224,0.516-4.867c-0.058-3.29-0.75-6.545-1.327-9.81c-0.585-3.259-1.021-6.612-0.623-9.935        c0.383-3.315,1.348-6.507,1.839-9.781c0.484-3.243,0.493-6.719-0.989-9.73c1.521,2.992,1.56,6.487,1.114,9.748        c-0.452,3.293-1.377,6.501-1.713,9.791c-0.352,3.292,0.12,6.595,0.744,9.84c0.616,3.25,1.357,6.511,1.46,9.868        c0.063,1.674-0.104,3.366-0.468,5.007c-0.372,1.637-0.908,3.212-1.262,4.809c-0.628,3.242-1.533,6.479-1.114,9.73        c0.319,3.306,0.429,6.654,0.464,9.965c0.163,3.331-0.241,6.695-0.26,9.934L391.724,422.378z"/>
					</g>
				</g>
                <g>
					<path style="fill:#3A6676;" d="M392.846,438.808c-0.093-0.039-9.25-4.006-8.029-13.13c0.066-0.492,0.147-1,0.23-1.527       c0.354-2.228,0.755-4.755,0.334-7.97l0.991-0.13c0.441,3.359,0.028,5.961-0.337,8.257c-0.082,0.519-0.162,1.019-0.227,1.503       c-1.119,8.358,7.077,11.928,7.426,12.076L392.846,438.808z"/>
				</g>
                <g>
					<path style="fill:#3A6676;" d="M392.842,438.808l-0.388-0.921c0.349-0.148,8.545-3.717,7.426-12.076       c-0.308-2.3-1.021-10.351-0.467-14.565l0.991,0.13c-0.54,4.115,0.164,12.036,0.467,14.302       C402.093,434.802,392.935,438.769,392.842,438.808z"/>
				</g>
                <g>
					<path style="fill:#589C9E;" d="M392.996,438.45c-1.107-1.888-1.664-4.279-1.656-7.107l0-1.094       c-0.002-2.008-0.003-3.905,0.208-5.925c0.376-3.591,0.518-8.241,0.433-14.214l1-0.015c0.085,6.014-0.058,10.702-0.439,14.333       c-0.206,1.967-0.205,3.838-0.203,5.819l0,1.098c-0.008,2.646,0.503,4.867,1.519,6.598L392.996,438.45z"/>
				</g>
			</g>
            <g>
				<g>
					<path style="fill:#9DA29D;" d="M405.931,424.943c-3.132-2.4-8.324-3.247-11.728-1.113c-0.842,0.528-1.518,1.189-2.095,1.916       c-1.105,1.392-3.104,1.915-4.947,1.406c-2.095-0.579-4.437-0.547-6.439,0.222c-3.097,1.19-5.099,4.154-4.494,6.924       c0.76,3.478,4.966,5.719,9.072,6.747c5.542,1.388,11.452,1.346,17.234,1.057c4.98-0.249,9.728-1.877,9.37-6.72       C411.65,431.948,408.954,427.259,405.931,424.943z"/>
                    <path style="fill:#747774;" d="M396.824,442.766c-3.897,0-7.849-0.286-11.646-1.236c-5.221-1.307-8.749-3.971-9.438-7.125       c-0.65-2.973,1.415-6.196,4.803-7.497c2.023-0.778,4.483-0.864,6.751-0.237c1.687,0.465,3.465-0.031,4.421-1.235       c0.678-0.853,1.405-1.517,2.221-2.029c3.721-2.333,9.176-1.252,12.298,1.14c3.138,2.404,5.905,7.249,6.167,10.799       c0.125,1.684-0.321,3.115-1.326,4.252c-1.968,2.229-5.718,2.864-8.517,3.004C400.679,442.696,398.758,442.766,396.824,442.766z        M384.224,427.254c-1.167,0-2.307,0.197-3.322,0.587c-2.931,1.125-4.73,3.855-4.185,6.35c0.607,2.775,3.86,5.156,8.705,6.369       c5.553,1.391,11.495,1.324,17.087,1.042c2.607-0.13,6.08-0.699,7.817-2.667c0.82-0.928,1.183-2.111,1.079-3.517       c-0.244-3.304-2.836-7.825-5.778-10.079l0,0c-2.852-2.186-7.806-3.188-11.159-1.086c-0.719,0.451-1.363,1.04-1.969,1.803       c-1.203,1.515-3.401,2.149-5.471,1.577C386.11,427.38,385.158,427.254,384.224,427.254z"/>
				</g>
                <g>
					<path style="fill:#B0B6B0;" d="M420.552,429.337c-3.349-2.155-7.914-2.756-11.844-1.56c-2.85,0.868-5.28,2.583-8.076,3.579       c-2.174,0.775-4.55,1.1-6.884,0.941c-2.505-0.171-18.533,3.133-18.733,5.607c-0.067,0.826-4.614,7.526,27.142,9.257       c6.608,0.36,13.537,0.435,19.426-2.26c3.359-1.537,4.996-3.666,4.27-6.878C425.063,434.534,423.981,431.544,420.552,429.337z"/>
                    <path style="fill:#909190;" d="M407.763,447.841c-1.922,0-3.816-0.082-5.634-0.181c-15.676-0.855-24.84-3.035-27.238-6.482       c-0.969-1.393-0.585-2.632-0.421-3.162c0.022-0.069,0.041-0.125,0.048-0.167c0.25-3.101,17.09-6.188,19.264-6.052       c2.261,0.157,4.574-0.161,6.681-0.913c1.257-0.448,2.472-1.062,3.647-1.655c1.412-0.713,2.872-1.451,4.452-1.932       c4.081-1.243,8.778-0.623,12.26,1.618l0,0c3.762,2.421,4.788,5.771,5.517,8.996c0.739,3.269-0.749,5.704-4.549,7.443       C417.455,447.339,412.526,447.841,407.763,447.841z M393.397,432.786c-3.783,0-17.745,3.435-17.884,5.158       c-0.009,0.113-0.044,0.226-0.088,0.369c-0.151,0.487-0.404,1.302,0.287,2.294c1.522,2.186,7.349,5.012,26.472,6.055       c6.203,0.336,13.314,0.474,19.19-2.216c3.35-1.533,4.617-3.539,3.99-6.313c-0.833-3.688-1.975-6.375-5.082-8.376       c-3.242-2.086-7.62-2.662-11.428-1.501c-1.498,0.456-2.919,1.173-4.293,1.867c-1.202,0.607-2.445,1.235-3.762,1.705       c-2.235,0.797-4.682,1.134-7.086,0.969C393.618,432.789,393.512,432.786,393.397,432.786z"/>
				</g>
                <g>
					<g>
						<path style="fill:#B0B6B0;" d="M390.139,435.376c2.672,2.794,3.816,6.466,3.518,10.008c-0.038,0.454-0.114,0.937-0.472,1.285        c-0.438,0.425-1.172,0.532-1.844,0.607c-8.491,0.948-17.107,1.148-25.651,0.596c-0.782-0.051-1.653-0.144-2.147-0.645        c-0.332-0.336-0.419-0.789-0.474-1.219c-0.275-2.13-0.076-4.3,0.586-6.371c0.638-1.998,1.749-3.952,3.604-5.347        c3.06-2.301,8.046-2.641,11.995-3.153C383.416,430.598,387.633,432.756,390.139,435.376z"/>
                        <path style="fill:#909190;" d="M375.12,448.675c-3.159,0-6.316-0.102-9.462-0.305c-0.872-0.056-1.854-0.168-2.471-0.793        c-0.424-0.43-0.546-0.978-0.615-1.506c-0.286-2.217-0.082-4.434,0.606-6.587c0.768-2.403,2.039-4.286,3.779-5.595        c2.803-2.108,7.043-2.619,10.784-3.07c0.494-0.06,0.978-0.118,1.447-0.179c4.672-0.599,9.013,1.986,11.311,4.39l0,0        c2.646,2.767,3.978,6.556,3.655,10.396c-0.047,0.564-0.155,1.149-0.621,1.602c-0.544,0.528-1.354,0.657-2.136,0.745        C386.01,448.374,380.563,448.675,375.12,448.675z M380.586,431.551c-0.419,0-0.842,0.026-1.268,0.082        c-0.473,0.061-0.959,0.12-1.457,0.18c-3.616,0.436-7.715,0.931-10.303,2.876c-1.571,1.183-2.725,2.898-3.428,5.101        c-0.643,2.013-0.833,4.083-0.566,6.154c0.054,0.421,0.129,0.724,0.335,0.932c0.37,0.374,1.135,0.453,1.824,0.497        c8.508,0.551,17.108,0.35,25.563-0.594c0.611-0.068,1.234-0.161,1.551-0.469c0.218-0.211,0.285-0.527,0.322-0.967        c0.299-3.554-0.934-7.061-3.381-9.621l0,0C387.852,433.709,384.398,431.551,380.586,431.551z"/>
					</g>
				</g>
			</g>
		</g>
        <g>
			<path style="fill:#909190;" d="M419.684,438.234c-0.205,0-0.398-0.128-0.471-0.333c-0.629-1.772-1.641-3.434-2.926-4.806     c-0.469-0.501-1.107-1.105-1.875-1.33c-0.265-0.078-0.417-0.356-0.339-0.621c0.078-0.265,0.356-0.418,0.621-0.339     c1,0.294,1.767,1.013,2.323,1.606c1.378,1.471,2.464,3.254,3.139,5.154c0.092,0.26-0.043,0.546-0.304,0.639     C419.796,438.225,419.74,438.234,419.684,438.234z"/>
		</g>
        <g>
			<path style="fill:#909190;" d="M418.529,441.26c-0.217,0-0.417-0.142-0.48-0.361c-0.671-2.313-1.843-4.515-3.387-6.367     c-0.177-0.212-0.148-0.527,0.063-0.704c0.213-0.177,0.528-0.148,0.704,0.064c1.632,1.957,2.87,4.284,3.579,6.729     c0.077,0.265-0.076,0.543-0.341,0.619C418.621,441.254,418.574,441.26,418.529,441.26z"/>
		</g>
        <g>
			<path style="fill:#909190;" d="M411.996,435.208c-0.276,0-0.5-0.224-0.5-0.5v-0.122c0-0.276,0.224-0.5,0.5-0.5     c0.276,0,0.5,0.224,0.5,0.5v0.122C412.496,434.984,412.272,435.208,411.996,435.208z"/>
		</g>
        <g>
			<path style="fill:#909190;" d="M369.359,443.94c-0.053,0-0.105-0.007-0.158-0.022l-0.196-0.056l-0.101-0.177     c-1.197-2.105-1.547-4.661-0.958-7.012c0.067-0.268,0.341-0.427,0.606-0.363c0.268,0.067,0.431,0.338,0.363,0.607     c-0.486,1.944-0.256,4.045,0.628,5.841c0.033,0.009,0.066,0.021,0.099,0.038c0.271,0.138,0.388,0.463,0.273,0.756     C369.82,443.79,369.597,443.94,369.359,443.94z M369.188,443.685c0.001,0,0.001,0.001,0.001,0.001     S369.188,443.685,369.188,443.685z"/>
		</g>
        <g>
			<path style="fill:#909190;" d="M371.862,445.33c-0.181,0-0.379-0.085-0.526-0.302c-1.117-1.664-1.766-3.682-1.828-5.683     c-0.009-0.276,0.208-0.507,0.484-0.516c0.282,0.005,0.507,0.208,0.515,0.484c0.055,1.749,0.603,3.511,1.548,4.987     c0.144,0.062,0.268,0.181,0.318,0.321c0.085,0.237-0.032,0.533-0.256,0.648C372.043,445.307,371.955,445.33,371.862,445.33z"/>
		</g>
        <g>
			<path style="fill:#747774;" d="M401.635,428.541c-0.154,0-0.306-0.071-0.403-0.204c-0.911-1.239-2.363-2.11-3.885-2.328     c-0.273-0.04-0.463-0.293-0.424-0.566c0.04-0.273,0.29-0.462,0.566-0.424c1.809,0.26,3.467,1.254,4.548,2.727     c0.164,0.223,0.116,0.535-0.107,0.699C401.842,428.509,401.737,428.541,401.635,428.541z"/>
		</g>
        <g>
			<path style="fill:#747774;" d="M396.07,428.035c-0.276,0-0.5-0.224-0.5-0.5v-0.122c0-0.276,0.224-0.5,0.5-0.5     c0.276,0,0.5,0.224,0.5,0.5v0.122C396.57,427.811,396.346,428.035,396.07,428.035z"/>
		</g>
	</g></svg>