<svg version="1.1" xmlns="http://www.w3.org/2000/svg" xmlns:xlink="http://www.w3.org/1999/xlink" x="0px" y="0px" viewBox="193.95899999999995 52.41199999999999 108.68500000000006 132.9650887054969" style="enable-background:new 0 0 500 500;" xml:space="preserve"><g id="a7">
		<g>
			<g>
				<g>
					<g>
						<path style="fill:#E4962C;" d="M248.999,89.066c-9.633-0.103-18.224,4.472-20.958,44.885        c-1.218,18.009,2.42,28.92,6.829,35.482c6.778,10.089,23.039,8.2,26.709-3.089c2.403-7.391,4.133-17.578,4.619-29.769        C267.228,110.717,258.632,89.169,248.999,89.066z"/>
                        <path style="fill:#E06D19;" d="M247.505,176.515c-5.32,0-10.234-2.517-13.131-6.829c-5.623-8.369-7.946-20.402-6.907-35.764        c2.844-42.035,12.148-45.475,21.539-45.356c2.071,0.022,4.108,0.933,6.055,2.706c7.679,6.998,12.496,25.634,11.711,45.321        c-0.464,11.643-2.069,21.978-4.641,29.888c-1.772,5.451-6.658,9.256-12.752,9.931        C248.751,176.481,248.125,176.515,247.505,176.515z M248.656,89.565c-8.672,0-17.292,3.783-20.041,44.416        c-1.026,15.162,1.246,27.005,6.752,35.201c2.997,4.461,8.31,6.85,13.868,6.237c5.628-0.622,10.147-4.152,11.791-9.211        c2.547-7.833,4.137-18.086,4.598-29.649c0.774-19.439-3.912-37.778-11.395-44.596c-1.725-1.572-3.487-2.378-5.237-2.396        C248.88,89.565,248.768,89.565,248.656,89.565z"/>
					</g>
                    <g>
						<path style="fill:#D51C6E;" d="M252.265,89.554c0,1.818-1.764,3.292-3.94,3.292s-3.94-1.474-3.94-3.292        s1.764-3.292,3.94-3.292S252.265,87.736,252.265,89.554z"/>
                        <path style="fill:#C60158;" d="M248.325,93.346c-2.448,0-4.439-1.701-4.439-3.792c0-2.091,1.992-3.792,4.439-3.792        c2.448,0,4.439,1.701,4.439,3.792C252.764,91.645,250.773,93.346,248.325,93.346z M248.325,86.762        c-1.896,0-3.439,1.252-3.439,2.792c0,1.539,1.543,2.792,3.439,2.792s3.439-1.253,3.439-2.792        C251.764,88.015,250.221,86.762,248.325,86.762z"/>
					</g>
                    <g>
						<path style="fill:#E06D19;" d="M245.747,175.91c-3.394-6.656-5.213-13.848-6.431-21.046        c-1.199-7.22-1.471-14.536-1.221-21.823c0.298-3.636,0.457-7.284,1.057-10.893c0.286-1.805,0.464-3.623,0.839-5.415        l1.14-5.372c0.203-0.893,0.369-1.792,0.603-2.678l0.747-2.651l1.497-5.297c0.525-1.759,1.232-3.476,1.839-5.213        c0.623-1.734,1.266-3.461,1.922-5.183c-0.924,3.546-2.052,7.035-2.94,10.573l-1.252,5.319l-0.627,2.657        c-0.195,0.888-0.32,1.787-0.483,2.68l-0.951,5.358c-0.332,1.783-0.467,3.589-0.711,5.382        c-0.547,3.583-0.689,7.193-0.958,10.794c-0.29,7.212-0.066,14.439,0.809,21.619c0.229,1.794,0.442,3.592,0.802,5.371        l0.492,2.676l0.611,2.658C243.338,168.971,244.359,172.486,245.747,175.91z"/>
					</g>
                    <g>
						<path style="fill:#E06D19;" d="M248.886,175.91c0.533-3.562,1.066-7.119,1.481-10.689c0.24-1.781,0.47-3.562,0.669-5.347        c0.221-1.782,0.409-3.567,0.577-5.353c0.356-3.57,0.689-7.141,0.948-10.715l0.378-5.361l0.243-5.365        c0.121-1.788,0.102-3.577,0.157-5.365c0.049-1.789,0.079-3.578,0.036-5.366c-0.025-1.788-0.009-3.578-0.066-5.365l-0.251-5.36        c-0.036-1.791-0.302-3.565-0.442-5.35l-0.255-2.675c-0.117-0.888-0.282-1.771-0.412-2.658l-0.391-2.664        c-0.124-0.89-0.249-1.78-0.478-2.653c-0.41-1.754-0.8-3.515-1.176-5.285c0.557,1.727,1.1,3.462,1.624,5.204        c0.294,0.866,0.484,1.75,0.672,2.634l0.585,2.652c0.184,0.886,0.38,1.772,0.539,2.662l0.375,2.681        c0.22,1.789,0.567,3.573,0.683,5.371c0.766,7.18,0.74,14.396,0.524,21.589c-0.28,7.195-0.976,14.371-1.979,21.509        C251.909,161.777,250.67,168.892,248.886,175.91z"/>
					</g>
                    <g>
						<g>
							<path style="fill:#DE5695;" d="M267.699,81.779c3.893-0.626,7.832-2.152,10.338-5.197c1.014-1.232,1.757-2.668,2.358-4.146         c1.877-4.612,2.368-10.059,0.056-14.469c1.835,4.645,3.611,9.504,3.284,14.487c-0.368,5.614-3.488,10.862-7.879,14.379         c-4.391,3.517-9.952,5.39-15.554,5.904c-2.793,0.256-5.984,0.182-8.283-1.65c-1.681-1.339-3.115-3.86-1.949-5.961         c1.358-2.448,5.011-2.479,7.428-2.634C260.901,82.276,264.326,82.322,267.699,81.779z"/>
                            <path style="fill:#DB2983;" d="M258.156,93.346c-2.138,0-4.566-0.367-6.447-1.867c-1.976-1.575-3.324-4.345-2.075-6.595         c1.395-2.514,4.81-2.713,7.303-2.858l0.53-0.032c1.057-0.067,2.115-0.11,3.174-0.152c2.3-0.092,4.678-0.187,6.978-0.557         l0.08,0.494l-0.08-0.494c3.101-0.499,7.359-1.774,10.031-5.021c0.86-1.044,1.606-2.358,2.282-4.017         c1.611-3.959,1.982-7.944,1.112-11.333c-0.336-0.918-0.693-1.84-1.058-2.764l0.908-0.416c0.472,0.9,0.84,1.863,1.103,2.875         c1.438,3.937,2.501,7.849,2.237,11.877c-0.359,5.47-3.374,10.979-8.065,14.736c-4.207,3.369-9.677,5.448-15.821,6.012         C259.684,93.297,258.94,93.346,258.156,93.346z M267.779,82.273c-2.359,0.379-4.768,0.476-7.097,0.569         c-1.051,0.042-2.102,0.084-3.151,0.151l-0.536,0.032c-2.261,0.132-5.359,0.313-6.487,2.345         c-1.094,1.971,0.491,4.266,1.824,5.327c2.29,1.825,5.619,1.755,7.925,1.543c5.948-0.546,11.235-2.55,15.288-5.796         c4.476-3.585,7.351-8.827,7.692-14.021c0.153-2.333-0.166-4.645-0.753-6.959c-0.101,2.317-0.643,4.748-1.625,7.162         c-0.714,1.753-1.511,3.152-2.436,4.275C275.552,80.387,271.05,81.747,267.779,82.273L267.779,82.273z"/>
						</g>
                        <g>
							<g>
								<path style="fill:#D51C6E;" d="M260.396,67.411c-4.305-5.913-19.171-5.833-19.108-12.91          c-0.096,1.129-0.133,2.268,0.278,3.311c0.393,0.998,1.138,1.814,1.904,2.564c1.261,1.234,2.628,2.36,4.081,3.361          c1.708,1.176,3.549,2.193,5.025,3.648c1.478,1.455,4.833,3.874-0.408,11.309c-0.763,1.082-1.734,2.002-2.549,3.045          c-0.815,1.044-1.51,2.236-1.668,3.551c-0.157,1.315,0.321,2.767,1.434,3.485c0.963,0.623,2.244,0.599,3.304,0.16          c1.059-0.439,1.926-1.244,2.672-2.116c1.605-1.878,2.736-4.11,3.742-6.367c0.853-1.913,1.632-3.876,2.019-5.934          C261.509,72.461,261.628,69.104,260.396,67.411z"/>
                                <path style="fill:#C60158;" d="M251.123,89.752c-0.735,0-1.437-0.188-2.009-0.557c-1.203-0.777-1.854-2.333-1.659-3.965          c0.147-1.218,0.726-2.461,1.77-3.799c0.356-0.456,0.742-0.89,1.128-1.323c0.508-0.57,0.987-1.108,1.406-1.703          c4.684-6.644,2.222-8.99,0.75-10.391l-0.284-0.274c-1.045-1.03-2.322-1.86-3.557-2.663          c-0.471-0.306-0.941-0.612-1.401-0.929c-1.472-1.014-2.867-2.163-4.147-3.415c-0.795-0.778-1.591-1.648-2.02-2.738          c-0.464-1.177-0.403-2.442-0.31-3.536l0.998,0.047c-0.032,3.622,4.44,5.266,9.174,7.006c3.864,1.421,7.86,2.89,9.838,5.605          l0,0c1.303,1.79,1.253,5.156,0.814,7.495c-0.414,2.196-1.27,4.289-2.054,6.045c-0.932,2.089-2.114,4.493-3.819,6.488          c-0.965,1.128-1.874,1.844-2.861,2.253C252.307,89.635,251.705,89.752,251.123,89.752z M242.295,58.177          c0.39,0.683,0.956,1.285,1.524,1.841c1.239,1.213,2.59,2.325,4.015,3.307c0.453,0.312,0.916,0.613,1.379,0.914          c1.277,0.83,2.597,1.688,3.714,2.79l0.272,0.262c1.593,1.517,4.559,4.341-0.623,11.691          c-0.452,0.641-0.973,1.226-1.477,1.792c-0.372,0.417-0.743,0.834-1.086,1.273c-0.929,1.19-1.441,2.271-1.565,3.303          c-0.123,1.028,0.203,2.356,1.209,3.006c0.753,0.487,1.84,0.533,2.841,0.118c0.836-0.347,1.625-0.976,2.484-1.979          c1.622-1.897,2.763-4.222,3.665-6.245c0.76-1.704,1.59-3.729,1.984-5.823c0.419-2.237,0.398-5.295-0.64-6.721          c-1.799-2.47-5.65-3.886-9.374-5.255C247.299,61.23,244.1,60.054,242.295,58.177z"/>
							</g>
						</g>
                        <g>
							<path style="fill:#DE5695;" d="M244.164,77.654c-2.239-4.931-7.196-8.125-9.844-12.849c-1.901-3.39-2.491-7.494-1.622-11.283         c-0.473,3.116,1.314,6.176,3.599,8.347c2.285,2.17,5.083,3.725,7.484,5.768c4.451,3.788,7.418,9.277,8.149,15.076         c0.189,1.502,0.218,3.101-0.474,4.448c-0.496,0.965-3.437,2.998-4.528,0.024C245.793,84.091,245.54,80.684,244.164,77.654z"/>
                            <path style="fill:#DB2983;" d="M248.783,89.239c-0.049,0-0.098-0.001-0.147-0.004c-0.695-0.042-1.637-0.403-2.178-1.878         c-0.511-1.394-0.85-2.858-1.176-4.275c-0.405-1.756-0.824-3.572-1.573-5.221l0,0c-1.17-2.576-3.076-4.636-5.095-6.817         c-1.708-1.847-3.476-3.756-4.729-5.993c-1.959-3.493-2.569-7.736-1.674-11.639l0.982,0.187         c-0.555,3.655,2.227,6.748,3.449,7.908c1.254,1.19,2.704,2.22,4.105,3.215c1.123,0.797,2.285,1.622,3.358,2.535         c4.542,3.866,7.575,9.477,8.321,15.394c0.175,1.389,0.274,3.183-0.525,4.739C251.5,88.169,250.111,89.239,248.783,89.239z          M244.619,77.448c0.79,1.739,1.221,3.605,1.637,5.409c0.32,1.387,0.651,2.821,1.141,4.156c0.29,0.789,0.715,1.189,1.3,1.225         c0.991,0.06,2.094-0.876,2.313-1.305c0.674-1.312,0.58-2.91,0.423-4.157c-0.714-5.673-3.622-11.052-7.977-14.757         c-1.04-0.885-2.183-1.697-3.288-2.481c-1.43-1.016-2.91-2.065-4.215-3.305c-1.43-1.358-2.486-2.849-3.123-4.367         c0.128,2.34,0.782,4.655,1.927,6.696c1.196,2.134,2.922,4,4.592,5.803C241.332,72.507,243.383,74.724,244.619,77.448         L244.619,77.448z"/>
						</g>
                        <g>
							<path style="fill:#D51C6E;" d="M199.368,80.23c3.403,0.399,6.83-0.558,9.985-1.896c3.154-1.338,6.139-3.061,9.327-4.316         c5.137-2.023,10.861-2.782,16.238-1.531c5.377,1.251,10.347,4.639,12.95,9.507c0.858,1.604,1.464,3.411,1.284,5.22         c-0.039,0.395-0.124,0.804-0.375,1.11c-0.39,0.475-1.079,0.58-1.691,0.522c-2.355-0.223-4.077-2.211-5.803-3.828         c-3.874-3.632-8.962-5.945-14.245-6.478c-6.718-0.677-13.365,1.437-20.066,2.266c-2.113,0.261-4.285,0.392-6.349-0.133         L199.368,80.23z"/>
                            <path style="fill:#C60158;" d="M247.392,89.36c-0.115,0-0.232-0.005-0.354-0.017c-2.21-0.208-3.832-1.776-5.4-3.292         c-0.234-0.226-0.466-0.451-0.699-0.669c-3.807-3.568-8.762-5.822-13.954-6.345c-4.524-0.456-9.129,0.395-13.585,1.218         c-2.083,0.385-4.237,0.783-6.37,1.046c-1.984,0.246-4.313,0.42-6.533-0.145l-5.538-1.946l4.465,0.524         c2.817,0.332,6.001-0.277,9.731-1.86c1.414-0.6,2.822-1.292,4.185-1.961c1.666-0.818,3.389-1.665,5.154-2.36         c5.639-2.221,11.357-2.758,16.535-1.553c5.763,1.34,10.727,4.988,13.278,9.757c1.056,1.975,1.507,3.828,1.341,5.506         c-0.041,0.416-0.134,0.949-0.487,1.378C248.776,89.111,248.156,89.36,247.392,89.36z M224.345,77.909         c0.914,0,1.827,0.041,2.741,0.133c5.408,0.545,10.571,2.893,14.537,6.611c0.236,0.221,0.473,0.45,0.71,0.679         c1.444,1.396,2.938,2.84,4.799,3.017c0.272,0.026,0.941,0.044,1.258-0.342c0.142-0.173,0.224-0.433,0.264-0.842         c0.146-1.478-0.267-3.138-1.228-4.936c-2.417-4.519-7.136-7.979-12.622-9.255c-4.981-1.159-10.492-0.637-15.942,1.51         c-1.727,0.68-3.432,1.518-5.08,2.327c-1.374,0.675-2.796,1.374-4.235,1.984c-1.991,0.844-3.839,1.422-5.57,1.738         c1.014-0.012,2.01-0.11,2.932-0.224c2.103-0.26,4.242-0.655,6.311-1.038C216.857,78.599,220.595,77.909,224.345,77.909z"/>
						</g>
                        <g>
							<path style="fill:#DE5695;" d="M197.328,101.625c2.745-0.115,5.102-1.901,7.204-3.67c2.292-1.929,4.522-3.932,6.685-6.006         c3.303-3.167,6.478-6.52,10.275-9.074c3.797-2.554,8.369-4.277,12.91-3.718c2.314,0.285,4.531,1.151,6.552,2.313         c2.279,1.311,4.384,3.061,5.638,5.372c0.361,0.665,0.654,1.406,0.581,2.159c-0.117,1.204-1.18,2.158-2.348,2.477         c-1.167,0.319-2.413,0.118-3.582-0.196c-3.862-1.037-7.365-3.272-11.307-3.944c-2.719-0.463-5.567-0.144-8.116,0.91         c-1.612,0.667-3.164,1.512-4.542,2.582C203.171,101.791,197.328,101.625,197.328,101.625z"/>
                            <path style="fill:#DB2983;" d="M197.347,102.125c-0.016,0-0.027,0-0.034,0l-0.007-0.999c0.116-0.005,0.231-0.013,0.345-0.024         c0.238-0.027,0.612-0.087,1.131-0.213c2.012-0.555,3.833-1.975,5.427-3.315c2.27-1.911,4.511-3.924,6.661-5.984         c0.598-0.573,1.191-1.152,1.785-1.731c2.66-2.596,5.411-5.28,8.557-7.396c3.114-2.093,7.945-4.451,13.25-3.799         c2.202,0.271,4.47,1.07,6.74,2.375c2.708,1.557,4.669,3.43,5.829,5.568c0.319,0.588,0.732,1.481,0.639,2.446         c-0.127,1.313-1.244,2.51-2.713,2.911c-1.369,0.373-2.773,0.092-3.843-0.195c-1.715-0.46-3.371-1.157-4.973-1.831         c-2.026-0.852-4.121-1.733-6.289-2.103c-2.611-0.445-5.395-0.132-7.841,0.88c-1.686,0.697-3.175,1.544-4.427,2.515         c-10.866,8.44-16.884,10.348-19.181,10.776c-0.037,0.007-0.073,0.013-0.11,0.02         C197.764,102.115,197.454,102.125,197.347,102.125z M232.64,79.55c-4.334,0-8.237,1.97-10.87,3.74         c-3.071,2.065-5.789,4.717-8.417,7.282c-0.596,0.581-1.191,1.162-1.791,1.738c-2.165,2.075-4.422,4.103-6.709,6.027         c-0.11,0.093-0.222,0.187-0.335,0.281c3.068-1.559,7.18-4.085,12.454-8.181c1.322-1.027,2.89-1.918,4.658-2.649         c2.617-1.084,5.598-1.418,8.391-0.941c2.282,0.389,4.431,1.292,6.508,2.167c1.571,0.661,3.195,1.344,4.844,1.787         c0.949,0.254,2.184,0.506,3.32,0.196c0.882-0.241,1.879-0.983,1.982-2.043c0.051-0.526-0.115-1.121-0.523-1.873         c-1.071-1.972-2.903-3.714-5.448-5.177c-2.154-1.238-4.295-1.996-6.364-2.25C233.768,79.584,233.2,79.55,232.64,79.55z"/>
						</g>
                        <g>
							<path style="fill:#D51C6E;" d="M202.294,123.463c6.523-4.094,6.975-8.263,9.503-13.1c2.172-4.155,4.571-8.191,7.182-12.084         c1.713-2.554,3.548-5.079,5.938-7.015c2.9-2.348,6.468-3.708,10.04-4.787c1.734-0.524,3.514-0.994,5.325-0.96         c1.811,0.035,3.68,0.633,4.909,1.963c0.788,0.853,1.271,2.066,0.981,3.191c-1.047,4.053-9.492,2.494-17.729,7.375         c-5.097,3.019-8.404,7.179-9.717,8.869C205.865,123.463,202.294,123.463,202.294,123.463z"/>
                            <path style="fill:#C60158;" d="M202.294,123.963h-1.737l1.472-0.923c4.919-3.087,6.263-6.148,7.821-9.692         c0.455-1.036,0.926-2.107,1.505-3.215c2.171-4.155,4.597-8.236,7.21-12.131c1.587-2.367,3.495-5.065,6.039-7.125         c3.111-2.519,6.907-3.879,10.21-4.877c1.636-0.494,3.532-1.003,5.479-0.981c2.137,0.04,4.057,0.814,5.266,2.123         c0.984,1.065,1.405,2.465,1.098,3.655c-0.629,2.436-3.482,3.065-7.095,3.862c-3.137,0.692-7.041,1.553-10.863,3.817         c-5.155,3.054-8.483,7.338-9.577,8.746C206.475,123.493,202.684,123.963,202.294,123.963z M240.097,86.015         c-1.733,0-3.483,0.483-4.996,0.94c-3.21,0.97-6.893,2.286-9.87,4.697c-2.436,1.973-4.29,4.599-5.838,6.905         c-2.592,3.865-4.999,7.916-7.154,12.038c-0.564,1.079-1.027,2.134-1.476,3.155c-0.623,1.418-1.232,2.804-2.071,4.166         c2.369-2.422,5.517-6.006,9.637-11.307c1.123-1.445,4.54-5.842,9.857-8.993c3.96-2.346,7.951-3.227,11.158-3.934         c3.406-0.751,5.867-1.294,6.343-3.136c0.267-1.033-0.271-2.085-0.864-2.727c-1.025-1.11-2.684-1.767-4.551-1.802         C240.214,86.016,240.156,86.015,240.097,86.015z"/>
						</g>
                        <g>
							<path style="fill:#DE5695;" d="M238.782,90.816c-2.279,1.131-4.264,2.77-6.148,4.48c-1.888,1.714-3.708,3.529-5.148,5.633         c-3.284,4.798-4.356,10.711-5.79,16.346c-1.433,5.635-3.526,11.494-8.103,15.079c3.095-0.854,5.947-2.569,8.151-4.903         c6.245-6.613,6.819-17.3,13.475-23.499c1.726-1.608,3.778-2.821,5.854-3.94c1.438-0.776,2.912-1.523,4.145-2.595         c1.939-1.686,3.628-5.338,1.224-7.452C244.589,88.334,240.626,89.901,238.782,90.816z"/>
                            <path style="fill:#DB2983;" d="M211.319,133.499l1.966-1.54c4.578-3.585,6.576-9.498,7.927-14.808         c0.21-0.829,0.414-1.663,0.617-2.499c1.177-4.837,2.393-9.839,5.245-14.006c1.555-2.272,3.514-4.167,5.225-5.72         c1.742-1.582,3.849-3.361,6.262-4.558l0,0c1.749-0.868,6.05-2.682,8.212-0.78c0.89,0.782,1.358,1.833,1.355,3.038         c-0.006,2.024-1.3,4.054-2.581,5.167c-1.162,1.009-2.521,1.738-3.837,2.443l-0.399,0.214c-1.973,1.064-4.035,2.27-5.75,3.866         c-3.375,3.143-5.203,7.598-6.971,11.906c-1.679,4.091-3.415,8.322-6.482,11.57c-2.281,2.415-5.179,4.159-8.381,5.042         L211.319,133.499z M239.005,91.264c-2.297,1.14-4.257,2.79-6.034,4.403c-1.668,1.515-3.575,3.358-5.072,5.544         c-2.748,4.016-3.943,8.928-5.098,13.678c-0.204,0.839-0.408,1.677-0.62,2.509c-1.201,4.722-2.908,9.912-6.444,13.669         c2.122-0.922,4.044-2.266,5.644-3.96c2.94-3.113,4.64-7.256,6.284-11.263c1.809-4.408,3.679-8.966,7.214-12.258         c1.797-1.674,3.925-2.919,5.957-4.015l0.401-0.216c1.267-0.679,2.577-1.381,3.653-2.317c1.074-0.934,2.232-2.713,2.237-4.415         c0.003-0.921-0.339-1.69-1.015-2.284C244.718,89.113,241.527,90.012,239.005,91.264L239.005,91.264z"/>
						</g>
                        <g>
							<path style="fill:#D51C6E;" d="M243.525,95.725c-0.979,2.647-0.852,5.523-0.315,8.286c0.538,2.763,1.472,5.468,2.094,8.22         c1.628,7.203,1.06,14.715-1.632,21.607c-0.778,1.993-1.775,3.991-3.538,5.455c1.308-0.724,2.161-1.892,2.918-3.05         c1.978-3.027,3.576-6.235,4.759-9.557c1.826-5.125,2.655-10.477,3.477-15.801c0.768-4.969,1.552-10.079,0.375-15.084         c-0.374-1.592-1.133-4.497-3.605-4.664C245.657,90.976,244.096,94.183,243.525,95.725z"/>
                            <path style="fill:#C60158;" d="M240.376,139.732l-0.562-0.822c1.749-1.451,2.696-3.469,3.392-5.252         c2.664-6.818,3.22-14.189,1.61-21.315c-0.271-1.201-0.61-2.419-0.938-3.596c-0.42-1.511-0.855-3.074-1.159-4.638         c-0.656-3.371-0.546-6.169,0.337-8.556c0.444-1.202,2.122-5.094,5.036-4.913c2.917,0.197,3.716,3.596,4.058,5.048         c1.202,5.112,0.404,10.279-0.368,15.275c-0.813,5.266-1.654,10.711-3.501,15.893c-1.195,3.355-2.814,6.605-4.812,9.662         C242.727,137.656,241.813,138.936,240.376,139.732z M247.886,91.632c-2.201,0-3.625,3.543-3.893,4.267l0,0         c-0.817,2.21-0.913,4.832-0.293,8.018c0.297,1.526,0.726,3.069,1.142,4.562c0.331,1.189,0.673,2.419,0.95,3.644         c1.533,6.785,1.154,13.786-1.087,20.35c1.03-1.932,1.912-3.922,2.635-5.952c1.815-5.093,2.648-10.49,3.455-15.709         c0.757-4.902,1.54-9.971,0.382-14.894c-0.48-2.043-1.231-4.149-3.152-4.279C247.978,91.633,247.932,91.632,247.886,91.632z"/>
						</g>
                        <g>
							<path style="fill:#DE5695;" d="M251.128,101.76c2.098,2.167,4.693,3.771,7.127,5.552c1.661,1.215,3.255,2.52,4.78,3.901         c2.868,2.598,5.527,5.522,7.204,9.011c2.132,4.437,2.541,9.476,2.916,14.384c1.045-6.552-0.1-13.261-1.78-19.68         c-0.765-2.921-1.652-5.841-3.14-8.468c-0.838-1.48-1.856-2.85-2.882-4.207c-1.915-2.534-3.877-5.055-6.211-7.209         c-2.131-1.966-5.519-4.764-8.611-4.704c-3.309,0.065-3.226,4.229-2.48,6.526C248.652,98.714,249.784,100.372,251.128,101.76z         "/>
                            <path style="fill:#DB2983;" d="M272.979,138.879l-0.323-4.233c-0.351-4.591-0.749-9.795-2.868-14.206         c-1.414-2.942-3.667-5.756-7.088-8.856c-1.524-1.38-3.119-2.682-4.74-3.869c-0.584-0.427-1.178-0.844-1.771-1.262         c-1.865-1.311-3.794-2.667-5.419-4.345l0,0c-1.538-1.588-2.612-3.3-3.193-5.088c-0.447-1.374-0.875-4.161,0.355-5.89         c0.585-0.822,1.481-1.269,2.59-1.29c3.249-0.05,6.678,2.73,8.96,4.837c2.362,2.18,4.314,4.685,6.271,7.275         c1.103,1.461,2.085,2.789,2.918,4.262c1.537,2.715,2.44,5.732,3.189,8.588c1.435,5.484,2.936,12.7,1.789,19.885         L272.979,138.879z M251.488,101.413c1.559,1.61,3.448,2.938,5.275,4.222c0.599,0.421,1.198,0.842,1.787,1.273         c1.649,1.207,3.271,2.531,4.82,3.934c3.522,3.189,5.847,6.102,7.319,9.164c1.271,2.644,1.942,5.528,2.353,8.394         c-0.123-4.877-1.153-9.535-2.151-13.346c-0.73-2.79-1.61-5.733-3.091-8.349c-0.803-1.419-1.764-2.72-2.846-4.152         c-1.929-2.552-3.85-5.019-6.152-7.143c-1.242-1.146-5.055-4.647-8.262-4.571c-0.802,0.016-1.389,0.3-1.794,0.87         c-0.832,1.168-0.74,3.4-0.219,5.001C249.06,98.353,250.056,99.935,251.488,101.413L251.488,101.413z"/>
						</g>
                        <g>
							<path style="fill:#D51C6E;" d="M267.42,90.99c2.061,0.593,4.2,0.888,6.334,1.14c2.172,0.257,4.366,0.471,6.543,0.285         c5.415-0.464,10.229-3.338,14.8-6.152c-3.601,3.855-7.553,7.479-12.206,10.091c-4.653,2.612-10.076,4.165-15.452,3.659         c-3.067-0.289-6.023-1.239-8.81-2.488c-2.462-1.103-5.868-2.463-7.724-4.433c-1.306-1.386-1.318-3.375,0.012-4.751         c1.739-1.798,4.749-1.335,6.965-0.786C261.18,88.371,264.164,90.052,267.42,90.99z"/>
                            <path style="fill:#C60158;" d="M269.518,100.61c-0.698,0-1.407-0.032-2.125-0.1c-2.832-0.267-5.766-1.094-8.968-2.529         l-0.844-0.374c-2.37-1.045-5.319-2.346-7.039-4.172c-1.5-1.591-1.493-3.88,0.017-5.441c1.936-2.002,5.176-1.485,7.445-0.924         c1.807,0.447,3.533,1.154,5.203,1.838c1.412,0.578,2.872,1.176,4.352,1.602l0,0c2.094,0.603,4.326,0.896,6.254,1.124         c2.072,0.245,4.277,0.468,6.441,0.284c5.464-0.469,10.519-3.58,14.581-6.08l3.162-1.946l-2.534,2.713         c-4.376,4.686-8.293,7.922-12.326,10.186C279.918,98.595,275.081,100.61,269.518,100.61z M254.492,87.563         c-1.223,0-2.395,0.277-3.215,1.126c-1.144,1.183-1.147,2.852-0.008,4.061c1.582,1.678,4.428,2.934,6.715,3.943l0.85,0.377         c3.101,1.389,5.931,2.19,8.652,2.446c6.193,0.579,11.663-1.635,15.161-3.598c3.095-1.737,6.127-4.069,9.371-7.222         c-3.461,1.986-7.421,3.852-11.679,4.217c-2.256,0.193-4.52-0.036-6.643-0.287c-1.967-0.232-4.248-0.532-6.414-1.156l0,0         c-1.533-0.441-3.018-1.049-4.455-1.638c-1.637-0.67-3.329-1.363-5.064-1.792C256.789,87.799,255.619,87.563,254.492,87.563z"/>
						</g>
					</g>
				</g>
                <g>
					<g>
						<path style="fill:#E06D19;" d="M271.713,117.897c-6.125-1.231-12.208,0.446-19.337,24.143        c-3.177,10.56-2.313,17.49-0.378,21.927c2.974,6.822,13.587,7.674,17.43,1.407c2.516-4.103,4.977-9.95,6.911-17.139        C280.442,132.984,277.837,119.128,271.713,117.897z"/>
                        <path style="fill:#C93F0F;" d="M261.611,170.111c-0.34,0.009-0.683,0.004-1.029-0.016c-4.112-0.246-7.59-2.521-9.079-5.937        c-2.487-5.705-2.367-13.192,0.359-22.251c6.735-22.388,12.636-25.973,19.965-24.498c1.546,0.311,2.895,1.319,4.007,2.997        c3.635,5.482,4.046,16.715,1.023,27.95c-1.852,6.886-4.261,12.857-6.966,17.266        C268.219,168.35,265.107,170.015,261.611,170.111z M268.794,118.099c-4.74,0.131-9.896,4.107-15.904,24.075        c-2.66,8.84-2.793,16.109-0.397,21.603c1.334,3.06,4.461,5.098,8.162,5.32c3.548,0.207,6.655-1.272,8.311-3.97        c2.656-4.332,5.027-10.214,6.856-17.012c2.91-10.818,2.542-21.994-0.896-27.18c-0.954-1.44-2.074-2.298-3.327-2.549l0,0        C270.678,118.201,269.744,118.073,268.794,118.099z"/>
					</g>
                    <g>
						<path style="fill:#C93F0F;" d="M255.796,168.161c-0.377-4.334-0.286-8.698,0.022-13.043c0.319-4.348,0.99-8.671,1.874-12.958        c1.017-4.262,2.313-8.474,4.035-12.54c1.809-4.034,4.072-7.893,6.895-11.358c-1.139,1.904-2.454,3.691-3.369,5.691        c-1.098,1.907-1.885,3.948-2.761,5.944c-1.543,4.074-2.83,8.228-3.756,12.465c-0.962,4.229-1.613,8.516-2.104,12.82        c-0.253,2.152-0.44,4.312-0.565,6.476C255.897,163.82,255.832,165.988,255.796,168.161z"/>
					</g>
                    <g>
						<path style="fill:#C93F0F;" d="M259.689,169.5c0.813-1.998,1.625-3.991,2.35-6.014c0.766-2.008,1.489-4.03,2.172-6.062        c1.37-4.062,2.655-8.148,3.712-12.285c1.139-4.12,1.967-8.303,2.686-12.5c0.303-2.105,0.639-4.212,0.782-6.335        c0.289-2.118,0.253-4.246,0.398-6.381c0.298,4.26,0.146,8.556-0.365,12.814c-0.555,4.252-1.399,8.471-2.464,12.638        c-1.151,4.146-2.429,8.262-3.974,12.293C263.436,161.693,261.731,165.672,259.689,169.5z"/>
					</g>
                    <g>
						<g>
							<path style="fill:#D51C6E;" d="M278.948,110.932c0.961-1.945,2.431-3.727,4.523-4.431c0.847-0.285,1.765-0.382,2.684-0.396         c2.869-0.043,5.986,0.826,8.085,2.974c-2.305-1.942-4.737-3.898-7.57-4.758c-3.191-0.969-6.61-0.396-9.262,1.213         s-4.571,4.185-5.738,7.064c-0.582,1.435-1.041,3.152-0.379,4.757c0.484,1.174,1.665,2.461,3.021,2.276         c1.579-0.216,2.17-2.156,2.636-3.412C277.604,114.452,278.116,112.617,278.948,110.932z"/>
                            <path style="fill:#C60158;" d="M274.042,120.15c-1.467,0-2.678-1.305-3.213-2.604c-0.77-1.867-0.152-3.825,0.378-5.136         c1.299-3.207,3.354-5.732,5.942-7.303c2.888-1.754,6.501-2.226,9.667-1.265c2.315,0.704,4.347,2.092,6.331,3.685         c0.531,0.356,1.017,0.758,1.452,1.203l-0.68,0.732c-0.456-0.384-0.912-0.764-1.37-1.132         c-1.723-1.144-3.947-1.764-6.385-1.725c-1.008,0.015-1.837,0.136-2.533,0.37c-2.151,0.723-3.49,2.671-4.234,4.178l0,0         c-0.561,1.135-0.985,2.376-1.395,3.577c-0.19,0.557-0.38,1.113-0.584,1.663l-0.1,0.274c-0.466,1.281-1.171,3.218-2.937,3.46         C274.266,120.142,274.153,120.15,274.042,120.15z M283.46,104.352c-2.013,0-4.046,0.55-5.792,1.609         c-2.402,1.458-4.316,3.818-5.534,6.824c-0.465,1.147-1.011,2.85-0.38,4.379c0.438,1.061,1.465,2.116,2.491,1.971         c1.168-0.16,1.703-1.629,2.133-2.811l0.103-0.279c0.201-0.542,0.388-1.09,0.576-1.639c0.42-1.23,0.855-2.503,1.445-3.696l0,0         c1.188-2.404,2.852-4.024,4.813-4.683c0.796-0.267,1.724-0.405,2.836-0.422c0.97-0.015,1.918,0.069,2.82,0.244         c-0.789-0.434-1.599-0.793-2.444-1.05C285.537,104.499,284.501,104.352,283.46,104.352z"/>
						</g>
                        <g>
							<g>
								<path style="fill:#AF004F;" d="M271.695,101.806c-4.327-2.722-13.559,0.392-15.491-3.942          c0.255,0.709,0.549,1.412,1.095,1.964c0.523,0.528,1.214,0.873,1.9,1.173c1.129,0.493,2.293,0.899,3.477,1.211          c1.391,0.366,2.82,0.607,4.145,1.191c1.326,0.584,4.088,1.369,2.897,6.989c-0.173,0.818-0.521,1.58-0.738,2.385          c-0.217,0.805-0.317,1.677-0.049,2.512c0.268,0.835,0.971,1.623,1.864,1.832c0.773,0.182,1.564-0.097,2.101-0.584          c0.537-0.487,0.852-1.157,1.074-1.843c0.476-1.478,0.558-3.074,0.556-4.659c-0.002-1.344-0.064-2.703-0.396-4.04          C273.795,104.66,272.934,102.586,271.695,101.806z"/>
                                <path style="fill:#970041;" d="M271.271,117.675c-0.2,0-0.398-0.022-0.591-0.067c-1.004-0.235-1.878-1.085-2.226-2.166          c-0.259-0.81-0.246-1.725,0.043-2.795c0.096-0.358,0.217-0.708,0.339-1.058c0.154-0.445,0.3-0.866,0.393-1.301          c1.036-4.887-1.005-5.748-2.355-6.319l-0.254-0.109c-0.928-0.409-1.904-0.641-2.937-0.887          c-0.379-0.09-0.757-0.18-1.133-0.279c-1.207-0.317-2.401-0.733-3.55-1.236c-0.722-0.315-1.47-0.688-2.055-1.279          c-0.637-0.644-0.959-1.446-1.21-2.147l0.927-0.372c0.957,2.146,4.162,2.226,7.555,2.311          c2.818,0.071,5.732,0.145,7.746,1.411h0.001c1.341,0.845,2.267,2.948,2.652,4.493c0.359,1.446,0.409,2.915,0.411,4.16          c0.002,1.484-0.065,3.217-0.58,4.813c-0.299,0.925-0.685,1.58-1.214,2.06C272.685,117.404,271.971,117.675,271.271,117.675z           M259.551,100.609c1.055,0.452,2.148,0.829,3.252,1.119c0.368,0.097,0.739,0.185,1.109,0.273          c1.031,0.245,2.098,0.498,3.109,0.944l0.24,0.103c1.451,0.613,4.152,1.753,2.945,7.447          c-0.105,0.497-0.269,0.967-0.427,1.422c-0.113,0.327-0.228,0.654-0.317,0.989c-0.237,0.879-0.255,1.609-0.056,2.23          c0.198,0.617,0.74,1.319,1.502,1.497c0.557,0.129,1.189-0.049,1.652-0.467c0.394-0.357,0.69-0.874,0.934-1.626          c0.471-1.463,0.533-3.098,0.531-4.505c-0.002-1.185-0.048-2.578-0.382-3.92c-0.355-1.424-1.199-3.249-2.214-3.888l0,0          c-1.781-1.121-4.556-1.19-7.239-1.258C262.59,100.931,260.965,100.89,259.551,100.609z"/>
							</g>
						</g>
                        <g>
							<path style="fill:#D51C6E;" d="M264.445,111.408c-2.768-2.549-6.743-3.477-9.708-5.815c-2.128-1.678-3.639-4.062-4.154-6.555         c0.574,2,2.539,3.5,4.566,4.354c2.027,0.854,4.202,1.226,6.265,1.979c3.826,1.395,7.203,4.134,9.273,7.525         c0.536,0.878,1,1.848,0.944,2.813c-0.04,0.692-1.304,2.539-2.812,0.948C267.253,115.003,266.146,112.974,264.445,111.408z"/>
                            <path style="fill:#C60158;" d="M270.035,117.784c-0.436,0-0.994-0.167-1.577-0.783c-0.712-0.751-1.333-1.579-1.934-2.379         c-0.738-0.984-1.501-2.001-2.418-2.846l0,0c-1.434-1.321-3.188-2.182-5.045-3.094c-1.583-0.777-3.22-1.582-4.633-2.696         c-2.216-1.748-3.796-4.243-4.334-6.847l0.97-0.239c0.656,2.288,3.212,3.582,4.28,4.031c1.104,0.465,2.289,0.793,3.435,1.111         c0.924,0.256,1.88,0.521,2.808,0.859c3.928,1.432,7.401,4.251,9.528,7.733c0.508,0.833,1.083,1.937,1.017,3.103         c-0.033,0.581-0.591,1.607-1.512,1.943C270.472,117.735,270.272,117.784,270.035,117.784z M264.784,111.04         c0.984,0.906,1.775,1.961,2.54,2.981c0.584,0.778,1.188,1.583,1.859,2.291c0.584,0.617,0.966,0.474,1.093,0.428         c0.497-0.182,0.844-0.834,0.857-1.061c0.051-0.889-0.439-1.816-0.872-2.524c-2.011-3.293-5.298-5.96-9.018-7.315         c-0.89-0.325-1.826-0.584-2.731-0.835c-1.177-0.326-2.393-0.663-3.557-1.152c-0.896-0.378-1.697-0.835-2.382-1.352         c0.664,1.012,1.502,1.933,2.473,2.699c1.33,1.049,2.918,1.829,4.455,2.583C261.341,108.687,263.244,109.621,264.784,111.04         L264.784,111.04z"/>
						</g>
                        <g>
							<path style="fill:#AF004F;" d="M237.278,122.219c2.23-0.458,4.096-1.749,5.687-3.217c1.591-1.467,2.968-3.135,4.603-4.559         c2.634-2.294,5.986-3.939,9.681-4.284c3.695-0.345,7.733,0.699,10.71,3.134c0.981,0.802,1.862,1.781,2.254,2.923         c0.086,0.249,0.147,0.516,0.076,0.755c-0.111,0.37-0.51,0.577-0.907,0.667c-1.528,0.35-3.154-0.509-4.679-1.141         c-3.423-1.418-7.235-1.782-10.673-1.018c-4.371,0.972-7.919,3.634-11.86,5.522c-1.243,0.595-2.558,1.123-3.989,1.228         L237.278,122.219z"/>
                            <path style="fill:#970041;" d="M238.218,122.729l-5.591-0.064l4.55-0.935c1.837-0.377,3.569-1.361,5.449-3.095         c0.708-0.653,1.39-1.364,2.049-2.051c0.813-0.847,1.652-1.723,2.564-2.517c2.923-2.546,6.368-4.069,9.963-4.405         c3.992-0.372,8.134,0.841,11.073,3.245c1.227,1.003,2.038,2.063,2.41,3.147c0.1,0.289,0.198,0.671,0.082,1.061         c-0.149,0.499-0.602,0.858-1.275,1.012c-1.478,0.341-2.946-0.293-4.364-0.904l-0.618-0.263         c-3.339-1.383-7.023-1.736-10.373-0.991c-2.917,0.649-5.535,2.111-8.067,3.526c-1.192,0.666-2.425,1.355-3.685,1.958         C241.205,122.019,239.786,122.614,238.218,122.729z M258.641,110.595c-0.449,0-0.898,0.021-1.346,0.063         c-3.385,0.316-6.636,1.756-9.399,4.163c-0.879,0.765-1.703,1.625-2.5,2.455c-0.669,0.698-1.362,1.42-2.093,2.095         c-0.506,0.467-1.01,0.886-1.511,1.258c0.055-0.026,0.109-0.052,0.162-0.077c1.231-0.59,2.451-1.271,3.629-1.93         c2.594-1.45,5.277-2.948,8.338-3.629c3.547-0.788,7.444-0.418,10.973,1.044l0.631,0.269c1.27,0.547,2.585,1.112,3.746,0.847         c0.289-0.066,0.5-0.193,0.539-0.324c0.04-0.132-0.042-0.371-0.07-0.45c-0.311-0.906-1.017-1.814-2.097-2.698         C265.231,111.707,261.944,110.595,258.641,110.595z"/>
						</g>
                        <g>
							<path style="fill:#D51C6E;" d="M241.969,135.704c1.676-0.636,2.646-2.213,3.462-3.727c0.889-1.651,1.719-3.334,2.488-5.046         c1.174-2.615,2.216-5.317,3.868-7.659c1.652-2.342,4.018-4.337,7.001-4.933c1.52-0.303,3.141-0.232,4.723,0.061         c1.784,0.33,3.582,0.965,5.007,2.118c0.41,0.332,0.799,0.724,0.963,1.199c0.263,0.76-0.133,1.561-0.771,1.997         c-0.638,0.435-1.469,0.569-2.284,0.619c-2.693,0.163-5.496-0.479-8.137-0.076c-1.822,0.278-3.506,1.06-4.798,2.23         c-0.818,0.74-1.548,1.576-2.108,2.514C245.652,134.6,241.969,135.704,241.969,135.704z"/>
                            <path style="fill:#C60158;" d="M242.112,136.183l-0.321-0.946c0.067-0.026,0.133-0.053,0.198-0.082         c0.14-0.066,0.365-0.184,0.667-0.38c1.022-0.719,1.712-1.881,2.334-3.034c0.881-1.636,1.712-3.323,2.472-5.013         c0.212-0.473,0.42-0.948,0.628-1.424c0.937-2.143,1.906-4.359,3.288-6.318c1.376-1.952,3.762-4.427,7.311-5.135         c1.464-0.294,3.118-0.273,4.912,0.059c2.138,0.396,3.898,1.144,5.23,2.221c0.375,0.303,0.898,0.781,1.121,1.424         c0.316,0.913-0.08,1.972-0.962,2.573c-0.786,0.537-1.768,0.659-2.536,0.705c-1.205,0.073-2.435-0.011-3.623-0.092         c-1.56-0.108-3.032-0.208-4.469,0.011c-1.714,0.262-3.326,1.01-4.538,2.106c-0.84,0.759-1.518,1.566-2.014,2.398         c-4.148,6.953-7.268,9.534-8.749,10.452c-0.178,0.115-0.366,0.221-0.563,0.314         C242.271,136.133,242.139,136.174,242.112,136.183z M260.867,114.644c-0.698,0-1.359,0.062-1.982,0.186         c-3.226,0.644-5.418,2.928-6.689,4.73c-1.324,1.876-2.272,4.045-3.188,6.143c-0.21,0.479-0.418,0.957-0.632,1.433         c-0.634,1.413-1.318,2.822-2.039,4.202c1.31-1.537,2.866-3.663,4.616-6.595c0.547-0.917,1.288-1.802,2.202-2.628         c1.355-1.227,3.152-2.063,5.059-2.353c1.546-0.236,3.143-0.126,4.688-0.021c1.157,0.08,2.353,0.161,3.494,0.092         c0.64-0.038,1.449-0.134,2.032-0.533c0.418-0.285,0.778-0.851,0.581-1.42c-0.105-0.305-0.361-0.614-0.805-0.973         c-1.201-0.971-2.81-1.649-4.783-2.015C262.525,114.726,261.672,114.644,260.867,114.644z"/>
						</g>
                        <g>
							<path style="fill:#AF004F;" d="M251.145,148.013c2.92-3.845,2.039-6.484,2.266-9.958c0.194-2.985,0.563-5.944,1.104-8.86         c0.355-1.913,0.794-3.833,1.742-5.508c1.151-2.032,2.993-3.598,4.916-4.993c0.933-0.677,1.91-1.332,3.047-1.684         c1.137-0.352,2.467-0.372,3.603,0.186c0.728,0.358,1.367,0.999,1.5,1.746c0.477,2.691-5.214,3.48-8.982,8.159         c-2.331,2.895-3.231,6.117-3.578,7.42C253.368,147.277,251.145,148.013,251.145,148.013z"/>
                            <path style="fill:#970041;" d="M249.772,148.995l0.975-1.284c2.157-2.84,2.142-4.954,2.123-7.401         c-0.005-0.73-0.011-1.484,0.042-2.288c0.195-2.994,0.569-5.995,1.111-8.919c0.332-1.79,0.773-3.851,1.799-5.663         c1.255-2.217,3.261-3.848,5.058-5.151c0.893-0.648,1.95-1.372,3.193-1.757c1.378-0.427,2.825-0.349,3.971,0.215         c0.958,0.472,1.621,1.26,1.771,2.107c0.312,1.757-1.344,2.763-3.44,4.037c-1.746,1.061-3.919,2.381-5.645,4.523         c-2.328,2.891-3.198,6.16-3.483,7.234c-3.297,12.39-5.53,13.702-5.944,13.839L249.772,148.995z M265.844,117.259         c-0.484,0-0.984,0.076-1.477,0.228c-1.098,0.34-2.073,1.01-2.901,1.612c-1.71,1.24-3.614,2.784-4.775,4.835         c-0.95,1.677-1.368,3.642-1.686,5.353c-0.535,2.885-0.904,5.846-1.097,8.801c-0.05,0.767-0.044,1.503-0.04,2.215         c0.005,0.644,0.009,1.279-0.025,1.919c0.707-1.88,1.526-4.415,2.435-7.83c0.3-1.125,1.21-4.549,3.671-7.604         c1.835-2.278,4.091-3.649,5.904-4.751c2.022-1.229,3.158-1.975,2.975-3.007c-0.092-0.52-0.574-1.063-1.228-1.385         C267.081,117.388,266.477,117.259,265.844,117.259z"/>
						</g>
                        <g>
							<path style="fill:#D51C6E;" d="M264.762,120.555c-1.103,1.16-1.883,2.571-2.579,4.003c-0.698,1.436-1.325,2.919-1.635,4.501         c-0.707,3.607,0.273,7.439,0.95,11.175c0.678,3.736,1.008,7.745-0.843,10.878c1.689-1.159,2.301-2.995,3.023-4.874         c2.045-5.326,0.109-11.77,2.526-16.928c0.627-1.337,1.566-2.501,2.546-3.613c0.679-0.77,1.388-1.531,1.857-2.44         c0.737-1.429,0.771-4.008-1.314-4.803C267.685,117.841,265.655,119.616,264.762,120.555z"/>
                            <path style="fill:#C60158;" d="M259.076,152.803l1.149-1.946c1.815-3.073,1.414-7.05,0.781-10.535         c-0.099-0.548-0.205-1.097-0.311-1.648c-0.619-3.215-1.259-6.54-0.638-9.712c0.339-1.731,1.038-3.309,1.676-4.623         c0.651-1.34,1.477-2.879,2.666-4.129v0c0.872-0.917,3.113-2.97,5.071-2.223c0.87,0.332,1.504,0.965,1.836,1.834         c0.514,1.344,0.183,2.814-0.256,3.666c-0.453,0.878-1.104,1.613-1.733,2.323l-0.193,0.218         c-0.921,1.044-1.857,2.19-2.469,3.495c-1.218,2.599-1.289,5.511-1.365,8.593c-0.068,2.791-0.139,5.677-1.146,8.302         l-0.139,0.363c-0.668,1.756-1.36,3.572-3.068,4.745L259.076,152.803z M265.125,120.899c-1.091,1.148-1.842,2.542-2.491,3.877         c-0.61,1.257-1.277,2.76-1.594,4.378c-0.584,2.982,0.037,6.21,0.638,9.331c0.107,0.554,0.213,1.107,0.313,1.658         c0.483,2.667,0.833,5.617,0.226,8.318c0.323-0.638,0.586-1.331,0.856-2.039l0.14-0.365c0.946-2.463,1.014-5.262,1.081-7.968         c0.075-3.05,0.152-6.204,1.459-8.993c0.665-1.418,1.654-2.631,2.624-3.731l0.195-0.22c0.616-0.695,1.197-1.351,1.593-2.118         c0.372-0.721,0.581-1.881,0.21-2.85c-0.23-0.604-0.654-1.026-1.259-1.256C267.975,118.487,266.306,119.658,265.125,120.899         L265.125,120.899z"/>
						</g>
                        <g>
							<path style="fill:#AF004F;" d="M269.083,122.574c0.128,1.819,1.008,3.548,2.113,5.125c1.104,1.576,2.44,3.035,3.594,4.587         c3.02,4.063,4.76,8.766,5.004,13.53c0.071,1.378,0.007,2.803-0.683,4.061c0.612-0.712,0.818-1.601,0.967-2.464         c0.388-2.256,0.489-4.545,0.3-6.817c-0.292-3.506-1.266-6.945-2.238-10.365c-0.907-3.192-1.842-6.474-3.969-9.288         c-0.677-0.895-1.958-2.512-3.544-2.104C269.087,119.234,269.008,121.515,269.083,122.574z"/>
                            <path style="fill:#970041;" d="M276.379,153.817l2.293-4.181c0.658-1.2,0.684-2.591,0.622-3.794         c-0.24-4.679-1.937-9.263-4.906-13.257c-0.504-0.678-1.043-1.338-1.582-1.999c-0.684-0.837-1.391-1.704-2.02-2.6         c-1.364-1.947-2.084-3.706-2.202-5.377c-0.062-0.867-0.104-3.735,1.917-4.255c1.956-0.506,3.436,1.452,4.067,2.287         c2.189,2.894,3.136,6.228,4.051,9.453c0.963,3.39,1.959,6.896,2.255,10.461c0.192,2.312,0.09,4.648-0.305,6.943         c-0.151,0.877-0.371,1.882-1.08,2.706L276.379,153.817z M271.136,119.273c-0.126,0-0.255,0.016-0.385,0.049         c-1.305,0.336-1.203,2.738-1.169,3.216l0,0c0.105,1.485,0.767,3.079,2.024,4.873c0.607,0.867,1.302,1.718,1.975,2.541         c0.549,0.672,1.098,1.344,1.611,2.035c2.479,3.334,4.104,7.067,4.779,10.932c0.003-0.762-0.027-1.523-0.09-2.282         c-0.289-3.468-1.271-6.926-2.221-10.271c-0.891-3.136-1.811-6.378-3.887-9.122         C273.021,120.253,272.134,119.273,271.136,119.273z"/>
						</g>
                        <g>
							<path style="fill:#D51C6E;" d="M275.497,124.691c1.909,0.89,3.972,1.335,5.983,1.92c1.372,0.399,2.728,0.867,4.063,1.396         c2.509,0.995,4.979,2.232,6.995,4.016c2.563,2.269,4.222,5.262,5.823,8.182c-1.175-4.216-3.757-8.076-6.591-11.649         c-1.29-1.626-2.656-3.226-4.314-4.523c-0.934-0.731-1.95-1.357-2.966-1.975c-1.898-1.152-3.822-2.287-5.875-3.121         c-1.874-0.761-4.763-1.771-6.671-1.096c-2.042,0.722-0.83,3.247,0.275,4.496C273.107,123.341,274.273,124.12,275.497,124.691         z"/>
                            <path style="fill:#C60158;" d="M300.005,144.244l-2.083-3.799c-1.565-2.854-3.184-5.806-5.716-8.047         c-1.689-1.496-3.865-2.743-6.847-3.926c-1.332-0.528-2.685-0.993-4.019-1.381c-0.482-0.14-0.967-0.272-1.452-0.405         c-1.531-0.417-3.114-0.849-4.603-1.543l0,0c-1.412-0.658-2.57-1.491-3.442-2.476c-0.702-0.794-1.794-2.509-1.433-3.902         c0.119-0.458,0.452-1.073,1.366-1.396c2.063-0.729,4.999,0.281,7.026,1.104c2.085,0.847,4.002,1.977,5.946,3.157         c1.095,0.665,2.078,1.274,3.015,2.008c1.721,1.347,3.131,3.01,4.397,4.605c2.43,3.063,5.385,7.174,6.681,11.826         L300.005,144.244z M273.397,118.119c-0.463,0-0.902,0.057-1.288,0.193c-0.542,0.192-0.677,0.494-0.732,0.704         c-0.21,0.813,0.469,2.147,1.214,2.989c0.769,0.869,1.846,1.64,3.116,2.232l0,0c1.411,0.658,2.952,1.078,4.442,1.484         c0.491,0.134,0.981,0.268,1.469,0.41c1.364,0.397,2.746,0.872,4.107,1.411c3.094,1.227,5.363,2.532,7.142,4.106         c0.733,0.649,1.396,1.359,2.004,2.106c-1.127-1.82-2.368-3.469-3.495-4.889c-1.229-1.547-2.591-3.157-4.23-4.44         c-0.894-0.7-1.851-1.293-2.918-1.941c-1.908-1.158-3.787-2.265-5.804-3.085C277.559,119.048,275.272,118.119,273.397,118.119         z"/>
						</g>
                        <g>
							<path style="fill:#AF004F;" d="M282.797,118.304c1.436-0.154,2.88-0.115,4.315-0.05c1.461,0.066,2.93,0.159,4.332,0.499         c3.487,0.845,6.241,3.115,8.844,5.322c-1.82-2.75-3.903-5.394-6.587-7.485c-2.685-2.091-6.024-3.609-9.622-3.851         c-2.053-0.138-4.126,0.143-6.13,0.627c-1.77,0.427-4.196,0.915-5.691,1.939c-1.052,0.72-1.34,1.947-0.66,2.933         c0.888,1.289,2.927,1.314,4.459,1.203C278.334,119.276,280.529,118.547,282.797,118.304z"/>
                            <path style="fill:#970041;" d="M302.644,126.729l-2.679-2.272c-2.298-1.949-5.158-4.375-8.638-5.218         c-1.381-0.334-2.85-0.423-4.237-0.485c-1.29-0.059-2.789-0.107-4.24,0.048l0,0c-1.024,0.11-2.063,0.327-3.067,0.538         c-1.196,0.25-2.433,0.509-3.69,0.6c-1.608,0.118-3.864,0.095-4.906-1.418c-0.387-0.561-0.534-1.223-0.415-1.864         c0.129-0.695,0.557-1.322,1.204-1.766c1.409-0.964,3.542-1.466,5.256-1.87l0.601-0.142c2.314-0.559,4.369-0.765,6.281-0.64         c4.357,0.293,7.786,2.313,9.896,3.956c2.345,1.826,4.473,4.242,6.697,7.604L302.644,126.729z M285.023,117.698         c0.738,0,1.451,0.027,2.111,0.057c1.436,0.064,2.96,0.157,4.427,0.513c2.329,0.563,4.362,1.763,6.142,3.076         c-1.409-1.775-2.816-3.195-4.31-4.359c-1.999-1.557-5.244-3.471-9.349-3.747c-1.811-0.123-3.765,0.08-5.979,0.613         l-0.606,0.144c-1.633,0.384-3.665,0.863-4.92,1.721c-0.426,0.293-0.706,0.691-0.786,1.123         c-0.071,0.383,0.017,0.769,0.255,1.114c0.751,1.09,2.649,1.085,4.011,0.988c1.19-0.085,2.393-0.338,3.558-0.581         c1.028-0.215,2.091-0.438,3.165-0.553l0,0C283.508,117.725,284.278,117.698,285.023,117.698z"/>
						</g>
					</g>
				</g>
			</g>
            <g>
				<path style="fill:#E06D19;" d="M236.316,159.846c-0.173,0-0.341-0.09-0.434-0.251c-1.34-2.331-2.189-4.978-2.455-7.654      c-0.027-0.274,0.173-0.52,0.448-0.547c0.27-0.018,0.52,0.173,0.547,0.448c0.253,2.536,1.057,5.044,2.327,7.254      c0.138,0.239,0.055,0.545-0.185,0.683C236.485,159.824,236.4,159.846,236.316,159.846z"/>
			</g>
            <g>
				<path style="fill:#E06D19;" d="M237.192,155.932c-0.208,0-0.403-0.131-0.473-0.339c-0.876-2.576-1.6-5.232-2.151-7.895      c-0.056-0.27,0.118-0.535,0.389-0.591c0.264-0.055,0.535,0.118,0.591,0.388c0.542,2.623,1.255,5.238,2.118,7.775      c0.089,0.262-0.051,0.545-0.312,0.634C237.3,155.923,237.246,155.932,237.192,155.932z"/>
			</g>
            <g>
				<path style="fill:#E06D19;" d="M237.286,112.466c-0.065,0-0.131-0.013-0.195-0.04c-0.254-0.108-0.373-0.401-0.265-0.656      l1.768-4.169c0.109-0.254,0.402-0.372,0.656-0.265c0.254,0.108,0.373,0.401,0.265,0.656l-1.768,4.168      C237.665,112.352,237.48,112.466,237.286,112.466z"/>
			</g>
            <g>
				<path style="fill:#E06D19;" d="M237.064,119.679c-0.276,0-0.5-0.224-0.5-0.5v-0.252c0-0.276,0.224-0.5,0.5-0.5      c0.276,0,0.5,0.224,0.5,0.5v0.252C237.564,119.455,237.341,119.679,237.064,119.679z"/>
			</g>
            <g>
				<path style="fill:#C93F0F;" d="M263.599,169.77c-0.234,0-0.443-0.165-0.49-0.403c-0.053-0.271,0.123-0.534,0.394-0.587      c0.55-0.108,1.017-0.561,1.449-1.015c0.846-0.891,1.649-1.838,2.386-2.814c0.166-0.221,0.479-0.266,0.7-0.098      c0.22,0.167,0.264,0.48,0.098,0.7c-0.76,1.006-1.587,1.982-2.459,2.9c-0.519,0.546-1.142,1.142-1.98,1.308      C263.664,169.767,263.631,169.77,263.599,169.77z"/>
			</g>
            <g>
				<path style="fill:#C93F0F;" d="M263.2,172.477c-0.169,0-0.335-0.086-0.429-0.242c-0.143-0.236-0.066-0.544,0.17-0.687      l2.507-1.514c0.236-0.143,0.544-0.067,0.687,0.169c0.143,0.236,0.067,0.544-0.169,0.687l-2.508,1.515      C263.378,172.454,263.288,172.477,263.2,172.477z"/>
			</g>
		</g>
        <g>
			<g>
				<g>
					<path style="fill:#9DA29D;" d="M235.018,158.987c3.5-2.876,9.425-4.052,13.415-1.737c0.986,0.572,1.788,1.304,2.479,2.117       c1.322,1.554,3.637,2.076,5.731,1.42c2.382-0.746,5.07-0.801,7.397,0.003c3.6,1.244,6.014,4.567,5.427,7.77       c-0.736,4.021-5.475,6.757-10.146,8.097c-6.305,1.81-13.089,1.993-19.734,1.887c-5.725-0.091-11.237-1.773-11.015-7.344       C228.73,167.249,231.64,161.763,235.018,158.987z"/>
                    <path style="fill:#747774;" d="M239.579,179.118c-3.218-0.051-7.545-0.633-9.891-3.114c-1.198-1.266-1.766-2.89-1.688-4.828       c0.162-4.084,3.147-9.751,6.654-12.633c3.49-2.867,9.706-4.321,14.068-1.79c0.957,0.556,1.816,1.289,2.628,2.241       c1.145,1.344,3.205,1.844,5.122,1.245c2.578-0.808,5.404-0.805,7.756,0.008c3.938,1.361,6.434,4.978,5.805,8.416       c-0.667,3.646-4.612,6.841-10.551,8.545c-4.319,1.24-8.843,1.722-13.315,1.875C243.947,179.158,241.74,179.153,239.579,179.118       z M256.815,161.335c-2.353,0.737-4.9,0.096-6.34-1.596c-0.725-0.851-1.487-1.503-2.33-1.992       c-3.93-2.28-9.576-0.936-12.762,1.683l0,0c-3.288,2.702-6.085,7.991-6.236,11.792c-0.064,1.617,0.398,2.96,1.375,3.993       c2.071,2.19,6.078,2.707,9.075,2.754c6.429,0.104,13.249-0.052,19.567-1.865c5.511-1.581,9.152-4.441,9.739-7.649       c0.528-2.884-1.643-5.946-5.05-7.123c-1.18-0.408-2.496-0.589-3.835-0.544C258.945,160.826,257.858,161.008,256.815,161.335z"/>
				</g>
                <g>
					<path style="fill:#B0B6B0;" d="M218.413,164.601c3.758-2.604,8.974-3.473,13.53-2.253c3.305,0.884,6.16,2.757,9.408,3.791       c2.525,0.804,5.264,1.084,7.936,0.81c2.868-0.294,21.39,2.87,21.716,5.701c0.109,0.945,5.589,8.455-30.783,11.685       c-7.569,0.672-15.517,1.029-22.379-1.834c-3.914-1.633-5.877-4.011-5.169-7.726       C213.44,170.741,214.564,167.268,218.413,164.601z"/>
                    <path style="fill:#909190;" d="M217.619,183.031c-4.429-1.847-6.232-4.583-5.512-8.363c0.71-3.729,1.757-7.614,5.979-10.539       l0,0c3.907-2.708,9.273-3.602,14.005-2.336c1.832,0.49,3.536,1.279,5.185,2.042c1.371,0.635,2.789,1.292,4.25,1.757       c2.448,0.78,5.114,1.054,7.702,0.786c2.489-0.241,21.934,2.643,22.343,6.191c0.011,0.048,0.035,0.111,0.062,0.19       c0.209,0.601,0.699,2.008-0.359,3.645c-2.617,4.049-13.048,6.91-31.002,8.504c-2.082,0.186-4.253,0.353-6.458,0.428       C228.347,185.521,222.671,185.137,217.619,183.031z M249.345,167.52c-2.752,0.284-5.572-0.007-8.169-0.834       c-1.529-0.487-2.98-1.159-4.383-1.809c-1.604-0.742-3.262-1.51-4.999-1.975c-4.415-1.183-9.417-0.351-13.055,2.17       c-3.488,2.417-4.692,5.546-5.504,9.81c-0.611,3.208,0.922,5.46,4.825,7.088c6.849,2.857,15.003,2.42,22.108,1.792       c21.903-1.945,28.48-5.415,30.14-7.984c0.753-1.166,0.431-2.091,0.239-2.644c-0.056-0.162-0.101-0.29-0.116-0.42       c-0.227-1.972-16.383-5.367-20.724-5.219C249.576,167.501,249.455,167.508,249.345,167.52z"/>
				</g>
                <g>
					<g>
						<path style="fill:#B0B6B0;" d="M253.549,170.341c-2.956,3.311-4.125,7.569-3.645,11.622c0.061,0.52,0.167,1.071,0.592,1.456        c0.519,0.47,1.365,0.564,2.139,0.624c9.781,0.756,19.675,0.648,29.458-0.32c0.896-0.089,1.892-0.23,2.439-0.824        c0.368-0.399,0.45-0.921,0.497-1.417c0.232-2.454-0.081-4.937-0.922-7.287c-0.811-2.268-2.161-4.467-4.345-5.995        c-3.601-2.521-9.337-2.716-13.888-3.148C261.076,164.595,256.321,167.236,253.549,170.341z"/>
                        <path style="fill:#909190;" d="M252.59,184.615c-0.902-0.07-1.836-0.187-2.48-0.771c-0.553-0.501-0.7-1.168-0.776-1.814        c-0.521-4.393,0.86-8.793,3.787-12.072l0,0c2.543-2.848,7.423-5.984,12.808-5.48c0.541,0.052,1.099,0.1,1.668,0.149        c4.311,0.371,9.197,0.792,12.495,3.101c2.048,1.434,3.581,3.544,4.556,6.272c0.874,2.444,1.195,4.979,0.953,7.535        c-0.058,0.608-0.176,1.242-0.647,1.752c-0.683,0.741-1.806,0.908-2.805,1.007c-3.602,0.356-7.221,0.596-10.846,0.72        C265.057,185.227,258.795,185.095,252.59,184.615z M253.977,170.723L253.977,170.723c-2.709,3.033-3.986,7.105-3.504,11.172        c0.06,0.504,0.149,0.863,0.407,1.097c0.376,0.341,1.095,0.423,1.798,0.477c9.739,0.753,19.615,0.646,29.357-0.319        c0.788-0.078,1.664-0.198,2.073-0.642c0.227-0.247,0.302-0.597,0.347-1.082c0.226-2.387-0.074-4.755-0.89-7.04        c-0.894-2.499-2.284-4.423-4.134-5.719c-3.046-2.132-7.768-2.539-11.935-2.898c-0.573-0.049-1.134-0.098-1.678-0.149        c-0.491-0.047-0.978-0.06-1.458-0.044C259.987,165.727,256.107,168.338,253.977,170.723z"/>
					</g>
				</g>
			</g>
            <g>
				<path style="fill:#909190;" d="M219.757,174.777c0.236-0.008,0.452-0.162,0.528-0.4c0.652-2.058,1.749-4.005,3.169-5.629      c0.519-0.593,1.226-1.311,2.099-1.6c0.301-0.1,0.464-0.425,0.365-0.725c-0.1-0.301-0.425-0.465-0.725-0.365      c-1.137,0.376-1.988,1.231-2.602,1.934c-1.524,1.742-2.7,3.83-3.4,6.037c-0.096,0.302,0.071,0.625,0.373,0.721      C219.628,174.77,219.693,174.779,219.757,174.777z"/>
			</g>
            <g>
				<path style="fill:#909190;" d="M221.201,178.204c0.249-0.008,0.472-0.179,0.537-0.433c0.68-2.681,1.938-5.253,3.637-7.438      c0.195-0.25,0.15-0.611-0.1-0.805c-0.252-0.195-0.611-0.15-0.805,0.1c-1.796,2.309-3.125,5.028-3.844,7.862      c-0.078,0.307,0.108,0.62,0.415,0.697C221.095,178.201,221.149,178.206,221.201,178.204z"/>
			</g>
            <g>
				<path style="fill:#909190;" d="M228.461,171.003c0.317-0.011,0.565-0.276,0.554-0.593l-0.005-0.139      c-0.011-0.317-0.276-0.565-0.593-0.554c-0.317,0.011-0.565,0.276-0.554,0.593l0.005,0.14      C227.878,170.766,228.144,171.014,228.461,171.003z"/>
			</g>
            <g>
				<path style="fill:#909190;" d="M277.076,178.929c-0.144-0.332-0.022-0.71,0.284-0.879c0.036-0.02,0.074-0.036,0.112-0.047      c0.944-2.095,1.127-4.515,0.492-6.727c-0.088-0.305,0.089-0.623,0.393-0.71c0.302-0.084,0.623,0.088,0.71,0.393      c0.767,2.674,0.466,5.621-0.825,8.083l-0.108,0.207l-0.223,0.072c-0.06,0.019-0.12,0.03-0.181,0.032      C277.456,179.363,277.194,179.201,277.076,178.929z M277.914,179.056c0,0,0-0.001,0.001-0.001      C277.914,179.055,277.914,179.056,277.914,179.056z"/>
			</g>
            <g>
				<path style="fill:#909190;" d="M274.911,181.047c0.207-0.007,0.431-0.112,0.592-0.367c1.216-1.953,1.882-4.294,1.875-6.593      c-0.001-0.317-0.259-0.574-0.576-0.573c-0.324,0.017-0.573,0.259-0.572,0.576c0.006,2.009-0.555,4.053-1.581,5.783      c-0.162,0.077-0.301,0.218-0.353,0.381c-0.088,0.275,0.058,0.611,0.319,0.733C274.702,181.029,274.804,181.051,274.911,181.047z      "/>
			</g>
            <g>
				<path style="fill:#747774;" d="M240.089,162.948c0.176-0.006,0.348-0.093,0.455-0.25c0.996-1.458,2.629-2.514,4.367-2.824      c0.312-0.056,0.52-0.354,0.464-0.667c-0.057-0.312-0.35-0.519-0.667-0.464c-2.065,0.369-3.929,1.575-5.112,3.307      c-0.179,0.262-0.112,0.619,0.15,0.798C239.851,162.919,239.971,162.952,240.089,162.948z"/>
			</g>
            <g>
				<path style="fill:#747774;" d="M246.455,162.149c0.317-0.011,0.565-0.276,0.554-0.593l-0.005-0.14      c-0.011-0.317-0.276-0.565-0.593-0.554c-0.317,0.011-0.565,0.276-0.554,0.593l0.005,0.14      C245.873,161.912,246.138,162.16,246.455,162.149z"/>
			</g>
		</g>
	</g></svg>