<svg version="1.1" xmlns="http://www.w3.org/2000/svg" xmlns:xlink="http://www.w3.org/1999/xlink" x="0px" y="0px" viewBox="181.7960533542004 200.09650132689245 121.44194664579965 101.48749867310755" style="enable-background:new 0 0 500 500;" xml:space="preserve"><g id="a4">
		<g>
			<g>
				<g>
					<path style="fill:#9DA29D;" d="M294.362,305.93c2.785-0.423,5.633-0.89,8.096-2.257c2.463-1.367,4.506-3.833,4.583-6.65       c0.077-2.816-2.376-5.355-5.194-5.34c-5.722,0.031-4.195-2.992-4.126-3.281c0.509-2.126-1.868-3.786-3.967-4.397       c-2.925-0.851-6.01-1.028-9.053-0.883c-4.354,0.207-8.648,1.058-12.924,1.907c-12.715,2.525-25.444,5.053-37.931,8.533       c-4.094,1.141-10.824,4.085-8.863,9.682c1.268,3.621,5.821,2.972,8.926,3.107C246.442,306.897,287.18,307.021,294.362,305.93z"/>
                    <path style="fill:#767A75;" d="M262.398,307.257c-11.441,0-22.811-0.158-28.511-0.406c-0.477-0.021-0.989-0.022-1.518-0.025       c-2.972-0.012-6.671-0.026-7.858-3.417c-0.579-1.652-0.494-3.214,0.252-4.645c1.696-3.25,6.335-4.957,8.948-5.685       c12.511-3.486,25.453-6.056,37.968-8.542c4.227-0.84,8.597-1.707,12.997-1.917c3.538-0.166,6.551,0.127,9.217,0.903       c2.56,0.745,4.863,2.699,4.313,4.993c-0.007,0.031-0.024,0.084-0.05,0.155c-0.162,0.452-0.304,1.033,0.038,1.516       c0.322,0.455,1.203,0.994,3.565,0.994c0.037,0,0.073,0,0.112,0c1.459,0,2.916,0.634,4,1.743c1.101,1.125,1.71,2.624,1.669,4.11       c-0.09,3.284-2.56,5.807-4.84,7.073c-2.627,1.459-5.752,1.934-8.264,2.314l0,0       C290.509,307.021,276.401,307.257,262.398,307.257z M286.548,283.577c-0.591,0-1.198,0.015-1.823,0.045       c-4.326,0.205-8.66,1.066-12.851,1.898c-12.497,2.482-25.42,5.048-37.894,8.524c-1.979,0.551-6.751,2.16-8.329,5.185       c-0.613,1.175-0.679,2.471-0.196,3.851c0.954,2.724,4.123,2.736,6.919,2.747c0.542,0.003,1.068,0.004,1.558,0.026       c12.646,0.549,53.261,0.66,60.355-0.417l0.075,0.494l-0.075-0.494c3.093-0.47,5.641-0.93,7.929-2.2       c2.04-1.132,4.248-3.363,4.326-6.226c0.034-1.217-0.471-2.451-1.384-3.384c-0.898-0.917-2.094-1.442-3.286-1.442       c-0.04,0-0.076,0-0.113,0c-2.273,0-3.706-0.463-4.38-1.416c-0.686-0.969-0.293-2.069-0.163-2.431       c0.47-1.935-1.899-3.355-3.602-3.851C291.523,283.877,289.197,283.577,286.548,283.577z"/>
				</g>
                <g>
					<path style="fill:#898E89;" d="M221.136,305.255c6.794,1.168,13.753,0.586,20.623,0.001c8.229-0.701,16.527-1.415,24.44-3.782       c6.94-2.076,13.439-5.38,19.894-8.667c4.348-2.214,9.262-5.225,9.679-10.087c0.265-3.09-1.545-6.101-4.059-7.916       c-2.515-1.816-5.636-2.594-8.719-2.94c-10.063-1.128-20.089,1.953-29.622,5.365c-9.129,3.268-18.197,6.922-26.525,11.936       c-3.775,2.273-9.145,5.127-11.836,8.703C211.968,301.908,217.564,304.641,221.136,305.255z"/>
                    <path style="fill:#686B68;" d="M229.839,306.431c-2.936,0-5.874-0.183-8.788-0.684c-2.813-0.484-6.258-2.058-7.175-4.37       c-0.489-1.232-0.242-2.514,0.734-3.811c2.39-3.174,6.822-5.786,10.384-7.884c0.553-0.326,1.088-0.641,1.594-0.946       c8.846-5.326,18.418-9.044,26.615-11.978c8.993-3.22,19.46-6.557,29.846-5.392c3.789,0.425,6.719,1.417,8.956,3.032       c2.894,2.089,4.528,5.294,4.265,8.364c-0.429,4.998-5.27,8.107-9.95,10.49c-6.378,3.248-12.974,6.605-19.978,8.7       c-7.995,2.391-16.406,3.108-24.541,3.801C237.868,306.089,233.855,306.431,229.839,306.431z M221.221,304.762       c6.773,1.165,13.749,0.57,20.495-0.004c8.084-0.689,16.444-1.401,24.34-3.763c6.917-2.069,13.472-5.406,19.81-8.634       c4.435-2.258,9.021-5.174,9.408-9.684c0.229-2.68-1.283-5.612-3.854-7.468c-2.094-1.511-4.868-2.443-8.482-2.848       c-10.179-1.146-20.51,2.157-29.397,5.339c-8.15,2.917-17.664,6.612-26.436,11.893c-0.509,0.306-1.046,0.623-1.603,0.951       c-3.485,2.054-7.823,4.609-10.093,7.624c-0.762,1.013-0.96,1.941-0.604,2.84C215.546,302.876,218.594,304.31,221.221,304.762z"/>
				</g>
                <g>
					<path style="fill:#9DA29D;" d="M208.747,301.85c7.372,4.481,55.163-10.537,65.001-14.989c4.44-2.009,8.859-4.492,11.774-8.398       c2.915-3.906,3.975-9.544,1.415-13.691c-2.271-3.68-6.862-5.4-11.186-5.372c-4.324,0.028-8.488,1.52-12.553,2.993       c-8.455,3.065-16.909,6.129-25.364,9.194c-7.681,2.784-15.441,5.608-22.268,10.095c-2.861,1.881-7.621,4.815-9.197,7.981       C205.464,291.481,203.305,298.542,208.747,301.85z"/>
                    <path style="fill:#767A75;" d="M213.373,303.154c-2.201,0-3.887-0.27-4.885-0.876l0,0c-5.612-3.411-3.684-10.591-2.566-12.837       c1.52-3.053,5.674-5.764,8.707-7.742l0.663-0.434c6.913-4.544,14.772-7.393,22.372-10.147l25.364-9.194       c3.872-1.403,8.261-2.994,12.721-3.023c0.033,0,0.067,0,0.1,0c3.912,0,8.959,1.471,11.514,5.61       c2.452,3.972,1.86,9.832-1.439,14.253c-3.117,4.175-7.799,6.667-11.969,8.554C265.16,291.297,227.967,303.153,213.373,303.154z        M275.849,259.899c-0.032,0-0.063,0-0.094,0c-4.288,0.028-8.405,1.52-12.387,2.963l-25.364,9.194       c-7.546,2.735-15.349,5.563-22.164,10.043l-0.665,0.435c-2.771,1.808-6.96,4.54-8.358,7.35       c-1.012,2.033-2.781,8.516,2.19,11.537l0,0c7.21,4.385,54.821-10.621,64.535-15.017c4.053-1.834,8.599-4.249,11.58-8.242       c3.06-4.099,3.631-9.498,1.39-13.129C284.172,261.246,279.489,259.899,275.849,259.899z"/>
				</g>
                <g>
					<path style="fill:#898E89;" d="M278.792,263.827c3.063-3.566,3.175-9.039,0.04-12.542c-3.715-4.151-11.76-8.518-29.038-6.005       c-29.98,4.361-59.961,15.808-60.506,38.157c-0.545,22.349,35.432,9.812,46.334,3.271       C244.733,281.24,269.839,274.25,278.792,263.827z"/>
                    <path style="fill:#686B68;" d="M203.755,296.657c-3.671,0-6.998-0.614-9.581-2.118c-3.702-2.156-5.514-5.895-5.387-11.114       c0.658-26.971,42.833-36.007,60.935-38.64c17.524-2.549,25.705,1.946,29.482,6.166c3.235,3.615,3.221,9.414-0.033,13.201       l-0.379-0.326l0.379,0.326c-6.034,7.025-19.344,12.525-30.039,16.944c-5.492,2.269-10.236,4.229-13.254,6.04       C229.91,290.717,215.172,296.657,203.755,296.657z M259.266,245.04c-2.775,0-5.893,0.225-9.4,0.734       c-17.851,2.597-59.439,11.465-60.078,37.675c-0.118,4.827,1.527,8.268,4.89,10.226c10.249,5.971,32.948-2.753,40.686-7.396       c3.082-1.849,7.857-3.822,13.387-6.107c10.596-4.378,23.784-9.827,29.662-16.671c2.934-3.415,2.954-8.635,0.046-11.883       C275.587,248.409,270.01,245.04,259.266,245.04z"/>
				</g>
			</g>
            <g>
				<g>
					<path style="fill:#5537A1;" d="M213.104,258.311c-5.879-2.42-10.074-7.653-13.701-12.874c-2.41-3.468-4.787-7.391-4.387-11.595       c0.087-0.914,0.369-1.906,1.143-2.399c0.664-0.422,1.554-0.36,2.258-0.009c0.704,0.351,1.253,0.951,1.727,1.579       c1.569,2.078,2.486,4.56,3.556,6.934c1.603,3.558,3.591,6.943,5.917,10.077c1.349,1.818,2.824,3.564,4.59,4.981       c1.128,0.906,2.364,1.668,3.606,2.41c0.752,0.449,2.765,1.111,3.231,1.809c0.51,0.763-0.517,0.823-1.223,0.78       C217.593,259.866,215.158,259.156,213.104,258.311z"/>
                    <path style="fill:#43288B;" d="M220.156,260.514c-0.115,0-0.236-0.004-0.365-0.012c-2.029-0.125-4.471-0.739-6.877-1.729l0,0       c-5.975-2.46-10.222-7.726-13.921-13.051c-2.387-3.435-4.898-7.472-4.474-11.927c0.128-1.342,0.589-2.275,1.373-2.774       c0.763-0.486,1.816-0.498,2.749-0.035c0.854,0.426,1.465,1.145,1.903,1.725c1.3,1.722,2.166,3.715,3.003,5.643       c0.201,0.463,0.403,0.927,0.61,1.386c1.588,3.524,3.561,6.883,5.862,9.985c1.62,2.182,3.008,3.69,4.501,4.888       c1.125,0.903,2.37,1.666,3.549,2.371c0.219,0.13,0.59,0.296,0.983,0.472c1.178,0.526,2.04,0.94,2.407,1.488       c0.316,0.472,0.238,0.821,0.117,1.031C221.369,260.341,220.914,260.514,220.156,260.514z M213.295,257.849       c2.307,0.949,4.636,1.538,6.558,1.656c0.377,0.024,0.621,0.001,0.758-0.028c-0.267-0.348-1.285-0.802-1.964-1.105       c-0.439-0.196-0.819-0.366-1.089-0.527c-1.21-0.723-2.488-1.507-3.663-2.449c-1.563-1.254-3.006-2.819-4.678-5.073       c-2.345-3.159-4.354-6.58-5.972-10.169c-0.208-0.464-0.412-0.931-0.615-1.399c-0.814-1.874-1.656-3.812-2.884-5.439       c-0.372-0.492-0.884-1.1-1.551-1.432c-0.61-0.305-1.304-0.311-1.766-0.017c-0.51,0.324-0.817,1.005-0.915,2.024       c-0.392,4.119,2.014,7.973,4.3,11.262C203.426,250.351,207.559,255.488,213.295,257.849L213.295,257.849z"/>
				</g>
                <g>
					<path style="fill:#43288B;" d="M222.902,249.847c-1.038-2.839-2.364-5.598-2.952-8.563c-0.738-3.722-0.251-7.676,1.369-11.107       c0.322-0.682,0.759-1.405,1.484-1.614c0.686-0.199,1.414,0.132,1.996,0.546c2.838,2.02,3.7,5.857,3.725,9.34       c0.036,5.209-1.298,10.319-2.622,15.357c-0.529,2.012-1.45,3.835-2.081,5.758C225.325,256.905,223.865,252.48,222.902,249.847z       "/>
				</g>
                <g>
					<path style="fill:#5537A1;" d="M204.269,258.119c-8.535-3.463-14.936-9.217-18.237-16.395       c-0.542-1.179-0.941-2.646,0.239-3.969c1.309-1.467,3.961-1.893,5.552-1.301c1.591,0.592,2.388,1.889,3.13,3.131       c3.334,5.583,6.893,11.158,12.547,15.245c4.297,3.105,9.848,5.182,16.409,5.588       C216.417,261.143,210.07,260.473,204.269,258.119z"/>
                    <path style="fill:#43288B;" d="M218.389,261.199c-5.333,0-9.972-0.857-14.309-2.616l0,0       c-8.598-3.489-15.17-9.401-18.503-16.649c-0.541-1.176-1.097-2.923,0.32-4.511c1.485-1.664,4.354-2.085,6.1-1.437       c1.785,0.665,2.672,2.15,3.384,3.343c3.392,5.68,6.893,11.108,12.411,15.096c4.45,3.216,10.033,5.116,16.146,5.494l0.018,0.997       C222.014,261.104,220.163,261.199,218.389,261.199z M190.236,236.698c-1.289,0-2.766,0.463-3.593,1.391       c-0.802,0.899-0.849,1.924-0.158,3.427c3.227,7.016,9.609,12.748,17.971,16.141l0,0c4.27,1.732,8.861,2.551,14.143,2.543       c-4.237-0.91-8.111-2.59-11.394-4.962c-5.672-4.1-9.236-9.621-12.684-15.394c-0.698-1.169-1.419-2.376-2.874-2.919       C191.244,236.773,190.756,236.698,190.236,236.698z"/>
				</g>
                <g>
					<path style="fill:#43288B;" d="M211.569,245.258c-2.999-1.754-5.965-3.951-7.635-7.621c-1.394-3.063-1.757-6.865-2.522-10.381       c-0.765-3.516-1.831-8.456-4.726-8.268c-2.342,0.152-2.085,5.686-1.53,8.069c0.981,4.208,1.996,8.501,4.028,11.844       c3.374,5.55,9.011,7.698,14.073,10.514c4.188,2.33,7.782,5.512,10.073,10.675C222.427,252.376,214.567,247.012,211.569,245.258       z"/>
				</g>
                <g>
					<path style="fill:#43288B;" d="M215.262,243.637c-2.593-2.312-5.066-5.052-5.979-8.979c-0.762-3.278-0.366-7.077-0.421-10.674       c-0.055-3.597-0.124-8.651-2.999-9.039c-2.326-0.314-3.168,5.161-3.094,7.608c0.131,4.319,0.277,8.728,1.608,12.406       c2.211,6.107,7.312,9.327,11.717,13.088c3.645,3.111,6.54,6.941,7.765,12.455C224.499,252.761,217.855,245.949,215.262,243.637       z"/>
				</g>
                <g>
					<path style="fill:#5537A1;" d="M216.297,249.188c-0.98-5.264-0.323-10.74-0.002-16.135c0.321-5.394,0.254-11.032-2.01-15.788       c-1.426-2.995-3.698-5.586-4.341-8.894c-0.131-0.676-0.188-1.398,0.031-2.059c0.506-1.529,2.37-2.169,3.796-1.695       c1.426,0.474,2.467,1.749,3.3,3.063c4.31,6.802,4.818,15.71,3.615,23.966c-0.829,5.687-2.402,11.346-2.152,17.064       c0.178,4.059,1.537,7.639,3.805,10.783C218.867,258.052,216.969,252.801,216.297,249.188z"/>
                    <path style="fill:#43288B;" d="M223.777,260.632l-1.63-0.676c-3.48-1.445-5.558-6.462-6.342-10.676       c-0.826-4.436-0.503-9.054-0.191-13.519c0.064-0.914,0.128-1.826,0.182-2.737c0.299-5.02,0.299-10.792-1.963-15.544       c-0.482-1.013-1.079-2.005-1.657-2.964c-1.124-1.867-2.286-3.798-2.723-6.049c-0.114-0.587-0.233-1.465,0.047-2.311       c0.254-0.768,0.82-1.405,1.593-1.792c0.872-0.438,1.932-0.52,2.834-0.219c1.695,0.564,2.846,2.136,3.565,3.27       c4.858,7.667,4.687,17.449,3.687,24.305c-0.242,1.659-0.551,3.339-0.85,4.964c-0.724,3.935-1.472,8.004-1.297,12.006       c0.166,3.793,1.414,7.33,3.711,10.513L223.777,260.632z M212.794,204.963c-0.429,0-0.864,0.099-1.251,0.294       c-0.377,0.189-0.874,0.554-1.092,1.213c-0.157,0.475-0.162,1.048-0.015,1.806c0.404,2.078,1.47,3.849,2.598,5.724       c0.59,0.98,1.2,1.993,1.703,3.05c2.36,4.957,2.365,10.886,2.058,16.033c-0.054,0.914-0.118,1.83-0.183,2.747       c-0.308,4.403-0.626,8.956,0.177,13.267l0,0c0.538,2.893,1.795,6.426,3.754,8.502c-1.528-2.753-2.37-5.726-2.507-8.866       c-0.18-4.115,0.579-8.241,1.313-12.23c0.297-1.616,0.604-3.287,0.844-4.928c0.975-6.689,1.152-16.217-3.542-23.626       c-0.637-1.004-1.644-2.394-3.036-2.856C213.354,205.006,213.075,204.963,212.794,204.963z"/>
				</g>
                <g>
					<path style="fill:#5537A1;" d="M238.186,233.011c0.464-5.54-2.013-12.157,1.183-16.706c1.65-2.35,4.602-4.528,7.186-3.275       c2.128,1.032,2.68,3.785,2.738,6.15c0.22,9.009-2.985,17.925-8.185,25.286c-4.561,6.458-10.866,12.451-17.777,16.348       C224.03,258.973,236.776,249.868,238.186,233.011z"/>
                    <path style="fill:#43288B;" d="M222.371,261.929l0.492-1.293c0.177-0.465,0.759-1.082,1.953-2.324       c3.822-3.972,11.775-12.236,12.872-25.343c0.154-1.848-0.031-3.876-0.21-5.837c-0.358-3.917-0.729-7.968,1.482-11.115       c1.885-2.683,5.029-4.786,7.814-3.437c1.892,0.918,2.936,3.195,3.019,6.587c0.211,8.645-2.728,17.732-8.276,25.587       c-4.827,6.835-11.198,12.693-17.94,16.495L222.371,261.929z M244.968,213.17c-1.903,0-3.914,1.607-5.19,3.423       c-1.999,2.846-1.662,6.539-1.305,10.449c0.184,2.004,0.373,4.077,0.211,6.011c-1.099,13.133-8.854,21.484-12.854,25.649       c5.586-3.678,10.788-8.745,14.87-14.524c5.425-7.681,8.299-16.554,8.093-24.985c-0.051-2.087-0.519-4.772-2.456-5.712       C245.895,213.267,245.435,213.17,244.968,213.17z"/>
				</g>
                <g>
					<path style="fill:#5537A1;" d="M227.205,242.559c-2.158-5.249-5.475-10.632-6.927-16.317       c-1.451-5.685-1.801-12.18,0.734-17.664c0.657-1.422,1.522-2.773,2.688-3.683c1.165-0.909,2.667-1.32,3.926-0.804       c0.751,0.307,1.37,0.916,1.869,1.615c2.11,2.952,2.146,7.29,1.536,11.214c-0.61,3.924-1.772,7.822-1.726,11.758       c0.053,4.496,1.681,8.666,2.012,13.125c0.502,6.756-2.228,13.96-6.987,18.441C224.331,260.243,230.388,250.301,227.205,242.559       z"/>
                    <path style="fill:#43288B;" d="M221.983,263.14l1.92-3.157c0.06-0.097,5.887-9.819,2.839-17.233l0,0       c-0.754-1.835-1.635-3.652-2.567-5.577c-1.686-3.479-3.429-7.075-4.381-10.807c-1.227-4.803-2.089-11.824,0.765-17.997       c0.805-1.743,1.732-3.008,2.834-3.867c1.391-1.086,3.086-1.42,4.423-0.873c0.759,0.311,1.461,0.912,2.086,1.787       c1.867,2.611,2.413,6.508,1.623,11.582c-0.193,1.243-0.444,2.498-0.688,3.712c-0.523,2.613-1.064,5.316-1.032,7.963       c0.028,2.412,0.533,4.793,1.021,7.095c0.412,1.94,0.837,3.947,0.989,5.998c0.511,6.88-2.292,14.275-7.143,18.842       L221.983,263.14z M226.448,204.368c-0.797,0-1.668,0.32-2.44,0.922c-0.959,0.748-1.814,1.926-2.541,3.499       c-2.731,5.907-1.89,12.684-0.704,17.33c0.928,3.633,2.648,7.184,4.313,10.618c0.898,1.853,1.826,3.77,2.592,5.633l0,0       c2.085,5.072,0.389,10.95-1.154,14.608c3.055-4.262,4.698-9.857,4.306-15.138c-0.147-1.984-0.566-3.957-0.97-5.865       c-0.499-2.35-1.014-4.78-1.044-7.291c-0.032-2.752,0.519-5.507,1.052-8.171c0.241-1.204,0.49-2.448,0.68-3.669       c0.748-4.806,0.261-8.456-1.448-10.846c-0.514-0.719-1.07-1.205-1.652-1.443C227.131,204.429,226.797,204.368,226.448,204.368z       "/>
				</g>
                <g>
					<path style="fill:#7C59CD;" d="M228.127,256.593c3.468-5.335,6.543-11.23,6.997-17.551c0.335-4.669-0.784-9.259-0.876-13.923       c-0.09-4.53,0.807-9.118,2.604-13.325c0.856-2.003,2.494-4.24,4.525-3.865c1.678,0.31,2.5,2.283,2.658,4.053       c0.307,3.443-0.857,6.876-1.612,10.288c-1.17,5.286-1.369,10.708-2.124,16.059c-0.755,5.351-2.145,10.807-5.331,15.176       c-2.606,3.572-6.736,6.442-11.064,6.656C225.856,259.762,227.056,258.24,228.127,256.593z"/>
                    <path style="fill:#6848B7;" d="M223.928,260.66l-0.125-0.989c1.652-0.338,2.755-1.583,3.904-3.351l0,0       c2.97-4.568,6.44-10.665,6.918-17.315c0.193-2.689-0.112-5.42-0.408-8.061c-0.212-1.898-0.432-3.861-0.47-5.816       c-0.09-4.59,0.824-9.27,2.644-13.531c0.474-1.108,2.244-4.683,5.076-4.16c1.999,0.369,2.9,2.655,3.065,4.5       c0.249,2.785-0.436,5.561-1.099,8.247c-0.181,0.732-0.361,1.463-0.523,2.194c-0.738,3.335-1.094,6.797-1.438,10.145       c-0.198,1.928-0.403,3.921-0.679,5.876c-0.95,6.738-2.673,11.632-5.422,15.401C232.432,257.829,228.048,260.457,223.928,260.66       z M228.546,256.865c-0.496,0.762-1.049,1.557-1.734,2.229c2.881-0.958,5.686-3.053,7.751-5.883       c2.648-3.632,4.313-8.382,5.24-14.952c0.273-1.937,0.477-3.921,0.674-5.839c0.347-3.376,0.706-6.867,1.457-10.258       c0.163-0.738,0.346-1.478,0.528-2.218c0.643-2.605,1.308-5.299,1.074-7.918c-0.134-1.496-0.803-3.338-2.251-3.605       c-1.674-0.307-3.151,1.641-3.975,3.569c-1.765,4.133-2.651,8.669-2.564,13.119c0.038,1.91,0.254,3.849,0.464,5.725       c0.3,2.686,0.611,5.463,0.411,8.244C235.128,245.956,231.582,252.196,228.546,256.865L228.546,256.865z"/>
				</g>
                <g>
					<path style="fill:#A17AFA;" d="M218.859,257.207c-4.294-3.728-6.506-9.302-7.926-14.808s-2.219-11.211-4.414-16.457       c-2.142-5.119-5.653-10.05-5.275-15.586c0.124-1.817,0.799-3.754,2.361-4.69c1.687-1.011,3.966-0.516,5.487,0.73       c1.521,1.247,2.416,3.095,3.084,4.944c4.887,13.523-0.031,29.398,6.06,42.424c1.267,2.709,3.083,5.296,5.718,6.71       L218.859,257.207z"/>
                    <path style="fill:#8D69E4;" d="M223.717,260.914c-0.449-0.241-0.884-0.52-1.305-0.835l-3.881-2.495       c-3.691-3.204-6.259-7.99-8.083-15.061c-0.438-1.701-0.823-3.446-1.196-5.132c-0.832-3.769-1.692-7.665-3.195-11.257       c-0.548-1.31-1.201-2.636-1.833-3.919c-1.853-3.763-3.769-7.655-3.48-11.894c0.16-2.336,1.108-4.189,2.603-5.085       c1.741-1.042,4.234-0.726,6.061,0.772c1.729,1.417,2.639,3.502,3.238,5.161c2.33,6.447,2.459,13.485,2.584,20.29       c0.138,7.52,0.281,15.297,3.458,22.091c1.185,2.533,2.625,4.446,4.294,5.706l1.241,0.795L223.717,260.914z M219.16,256.806       l0.381,0.245c-0.637-0.906-1.223-1.932-1.758-3.075c-3.267-6.987-3.412-14.871-3.552-22.496       c-0.124-6.724-0.251-13.678-2.525-19.969c-0.556-1.538-1.391-3.465-2.931-4.727c-1.233-1.01-3.296-1.656-4.913-0.689       c-1.718,1.03-2.054,3.347-2.119,4.296c-0.271,3.97,1.584,7.739,3.378,11.384c0.639,1.296,1.299,2.637,1.859,3.975       c1.538,3.674,2.408,7.616,3.249,11.427c0.371,1.679,0.753,3.414,1.188,5.098C213.183,249.122,215.644,253.741,219.16,256.806z"/>
				</g>
                <g>
					<path style="fill:#7C59CD;" d="M189.906,216.874c-0.279-1.586-0.404-3.436,0.723-4.587c0.915-0.935,2.429-1.076,3.659-0.631       c1.23,0.445,2.222,1.374,3.08,2.362c4.808,5.536,6.271,13.112,8.229,20.178c2.969,10.716,9.785,18.396,17.734,26.279       C205.492,253.219,192.301,230.475,189.906,216.874z"/>
                    <path style="fill:#6848B7;" d="M225.457,261.878l-2.315-0.941c-18.262-7.428-31.322-30.312-33.728-43.976l0,0       c-0.288-1.637-0.451-3.687,0.857-5.024c0.978-1.001,2.662-1.303,4.187-0.752c1.436,0.519,2.511,1.611,3.287,2.505       c4.213,4.85,5.9,11.228,7.533,17.395c0.264,0.998,0.527,1.992,0.8,2.977c3.033,10.945,10.359,18.874,17.604,26.057       L225.457,261.878z M190.398,216.787c2.198,12.479,14.212,33.881,30.642,42.1c-6.677-6.777-13.101-14.362-15.926-24.559       c-0.274-0.988-0.538-1.986-0.803-2.987c-1.604-6.057-3.261-12.32-7.321-16.996c-0.697-0.802-1.652-1.779-2.872-2.22       c-0.967-0.349-2.313-0.328-3.132,0.511C189.996,213.648,190.152,215.386,190.398,216.787L190.398,216.787z"/>
				</g>
                <g>
					<path style="fill:#A17AFA;" d="M230.943,246.348c4.746-12.969,7.481-27.161,4.354-40.612c-0.365-1.569-0.975-3.319-2.463-3.937       c-1.208-0.502-2.656-0.038-3.614,0.853c-0.958,0.891-1.505,2.135-1.907,3.38c-2.253,6.977-0.63,14.52,0.338,21.788       c1.468,11.023,0.97,21.9-3.254,32.268C227.467,256.259,229.275,250.908,230.943,246.348z"/>
                    <path style="fill:#8D69E4;" d="M222.637,263.084l1.297-3.184c3.795-9.316,4.849-19.788,3.221-32.013       c-0.135-1.012-0.282-2.03-0.43-3.05c-0.916-6.314-1.862-12.843,0.113-18.958c0.363-1.126,0.924-2.552,2.042-3.593       c1.188-1.104,2.854-1.486,4.147-0.949c1.728,0.718,2.381,2.667,2.757,4.286c2.731,11.748,1.261,25.508-4.371,40.897       l-0.381,1.045c-1.573,4.327-3.356,9.231-6.245,12.835L222.637,263.084z M231.767,202.091c-0.828,0-1.65,0.411-2.207,0.928       c-0.949,0.884-1.445,2.157-1.772,3.168c-1.903,5.893-0.974,12.305-0.074,18.506c0.148,1.024,0.296,2.046,0.432,3.062       c1.42,10.664,0.825,20.024-1.826,28.465c1.538-2.849,2.704-6.058,3.772-8.997l0.381-1.047       c5.564-15.204,7.023-28.771,4.336-40.327c-0.322-1.386-0.86-3.045-2.167-3.588       C232.358,202.143,232.063,202.091,231.767,202.091z"/>
				</g>
                <g>
					<path style="fill:#7C59CD;" d="M217.144,236.174c0.084-3.701,0.534-7.397,0.394-11.096c-0.182-4.799-1.352-9.495-2.222-14.218       c-0.392-2.129-0.598-4.66,0.994-6.126c1.254-1.154,3.273-1.157,4.782-0.364c1.508,0.793,2.577,2.229,3.382,3.73       c2.992,5.582,2.903,12.321,1.779,18.554c-1.124,6.233-3.199,12.285-3.954,18.574c-0.655,5.455,0.375,9.89,1.915,15.021       c-2.431,0.775-5.005-8.617-5.475-10.355C217.534,245.433,217.039,240.788,217.144,236.174z"/>
                    <path style="fill:#6848B7;" d="M223.928,260.793c-0.264,0-0.533-0.072-0.794-0.215c-2.069-1.128-3.944-7.097-4.878-10.555       c-1.179-4.367-1.722-9.031-1.612-13.861l0,0c0.033-1.426,0.12-2.869,0.205-4.265c0.135-2.233,0.275-4.542,0.19-6.801       c-0.139-3.643-0.868-7.305-1.574-10.847c-0.219-1.1-0.438-2.199-0.641-3.3c-0.405-2.201-0.641-4.939,1.148-6.584       c1.324-1.219,3.526-1.399,5.352-0.439c1.387,0.728,2.561,2.016,3.591,3.936c2.636,4.917,3.234,11.092,1.83,18.879       c-0.474,2.629-1.126,5.262-1.755,7.808c-0.865,3.499-1.76,7.116-2.194,10.736c-0.673,5.605,0.513,10.207,1.897,14.818       l0.141,0.471l-0.468,0.149C224.223,260.77,224.076,260.793,223.928,260.793z M217.644,236.185       c-0.108,4.734,0.423,9.303,1.578,13.578c1.455,5.391,3.049,9.054,4.289,9.876c-1.315-4.467-2.368-8.984-1.708-14.472       c0.442-3.681,1.344-7.329,2.217-10.856c0.626-2.531,1.273-5.148,1.742-7.746c1.363-7.556,0.798-13.519-1.727-18.229       c-0.932-1.739-1.97-2.892-3.174-3.524c-1.232-0.648-3.074-0.755-4.21,0.289c-1.428,1.314-1.2,3.719-0.841,5.667       c0.202,1.096,0.42,2.191,0.638,3.286c0.713,3.58,1.45,7.282,1.592,11.004c0.087,2.309-0.054,4.643-0.19,6.899       C217.763,233.345,217.676,234.778,217.644,236.185L217.644,236.185z"/>
				</g>
                <g>
					<path style="fill:#A17AFA;" d="M204.397,254.774c-8.677-5.492-15.759-13.473-20.179-22.742       c-0.726-1.522-1.369-3.376-0.498-4.821c0.967-1.603,3.389-1.734,4.997-0.776c1.608,0.959,2.596,2.663,3.521,4.291       c4.16,7.322,8.531,14.667,14.606,20.498c4.616,4.431,10.228,7.788,16.487,9.249C216.4,260.26,210.295,258.507,204.397,254.774z       "/>
                    <path style="fill:#8D69E4;" d="M223.314,260.974c-7.213-0.223-13.31-2.059-19.186-5.777       c-8.7-5.506-15.931-13.656-20.363-22.949c-0.695-1.458-1.501-3.593-0.475-5.295c1.133-1.878,3.904-2.005,5.681-0.947       c1.751,1.045,2.787,2.867,3.7,4.474c4.249,7.476,8.556,14.662,14.518,20.385c4.799,4.607,10.419,7.761,16.254,9.123       L223.314,260.974z M204.664,254.352c4.452,2.818,9.037,4.525,14.167,5.245c-4.417-1.724-8.618-4.444-12.333-8.01       c-6.059-5.816-10.408-13.069-14.694-20.612c-0.852-1.5-1.818-3.2-3.342-4.109c-1.371-0.817-3.506-0.732-4.313,0.604       c-0.768,1.274-0.125,2.993,0.521,4.348C189.02,240.942,196.122,248.945,204.664,254.352z"/>
				</g>
                <g>
					<path style="fill:#7C59CD;" d="M206.998,263.429c-9.189-0.643-17.059-4.125-22.426-9.924c-0.882-0.952-1.716-2.224-1.005-3.847       c0.789-1.801,3.177-3.029,4.874-2.96c1.697,0.069,2.857,1.055,3.947,2.005c4.902,4.272,10.016,8.467,16.66,10.597       c5.048,1.618,10.97,1.869,17.333,0.218C219.484,262.533,213.243,263.866,206.998,263.429z"/>
                    <path style="fill:#6848B7;" d="M209.352,264.012c-0.798,0-1.593-0.028-2.389-0.084c-9.256-0.647-17.339-4.228-22.758-10.083       c-0.879-0.95-1.95-2.438-1.096-4.387c0.895-2.044,3.488-3.345,5.353-3.259c1.902,0.077,3.206,1.214,4.255,2.127       c4.987,4.346,10.001,8.42,16.484,10.498c5.228,1.675,11.125,1.749,17.054,0.21l0.326,0.942       C220.334,262.707,214.793,264.012,209.352,264.012z M188.303,247.196c-1.493,0-3.597,1.108-4.278,2.663       c-0.483,1.103-0.21,2.092,0.914,3.306c5.246,5.668,13.092,9.136,22.094,9.765l0,0c4.6,0.324,9.211-0.309,14.235-1.974       c-4.31,0.451-8.514,0.057-12.372-1.18c-6.665-2.136-11.766-6.278-16.835-10.696c-1.026-0.894-2.087-1.819-3.639-1.882       C188.382,247.197,188.343,247.196,188.303,247.196z"/>
				</g>
                <g>
					<path style="fill:#A17AFA;" d="M240.223,254.326c7.585-5.225,12.591-12.226,14.264-19.948c0.275-1.269,0.347-2.787-1.09-3.823       c-1.596-1.15-4.276-0.993-5.702-0.07c-1.426,0.922-1.924,2.361-2.379,3.733c-2.049,6.171-4.32,12.384-8.958,17.596       c-3.524,3.96-8.496,7.187-14.814,9.001C229.015,259.903,235.067,257.878,240.223,254.326z"/>
                    <path style="fill:#8D69E4;" d="M221.605,261.31l-0.199-0.977c5.887-1.69,10.928-4.751,14.578-8.853       c4.527-5.087,6.772-11.143,8.856-17.421c0.438-1.319,0.983-2.96,2.583-3.995c1.564-1.012,4.455-1.22,6.266,0.084       c1.726,1.244,1.561,3.07,1.287,4.335c-1.689,7.797-6.828,14.99-14.469,20.254l0,0       C235.371,258.276,229.364,260.364,221.605,261.31z M250.549,230.244c-0.975,0-1.938,0.243-2.583,0.66       c-1.304,0.844-1.748,2.179-2.176,3.471c-2.119,6.381-4.405,12.542-9.059,17.771c-2.692,3.025-6.111,5.502-10.052,7.306       c5.171-1.121,9.465-2.923,13.26-5.538l0.284,0.412l-0.284-0.412c7.431-5.12,12.424-12.095,14.059-19.643       c0.351-1.617,0.083-2.607-0.894-3.311C252.415,230.463,251.476,230.244,250.549,230.244z"/>
				</g>
			</g>
            <g>
				<path style="fill:#898E89;" d="M192.724,271.627c0,0,4.918-13.127,20.611-11.538c15.693,1.589,22.997-2.729,26.888-5.763      c3.892-3.034,3.292-9.664,15.978-9.697c12.685-0.033,18.536,3.374,18.536,3.374"/>
                <path style="fill:#686B68;" d="M193.192,271.802l-0.937-0.351c0.051-0.135,5.251-13.462,21.129-11.86      c15.292,1.55,22.463-2.488,26.53-5.66c1.024-0.798,1.736-1.891,2.491-3.048c2.057-3.155,4.388-6.73,13.792-6.755      c0.064,0,0.127-0.001,0.191-0.001c12.544,0,18.356,3.301,18.598,3.442l-0.503,0.865c-0.058-0.033-5.858-3.307-18.101-3.307      c-0.062,0-0.121,0.001-0.183,0.001c-8.864,0.023-10.945,3.215-12.958,6.301c-0.801,1.229-1.559,2.39-2.713,3.291      c-4.204,3.276-11.605,7.449-27.246,5.866C198.153,259.054,193.239,271.675,193.192,271.802z"/>
			</g>
		</g>
        <g>
			<path style="fill:#686B68;" d="M197.043,281.695c-0.049,0-0.1-0.007-0.149-0.023c-0.264-0.082-0.411-0.363-0.328-0.626     c1.074-3.438,2.948-6.641,5.417-9.262c0.189-0.201,0.505-0.211,0.706-0.021c0.201,0.189,0.21,0.506,0.021,0.707     c-2.366,2.512-4.161,5.58-5.19,8.874C197.453,281.559,197.255,281.695,197.043,281.695z"/>
		</g>
        <g>
			<path style="fill:#686B68;" d="M200.93,279.557c-0.083,0-0.166-0.021-0.243-0.064c-0.241-0.134-0.328-0.439-0.193-0.68     c1.454-2.605,3.253-5.003,5.349-7.127c0.194-0.197,0.511-0.199,0.707-0.005c0.197,0.194,0.199,0.511,0.005,0.707     c-2.032,2.06-3.778,4.385-5.188,6.912C201.275,279.464,201.105,279.557,200.93,279.557z"/>
		</g>
        <g>
			<path style="fill:#767A75;" d="M273.052,281.754c-0.118,0-0.235-0.041-0.331-0.125c-0.207-0.182-0.227-0.498-0.044-0.706     c2.203-2.501,3.806-5.528,4.636-8.753c0.069-0.268,0.346-0.426,0.609-0.36c0.268,0.069,0.429,0.342,0.36,0.609     c-0.87,3.377-2.548,6.546-4.855,9.165C273.329,281.697,273.19,281.754,273.052,281.754z"/>
		</g>
        <g>
			<path style="fill:#767A75;" d="M277.802,278.677c-0.082,0-0.165-0.02-0.242-0.063c-0.242-0.134-0.329-0.438-0.195-0.68     c1.323-2.389,2.207-4.968,2.626-7.667c0.042-0.273,0.3-0.458,0.571-0.418c0.273,0.043,0.46,0.298,0.417,0.571     c-0.438,2.815-1.359,5.505-2.739,7.998C278.149,278.584,277.978,278.677,277.802,278.677z"/>
		</g>
        <g>
			<path style="fill:#686B68;" d="M289.759,281.868c-0.276,0-0.5-0.224-0.5-0.5v-0.165c0-0.276,0.224-0.5,0.5-0.5     c0.276,0,0.5,0.224,0.5,0.5v0.165C290.259,281.644,290.036,281.868,289.759,281.868z"/>
		</g>
        <g>
			<path style="fill:#686B68;" d="M286.855,287.806c-0.061,0-0.122-0.011-0.182-0.034c-0.257-0.1-0.384-0.39-0.284-0.647     c0.682-1.751,0.931-3.665,0.721-5.534c-0.031-0.274,0.167-0.522,0.441-0.553c0.28-0.027,0.522,0.167,0.553,0.441     c0.228,2.029-0.043,4.107-0.783,6.01C287.244,287.685,287.055,287.806,286.855,287.806z"/>
		</g>
        <g>
			<path style="fill:#767A75;" d="M287.927,301.584c-0.166,0-0.329-0.082-0.424-0.234c-0.147-0.233-0.077-0.542,0.157-0.689     c2.718-1.71,5.04-4.064,6.714-6.805c0.144-0.235,0.451-0.311,0.688-0.166c0.235,0.144,0.31,0.452,0.166,0.688     c-1.754,2.872-4.187,5.338-7.036,7.13C288.11,301.559,288.018,301.584,287.927,301.584z"/>
		</g>
        <g>
			<path style="fill:#767A75;" d="M293.522,299.958c-0.101,0-0.203-0.03-0.291-0.094c-0.224-0.161-0.276-0.473-0.115-0.698     l4.031-5.621c0.161-0.225,0.473-0.276,0.698-0.115c0.224,0.161,0.276,0.473,0.115,0.698l-4.031,5.621     C293.831,299.886,293.678,299.958,293.522,299.958z"/>
		</g>
        <g>
			<path style="fill:#767A75;" d="M302.738,296.641c-0.276,0-0.5-0.224-0.5-0.5v-0.144c0-0.276,0.224-0.5,0.5-0.5     c0.276,0,0.5,0.224,0.5,0.5v0.144C303.238,296.417,303.015,296.641,302.738,296.641z"/>
		</g>
        <g>
			<path style="fill:#686B68;" d="M264.031,262.455c-0.038,0-0.077-0.004-0.115-0.013c-0.269-0.064-0.435-0.333-0.372-0.602     c0.742-3.151,0.005-6.563-1.969-9.127c-0.169-0.219-0.128-0.533,0.091-0.701c0.219-0.17,0.534-0.127,0.701,0.091     c2.157,2.8,2.96,6.526,2.151,9.967C264.464,262.299,264.258,262.455,264.031,262.455z"/>
		</g>
        <g>
			<path style="fill:#686B68;" d="M267.108,263.05c-0.01,0-0.021,0-0.031-0.001c-0.276-0.017-0.486-0.254-0.469-0.529     c0.193-3.167-0.275-6.417-1.355-9.399c-0.094-0.26,0.04-0.546,0.3-0.641c0.26-0.092,0.546,0.041,0.641,0.3     c1.126,3.11,1.615,6.499,1.413,9.8C267.59,262.846,267.37,263.05,267.108,263.05z"/>
		</g>
	</g></svg>