<svg version="1.1" xmlns="http://www.w3.org/2000/svg" xmlns:xlink="http://www.w3.org/1999/xlink" x="0px" y="0px" viewBox="185.70084292863413 325.3674594904136 123.46280117136922 123.30754050958643" style="enable-background:new 0 0 500 500;" xml:space="preserve"><g id="a5">
		<g>
			<g>
				<path style="fill:#DE5695;" d="M204.978,403.66c-7.684-5.51-14.575-12.76-17.354-21.798c-0.663-2.155-0.77-5.077,1.261-6.055      c1.643-0.792,3.556,0.306,4.922,1.514c2.548,2.255,4.575,5.026,6.794,7.606c7.476,8.691,17.792,15.474,29.213,16.472      c0.42,0.037,0.897,0.047,1.2-0.246c0.301-0.291,0.31-0.764,0.273-1.181c-0.373-4.303-3.281-7.952-6.427-10.911      c-3.146-2.959-6.706-5.582-9.079-9.19c-0.877-1.333-1.593-2.855-1.554-4.45c0.039-1.596,1.015-3.25,2.559-3.656      c1.662-0.436,3.349,0.639,4.528,1.89c1.179,1.251,2.151,2.76,3.644,3.611c0.594,0.338,1.455,0.508,1.874-0.031      c0.189-0.242,0.229-0.566,0.253-0.872c0.263-3.34-0.551-6.756-2.292-9.619c-1.296-2.132-3.07-3.935-4.44-6.02      c-2.747-4.181-3.74-9.477-2.694-14.369c0.497-2.325,2.141-4.993,4.491-4.63c1.312,0.203,2.299,1.355,2.786,2.59      c0.486,1.236,0.588,2.583,0.862,3.882c0.388,1.835,1.132,3.594,2.177,5.151c0.686,1.021,1.566,1.999,2.742,2.358      c1.47,0.449,3.112-0.201,4.184-1.303c1.071-1.102,1.659-2.583,2.067-4.065c1.774-6.439,0.597-13.286,1.059-19.949      c0.068-0.973,0.202-2.017,0.86-2.736c0.902-0.987,2.541-0.989,3.692-0.311c1.152,0.678,1.898,1.875,2.458,3.089      c2.902,6.284,1.876,13.653,0.067,20.334c-1.809,6.681-4.361,13.306-4.355,20.227c0,0.37,0.014,0.761,0.211,1.074      c0.305,0.484,0.948,0.627,1.52,0.615c1.937-0.042,3.641-1.35,4.809-2.896c1.167-1.546,1.935-3.352,2.971-4.989      c0.937-1.481,2.601-2.971,4.235-2.337c1.163,0.451,1.698,1.794,1.887,3.027c0.959,6.253-3.619,11.943-8.361,16.13      c-2.401,2.12-5.094,4.384-5.62,7.543c-0.409,2.457,0.623,4.936,1.975,7.028c1.948,3.013,4.582,5.54,6.492,8.578      c4.032,6.414,4.445,14.377,4.741,21.947c-4.952,0.059-8.54,1.205-13.466,0.704c1.069,0.109-1.585-6.477-1.828-6.976      c-0.593-1.215-1.445-2.376-2.656-3.016c-2.632-1.39-6.483-1.448-9.347-2.308C219.976,412.611,212.052,408.732,204.978,403.66z"/>
                <path style="fill:#D51C6E;" d="M244.677,428.042c-0.825,0-1.678-0.038-2.581-0.129c-0.001,0-0.002,0-0.004,0l0.102-0.995      c-0.158-0.015-0.285,0.098-0.308,0.179c0.218-0.734-1.583-5.542-2.02-6.438c-0.657-1.345-1.479-2.285-2.44-2.793      c-1.543-0.815-3.586-1.161-5.561-1.496c-1.258-0.213-2.56-0.434-3.697-0.775c-8.454-2.539-16.354-6.418-23.482-11.528l0,0      c-9.157-6.566-15.059-13.987-17.54-22.058c-0.732-2.378-0.772-5.547,1.522-6.652c2.067-0.999,4.315,0.568,5.47,1.59      c1.891,1.673,3.514,3.644,5.082,5.549c0.582,0.706,1.164,1.413,1.759,2.105c8.263,9.605,18.519,15.395,28.877,16.3      c0.317,0.027,0.661,0.036,0.809-0.108c0.176-0.17,0.136-0.627,0.123-0.778c-0.298-3.438-2.349-6.902-6.271-10.59      c-0.803-0.755-1.633-1.489-2.463-2.222c-2.404-2.124-4.889-4.319-6.691-7.058c-1.137-1.729-1.672-3.278-1.636-4.737      c0.042-1.679,1.062-3.636,2.932-4.127c1.581-0.416,3.411,0.325,5.019,2.031c0.339,0.36,0.662,0.741,0.984,1.121      c0.797,0.942,1.55,1.832,2.544,2.398c0.445,0.254,1.028,0.36,1.232,0.096c0.104-0.133,0.131-0.382,0.148-0.604      c0.254-3.236-0.534-6.546-2.22-9.32c-0.684-1.125-1.529-2.188-2.345-3.214c-0.71-0.892-1.443-1.814-2.085-2.791      c-2.838-4.318-3.846-9.694-2.765-14.748c0.596-2.79,2.518-5.413,5.056-5.019c1.596,0.247,2.687,1.661,3.175,2.901      c0.354,0.9,0.513,1.848,0.667,2.763c0.067,0.401,0.135,0.802,0.219,1.199c0.372,1.761,1.099,3.481,2.103,4.975      c0.798,1.189,1.607,1.895,2.473,2.159c1.352,0.41,2.821-0.292,3.679-1.174c1.105-1.136,1.638-2.741,1.944-3.849      c1.121-4.069,1.042-8.418,0.964-12.622c-0.044-2.373-0.089-4.826,0.078-7.229c0.072-1.025,0.213-2.189,0.99-3.039      c1.137-1.245,3.072-1.136,4.315-0.404c1.391,0.819,2.183,2.281,2.658,3.31c3.216,6.965,1.595,15.135,0.095,20.674      c-0.404,1.493-0.846,2.983-1.287,4.475c-1.502,5.071-3.055,10.315-3.05,15.621c0,0.314,0.01,0.611,0.134,0.809      c0.158,0.251,0.576,0.398,1.085,0.381c1.54-0.033,3.151-1.016,4.42-2.697c0.678-0.898,1.236-1.921,1.775-2.91      c0.369-0.677,0.75-1.377,1.173-2.045c1.034-1.634,2.922-3.28,4.838-2.536c1.552,0.602,2.045,2.399,2.201,3.417      c0.811,5.29-2.057,10.869-8.524,16.581l-0.283,0.25c-2.31,2.036-4.699,4.14-5.175,7c-0.328,1.97,0.312,4.215,1.901,6.674      c0.933,1.443,2.053,2.806,3.137,4.125c1.161,1.413,2.362,2.873,3.359,4.459c4.212,6.699,4.547,15.29,4.817,22.193l0.02,0.513      l-0.514,0.006c-1.998,0.023-3.788,0.229-5.52,0.427C248.295,427.844,246.563,428.042,244.677,428.042z M242.87,426.976      c2.567,0.188,4.781-0.065,7.113-0.332c1.608-0.184,3.267-0.374,5.107-0.423c-0.276-7.011-0.672-14.871-4.645-21.19      c-0.963-1.532-2.143-2.968-3.285-4.356c-1.101-1.34-2.24-2.725-3.204-4.216c-1.729-2.675-2.418-5.158-2.048-7.381      c0.535-3.211,3.172-5.536,5.5-7.586l0.282-0.25c6.196-5.472,8.954-10.747,8.198-15.679c-0.124-0.804-0.492-2.216-1.574-2.636      c-1.356-0.525-2.8,0.824-3.632,2.138c-0.405,0.64-0.779,1.326-1.14,1.989c-0.557,1.021-1.132,2.077-1.855,3.034      c-1.455,1.927-3.349,3.055-5.196,3.095c-0.907,0.004-1.597-0.281-1.954-0.848c-0.266-0.422-0.288-0.894-0.288-1.341      c-0.005-5.451,1.569-10.765,3.091-15.905c0.439-1.484,0.879-2.967,1.281-4.453c1.458-5.389,3.041-13.324-0.039-19.994      c-0.666-1.441-1.383-2.353-2.258-2.868c-0.917-0.54-2.316-0.607-3.069,0.217c-0.56,0.612-0.67,1.577-0.73,2.434      c-0.164,2.358-0.119,4.79-0.076,7.141c0.079,4.276,0.16,8.698-1,12.906c-0.334,1.215-0.926,2.98-2.191,4.281      c-1.304,1.342-3.143,1.906-4.688,1.433c-1.095-0.334-2.08-1.171-3.011-2.558c-1.075-1.6-1.853-3.441-2.251-5.326      c-0.087-0.41-0.157-0.825-0.227-1.24c-0.152-0.905-0.296-1.76-0.612-2.563c-0.387-0.982-1.219-2.097-2.397-2.279      c-1.889-0.29-3.439,1.965-3.926,4.24c-1.025,4.794-0.069,9.893,2.623,13.99c0.617,0.939,1.336,1.843,2.031,2.718      c0.836,1.051,1.701,2.138,2.417,3.317c1.794,2.952,2.633,6.474,2.363,9.918c-0.029,0.367-0.083,0.788-0.357,1.14      c-0.593,0.762-1.692,0.628-2.517,0.159c-1.148-0.655-1.994-1.654-2.812-2.621c-0.311-0.367-0.622-0.735-0.948-1.082      c-0.639-0.677-2.309-2.202-4.037-1.749c-1.378,0.362-2.154,1.911-2.186,3.185c-0.031,1.248,0.451,2.61,1.472,4.163      c1.728,2.628,4.163,4.778,6.517,6.858c0.838,0.74,1.676,1.481,2.487,2.243c4.109,3.865,6.262,7.539,6.582,11.232      c0.041,0.464,0.041,1.134-0.424,1.583c-0.497,0.48-1.238,0.417-1.591,0.385c-10.621-0.929-21.114-6.839-29.548-16.644      c-0.601-0.698-1.187-1.41-1.773-2.122c-1.544-1.875-3.141-3.815-4.974-5.436c-0.969-0.858-2.827-2.185-4.373-1.439      c-1.722,0.83-1.615,3.459-1,5.458c2.416,7.856,8.192,15.103,17.167,21.539c7.038,5.046,14.839,8.875,23.187,11.382      c1.077,0.324,2.291,0.53,3.576,0.747c2.053,0.348,4.175,0.708,5.86,1.598c1.153,0.609,2.12,1.698,2.872,3.238      C240.791,420.272,242.862,425.031,242.87,426.976z"/>
			</g>
            <g>
				<path style="fill:#D51C6E;" d="M250.141,412.055c2.197-4.258,8.104-5.977,12.096-8.626c0.509-0.338,1.021-0.706,1.35-1.222      c1.004-1.577-0.476-5.354-1.322-7.021c-1.829-3.608-2.476-7.803-1.819-11.794c0.203-1.235,0.652-2.606,1.793-3.122      c1.525-0.689,3.3,0.673,3.843,2.257c0.543,1.583,0.299,3.314,0.42,4.984c0.121,1.67,0.812,3.527,2.384,4.102      c1.789,0.654,3.66-0.671,5.011-2.015c3.037-3.024,4.168-8.293,4.718-12.543c0.555-4.288-0.971-8.529-1.902-12.751      c-2.044-9.269-1.193-19.156,2.406-27.939c0.596-1.454,1.705-3.134,3.257-2.887c1.446,0.23,2.046,1.963,2.251,3.413      c1.129,7.977-0.887,16.118-0.045,24.13c0.446,4.247,2.568,9.191,6.812,9.663c1.714,0.19,3.427-0.438,4.899-1.337      c3.125-1.909,5.43-5.112,6.247-8.681c0.296-1.291,0.418-2.662,1.101-3.798c0.682-1.135,2.186-1.937,3.351-1.306      c0.971,0.525,1.276,1.755,1.426,2.848c1.209,8.812-1.931,18.748-9.589,23.272c-2.46,1.453-5.302,2.325-7.408,4.255      c-2.882,2.64-3.834,6.705-5.252,10.347c-3.617,9.295-8.999,13.308-19.723,20.988c-4.839,3.466-2.518,9.449-2.518,9.449      c1.303-0.119-14.781-0.092-14.781-0.092S246.684,418.754,250.141,412.055z"/>
                <path style="fill:#AF004F;" d="M263.597,427.252l-0.028-0.074c-1.74-0.051-9.297-0.058-14.421-0.05l-0.368,0l-0.11-0.351      c-0.103-0.33-2.483-8.149,1.028-14.952c1.608-3.117,5.029-4.89,8.336-6.605c1.413-0.733,2.748-1.425,3.928-2.208      c0.456-0.303,0.925-0.635,1.205-1.074c0.795-1.25-0.403-4.667-1.346-6.527c-1.878-3.705-2.542-8.002-1.867-12.101      c0.305-1.858,0.986-3.001,2.08-3.496c0.695-0.314,1.467-0.305,2.235,0.026c1.029,0.445,1.905,1.412,2.287,2.524      c0.397,1.16,0.401,2.374,0.405,3.546c0.001,0.523,0.003,1.046,0.04,1.564c0.105,1.448,0.701,3.173,2.058,3.668      c1.559,0.571,3.3-0.719,4.486-1.9c2.309-2.298,3.805-6.306,4.574-12.252c0.421-3.252-0.413-6.57-1.219-9.778      c-0.235-0.935-0.47-1.868-0.675-2.801c-2.062-9.35-1.199-19.378,2.431-28.236c0.928-2.265,2.308-3.433,3.798-3.191      c1.402,0.223,2.349,1.586,2.667,3.837c0.599,4.229,0.321,8.55,0.052,12.73c-0.242,3.758-0.492,7.645-0.095,11.418      c0.451,4.286,2.595,8.799,6.37,9.218c1.39,0.157,2.974-0.283,4.582-1.267c2.988-1.825,5.239-4.952,6.021-8.366      c0.068-0.3,0.128-0.605,0.187-0.91c0.2-1.028,0.406-2.091,0.973-3.034c0.798-1.329,2.564-2.276,4.018-1.489      c1.188,0.644,1.524,2.059,1.683,3.22c1.134,8.271-1.465,18.828-9.831,23.77c-0.883,0.521-1.819,0.972-2.725,1.408      c-1.691,0.814-3.289,1.583-4.6,2.785c-2.209,2.023-3.271,5.013-4.297,7.905c-0.27,0.759-0.538,1.515-0.826,2.254      c-3.605,9.263-8.705,13.197-19.898,21.214c-4.057,2.905-2.699,7.785-2.395,8.708c0.151,0.077,0.156,0.174,0.162,0.298      l0.022,0.478L263.597,427.252z M255.818,426.12c4.14,0,6.3,0.019,7.431,0.092c-0.458-1.747-1.195-6.412,2.904-9.347      c11.025-7.897,16.047-11.767,19.548-20.763c0.284-0.73,0.549-1.478,0.815-2.227c1.068-3.007,2.172-6.116,4.564-8.308      c1.421-1.301,3.16-2.139,4.842-2.949c0.886-0.427,1.803-0.868,2.649-1.368c7.97-4.708,10.438-14.83,9.349-22.773      c-0.127-0.927-0.375-2.047-1.168-2.476c-0.895-0.484-2.132,0.205-2.685,1.124c-0.476,0.791-0.657,1.723-0.849,2.709      c-0.061,0.316-0.123,0.631-0.194,0.942c-0.854,3.726-3.213,7.005-6.474,8.997c-1.826,1.116-3.579,1.585-5.214,1.407      c-4.625-0.514-6.798-5.766-7.254-10.107c-0.405-3.857-0.153-7.787,0.091-11.587c0.265-4.129,0.54-8.398-0.044-12.526      c-0.117-0.83-0.531-2.781-1.835-2.989c-1.413-0.224-2.367,1.732-2.715,2.583c-3.554,8.672-4.399,18.489-2.38,27.642      c0.204,0.923,0.436,1.848,0.669,2.773c0.829,3.299,1.686,6.71,1.241,10.15c-0.799,6.174-2.389,10.372-4.861,12.833      c-2.024,2.016-3.886,2.734-5.535,2.131c-1.533-0.56-2.546-2.256-2.711-4.536c-0.039-0.54-0.041-1.087-0.043-1.633      c-0.003-1.142-0.007-2.221-0.351-3.225c-0.288-0.841-0.971-1.599-1.738-1.93c-0.35-0.15-0.88-0.279-1.426-0.033      c-0.766,0.346-1.258,1.245-1.506,2.747c-0.64,3.891-0.011,7.971,1.772,11.487c0.276,0.544,2.656,5.381,1.298,7.516      c-0.385,0.604-0.974,1.024-1.496,1.37c-1.225,0.813-2.646,1.549-4.021,2.262c-3.168,1.643-6.445,3.342-7.908,6.177l0,0      c-2.919,5.655-1.473,12.263-1.06,13.843C252.013,426.123,254.09,426.12,255.818,426.12z"/>
			</g>
		</g>
        <g>
			<g>
				<g>
					<path style="fill:#9DA29D;" d="M266.345,426.675c2.941,2.406,4.2,5.566,3.872,8.616c-0.042,0.391-0.125,0.807-0.519,1.106       c-0.482,0.366-1.29,0.458-2.029,0.522c-9.346,0.816-18.83,0.989-28.234,0.513c-0.861-0.043-1.82-0.124-2.364-0.555       c-0.365-0.289-0.461-0.679-0.522-1.049c-0.303-1.833-0.083-3.702,0.645-5.485c0.702-1.72,1.925-3.402,3.967-4.604       c3.368-1.981,8.857-2.274,13.203-2.714C258.945,422.561,263.587,424.419,266.345,426.675z"/>
                    <path style="fill:#747774;" d="M249.815,438.194c-3.474,0-6.947-0.087-10.406-0.262c-0.98-0.05-1.991-0.142-2.649-0.663       c-0.485-0.384-0.626-0.88-0.705-1.359c-0.32-1.938-0.093-3.875,0.675-5.756c0.852-2.086,2.257-3.716,4.177-4.846       c3.063-1.801,7.711-2.24,11.813-2.627c0.543-0.051,1.076-0.102,1.593-0.154c5.089-0.514,9.835,1.704,12.349,3.761l0,0       c2.936,2.402,4.413,5.703,4.053,9.056c-0.035,0.321-0.106,0.99-0.714,1.451c-0.582,0.441-1.449,0.549-2.288,0.622       C261.789,437.935,255.8,438.194,249.815,438.194z M255.83,423.452c-0.468,0-0.941,0.023-1.417,0.071       c-0.519,0.052-1.054,0.103-1.599,0.154c-3.998,0.377-8.529,0.805-11.4,2.494c-1.727,1.015-2.991,2.483-3.758,4.361       c-0.697,1.707-0.904,3.462-0.615,5.214c0.059,0.351,0.13,0.573,0.34,0.739c0.462,0.366,1.514,0.419,2.079,0.448       c9.374,0.475,18.85,0.302,28.166-0.512c0.513-0.045,1.371-0.12,1.771-0.423c0.222-0.168,0.285-0.397,0.324-0.761       c0.324-3.012-1.022-5.992-3.691-8.175v0C263.898,425.319,260.068,423.452,255.83,423.452z"/>
				</g>
			</g>
            <g>
				<g>
					<path style="fill:#898E89;" d="M253.964,435.502c2.941,2.406,4.2,5.566,3.872,8.616c-0.042,0.391-0.125,0.807-0.519,1.106       c-0.482,0.366-1.289,0.458-2.029,0.522c-9.346,0.816-18.83,0.989-28.234,0.513c-0.861-0.043-1.82-0.124-2.364-0.555       c-0.365-0.289-0.461-0.679-0.522-1.049c-0.303-1.833-0.083-3.702,0.645-5.485c0.702-1.72,1.925-3.402,3.967-4.604       c3.368-1.981,8.857-2.274,13.203-2.714C246.564,431.388,251.207,433.246,253.964,435.502z"/>
                    <path style="fill:#686B68;" d="M237.434,447.021c-3.474,0-6.947-0.087-10.406-0.262c-0.979-0.05-1.991-0.142-2.649-0.663       c-0.486-0.385-0.626-0.881-0.705-1.359c-0.32-1.938-0.093-3.874,0.675-5.755c0.852-2.086,2.257-3.717,4.177-4.846       c3.063-1.801,7.712-2.24,11.814-2.627c0.543-0.051,1.076-0.102,1.592-0.154c5.092-0.514,9.835,1.703,12.349,3.76l0,0       c2.937,2.402,4.414,5.703,4.053,9.057c-0.052,0.489-0.178,1.044-0.714,1.451c-0.58,0.44-1.448,0.549-2.288,0.623       C249.408,446.762,243.42,447.021,237.434,447.021z M243.449,432.279c-0.468,0-0.941,0.023-1.417,0.071       c-0.519,0.052-1.053,0.103-1.599,0.154c-3.998,0.378-8.529,0.805-11.4,2.494c-1.726,1.015-2.99,2.482-3.758,4.361       c-0.697,1.708-0.904,3.462-0.614,5.214c0.058,0.351,0.129,0.572,0.339,0.739c0.462,0.366,1.514,0.419,2.079,0.447       c9.374,0.475,18.851,0.302,28.165-0.512c0.513-0.045,1.372-0.121,1.77-0.423c0.222-0.169,0.286-0.397,0.325-0.761       c0.324-3.012-1.022-5.992-3.692-8.176l0,0C251.517,434.146,247.687,432.279,243.449,432.279z"/>
				</g>
                <g>
					<g>
						<path style="fill:#8A003C;" d="M249.671,433.03"/>
					</g>
				</g>
                <g>
					<g>
						<path style="fill:#8A003C;" d="M227.399,435.549"/>
					</g>
				</g>
			</g>
            <g>
				<g>
					<path style="fill:#B0B6B0;" d="M279.637,435.919c3.271,2.676,4.671,6.191,4.307,9.583c-0.047,0.435-0.139,0.897-0.578,1.23       c-0.536,0.407-1.434,0.509-2.257,0.581c-10.396,0.908-20.943,1.1-31.403,0.571c-0.958-0.048-2.024-0.138-2.629-0.618       c-0.406-0.322-0.513-0.755-0.581-1.167c-0.337-2.039-0.093-4.117,0.717-6.1c0.781-1.913,2.141-3.784,4.412-5.12       c3.746-2.203,9.85-2.529,14.684-3.019C271.406,431.344,276.57,433.41,279.637,435.919z"/>
                    <path style="fill:#747774;" d="M261.249,448.675c-3.862,0-7.723-0.097-11.568-0.292c-1.08-0.055-2.195-0.156-2.914-0.725       c-0.525-0.417-0.677-0.957-0.763-1.478c-0.355-2.144-0.104-4.287,0.747-6.371c0.943-2.309,2.498-4.113,4.622-5.363       c3.396-1.997,8.561-2.484,13.118-2.915c0.604-0.057,1.196-0.113,1.77-0.171c5.638-0.571,10.905,1.889,13.693,4.17l0,0       c3.251,2.659,4.886,6.313,4.487,10.023c-0.057,0.532-0.193,1.135-0.772,1.575c-0.633,0.481-1.59,0.6-2.516,0.681       C274.565,448.387,267.905,448.675,261.249,448.675z M267.941,432.279c-0.522,0-1.049,0.025-1.581,0.079       c-0.576,0.058-1.17,0.114-1.776,0.171c-4.454,0.421-9.501,0.897-12.705,2.781c-1.931,1.136-3.345,2.777-4.203,4.878       c-0.78,1.91-1.011,3.871-0.687,5.83c0.065,0.395,0.151,0.661,0.398,0.857c0.528,0.419,1.709,0.478,2.344,0.51       c10.427,0.527,20.969,0.335,31.334-0.57c0.577-0.05,1.542-0.135,1.998-0.481c0.262-0.199,0.339-0.475,0.383-0.885       c0.362-3.37-1.142-6.702-4.126-9.143l0,0C276.943,434.362,272.669,432.279,267.941,432.279z"/>
				</g>
                <g>
					<g>
						<path style="fill:#8A003C;" d="M274.862,433.17"/>
					</g>
				</g>
                <g>
					<g>
						<path style="fill:#8A003C;" d="M250.09,435.972"/>
					</g>
				</g>
			</g>
		</g>
        <g>
			<path style="fill:#AF004F;" d="M291.693,377.017c-0.189,0-0.37-0.108-0.455-0.291c-0.116-0.251-0.006-0.547,0.245-0.663     c1.729-0.796,3.35-1.813,4.82-3.024c0.214-0.175,0.528-0.145,0.704,0.068c0.176,0.213,0.145,0.528-0.068,0.704     c-1.536,1.264-3.23,2.328-5.038,3.16C291.834,377.002,291.763,377.017,291.693,377.017z"/>
		</g>
        <g>
			<path style="fill:#AF004F;" d="M291.677,379.833c-0.194,0-0.378-0.113-0.46-0.302c-0.109-0.253,0.007-0.548,0.261-0.657     c1.556-0.672,3.068-1.479,4.496-2.397c0.233-0.15,0.543-0.082,0.691,0.15c0.149,0.232,0.082,0.542-0.15,0.691     c-1.474,0.947-3.035,1.78-4.641,2.474C291.81,379.82,291.743,379.833,291.677,379.833z"/>
		</g>
        <g>
			<path style="fill:#AF004F;" d="M300.554,373.813c-0.276,0-0.5-0.224-0.5-0.5v-0.813c0-0.276,0.224-0.5,0.5-0.5     c0.276,0,0.5,0.224,0.5,0.5v0.813C301.054,373.59,300.831,373.813,300.554,373.813z"/>
		</g>
        <g>
			<path style="fill:#AF004F;" d="M263.186,406.899c-0.193,0-0.377-0.112-0.459-0.3c-0.11-0.253,0.006-0.548,0.259-0.658     c1.947-0.848,3.753-1.977,5.367-3.356c0.21-0.18,0.525-0.155,0.705,0.055c0.18,0.21,0.155,0.525-0.055,0.705     c-1.69,1.444-3.58,2.626-5.617,3.513C263.32,406.885,263.253,406.899,263.186,406.899z"/>
		</g>
        <g>
			<path style="fill:#AF004F;" d="M268.669,406.796c-0.25,0-0.466-0.186-0.496-0.441c-0.033-0.274,0.163-0.523,0.438-0.556     c0.59-0.07,1.145-0.456,1.663-0.844c1.868-1.401,3.598-2.999,5.142-4.747c0.184-0.207,0.499-0.226,0.706-0.044     c0.207,0.183,0.227,0.499,0.044,0.706c-1.589,1.799-3.369,3.442-5.291,4.885c-0.626,0.47-1.309,0.938-2.146,1.038     C268.709,406.795,268.689,406.796,268.669,406.796z"/>
		</g>
        <g>
			<path style="fill:#D51C6E;" d="M232.638,391.524c-0.17,0-0.335-0.086-0.429-0.243c-1.56-2.595-3.473-4.961-5.687-7.029     c-0.202-0.188-0.212-0.505-0.024-0.706c0.188-0.203,0.505-0.213,0.706-0.024c2.282,2.132,4.254,4.57,5.861,7.245     c0.142,0.236,0.065,0.543-0.171,0.686C232.814,391.501,232.726,391.524,232.638,391.524z"/>
		</g>
        <g>
			<path style="fill:#D51C6E;" d="M232.227,387.938c-0.161,0-0.318-0.077-0.415-0.221c-0.665-0.987-1.45-1.891-2.332-2.688     c-0.205-0.185-0.221-0.501-0.036-0.706c0.185-0.206,0.501-0.221,0.706-0.036c0.943,0.851,1.781,1.817,2.491,2.871     c0.154,0.229,0.094,0.54-0.135,0.694C232.421,387.91,232.323,387.938,232.227,387.938z"/>
		</g>
        <g>
			<path style="fill:#D51C6E;" d="M226.699,361.79c-0.145,0-0.288-0.062-0.386-0.182c-1.013-1.229-1.962-2.533-2.82-3.874     c-1.079-1.686-2.143-3.704-1.866-5.875c0.036-0.274,0.285-0.46,0.56-0.433c0.274,0.035,0.467,0.286,0.433,0.56     c-0.237,1.855,0.735,3.674,1.717,5.209c0.836,1.308,1.762,2.578,2.749,3.777c0.176,0.213,0.146,0.528-0.068,0.704     C226.923,361.753,226.811,361.79,226.699,361.79z"/>
		</g>
        <g>
			<path style="fill:#D51C6E;" d="M226.12,363.302c-0.11,0-0.222-0.037-0.314-0.111c-1.518-1.229-2.821-2.783-3.768-4.492     c-0.134-0.242-0.047-0.546,0.194-0.68c0.243-0.135,0.545-0.047,0.68,0.194c0.887,1.598,2.105,3.05,3.524,4.2     c0.214,0.174,0.248,0.489,0.074,0.704C226.41,363.239,226.266,363.302,226.12,363.302z"/>
		</g>
        <g>
			<path style="fill:#D51C6E;" d="M238.737,357.742c-0.276,0-0.5-0.224-0.5-0.5v-0.133c0-0.276,0.224-0.5,0.5-0.5     c0.276,0,0.5,0.224,0.5,0.5v0.133C239.237,357.518,239.014,357.742,238.737,357.742z"/>
		</g>
        <g>
			<path style="fill:#D51C6E;" d="M240.6,381.557c-0.276,0-0.5-0.224-0.5-0.5v-0.133c0-0.276,0.224-0.5,0.5-0.5     c0.276,0,0.5,0.224,0.5,0.5v0.133C241.1,381.334,240.876,381.557,240.6,381.557z"/>
		</g>
        <g>
			<path style="fill:#D51C6E;" d="M206.549,399.507c-0.106,0-0.214-0.034-0.305-0.104c-3.594-2.776-6.981-5.873-10.069-9.205     c-0.188-0.203-0.176-0.519,0.027-0.706c0.202-0.189,0.518-0.176,0.707,0.027c3.05,3.291,6.397,6.351,9.947,9.093     c0.219,0.168,0.259,0.483,0.09,0.701C206.847,399.44,206.699,399.507,206.549,399.507z"/>
		</g>
        <g>
			<path style="fill:#D51C6E;" d="M203.584,393.833c-0.109,0-0.22-0.036-0.313-0.11c-2.727-2.188-5.2-4.694-7.352-7.45     c-0.17-0.218-0.131-0.532,0.086-0.702c0.217-0.171,0.532-0.131,0.702,0.086c2.104,2.695,4.523,5.146,7.189,7.285     c0.215,0.173,0.25,0.488,0.077,0.703C203.875,393.769,203.73,393.833,203.584,393.833z"/>
		</g>
        <g>
			<path style="fill:#D51C6E;" d="M242.36,415.59c-0.137,0-0.274-0.056-0.372-0.167c-1.785-1.995-4.339-3.253-7.008-3.45     c-0.275-0.02-0.482-0.26-0.462-0.535c0.021-0.275,0.261-0.491,0.535-0.462c2.925,0.216,5.725,1.594,7.68,3.78     c0.184,0.206,0.166,0.522-0.039,0.706C242.598,415.548,242.479,415.59,242.36,415.59z"/>
		</g>
        <g>
			<path style="fill:#D51C6E;" d="M244.218,413.328c-0.122,0-0.245-0.044-0.341-0.135c-1.114-1.04-2.377-1.9-3.754-2.557     c-0.249-0.119-0.355-0.417-0.236-0.667c0.118-0.248,0.415-0.355,0.666-0.236c1.469,0.7,2.816,1.618,4.006,2.729     c0.202,0.188,0.212,0.504,0.024,0.707C244.485,413.275,244.352,413.328,244.218,413.328z"/>
		</g>
        <g>
			<path style="fill:#686B68;" d="M227.087,442.135c-0.272,0-0.495-0.217-0.5-0.49c-0.043-2.125,1.394-4.138,3.417-4.787     c0.265-0.085,0.545,0.061,0.629,0.323c0.084,0.263-0.061,0.544-0.323,0.629c-1.586,0.509-2.757,2.148-2.723,3.814     c0.005,0.276-0.214,0.504-0.49,0.51C227.094,442.135,227.09,442.135,227.087,442.135z"/>
		</g>
        <g>
			<path style="fill:#686B68;" d="M229.78,440.409c-0.115,0-0.23-0.04-0.325-0.12c-0.21-0.179-0.235-0.495-0.056-0.705     c1.096-1.284,2.494-2.319,4.043-2.994c0.254-0.11,0.548,0.006,0.658,0.259c0.11,0.253-0.006,0.548-0.259,0.658     c-1.41,0.614-2.684,1.557-3.682,2.727C230.062,440.349,229.921,440.409,229.78,440.409z"/>
		</g>
        <g>
			<path style="fill:#747774;" d="M259.853,427.961c-0.128,0-0.256-0.049-0.354-0.146c-0.195-0.195-0.195-0.512,0-0.707l0.136-0.136     c0.195-0.195,0.512-0.195,0.707,0c0.195,0.195,0.195,0.512,0,0.707l-0.136,0.136C260.108,427.912,259.98,427.961,259.853,427.961     z"/>
		</g>
        <g>
			<path style="fill:#747774;" d="M277.868,442.807c-0.182,0-0.356-0.099-0.445-0.271c-1.016-1.976-2.28-3.821-3.757-5.483     c-0.183-0.207-0.165-0.523,0.042-0.706c0.206-0.184,0.522-0.165,0.706,0.042c1.532,1.726,2.844,3.64,3.898,5.691     c0.126,0.246,0.029,0.547-0.216,0.673C278.023,442.789,277.944,442.807,277.868,442.807z"/>
		</g>
        <g>
			<path style="fill:#747774;" d="M274.34,441.368c-0.183,0-0.359-0.101-0.447-0.275c-0.854-1.699-2.069-3.251-3.514-4.49     c-0.21-0.18-0.234-0.495-0.054-0.705c0.18-0.21,0.495-0.234,0.705-0.054c1.544,1.324,2.843,2.983,3.756,4.799     c0.124,0.247,0.024,0.547-0.222,0.671C274.492,441.351,274.415,441.368,274.34,441.368z"/>
		</g>
        <g>
			<path style="fill:#747774;" d="M268.985,439.002c-0.276,0-0.5-0.224-0.5-0.5v-0.136c0-0.276,0.224-0.5,0.5-0.5     c0.276,0,0.5,0.224,0.5,0.5v0.136C269.485,438.779,269.261,439.002,268.985,439.002z"/>
		</g>
	</g></svg>