<svg viewBox="185.70084292863413 325.3674594904136 71.30934722004366 102.67454050958645" id="svg8" version="1.1" xmlns="http://www.w3.org/2000/svg" xmlns:cc="http://creativecommons.org/ns#" xmlns:dc="http://purl.org/dc/elements/1.1/" xmlns:inkscape="http://www.inkscape.org/namespaces/inkscape" xmlns:rdf="http://www.w3.org/1999/02/22-rdf-syntax-ns#" xmlns:sodipodi="http://sodipodi.sourceforge.net/DTD/sodipodi-0.dtd" xmlns:svg="http://www.w3.org/2000/svg"><g><path d="M244.677,428.042C243.852,428.042,242.999,428.00399999999996,242.096,427.91299999999995C242.095,427.91299999999995,242.094,427.91299999999995,242.092,427.91299999999995L242.19400000000002,426.91799999999995C242.03600000000003,426.90299999999996,241.90900000000002,427.01599999999996,241.88600000000002,427.0969999999999C242.104,426.36299999999994,240.30300000000003,421.55499999999995,239.866,420.65899999999993C239.209,419.3139999999999,238.387,418.3739999999999,237.42600000000002,417.86599999999993C235.883,417.05099999999993,233.84,416.7049999999999,231.865,416.36999999999995C230.607,416.1569999999999,229.305,415.9359999999999,228.168,415.59499999999997C219.714,413.056,211.81400000000002,409.17699999999996,204.686,404.06699999999995L204.686,404.06699999999995C195.529,397.501,189.627,390.0799999999999,187.14600000000002,382.00899999999996C186.41400000000002,379.631,186.37400000000002,376.46199999999993,188.668,375.35699999999997C190.735,374.35799999999995,192.983,375.92499999999995,194.138,376.94699999999995C196.029,378.61999999999995,197.65200000000002,380.59099999999995,199.22,382.4959999999999C199.802,383.20199999999994,200.384,383.90899999999993,200.97899999999998,384.60099999999994C209.242,394.20599999999996,219.498,399.9959999999999,229.856,400.90099999999995C230.173,400.92799999999994,230.517,400.93699999999995,230.665,400.79299999999995C230.84099999999998,400.62299999999993,230.801,400.16599999999994,230.78799999999998,400.01499999999993C230.48999999999998,396.57699999999994,228.439,393.11299999999994,224.517,389.42499999999995C223.714,388.66999999999996,222.884,387.936,222.054,387.203C219.65,385.07899999999995,217.165,382.88399999999996,215.363,380.145C214.226,378.416,213.691,376.86699999999996,213.727,375.40799999999996C213.769,373.729,214.78900000000002,371.77199999999993,216.659,371.28099999999995C218.23999999999998,370.86499999999995,220.07,371.60599999999994,221.678,373.31199999999995C222.017,373.67199999999997,222.34,374.05299999999994,222.662,374.43299999999994C223.459,375.37499999999994,224.21200000000002,376.26499999999993,225.20600000000002,376.83099999999996C225.651,377.085,226.234,377.191,226.43800000000002,376.92699999999996C226.54200000000003,376.794,226.56900000000002,376.54499999999996,226.586,376.323C226.84,373.087,226.05200000000002,369.777,224.366,367.003C223.68200000000002,365.878,222.83700000000002,364.815,222.02100000000002,363.789C221.311,362.897,220.578,361.97499999999997,219.936,360.998C217.098,356.68,216.09,351.304,217.17100000000002,346.25C217.76700000000002,343.46,219.68900000000002,340.837,222.22700000000003,341.231C223.82300000000004,341.478,224.91400000000004,342.892,225.40200000000004,344.132C225.75600000000006,345.032,225.91500000000005,345.98,226.06900000000005,346.895C226.13600000000005,347.296,226.20400000000004,347.697,226.28800000000004,348.094C226.66000000000005,349.855,227.38700000000003,351.575,228.39100000000005,353.069C229.18900000000005,354.25800000000004,229.99800000000005,354.964,230.86400000000006,355.228C232.21600000000007,355.63800000000003,233.68500000000006,354.93600000000004,234.54300000000006,354.05400000000003C235.64800000000005,352.918,236.18100000000007,351.31300000000005,236.48700000000005,350.20500000000004C237.60800000000006,346.136,237.52900000000005,341.78700000000003,237.45100000000005,337.583C237.40700000000004,335.21000000000004,237.36200000000005,332.757,237.52900000000005,330.35400000000004C237.60100000000006,329.32900000000006,237.74200000000005,328.165,238.51900000000006,327.31500000000005C239.65600000000006,326.07000000000005,241.59100000000007,326.17900000000003,242.83400000000006,326.91100000000006C244.22500000000005,327.7300000000001,245.01700000000005,329.19200000000006,245.49200000000005,330.22100000000006C248.70800000000006,337.18600000000004,247.08700000000005,345.35600000000005,245.58700000000005,350.89500000000004C245.18300000000005,352.38800000000003,244.74100000000004,353.87800000000004,244.30000000000004,355.37000000000006C242.79800000000003,360.4410000000001,241.24500000000003,365.68500000000006,241.25000000000003,370.99100000000004C241.25000000000003,371.30500000000006,241.26000000000002,371.60200000000003,241.38400000000001,371.80000000000007C241.542,372.05100000000004,241.96,372.1980000000001,242.46900000000002,372.18100000000004C244.00900000000001,372.148,245.62000000000003,371.165,246.889,369.48400000000004C247.567,368.586,248.125,367.56300000000005,248.66400000000002,366.574C249.03300000000002,365.897,249.41400000000002,365.197,249.83700000000002,364.529C250.871,362.895,252.75900000000001,361.249,254.675,361.993C256.22700000000003,362.59499999999997,256.72,364.392,256.87600000000003,365.40999999999997C257.687,370.7,254.81900000000005,376.279,248.35200000000003,381.991L248.06900000000005,382.241C245.75900000000004,384.277,243.37000000000003,386.381,242.89400000000003,389.241C242.56600000000003,391.211,243.20600000000005,393.45599999999996,244.79500000000004,395.91499999999996C245.72800000000004,397.35799999999995,246.84800000000004,398.72099999999995,247.93200000000004,400.03999999999996C249.09300000000005,401.453,250.29400000000004,402.91299999999995,251.29100000000005,404.49899999999997C255.50300000000004,411.198,255.83800000000005,419.789,256.10800000000006,426.69199999999995L256.12800000000004,427.2049999999999L255.61400000000003,427.2109999999999C253.61600000000004,427.2339999999999,251.82600000000002,427.4399999999999,250.09400000000002,427.6379999999999C248.295,427.844,246.563,428.042,244.677,428.042ZM242.87,426.976C245.437,427.164,247.651,426.911,249.983,426.644C251.591,426.46,253.25,426.27,255.09,426.221C254.814,419.21,254.418,411.35,250.445,405.031C249.482,403.499,248.302,402.063,247.16,400.675C246.059,399.33500000000004,244.92,397.95,243.956,396.459C242.22699999999998,393.784,241.53799999999998,391.301,241.908,389.078C242.44299999999998,385.86699999999996,245.07999999999998,383.542,247.408,381.49199999999996L247.69,381.24199999999996C253.886,375.77,256.644,370.49499999999995,255.888,365.563C255.764,364.759,255.39600000000002,363.347,254.314,362.92699999999996C252.958,362.402,251.51399999999998,363.751,250.682,365.06499999999994C250.277,365.7049999999999,249.903,366.39099999999996,249.542,367.0539999999999C248.985,368.07499999999993,248.41,369.1309999999999,247.687,370.0879999999999C246.232,372.01499999999993,244.33800000000002,373.1429999999999,242.491,373.18299999999994C241.584,373.18699999999995,240.894,372.90199999999993,240.537,372.3349999999999C240.27100000000002,371.9129999999999,240.249,371.4409999999999,240.249,370.9939999999999C240.244,365.5429999999999,241.81799999999998,360.2289999999999,243.34,355.08899999999994C243.779,353.60499999999996,244.219,352.12199999999996,244.621,350.63599999999997C246.079,345.24699999999996,247.662,337.31199999999995,244.58200000000002,330.64199999999994C243.91600000000003,329.20099999999996,243.199,328.28899999999993,242.324,327.77399999999994C241.407,327.2339999999999,240.008,327.1669999999999,239.25500000000002,327.99099999999993C238.69500000000002,328.60299999999995,238.58500000000004,329.5679999999999,238.52500000000003,330.42499999999995C238.36100000000005,332.78299999999996,238.40600000000003,335.215,238.44900000000004,337.566C238.52800000000005,341.842,238.60900000000004,346.26399999999995,237.44900000000004,350.472C237.11500000000004,351.68699999999995,236.52300000000005,353.452,235.25800000000004,354.753C233.95400000000004,356.09499999999997,232.11500000000004,356.659,230.57000000000005,356.186C229.47500000000005,355.852,228.49000000000004,355.015,227.55900000000005,353.628C226.48400000000007,352.02799999999996,225.70600000000005,350.187,225.30800000000005,348.30199999999996C225.22100000000006,347.89199999999994,225.15100000000004,347.477,225.08100000000005,347.06199999999995C224.92900000000006,346.157,224.78500000000005,345.30199999999996,224.46900000000005,344.49899999999997C224.08200000000005,343.51699999999994,223.25000000000006,342.402,222.07200000000006,342.21999999999997C220.18300000000005,341.92999999999995,218.63300000000007,344.18499999999995,218.14600000000007,346.46C217.12100000000007,351.25399999999996,218.07700000000008,356.35299999999995,220.76900000000006,360.45C221.38600000000005,361.389,222.10500000000008,362.293,222.80000000000007,363.168C223.63600000000008,364.219,224.50100000000006,365.306,225.21700000000007,366.485C227.01100000000008,369.437,227.85000000000008,372.959,227.58000000000007,376.403C227.55100000000007,376.77000000000004,227.49700000000007,377.19100000000003,227.22300000000007,377.543C226.63000000000008,378.305,225.53100000000006,378.171,224.70600000000007,377.702C223.55800000000008,377.047,222.71200000000007,376.048,221.89400000000006,375.081C221.58300000000006,374.714,221.27200000000005,374.346,220.94600000000005,373.999C220.30700000000004,373.322,218.63700000000006,371.797,216.90900000000005,372.25C215.53100000000006,372.612,214.75500000000005,374.161,214.72300000000004,375.435C214.69200000000004,376.683,215.17400000000004,378.045,216.19500000000005,379.598C217.92300000000006,382.226,220.35800000000006,384.37600000000003,222.71200000000005,386.456C223.55000000000004,387.196,224.38800000000003,387.937,225.19900000000004,388.699C229.30800000000005,392.564,231.46100000000004,396.238,231.78100000000003,399.93100000000004C231.82200000000003,400.39500000000004,231.82200000000003,401.06500000000005,231.35700000000003,401.51400000000007C230.86,401.9940000000001,230.11900000000003,401.93100000000004,229.76600000000002,401.89900000000006C219.145,400.9700000000001,208.65200000000002,395.06000000000006,200.21800000000002,385.25500000000005C199.61700000000002,384.5570000000001,199.031,383.845,198.44500000000002,383.13300000000004C196.901,381.25800000000004,195.30400000000003,379.31800000000004,193.47100000000003,377.69700000000006C192.50200000000004,376.83900000000006,190.64400000000003,375.51200000000006,189.09800000000004,376.25800000000004C187.37600000000003,377.088,187.48300000000003,379.71700000000004,188.09800000000004,381.71600000000007C190.51400000000004,389.57200000000006,196.29000000000005,396.8190000000001,205.26500000000004,403.25500000000005C212.30300000000005,408.30100000000004,220.10400000000004,412.13000000000005,228.45200000000006,414.63700000000006C229.52900000000005,414.96100000000007,230.74300000000005,415.16700000000003,232.02800000000005,415.38400000000007C234.08100000000005,415.7320000000001,236.20300000000006,416.0920000000001,237.88800000000006,416.9820000000001C239.04100000000005,417.59100000000007,240.00800000000007,418.68000000000006,240.76000000000005,420.2200000000001C240.791,420.272,242.862,425.031,242.87,426.976Z" id="path8867" stroke="blue" fill="red"/></g></svg>