<svg version="1.1" xmlns="http://www.w3.org/2000/svg" xmlns:xlink="http://www.w3.org/1999/xlink" x="0px" y="0px" viewBox="346.7664192777443 127 80.36483072224752 177.26100000000002" style="enable-background:new 0 0 500 500;" xml:space="preserve"><g id="a8">
		<g>
			<g>
				<g>
					<g>
						<path style="fill:#EAC13F;" d="M406.669,195.386c1.5,1.346,2.178,3.329,1.177,4.83c-0.717,1.074-2.167,1.776-2.791,2.886        c-0.692,1.231-0.234,2.685,0.187,4.03c2.858,9.147,3.523,18.608,1.95,27.757c-0.556,3.235-1.391,6.458-1.219,9.747        c0.12,2.29,0.702,4.721-0.53,6.755c-1.362,2.247-4.632,3.413-7.848,3.859c-4.736,0.658-9.83,0.084-14.277-1.608        c-1.374-0.523-2.743-1.191-3.538-2.2c-0.706-0.896-0.879-1.955-1.036-2.976c-0.727-4.745-1.454-9.489-2.181-14.234        c-1.097-7.156-2.187-14.452-0.37-21.401c0.79-3.022,2.13-5.996,1.917-9.114c-0.207-3.028-1.803-6.38,0.251-8.879        c1.278-1.554,3.682-2.319,6.035-2.767C390.853,190.841,401.649,190.882,406.669,195.386z"/>
                        <path style="fill:#E4962C;" d="M393.682,256.017c-3.6,0-7.236-0.65-10.543-1.908c-1.26-0.479-2.826-1.181-3.753-2.358        c-0.801-1.016-0.98-2.181-1.138-3.21l-2.181-14.234c-1.092-7.123-2.22-14.488-0.36-21.604c0.208-0.796,0.455-1.59,0.701-2.383        c0.696-2.242,1.353-4.36,1.202-6.57c-0.055-0.805-0.217-1.664-0.374-2.495c-0.441-2.333-0.898-4.746,0.738-6.736        c1.154-1.405,3.165-2.339,6.328-2.941c6.258-1.192,17.467-1.261,22.702,3.434l0,0c1.81,1.624,2.328,3.877,1.259,5.48        c-0.378,0.567-0.917,1.021-1.437,1.461c-0.539,0.456-1.049,0.886-1.334,1.393c-0.584,1.038-0.173,2.351,0.224,3.621        c2.906,9.3,3.566,18.717,1.969,28.005c-0.121,0.702-0.254,1.403-0.388,2.105c-0.47,2.464-0.956,5.012-0.824,7.531        c0.023,0.455,0.066,0.915,0.108,1.378c0.176,1.916,0.358,3.897-0.71,5.662c-1.701,2.808-5.872,3.771-8.207,4.095        C396.354,255.928,395.02,256.017,393.682,256.017z M392.088,191.887c-2.811,0-5.492,0.274-7.599,0.675        c-2.88,0.548-4.758,1.396-5.742,2.593c-1.339,1.629-0.945,3.711-0.528,5.915c0.163,0.859,0.331,1.748,0.39,2.612        c0.164,2.396-0.552,4.704-1.245,6.935c-0.242,0.779-0.484,1.558-0.688,2.34c-1.808,6.915-0.695,14.177,0.381,21.199        l2.181,14.234c0.146,0.95,0.297,1.933,0.935,2.742c0.784,0.996,2.272,1.643,3.323,2.042c4.381,1.667,9.363,2.228,14.03,1.581        c2.159-0.3,6.002-1.169,7.489-3.623c0.898-1.483,0.739-3.217,0.57-5.052c-0.044-0.475-0.087-0.949-0.112-1.417        c-0.138-2.639,0.36-5.248,0.841-7.771c0.133-0.696,0.266-1.392,0.385-2.088c1.57-9.13,0.919-18.39-1.934-27.523        c-0.443-1.418-0.941-3.009-0.146-4.424c0.374-0.664,0.977-1.174,1.561-1.667c0.489-0.413,0.951-0.803,1.25-1.252        c0.917-1.376,0.076-3.131-1.095-4.181l0,0C403.097,192.853,397.365,191.887,392.088,191.887z"/>
					</g>
                    <g>
						<path style="fill:#E9A830;" d="M404.603,196.802c0,0-1.509-4.131-12.18-3.962c-10.671,0.169-12.404,2.436-11.75,4.024        c0.655,1.588,9.431,3.061,14.324,2.781C399.89,199.364,405.014,199.374,404.603,196.802z"/>
                        <path style="fill:#E4962C;" d="M393.83,200.175c-4.707,0-12.839-1.227-13.62-3.121c-0.264-0.642-0.202-1.289,0.182-1.871        c1.17-1.779,5.215-2.736,12.022-2.843c10.894-0.157,12.592,4.109,12.658,4.291l0.024,0.092        c0.095,0.593-0.037,1.115-0.391,1.553c-1.155,1.428-4.461,1.597-8.287,1.794l-1.394,0.074        C394.661,200.165,394.259,200.175,393.83,200.175z M393.048,193.335c-0.203,0-0.408,0.001-0.618,0.005        c-8.781,0.139-10.759,1.72-11.202,2.393c-0.199,0.302-0.229,0.609-0.093,0.94c0.476,1.154,8.554,2.772,13.832,2.472l1.4-0.075        c3.287-0.169,6.686-0.343,7.561-1.424c0.161-0.199,0.222-0.425,0.189-0.706C403.923,196.549,402.046,193.335,393.048,193.335z        "/>
					</g>
				</g>
                <g>
					<path style="fill:#DE5B15;" d="M389.178,252.316c1.519-4.334,3.887-8.535,3.885-13.134c-0.001-2.757-0.807-5.784,0.677-8.095       c0.606-0.944,1.542-1.647,2.081-2.632c2.012-3.673-2.477-8.476-0.61-12.227c1.043-2.097,3.604-2.822,5.888-3.225       c6.161-1.087,12.451-1.417,18.69-0.98c0.931,0.065,1.884,0.153,2.731,0.551c1.97,0.926,2.882,3.321,2.886,5.52       c0.004,2.199-2.816,3.891-3.181,6.059c-0.785,4.662,4.167,11.059,3.668,15.761c-0.442,4.171-3.933,7-4.817,11.098       c-1.072,4.968,1.923,9.599,2.08,14.67c0.082,2.661-2.27,5.807-2.632,8.45c-0.42,3.061,1.701,7.896-1.369,11.687       c-2.974,3.672-9.678,4.204-14.324,4.786c-9.245,1.159-11.604-4.351-14.584-11.453       C386.698,270.688,386.123,261.031,389.178,252.316z"/>
                    <path style="fill:#DC4410;" d="M402.524,291.256c-7.739,0.001-10.072-5.561-12.736-11.912       c-3.729-8.888-4.112-18.546-1.081-27.194c0.403-1.15,0.871-2.306,1.324-3.423c1.246-3.074,2.534-6.253,2.533-9.545       c0-0.698-0.055-1.436-0.108-2.149c-0.159-2.146-0.325-4.364,0.865-6.216c0.299-0.466,0.665-0.869,1.019-1.259       c0.401-0.442,0.78-0.86,1.045-1.343c0.916-1.672,0.32-3.66-0.31-5.765c-0.649-2.168-1.321-4.411-0.31-6.445       c1.157-2.325,3.948-3.089,6.25-3.495c6.202-1.095,12.532-1.426,18.811-0.986c1.013,0.07,1.997,0.169,2.908,0.597       c2.337,1.098,3.17,3.903,3.174,5.971c0.002,1.343-0.865,2.459-1.705,3.538c-0.686,0.882-1.333,1.716-1.483,2.605       c-0.38,2.259,0.722,5.09,1.788,7.829c1.052,2.701,2.14,5.495,1.884,7.902c-0.247,2.335-1.403,4.265-2.521,6.131       c-0.939,1.567-1.91,3.188-2.305,5.018c-0.6,2.784,0.13,5.454,0.903,8.282c0.551,2.016,1.121,4.1,1.189,6.267       c0.049,1.594-0.69,3.295-1.404,4.941c-0.556,1.28-1.081,2.49-1.233,3.593c-0.124,0.908-0.004,2.036,0.122,3.229       c0.281,2.652,0.632,5.953-1.597,8.705c-2.873,3.547-8.792,4.26-13.547,4.833l-1.104,0.135       C404.052,291.206,403.263,291.256,402.524,291.256z M414.433,212.335c-4.438,0-8.874,0.388-13.246,1.159       c-2.071,0.365-4.57,1.031-5.528,2.956c-0.836,1.68-0.249,3.639,0.372,5.713c0.662,2.209,1.346,4.494,0.229,6.532       c-0.321,0.586-0.758,1.068-1.181,1.534c-0.341,0.376-0.663,0.731-0.917,1.127c-1.009,1.571-0.863,3.529-0.709,5.602       c0.054,0.732,0.11,1.489,0.111,2.224c0.001,3.487-1.324,6.758-2.607,9.921c-0.448,1.106-0.912,2.25-1.307,3.378l0,0       c-2.949,8.414-2.573,17.817,1.059,26.477c2.988,7.122,5.143,12.267,14.061,11.15l1.108-0.135       c4.576-0.551,10.272-1.237,12.889-4.469c1.968-2.43,1.656-5.373,1.38-7.97c-0.133-1.255-0.259-2.441-0.118-3.47       c0.17-1.239,0.748-2.569,1.307-3.855c0.67-1.544,1.364-3.141,1.321-4.511c-0.064-2.049-0.617-4.075-1.153-6.035       c-0.771-2.819-1.567-5.734-0.915-8.756c0.43-1.992,1.444-3.685,2.424-5.321c1.111-1.855,2.16-3.607,2.385-5.723       c0.229-2.166-0.813-4.844-1.822-7.434c-1.115-2.865-2.269-5.827-1.843-8.358c0.192-1.138,0.949-2.111,1.681-3.053       c0.769-0.989,1.495-1.923,1.494-2.922c-0.003-1.776-0.686-4.169-2.599-5.068c-0.755-0.355-1.639-0.441-2.553-0.505       C417.984,212.397,416.208,212.335,414.433,212.335z"/>
				</g>
                <g>
					<g>
						<path style="fill:#E3831F;" d="M358.563,233.3c0-5.195,14.585-11.735,21.344-11.175c2.569,0.213,5.231,1.163,6.765,3.234        c1.458,1.969,1.652,4.683,0.926,7.023c-0.302,0.973-0.755,1.931-0.732,2.95c0.031,1.393,0.934,2.59,1.753,3.718        c8.191,11.286,11.41,26.05,8.661,39.721c-0.7,3.483-1.831,7.006-4.194,9.659c-2.684,3.015-6.802,4.596-10.837,4.49        c-4.035-0.106-7.949-1.814-11.013-4.442c-1.531-1.314-2.892-2.897-3.586-4.791c-0.754-2.057-0.669-4.313-0.575-6.502        c0.128-2.961,0.256-5.923,0.383-8.884c0.038-0.889,0.068-1.823-0.331-2.618c-1.732-3.456-3.284-3.77-2.318-8.091        c0.589-2.635,1.468-4.863,0.247-7.447c-1.265-2.677-3.963-4.228-5.128-7.058C358.672,240.032,358.563,236.553,358.563,233.3z"/>
                        <path style="fill:#DE5B15;" d="M382.636,293.424c-0.133,0-0.267-0.001-0.4-0.005c-3.996-0.105-8.018-1.726-11.325-4.563        c-1.863-1.6-3.083-3.234-3.73-4.999c-0.8-2.183-0.696-4.58-0.604-6.695l0.383-8.884c0.034-0.784,0.073-1.673-0.278-2.373        c-0.448-0.893-0.885-1.574-1.271-2.174c-1.11-1.729-1.843-2.871-1.089-6.249c0.09-0.403,0.187-0.796,0.281-1.182        c0.516-2.098,0.962-3.911,0.001-5.942c-0.571-1.209-1.451-2.176-2.383-3.199c-1.038-1.141-2.112-2.321-2.755-3.882        c-1.295-3.146-1.404-6.654-1.404-9.977c0-1.354,0.829-2.804,2.463-4.309c4.512-4.154,14.131-7.795,19.421-7.365        c1.824,0.151,5.174,0.798,7.126,3.435c1.464,1.977,1.839,4.769,1.001,7.468c-0.074,0.237-0.156,0.473-0.238,0.709        c-0.25,0.718-0.486,1.396-0.471,2.082c0.027,1.192,0.815,2.277,1.579,3.327l0.079,0.108        c8.244,11.359,11.513,26.355,8.747,40.113c-0.563,2.801-1.622,6.875-4.31,9.893        C390.846,291.698,386.824,293.424,382.636,293.424z M379.043,222.591c-5.131,0-13.795,3.413-17.839,7.136        c-1.4,1.289-2.141,2.525-2.141,3.573c0,3.223,0.103,6.619,1.329,9.596c0.576,1.399,1.544,2.463,2.57,3.59        c0.94,1.033,1.912,2.101,2.547,3.445c1.112,2.352,0.604,4.42,0.065,6.608c-0.093,0.38-0.189,0.766-0.277,1.161        c-0.663,2.971-0.088,3.866,0.955,5.491c0.399,0.622,0.851,1.326,1.323,2.266c0.467,0.933,0.421,2.004,0.383,2.864        l-0.383,8.884c-0.087,2.021-0.186,4.313,0.544,6.309c0.586,1.6,1.712,3.099,3.442,4.584c3.133,2.688,6.933,4.223,10.7,4.321        c4.04,0.115,7.947-1.51,10.451-4.323c2.526-2.837,3.537-6.738,4.077-9.425c2.712-13.489-0.493-28.192-8.576-39.329        l-0.078-0.107c-0.813-1.12-1.736-2.388-1.77-3.893c-0.02-0.866,0.258-1.663,0.527-2.433c0.078-0.225,0.157-0.45,0.227-0.676        c0.732-2.36,0.407-4.88-0.85-6.577c-1.718-2.319-4.75-2.896-6.405-3.033C379.604,222.602,379.329,222.591,379.043,222.591z"/>
					</g>
                    <g>
						<path style="fill:#E06D19;" d="M361.396,231.361c0,0,3.672-4.028,9.832-5.686c6.16-1.658,11.372-2.369,12.794,0        c1.422,2.369-2.353,4.62-5.619,6.278C375.137,233.611,355.828,238.824,361.396,231.361z"/>
                        <path style="fill:#DE5B15;" d="M363.929,235.746c-1.685,0-3.016-0.284-3.628-1.011c-0.72-0.855-0.486-2.09,0.694-3.673        l0.031-0.038c0.154-0.169,3.843-4.155,10.072-5.832c7.868-2.118,11.987-2.049,13.353,0.226        c0.383,0.639,0.477,1.311,0.279,1.999c-0.56,1.944-3.398,3.61-6.101,4.982C376.866,233.294,368.875,235.746,363.929,235.746z         M361.781,231.681c-0.59,0.796-1.186,1.851-0.715,2.41c1.77,2.105,14.256-1.134,17.111-2.583        c1.389-0.705,5.078-2.579,5.593-4.368c0.12-0.416,0.062-0.811-0.176-1.208c-1.067-1.778-5.069-1.704-12.235,0.226        C365.606,227.706,362.044,231.402,361.781,231.681z"/>
					</g>
				</g>
                <g>
					<g>
						<path style="fill:#EAC13F;" d="M392.037,245.353c-0.976,0.939-1.498,2.442-0.988,3.697c0.365,0.898,1.191,1.56,1.499,2.479        c0.341,1.019-0.018,2.124-0.349,3.146c-2.247,6.953-3.201,14.321-2.798,21.616c0.142,2.58,0.452,5.172,0.155,7.738        c-0.206,1.787-0.697,3.648-0.08,5.338c0.682,1.868,2.568,3.034,4.464,3.632c2.792,0.881,5.871,0.824,8.629-0.159        c0.852-0.304,1.71-0.722,2.244-1.452c0.475-0.648,0.641-1.465,0.794-2.254c0.714-3.665,1.427-7.329,2.141-10.994        c1.077-5.527,2.158-11.164,1.48-16.754c-0.294-2.431-0.921-4.867-0.61-7.295c0.302-2.359,1.453-4.864,0.372-6.982        c-0.672-1.318-2.065-2.103-3.445-2.636C401.759,243.01,395.303,242.208,392.037,245.353z"/>
                        <path style="fill:#E4962C;" d="M398.015,294.124c-1.429,0-2.858-0.215-4.225-0.647c-1.413-0.446-3.912-1.55-4.784-3.938        c-0.536-1.468-0.311-3.006-0.093-4.494c0.053-0.359,0.105-0.718,0.146-1.073c0.227-1.965,0.086-4.002-0.05-5.972        c-0.039-0.561-0.077-1.122-0.108-1.682c-0.409-7.406,0.54-14.74,2.822-21.797c0.316-0.979,0.638-1.975,0.35-2.834        c-0.137-0.409-0.412-0.78-0.703-1.172c-0.289-0.39-0.588-0.794-0.784-1.276c-0.557-1.368-0.113-3.074,1.104-4.246l0,0        c3.756-3.616,10.824-2.227,14.037-0.986c1.879,0.725,3.093,1.665,3.71,2.874c0.865,1.695,0.45,3.551,0.049,5.346        c-0.143,0.639-0.291,1.3-0.371,1.928c-0.221,1.724,0.048,3.436,0.332,5.249c0.1,0.641,0.201,1.282,0.278,1.922        c0.693,5.723-0.415,11.41-1.486,16.91l-2.141,10.994c-0.156,0.799-0.333,1.705-0.882,2.454        c-0.653,0.891-1.668,1.337-2.479,1.627C401.221,293.852,399.618,294.124,398.015,294.124z M392.383,245.713        c-0.91,0.876-1.268,2.171-0.871,3.148c0.149,0.366,0.398,0.702,0.662,1.058c0.324,0.438,0.66,0.891,0.848,1.45        c0.392,1.17,0.002,2.378-0.342,3.444c-2.248,6.955-3.181,14.166-2.78,21.45c0.031,0.555,0.069,1.111,0.107,1.667        c0.139,2.015,0.283,4.098,0.045,6.155c-0.042,0.366-0.096,0.734-0.15,1.104c-0.209,1.427-0.407,2.776,0.042,4.006        c0.725,1.985,2.908,2.936,4.145,3.327c2.696,0.852,5.648,0.796,8.311-0.153c1.005-0.359,1.625-0.753,2.009-1.277        c0.418-0.569,0.571-1.358,0.707-2.054l2.141-10.994c1.057-5.424,2.149-11.032,1.475-16.599        c-0.076-0.629-0.175-1.258-0.273-1.888c-0.282-1.802-0.574-3.666-0.336-5.531c0.086-0.673,0.239-1.357,0.387-2.019        c0.379-1.697,0.737-3.299,0.037-4.673c-0.501-0.98-1.54-1.764-3.18-2.396C401.872,243.59,395.531,242.682,392.383,245.713        L392.383,245.713z"/>
					</g>
                    <g>
						<path style="fill:#E3831F;" d="M393.189,246.623c0,0,1.145-3.123,7.514-2.167c6.369,0.956,7.272,2.868,6.787,4.063        c-0.485,1.195-5.817,1.673-8.726,1.075C395.855,248.996,392.792,248.608,393.189,246.623z"/>
                        <path style="fill:#E4962C;" d="M401.792,250.346c-1.179,0-2.3-0.093-3.128-0.263l-0.83-0.166        c-2.119-0.419-4.12-0.814-4.872-1.939c-0.282-0.423-0.371-0.912-0.262-1.453l0.021-0.074c0.052-0.144,1.364-3.491,8.058-2.49        c3.878,0.582,6.246,1.583,7.04,2.976c0.321,0.563,0.37,1.192,0.135,1.769C407.485,249.861,404.488,250.346,401.792,250.346z         M393.671,246.767c-0.043,0.258-0.004,0.467,0.122,0.655c0.522,0.781,2.41,1.154,4.235,1.515l0.837,0.167        c3.111,0.639,7.874-0.064,8.162-0.774c0.12-0.295,0.094-0.598-0.077-0.898c-0.357-0.626-1.653-1.782-6.32-2.482        C395.086,244.118,393.82,246.441,393.671,246.767z"/>
					</g>
				</g>
                <g>
					<path style="fill:#DC4410;" d="M399.31,215.567c0,0,0.546-2.02,11.225-2.02c10.68,0,11.69,0.866,11.69,2.02       s-9.67,3.031-16.741,2.598C398.413,217.732,399.31,215.567,399.31,215.567z"/>
				</g>
			</g>
            <g>
				<path style="fill:#DC4410;" d="M413.203,228.245c-0.057,0-0.114-0.01-0.171-0.03c-0.26-0.094-0.393-0.381-0.3-0.641      c0.552-1.521,1.274-2.983,2.144-4.345c0.148-0.233,0.457-0.302,0.69-0.152c0.233,0.149,0.301,0.458,0.152,0.69      c-0.831,1.301-1.519,2.696-2.046,4.148C413.599,228.119,413.407,228.245,413.203,228.245z"/>
			</g>
            <g>
				<path style="fill:#DC4410;" d="M414.366,229.422c-0.038,0-0.076-0.004-0.114-0.013c-0.269-0.063-0.436-0.331-0.373-0.601      c0.318-1.362,0.954-2.654,1.839-3.735c0.174-0.213,0.489-0.245,0.704-0.07c0.213,0.175,0.245,0.49,0.07,0.704      c-0.789,0.963-1.355,2.115-1.639,3.329C414.799,229.266,414.593,229.422,414.366,229.422z"/>
			</g>
            <g>
				<path style="fill:#DC4410;" d="M399.199,237.681c-0.177,0-0.349-0.094-0.439-0.261c-0.985-1.808-1.088-4.104-0.268-5.993      c0.109-0.253,0.403-0.371,0.658-0.259c0.254,0.11,0.37,0.404,0.259,0.658c-0.7,1.613-0.612,3.573,0.229,5.116      c0.132,0.242,0.043,0.546-0.2,0.678C399.362,237.661,399.28,237.681,399.199,237.681z"/>
			</g>
            <g>
				<path style="fill:#DC4410;" d="M402.45,239.253c-0.129,0-0.257-0.049-0.355-0.148c-1.45-1.464-2.35-3.484-2.468-5.542      c-0.016-0.276,0.195-0.512,0.47-0.528c0.273-0.012,0.512,0.195,0.528,0.47c0.105,1.817,0.899,3.602,2.181,4.896      c0.194,0.196,0.192,0.513-0.004,0.707C402.705,239.205,402.577,239.253,402.45,239.253z"/>
			</g>
            <g>
				<path style="fill:#DC4410;" d="M418.602,262.099c-0.175,0-0.345-0.092-0.436-0.255c-0.86-1.533-1.667-3.124-2.4-4.729      c-0.616-1.353-1.208-2.803-1.109-4.364c0.017-0.276,0.26-0.477,0.531-0.467c0.275,0.018,0.485,0.255,0.467,0.531      c-0.085,1.331,0.458,2.649,1.021,3.886c0.721,1.58,1.516,3.147,2.362,4.655c0.135,0.241,0.049,0.545-0.191,0.681      C418.769,262.078,418.685,262.099,418.602,262.099z"/>
			</g>
            <g>
				<path style="fill:#DC4410;" d="M417.924,263.777c-0.136,0-0.271-0.055-0.37-0.164c-1.397-1.537-2.531-3.28-3.372-5.182      c-0.111-0.253,0.003-0.548,0.255-0.66c0.255-0.111,0.548,0.003,0.66,0.255c0.797,1.803,1.872,3.456,3.197,4.913      c0.185,0.205,0.17,0.521-0.034,0.707C418.165,263.734,418.044,263.777,417.924,263.777z"/>
			</g>
            <g>
				<path style="fill:#DE5B15;" d="M417.939,268.148c-0.276,0-0.5-0.224-0.5-0.5v-0.107c0-0.276,0.224-0.5,0.5-0.5      c0.276,0,0.5,0.224,0.5,0.5v0.107C418.439,267.924,418.215,268.148,417.939,268.148z"/>
			</g>
            <g>
				<path style="fill:#DE5B15;" d="M370.11,250.085c-0.183,0-0.359-0.1-0.447-0.274c-1.15-2.275-2.622-4.364-4.376-6.212      c-0.19-0.2-0.182-0.517,0.019-0.707c0.201-0.189,0.517-0.181,0.707,0.018c1.821,1.918,3.349,4.088,4.543,6.449      c0.125,0.247,0.026,0.547-0.221,0.672C370.262,250.068,370.185,250.085,370.11,250.085z"/>
			</g>
            <g>
				<path style="fill:#DE5B15;" d="M372.484,250.823c-0.182,0-0.356-0.099-0.445-0.271c-1.084-2.108-2.362-4.136-3.798-6.025      c-0.167-0.22-0.124-0.534,0.095-0.701c0.219-0.167,0.534-0.124,0.701,0.095c1.472,1.936,2.781,4.013,3.892,6.173      c0.126,0.246,0.029,0.547-0.216,0.673C372.639,250.806,372.561,250.823,372.484,250.823z"/>
			</g>
            <g>
				<path style="fill:#DE5B15;" d="M376.978,246.437c-0.276,0-0.5-0.224-0.5-0.5v-0.107c0-0.276,0.224-0.5,0.5-0.5      c0.276,0,0.5,0.224,0.5,0.5v0.107C377.478,246.213,377.254,246.437,376.978,246.437z"/>
			</g>
            <g>
				<path style="fill:#DE5B15;" d="M383.691,268.76c-0.212,0-0.409-0.136-0.477-0.349c-0.276-0.872-0.561-1.773-0.617-2.734      c-0.065-1.106,0.184-2.172,0.424-3.204c0.168-0.723,0.328-1.406,0.388-2.102c0.124-1.43-0.198-2.905-0.907-4.153      c-0.137-0.24-0.053-0.545,0.188-0.682c0.242-0.136,0.546-0.052,0.682,0.188c0.808,1.422,1.175,3.104,1.034,4.733      c-0.066,0.767-0.241,1.517-0.41,2.242c-0.234,1.006-0.456,1.957-0.4,2.919c0.048,0.836,0.315,1.677,0.572,2.491      c0.083,0.263-0.063,0.544-0.326,0.627C383.792,268.753,383.741,268.76,383.691,268.76z"/>
			</g>
            <g>
				<path style="fill:#DE5B15;" d="M381.635,264.294c-0.013,0-0.027-0.001-0.041-0.002c-0.275-0.022-0.48-0.263-0.458-0.539      l0.387-4.808c0.022-0.275,0.256-0.479,0.538-0.458c0.275,0.022,0.48,0.263,0.459,0.539l-0.387,4.808      C382.112,264.096,381.893,264.294,381.635,264.294z"/>
			</g>
            <g>
				<path style="fill:#DE5B15;" d="M378.459,285.949c-0.076,0-0.152-0.017-0.225-0.054c-1.281-0.646-2.428-1.741-3.317-3.166      c-0.688-1.102-1.23-2.376-1.759-4.13c-0.08-0.265,0.07-0.543,0.334-0.623c0.266-0.084,0.544,0.07,0.623,0.334      c0.502,1.666,1.011,2.865,1.651,3.89c0.792,1.27,1.801,2.239,2.919,2.803c0.247,0.124,0.346,0.425,0.221,0.671      C378.818,285.848,378.641,285.949,378.459,285.949z"/>
			</g>
            <g>
				<path style="fill:#DE5B15;" d="M374.213,284.495c-0.124,0-0.249-0.046-0.346-0.139c-1.21-1.157-2.208-2.578-2.887-4.108      c-0.112-0.253,0.002-0.548,0.254-0.66c0.253-0.114,0.548,0.002,0.66,0.254c0.626,1.413,1.548,2.724,2.664,3.791      c0.199,0.191,0.207,0.507,0.016,0.707C374.476,284.443,374.344,284.495,374.213,284.495z"/>
			</g>
            <g>
				<path style="fill:#E4962C;" d="M396.367,257.749c-0.021,0-0.042-0.001-0.062-0.004c-0.274-0.034-0.469-0.284-0.435-0.558      c0.179-1.439-0.105-2.931-0.801-4.204c-0.133-0.242-0.044-0.546,0.199-0.678c0.243-0.133,0.545-0.045,0.678,0.199      c0.796,1.455,1.121,3.162,0.917,4.806C396.832,257.564,396.616,257.749,396.367,257.749z"/>
			</g>
            <g>
				<path style="fill:#E4962C;" d="M398.781,260.494c-0.247,0-0.462-0.183-0.495-0.434l-0.694-5.185      c-0.037-0.274,0.156-0.525,0.429-0.562c0.275-0.035,0.525,0.156,0.562,0.429l0.694,5.185c0.037,0.274-0.156,0.525-0.429,0.562      C398.825,260.493,398.803,260.494,398.781,260.494z"/>
			</g>
            <g>
				<path style="fill:#E4962C;" d="M396.687,260.807c-0.276,0-0.5-0.224-0.5-0.5v-0.102c0-0.276,0.224-0.5,0.5-0.5      c0.276,0,0.5,0.224,0.5,0.5v0.102C397.187,260.583,396.964,260.807,396.687,260.807z"/>
			</g>
            <g>
				<path style="fill:#E4962C;" d="M398.537,283.28c-0.205,0-0.398-0.127-0.471-0.331c-0.093-0.26,0.043-0.546,0.302-0.639      c0.583-0.208,1.036-0.757,1.415-1.254c1.453-1.905,2.612-4.01,3.444-6.257c0.096-0.259,0.383-0.393,0.642-0.295      c0.259,0.096,0.392,0.383,0.295,0.642c-0.866,2.341-2.073,4.534-3.586,6.517c-0.5,0.656-1.073,1.303-1.874,1.589      C398.65,283.27,398.593,283.28,398.537,283.28z"/>
			</g>
            <g>
				<path style="fill:#E4962C;" d="M397.881,286.189c-0.04,0-0.079-0.002-0.12-0.005c-0.275-0.024-0.478-0.267-0.454-0.542      c0.024-0.275,0.275-0.476,0.542-0.455c0.173,0.012,0.399-0.106,0.617-0.241c1.544-0.953,2.885-2.261,3.877-3.781      c0.151-0.232,0.461-0.297,0.692-0.146c0.231,0.151,0.297,0.461,0.146,0.692c-1.072,1.644-2.521,3.057-4.19,4.086      C398.657,286.003,398.295,286.189,397.881,286.189z"/>
			</g>
            <g>
				<path style="fill:#E4962C;" d="M383.494,212.381c-0.273,0-0.497-0.22-0.5-0.494c-0.035-2.975-0.514-5.918-1.424-8.75      c-0.084-0.263,0.06-0.544,0.323-0.629c0.264-0.082,0.544,0.06,0.629,0.323c0.94,2.926,1.436,5.969,1.472,9.044      c0.003,0.276-0.218,0.502-0.494,0.506C383.498,212.381,383.496,212.381,383.494,212.381z"/>
			</g>
            <g>
				<path style="fill:#E4962C;" d="M385.981,214.533c-0.264,0-0.485-0.207-0.499-0.474c-0.144-2.773-0.607-5.529-1.377-8.195      c-0.077-0.265,0.076-0.542,0.342-0.619c0.267-0.075,0.543,0.076,0.619,0.342c0.792,2.739,1.268,5.572,1.415,8.421      c0.014,0.276-0.198,0.511-0.474,0.525C385.998,214.533,385.99,214.533,385.981,214.533z"/>
			</g>
            <g>
				<path style="fill:#E4962C;" d="M382.924,216.976c-0.276,0-0.5-0.224-0.5-0.5v-0.144c0-0.276,0.224-0.5,0.5-0.5      c0.276,0,0.5,0.224,0.5,0.5v0.144C383.424,216.752,383.2,216.976,382.924,216.976z"/>
			</g>
		</g>
        <g>
			<g>
				<g>
					<g>
						<path style="fill:#9DA29D;" d="M418.317,277.16c-3.714-2.39-8.778-3.057-13.137-1.73c-3.161,0.963-5.857,2.864-8.958,3.97        c-2.411,0.86-5.047,1.22-7.635,1.043c-2.778-0.19-20.556,3.475-20.778,6.219c-0.074,0.916-5.117,8.347,30.104,10.267        c7.33,0.4,15.014,0.482,21.545-2.507c3.725-1.705,5.542-4.066,4.736-7.629C423.321,282.924,422.121,279.608,418.317,277.16z"/>
                        <path style="fill:#747774;" d="M404.132,297.63c-2.13,0-4.229-0.091-6.245-0.201c-17.369-0.947-27.52-3.358-30.169-7.166        c-1.06-1.523-0.639-2.879-0.46-3.459c0.025-0.081,0.047-0.145,0.055-0.192c0.277-3.421,18.882-6.815,21.309-6.668        c2.517,0.174,5.087-0.179,7.433-1.015c1.397-0.498,2.747-1.179,4.051-1.838c1.564-0.79,3.182-1.607,4.93-2.14        c4.51-1.372,9.704-0.688,13.553,1.788l0,0c4.155,2.674,5.289,6.378,6.095,9.944c0.813,3.597-0.828,6.277-5.016,8.194        C414.869,297.073,409.408,297.63,404.132,297.63z M388.204,280.931c-4.204,0-19.739,3.845-19.895,5.771        c-0.01,0.12-0.048,0.242-0.096,0.397c-0.17,0.55-0.456,1.47,0.325,2.592c1.695,2.436,8.171,5.582,29.403,6.739        c6.886,0.374,14.781,0.525,21.31-2.463c3.743-1.713,5.159-3.958,4.456-7.064c-0.927-4.104-2.198-7.095-5.661-9.324        c-3.609-2.322-8.483-2.962-12.721-1.672c-1.666,0.507-3.244,1.304-4.77,2.075c-1.332,0.672-2.709,1.368-4.165,1.888        c-2.474,0.882-5.185,1.251-7.837,1.071C388.448,280.935,388.331,280.931,388.204,280.931z"/>
					</g>
                    <g>
						<path style="fill:#B0B6B0;" d="M428.301,289.187c2.936,3.071,4.193,7.105,3.865,10.997c-0.042,0.499-0.125,1.03-0.518,1.411        c-0.481,0.467-1.287,0.584-2.026,0.667c-9.331,1.042-18.798,1.262-28.186,0.655c-0.86-0.056-1.817-0.159-2.36-0.709        c-0.365-0.37-0.46-0.867-0.521-1.339c-0.302-2.34-0.083-4.725,0.644-7c0.701-2.196,1.922-4.343,3.96-5.876        c3.362-2.529,8.841-2.902,13.18-3.464C420.913,283.936,425.548,286.307,428.301,289.187z"/>
                        <path style="fill:#909190;" d="M411.797,303.751c-3.47,0-6.938-0.112-10.393-0.335c-0.95-0.061-2.019-0.184-2.684-0.856        c-0.456-0.463-0.587-1.056-0.662-1.627c-0.314-2.428-0.09-4.856,0.664-7.216c0.841-2.632,2.232-4.692,4.136-6.124        c3.069-2.308,7.723-2.87,11.828-3.365c0.542-0.065,1.073-0.129,1.588-0.196c5.117-0.665,9.871,2.176,12.388,4.809        c2.897,3.03,4.355,7.179,4.002,11.385c-0.051,0.611-0.168,1.243-0.669,1.729c-0.586,0.569-1.466,0.709-2.318,0.805        C423.76,303.42,417.777,303.751,411.797,303.751z M417.803,284.935c-0.462,0-0.929,0.029-1.399,0.09        c-0.518,0.067-1.052,0.131-1.597,0.197c-3.98,0.48-8.492,1.024-11.347,3.171c-1.734,1.305-3.008,3.199-3.785,5.629        c-0.708,2.22-0.918,4.502-0.624,6.784c0.061,0.473,0.146,0.814,0.381,1.052c0.417,0.423,1.27,0.511,2.036,0.56        c9.349,0.604,18.804,0.385,28.098-0.653c0.68-0.076,1.373-0.179,1.733-0.528c0.25-0.243,0.327-0.599,0.369-1.095        c0.329-3.92-1.03-7.787-3.729-10.609l0,0C425.818,287.313,422.008,284.935,417.803,284.935z"/>
					</g>
                    <g>
						<path style="fill:#B0B6B0;" d="M388.199,283.972c-4.871-0.355-9.878,1.627-12.302,4.785c-0.663,0.864-1.365,1.927-2.693,2.053        c-0.878,0.083-1.699-0.296-2.468-0.621c-1.9-0.805-4.032-1.375-6.22-1.374c-2.188,0.002-4.433,0.631-5.822,1.886        c-1.189,1.074-1.685,2.515-2.97,3.526c-1.318,1.037-3.262,1.469-4.893,2.222c-1.631,0.753-3.072,2.184-2.396,3.519        c0.62,1.224,2.614,1.656,4.344,1.901c14.409,2.042,29.241,2.432,43.808,1.151c1.219-0.107,2.496-0.244,3.476-0.793        c1.466-0.822,1.857-2.331,1.845-3.695c-0.028-3.189-2.043-6.272-3.689-9.146C396.534,286.441,392.468,284.283,388.199,283.972        z"/>
                        <path style="fill:#909190;" d="M379.693,304.261c-9.04,0-18.064-0.633-26.983-1.897c-1.929-0.273-3.998-0.745-4.72-2.171        c-0.26-0.514-0.294-1.083-0.098-1.646c0.336-0.964,1.357-1.917,2.731-2.552c0.577-0.266,1.192-0.494,1.786-0.713        c1.133-0.419,2.203-0.815,3.007-1.448c0.628-0.494,1.056-1.109,1.51-1.76c0.412-0.592,0.839-1.205,1.435-1.744        c1.394-1.26,3.695-2.013,6.156-2.015c0.003,0,0.006,0,0.009,0c2.038,0,4.193,0.476,6.406,1.413l0.141,0.06        c0.681,0.29,1.384,0.59,2.085,0.524c1.007-0.096,1.607-0.888,2.188-1.655l0.156-0.204c2.527-3.294,7.764-5.346,12.734-4.98h0        c4.479,0.327,8.665,2.603,10.418,5.665l0.54,0.933c1.567,2.694,3.189,5.479,3.214,8.457c0.017,1.926-0.709,3.356-2.1,4.135        c-1.037,0.582-2.331,0.736-3.677,0.855C390.996,304.013,385.341,304.261,379.693,304.261z M364.526,289.315        c-0.003,0-0.005,0-0.008,0c-2.22,0.001-4.271,0.658-5.487,1.757c-0.511,0.462-0.887,1.001-1.285,1.573        c-0.475,0.683-0.966,1.389-1.712,1.975c-0.928,0.73-2.123,1.172-3.279,1.6c-0.576,0.213-1.172,0.434-1.714,0.684        c-1.099,0.507-1.965,1.281-2.206,1.972c-0.107,0.309-0.092,0.593,0.046,0.867c0.523,1.033,2.515,1.426,3.968,1.632        c14.416,2.044,29.118,2.429,43.694,1.148c1.233-0.109,2.411-0.246,3.275-0.731c1.069-0.599,1.604-1.694,1.589-3.254        c-0.023-2.713-1.577-5.382-3.079-7.963l-0.544-0.939c-1.595-2.785-5.462-4.861-9.623-5.164        c-4.654-0.343-9.534,1.549-11.869,4.591l-0.151,0.2c-0.644,0.851-1.446,1.909-2.89,2.046c-0.955,0.097-1.813-0.276-2.572-0.6        l-0.138-0.059C368.453,289.764,366.429,289.315,364.526,289.315z"/>
					</g>
				</g>
			</g>
            <g>
				<path style="fill:#909190;" d="M359.44,295.374c-0.119,0-0.237-0.042-0.332-0.126c-0.206-0.184-0.225-0.5-0.041-0.706      c0.843-0.947,1.93-1.645,3.142-2.016c0.35-0.107,0.711-0.187,1.071-0.266c0.642-0.141,1.249-0.274,1.768-0.569      c0.242-0.136,0.545-0.052,0.682,0.188c0.137,0.24,0.053,0.545-0.188,0.682c-0.651,0.371-1.361,0.526-2.048,0.677      c-0.333,0.073-0.668,0.146-0.992,0.246c-1.037,0.317-1.966,0.914-2.688,1.725C359.715,295.318,359.578,295.374,359.44,295.374z"/>
			</g>
            <g>
				<path style="fill:#909190;" d="M361.465,296.377c-0.182,0-0.358-0.1-0.446-0.273c-0.125-0.246-0.028-0.547,0.218-0.672      l2.575-1.315c0.247-0.125,0.547-0.027,0.673,0.218c0.125,0.246,0.028,0.547-0.218,0.673l-2.576,1.315      C361.618,296.359,361.541,296.377,361.465,296.377z"/>
			</g>
            <g>
				<path style="fill:#909190;" d="M424.348,291.864c-0.174,0-0.343-0.09-0.435-0.252c-0.739-1.295-1.811-2.375-3.101-3.122      c-0.239-0.139-0.32-0.444-0.182-0.684c0.138-0.239,0.443-0.321,0.684-0.182c1.442,0.836,2.641,2.043,3.467,3.492      c0.137,0.24,0.054,0.545-0.187,0.682C424.517,291.843,424.432,291.864,424.348,291.864z"/>
			</g>
            <g>
				<path style="fill:#909190;" d="M423.247,295.399c-0.218,0-0.419-0.144-0.481-0.365c-0.461-1.645-1.335-3.161-2.526-4.385      c-0.192-0.198-0.188-0.514,0.01-0.707c0.197-0.192,0.514-0.189,0.707,0.01c1.307,1.342,2.266,3.006,2.772,4.811      c0.075,0.266-0.081,0.542-0.346,0.617C423.338,295.393,423.292,295.399,423.247,295.399z"/>
			</g>
            <g>
				<path style="fill:#747774;" d="M401.37,284.813c-0.112,0-0.226-0.038-0.319-0.116l-2.222-1.847      c-0.212-0.176-0.241-0.492-0.064-0.704c0.176-0.211,0.491-0.241,0.704-0.065l2.222,1.847c0.212,0.176,0.241,0.492,0.064,0.704      C401.656,284.751,401.514,284.813,401.37,284.813z"/>
			</g>
            <g>
				<path style="fill:#747774;" d="M403.683,283.519c-0.069,0-0.139-0.014-0.206-0.045c-1.021-0.463-1.917-1.182-2.592-2.079      c-0.166-0.221-0.122-0.534,0.099-0.7c0.222-0.165,0.535-0.121,0.7,0.099c0.575,0.763,1.338,1.375,2.206,1.77      c0.251,0.114,0.363,0.41,0.249,0.662C404.055,283.41,403.874,283.519,403.683,283.519z"/>
			</g>
            <g>
				<path style="fill:#747774;" d="M412.445,280.185c-0.276,0-0.5-0.224-0.5-0.5v-0.129c0-0.276,0.224-0.5,0.5-0.5      c0.276,0,0.5,0.224,0.5,0.5v0.129C412.945,279.961,412.721,280.185,412.445,280.185z"/>
			</g>
            <g>
				<path style="fill:#909190;" d="M426.631,295.531c-0.128,0-0.256-0.049-0.353-0.147l-0.129-0.129      c-0.195-0.195-0.195-0.512,0-0.707c0.195-0.195,0.512-0.195,0.707,0l0.129,0.129c0.195,0.195,0.195,0.512,0,0.707      C426.886,295.483,426.759,295.531,426.631,295.531z"/>
			</g>
            <g>
				<path style="fill:#909190;" d="M358.15,298.755c-0.276,0-0.5-0.224-0.5-0.5v-0.129c0-0.276,0.224-0.5,0.5-0.5      c0.276,0,0.5,0.224,0.5,0.5v0.129C358.65,298.532,358.427,298.755,358.15,298.755z"/>
			</g>
		</g>
	</g></svg>