<svg version="1.1" xmlns="http://www.w3.org/2000/svg" xmlns:xlink="http://www.w3.org/1999/xlink" x="0px" y="0px" viewBox="58.26941927774435 50.32500000000001 80.36383072225486 227.19999999999996" style="enable-background:new 0 0 500 500;" xml:space="preserve"><g id="a2">
		<g>
			<g>
				<path style="fill:#42757E;" d="M112.12,268.341c2.527-12.552,4.943-24.967,6.235-37.418c1.274-12.473,1.396-24.822-0.173-37.184      c-0.642-6.244-1.536-12.614-1.835-19.165c-0.194-6.574,0.14-13.208,1.319-19.611c2.178-12.87,6.488-24.992,11.466-36.766      c-2.005,12.651-4.681,25.095-5.686,37.492c-1.24,12.431,0.454,24.39,2.15,37.216c1.495,12.894,1.026,26.193-1.501,38.864      C121.655,244.485,117.58,256.76,112.12,268.341z"/>
                <path style="fill:#355E60;" d="M110.818,272.276l0.812-4.034c2.555-12.689,4.954-25.095,6.228-37.371      c1.36-13.318,1.304-25.444-0.171-37.069c-0.18-1.753-0.379-3.504-0.579-5.267c-0.513-4.523-1.044-9.2-1.26-13.939      c-0.212-7.162,0.235-13.795,1.327-19.724c1.888-11.159,5.435-22.532,11.498-36.871l1.596-3.774l-0.642,4.047      c-0.599,3.78-1.267,7.596-1.914,11.286c-1.507,8.601-3.065,17.495-3.767,26.169c-1.19,11.929,0.341,23.48,1.961,35.71l0.186,1.4      c1.51,13.021,0.989,26.514-1.506,39.027c-2.408,12.54-6.451,24.884-12.015,36.688L110.818,272.276z M127.94,122.385      c-5.034,12.421-8.082,22.631-9.78,32.663c-1.081,5.866-1.521,12.429-1.312,19.512c0.214,4.698,0.743,9.357,1.254,13.864      c0.2,1.766,0.399,3.52,0.579,5.265c1.483,11.69,1.54,23.89,0.172,37.286c-1.136,10.941-3.159,21.97-5.39,33.206      c4.61-10.521,8.018-21.436,10.143-32.506c2.476-12.416,2.992-25.801,1.495-38.712l-0.185-1.392      c-1.629-12.289-3.167-23.896-1.966-35.932c0.705-8.71,2.268-17.627,3.778-26.251      C127.131,127.089,127.542,124.742,127.94,122.385z"/>
			</g>
            <g>
				<path style="fill:#355E60;" d="M129.133,118.197c-1.847,6.01-3.423,12.1-4.781,18.233c-1.367,6.129-2.56,12.306-3.274,18.542      c-0.176,1.559-0.354,3.117-0.454,4.682c-0.159,1.563-0.171,3.126-0.189,4.688c-0.033,0.781,0.006,1.563,0.055,2.344l0.123,2.345      c0.126,1.562,0.291,3.122,0.443,4.683c0.713,6.236,1.629,12.469,2.115,18.752c0.946,12.562,0.473,25.248-1.645,37.664      c-1.023,6.212-2.358,12.37-3.982,18.448l-1.288,4.54c-0.429,1.513-0.838,3.032-1.363,4.515l-2.978,8.95l2.802-9.004      c0.495-1.492,0.874-3.017,1.273-4.537l1.198-4.557c1.57-6.081,2.868-12.232,3.845-18.434c2.03-12.396,2.41-25.025,1.391-37.527      c-0.442-6.261-1.314-12.484-1.988-18.743c-0.142-1.569-0.298-3.137-0.414-4.708l-0.108-2.365      c-0.043-0.788-0.077-1.576-0.039-2.367c0.028-1.582,0.053-3.163,0.222-4.729c0.111-1.572,0.3-3.136,0.487-4.7      C122.169,142.409,125.254,130.152,129.133,118.197z"/>
			</g>
		</g>
        <g>
			<g>
				<path style="fill:#42757E;" d="M98.196,270.428c-6.801-16.936-10.883-35.01-12.698-53.315      c-1.885-18.32-1.269-36.911,1.388-55.184c2.832-18.182,7.391-35.534,6.891-52.881c-0.195-8.6-2.195-17.236-4.13-26.154      c-1.81-8.884-3.528-18.261-2.161-27.359c1.623,18.224,12.018,33.578,14.037,52.939c2.165,19.039-2.289,37.402-4.8,54.939      c-2.748,17.567-3.765,35.381-3.501,53.242C93.554,234.53,95.378,252.417,98.196,270.428z"/>
                <path style="fill:#355E60;" d="M99.369,274.692l-1.637-4.077c-6.548-16.308-10.832-34.291-12.731-53.453      c-1.829-17.775-1.361-36.383,1.392-55.305c0.769-4.939,1.675-9.868,2.551-14.634c2.416-13.148,4.698-25.568,4.335-38.161      c-0.181-7.992-1.91-15.922-3.739-24.317l-0.38-1.746c-1.913-9.388-3.517-18.553-2.166-27.539l0.622-4.135l0.371,4.165      c0.806,9.042,3.736,17.233,6.838,25.904c3.04,8.496,6.182,17.281,7.198,27.027c1.714,15.075-0.697,29.693-3.03,43.83      c-0.611,3.7-1.242,7.526-1.772,11.232c-2.597,16.598-3.772,34.482-3.496,53.164c0.31,16.757,1.935,34.324,4.967,53.704      L99.369,274.692z M87.551,60.002c-0.362,7.434,1.006,15.036,2.586,22.791l0.379,1.738c1.84,8.443,3.579,16.419,3.762,24.504      c0.366,12.696-1.926,25.166-4.352,38.367c-0.874,4.76-1.779,9.682-2.545,14.603c-2.74,18.836-3.206,37.361-1.385,55.056      c1.726,17.413,5.43,33.845,11.019,48.918c-2.599-17.65-4.005-33.826-4.291-49.316c-0.277-18.74,0.903-36.682,3.507-53.329      c0.531-3.71,1.164-7.541,1.775-11.247c2.321-14.069,4.722-28.618,3.023-43.559c-1.004-9.631-4.127-18.358-7.146-26.799      C91.267,74.423,88.774,67.454,87.551,60.002z"/>
			</g>
            <g>
				<path style="fill:#355E60;" d="M87.487,55.534c0.044,4.275,0.316,8.554,0.943,12.779c0.325,2.108,0.742,4.21,1.408,6.23      c0.693,2.019,1.368,4.056,1.987,6.105c2.407,8.215,4.247,16.616,5.119,25.15c0.428,4.265,0.559,8.572,0.217,12.859      c-0.175,2.141-0.511,4.278-0.861,6.377l-0.97,6.337c-1.228,8.46-2.279,16.947-3.14,25.451      c-1.796,16.998-2.959,34.085-2.809,51.182c0.065,8.546,0.542,17.092,1.594,25.572c1.083,8.458,2.747,16.929,6.123,24.809      c-3.489-7.832-5.281-16.301-6.487-24.762c-1.106-8.493-1.618-17.055-1.729-25.613c-0.233-17.124,0.843-34.238,2.564-51.265      c0.904-8.511,1.998-17.001,3.269-25.465l1.003-6.341c0.363-2.116,0.703-4.209,0.886-6.328c0.359-4.24,0.251-8.52-0.154-12.765      c-0.823-8.496-2.626-16.885-4.974-25.095c-0.588-2.055-1.23-4.087-1.897-6.123c-0.644-2.054-1.032-4.169-1.328-6.289      C87.682,64.093,87.47,59.81,87.487,55.534z"/>
			</g>
		</g>
        <g>
			<g>
				<path style="fill:#6CBDBD;" d="M88.849,269.329c-6.091-6.693-10.216-15.227-12.64-24.054c-2.49-8.853-3.385-18.034-3.525-27.083      c-0.075-9.101,0.856-18.001,1.303-26.662c0.383-8.687,0.163-17.281-2.627-25.895c5.637,7.206,7.805,16.785,8.453,25.792      c0.737,9.133,0.124,17.999,0.333,26.693c-0.008,8.73,0.531,17.375,1.738,25.933C83.154,252.613,85.396,260.983,88.849,269.329z"/>
                <path style="fill:#42757E;" d="M90.404,271.781l-1.925-2.115c-5.707-6.27-10.116-14.658-12.752-24.258      c-2.223-7.9-3.382-16.801-3.544-27.207c-0.051-6.26,0.374-12.461,0.785-18.458c0.186-2.712,0.378-5.517,0.518-8.238      c0.34-7.691,0.296-16.763-2.603-25.715l-0.87-2.686l1.74,2.224c4.882,6.243,7.762,15.012,8.557,26.064      c0.461,5.706,0.396,11.354,0.333,16.815c-0.038,3.26-0.077,6.63,0.002,9.902c-0.009,8.958,0.574,17.659,1.733,25.875      c1.31,8.814,3.578,17.043,6.933,25.156L90.404,271.781z M72.675,168.368c2.113,8.143,2.118,16.223,1.81,23.184      c-0.141,2.734-0.333,5.543-0.52,8.259c-0.41,5.978-0.833,12.159-0.782,18.377c0.16,10.315,1.308,19.132,3.507,26.952      c2.285,8.32,5.915,15.708,10.573,21.555c-2.777-7.279-4.705-14.692-5.876-22.569c-1.166-8.267-1.752-17.015-1.743-26.007      c-0.079-3.277-0.04-6.657-0.002-9.925c0.063-5.439,0.128-11.063-0.33-16.727C78.63,181.983,76.4,174.232,72.675,168.368z"/>
			</g>
            <g>
				<path style="fill:#589C9E;" d="M71.358,165.635c3.622,7.332,5.739,15.495,5.722,23.745c-0.043,4.109-0.307,8.19-0.441,12.281      c-0.158,4.089-0.266,8.178-0.3,12.267c-0.113,8.175,0.088,16.365,1.007,24.482c0.457,4.056,1.144,8.094,2.264,12.018      c0.56,1.959,1.211,3.902,2.112,5.733c0.886,1.831,1.964,3.596,3.4,5.064c-1.48-1.425-2.617-3.166-3.564-4.983      c-0.962-1.818-1.676-3.754-2.299-5.71c-1.201-3.932-1.956-7.984-2.485-12.053c-1.042-8.147-1.238-16.368-1.183-24.561      c0.088-8.195,0.599-16.387,0.916-24.549c0.078-4.066-0.371-8.147-1.28-12.125C74.349,173.262,73.094,169.343,71.358,165.635z"/>
			</g>
		</g>
        <g>
			<g>
				<path style="fill:#589C9E;" d="M87.441,269.697c5.192-12.178,6.239-24.916,5.427-37.437c-0.889-12.531-3.759-24.913-6.746-37.56      c-2.795-12.654-5.823-25.747-5.997-39.301c-0.29-13.37,2.17-27.513,9.687-38.557c-3.639,12.723-3.541,25.469-1.939,37.997      c1.68,12.524,4.946,24.889,7.947,37.643c2.804,12.743,5.471,26.074,4.786,39.705C100.068,245.613,96.271,259.648,87.441,269.697      z"/>
                <path style="fill:#3A6676;" d="M85.758,272.37l1.223-2.869c4.556-10.685,6.318-22.856,5.389-37.209      c-0.909-12.814-4.003-25.917-6.734-37.477l-0.373-1.686c-2.689-12.151-5.47-24.716-5.637-37.724      c-0.235-10.823,1.27-26.353,9.773-38.844l1.749-2.569l-0.854,2.988c-3.186,11.137-3.797,23.147-1.924,37.795      c1.373,10.237,3.766,20.188,6.298,30.723c0.548,2.279,1.098,4.567,1.64,6.868c2.918,13.265,5.48,26.288,4.798,39.845      c-0.616,15.332-5.336,28.764-13.29,37.815L85.758,272.37z M88.504,119.858c-6.838,11.75-8.092,25.628-7.878,35.53      c0.165,12.909,2.935,25.423,5.613,37.524l0.372,1.68c2.737,11.59,5.841,24.734,6.756,37.632      c0.854,13.171-0.539,24.534-4.255,34.618c6.564-8.771,10.443-20.939,10.995-34.676c0.676-13.439-1.873-26.39-4.774-39.578      c-0.54-2.292-1.089-4.579-1.637-6.856c-2.539-10.561-4.937-20.536-6.318-30.827C85.662,141.484,86.014,130.246,88.504,119.858z"/>
			</g>
            <g>
				<path style="fill:#42757E;" d="M89.813,116.841c-2.877,5.834-4.549,12.194-5.49,18.596c-0.953,6.412-1.035,12.948-0.294,19.382      c0.366,3.219,0.985,6.402,1.646,9.581l2.05,9.527c1.388,6.349,2.75,12.707,3.984,19.093c2.37,12.782,4.319,25.687,4.82,38.703      c0.22,6.501,0.09,13.041-0.896,19.487c-1.034,6.395-2.898,12.855-6.785,18.117c3.785-5.334,5.512-11.791,6.422-18.172      c0.928-6.42,1.024-12.935,0.76-19.413c-0.582-12.972-2.616-25.835-5.056-38.584c-1.191-6.384-2.511-12.745-3.858-19.102      l-1.99-9.546c-0.64-3.186-1.244-6.394-1.591-9.637C82.149,141.947,83.968,128.49,89.813,116.841z"/>
			</g>
		</g>
        <g>
			<g>
				<path style="fill:#589C9E;" d="M108.068,268.29c0.47-2.123,1.164-4.129,1.485-6.249c0.196-1.046,0.455-2.067,0.615-3.113      l0.44-3.134c0.466-4.185,0.785-8.343,0.691-12.517c0.041-2.075-0.125-4.165-0.194-6.234c-0.201-2.08-0.267-4.146-0.548-6.218      c-0.413-4.135-1.087-8.26-1.784-12.373c-1.485-8.234-3.362-16.405-5.343-24.687c-0.994-4.145-1.925-8.334-2.852-12.549      c-0.91-4.213-1.694-8.496-2.441-12.795c-0.657-4.326-1.253-8.68-1.612-13.097c-0.301-4.419-0.527-8.871-0.326-13.359      c0.034-2.236,0.281-4.486,0.448-6.724c0.131-1.12,0.278-2.241,0.438-3.358l0.24-1.674l0.325-1.667      c0.224-1.11,0.421-2.222,0.67-3.325l0.85-3.291c0.573-2.19,1.313-4.332,2.071-6.422c3.115-8.356,7.158-15.878,10.398-23.578      c3.25-7.684,5.756-15.707,5.716-24.364c0.626,2.068,0.989,4.221,1.236,6.399c0.206,2.18,0.24,4.385,0.153,6.589      c-0.171,4.416-0.963,8.784-1.983,13.052c-2.087,8.544-5.22,16.589-7.306,24.521c-4.266,15.686-3.172,32.095-0.497,48.546      c0.666,4.127,1.405,8.253,2.219,12.407l2.403,12.537c1.606,8.422,3.006,17.037,3.716,25.752      c0.166,2.184,0.309,4.367,0.371,6.563l0.092,3.29c0.015,1.098-0.024,2.202-0.033,3.3c0,2.193-0.174,4.403-0.297,6.594      c-0.255,2.198-0.391,4.387-0.784,6.565C115.347,252.38,112.552,260.918,108.068,268.29z"/>
                <path style="fill:#3A6676;" d="M106.929,271.125l0.651-2.943c0.184-0.831,0.401-1.644,0.618-2.452      c0.344-1.282,0.669-2.494,0.861-3.764c0.081-0.435,0.169-0.849,0.257-1.262c0.131-0.616,0.263-1.229,0.357-1.852l0.439-3.128      c0.556-4.994,0.768-8.833,0.687-12.436c0.027-1.422-0.042-2.86-0.108-4.251c-0.032-0.661-0.063-1.32-0.086-1.978      c-0.077-0.776-0.134-1.581-0.192-2.385c-0.089-1.242-0.182-2.525-0.352-3.781c-0.415-4.147-1.079-8.21-1.782-12.356      c-1.507-8.36-3.455-16.79-5.336-24.655c-1.037-4.325-2.017-8.75-2.854-12.558c-0.988-4.572-1.826-9.251-2.445-12.817      c-0.585-3.853-1.233-8.419-1.618-13.142c-0.291-4.273-0.532-8.851-0.327-13.421c0.025-1.627,0.165-3.294,0.3-4.907      c0.052-0.611,0.103-1.222,0.148-1.832c0.133-1.145,0.282-2.271,0.441-3.391l0.24-1.675l0.553-2.831      c0.142-0.735,0.284-1.47,0.449-2.201l0.854-3.306c0.595-2.274,1.354-4.452,2.085-6.467c1.871-5.02,4.088-9.764,6.23-14.353      c1.48-3.169,2.878-6.162,4.177-9.248c3.96-9.361,5.711-16.814,5.676-24.168l-0.016-3.434l0.995,3.286      c0.565,1.869,0.964,3.93,1.254,6.488c0.199,2.099,0.25,4.276,0.156,6.664c-0.151,3.908-0.786,8.086-1.996,13.149      c-1.14,4.666-2.598,9.207-4.007,13.598c-1.211,3.769-2.354,7.33-3.302,10.935c-4.629,17.025-2.692,34.775-0.486,48.338      c0.659,4.081,1.404,8.25,2.216,12.392l2.404,12.539c1.958,10.269,3.106,18.228,3.723,25.806c0.146,1.93,0.305,4.22,0.373,6.59      l0.092,3.29c0.01,0.728-0.003,1.451-0.016,2.173c-0.007,0.382-0.014,0.765-0.017,1.146c0,1.705-0.106,3.441-0.209,5.12      l-0.089,1.497c-0.082,0.716-0.15,1.401-0.218,2.086c-0.147,1.487-0.3,3.025-0.573,4.54c-1.366,9.161-4.355,17.735-8.642,24.782      L106.929,271.125z M117.715,71.323c-0.629,8.076-3.271,15.256-5.615,20.798c-1.306,3.104-2.773,6.245-4.192,9.283      c-2.135,4.571-4.342,9.297-6.198,14.274c-0.722,1.988-1.472,4.14-2.056,6.374l-0.85,3.29c-0.158,0.706-0.298,1.431-0.439,2.156      l-0.549,2.807l-0.235,1.65c-0.158,1.112-0.306,2.229-0.436,3.345c-0.043,0.592-0.095,1.206-0.147,1.82      c-0.134,1.596-0.273,3.245-0.297,4.854c-0.203,4.536,0.036,9.08,0.325,13.316c0.381,4.687,1.026,9.23,1.607,13.056      c0.617,3.546,1.452,8.211,2.436,12.765c0.836,3.802,1.815,8.222,2.85,12.538c1.884,7.879,3.836,16.326,5.349,24.715      c0.706,4.169,1.374,8.251,1.789,12.412c0.172,1.27,0.266,2.57,0.356,3.827c0.057,0.796,0.115,1.593,0.192,2.392      c0.024,0.685,0.056,1.339,0.087,1.995c0.068,1.407,0.138,2.862,0.11,4.297c0.082,3.627-0.132,7.508-0.694,12.562l-0.442,3.148      c-0.099,0.647-0.233,1.28-0.369,1.915c-0.086,0.405-0.173,0.81-0.249,1.22c-0.132,0.872-0.33,1.739-0.547,2.59      c3.229-6.242,5.512-13.466,6.653-21.118c0.269-1.491,0.42-3.008,0.565-4.476c0.068-0.69,0.137-1.381,0.217-2.073l0.086-1.473      c0.102-1.665,0.207-3.385,0.207-5.064c0.003-0.389,0.01-0.774,0.017-1.159c0.013-0.712,0.026-1.424,0.016-2.134l-0.092-3.283      c-0.066-2.349-0.225-4.624-0.37-6.539c-0.614-7.539-1.758-15.465-3.709-25.697l-2.403-12.537      c-0.813-4.15-1.561-8.331-2.221-12.422c-2.221-13.662-4.171-31.55,0.508-48.756c0.954-3.627,2.101-7.2,3.315-10.982      c1.404-4.374,2.856-8.897,3.987-13.527c1.195-4.995,1.82-9.112,1.969-12.953c0.092-2.343,0.042-4.477-0.151-6.522      C117.984,73.046,117.859,72.157,117.715,71.323z"/>
			</g>
            <g>
				<path style="fill:#42757E;" d="M117.355,67.562c0.275,8.498-0.683,17.069-3.073,25.262c-1.216,4.101-3.074,7.962-4.794,11.842      c-1.738,3.88-3.403,7.791-4.748,11.815c-1.366,4.015-2.387,8.146-3.024,12.336l-0.255,1.569      c-0.072,0.525-0.116,1.053-0.175,1.58c-0.105,1.054-0.238,2.106-0.32,3.162c-0.086,2.118-0.271,4.232-0.207,6.353      c0.01,1.06-0.001,2.12,0.027,3.179l0.184,3.175c0.073,2.12,0.383,4.223,0.592,6.333c0.523,4.209,1.265,8.389,2.095,12.558      c3.239,16.676,7.633,33.195,9.468,50.16c0.921,8.466,1.192,17.025,0.427,25.515c-0.786,8.484-2.617,16.862-5.449,24.888      c2.717-8.067,4.423-16.454,5.084-24.92c0.71-8.465,0.406-16.992-0.556-25.428c-1.911-16.907-6.384-33.375-9.707-50.072      c-1.655-8.346-2.846-16.848-2.786-25.391c-0.053-2.135,0.143-4.265,0.241-6.397c0.088-1.063,0.227-2.123,0.338-3.184      c0.063-0.53,0.11-1.062,0.185-1.59l0.264-1.579c0.662-4.217,1.712-8.374,3.106-12.406c1.373-4.041,3.064-7.96,4.823-11.834      c1.746-3.881,3.602-7.711,4.841-11.772C116.426,84.605,117.509,76.061,117.355,67.562z"/>
			</g>
		</g>
        <g>
			<g>
				<path style="fill:#589C9E;" d="M120.472,268.624c2.741-9.11,4.428-18.163,5.049-27.264c0.565-9.09,0.216-18.191-1.163-27.16      c-0.639-4.354-1.533-9.368-1.905-14.114c-0.26-4.835-0.398-9.707,0.165-14.561c0.923-9.647,4.211-19.461,10.555-26.645      c-3.656,8.813-4.907,17.858-4.766,26.918c0.143,9.162,1.565,17.87,3.33,27.307c1.353,9.606,1.387,19.456-0.434,28.997      C129.546,251.618,126.029,260.871,120.472,268.624z"/>
                <path style="fill:#3A6676;" d="M119.127,271.359l0.866-2.879c2.726-9.059,4.418-18.195,5.029-27.154      c0.573-9.222,0.184-18.324-1.158-27.05c-0.154-1.051-0.323-2.137-0.496-3.248c-0.556-3.58-1.13-7.281-1.414-10.903      c-0.252-4.7-0.407-9.718,0.167-14.657c1.026-10.721,4.818-20.284,10.677-26.919l1.987-2.25l-1.15,2.772      c-3.336,8.04-4.882,16.779-4.728,26.719c0.148,9.524,1.722,18.671,3.321,27.223c1.448,10.28,1.301,20.091-0.434,29.182      c-1.87,10.124-5.645,19.365-10.916,26.72L119.127,271.359z M131.561,161.688c-4.59,6.285-7.56,14.638-8.445,23.886      c-0.566,4.875-0.413,9.842-0.163,14.486c0.28,3.572,0.851,7.254,1.404,10.815c0.173,1.114,0.342,2.203,0.496,3.253      c1.352,8.793,1.745,17.967,1.167,27.264c-0.548,8.027-1.955,16.191-4.188,24.315c4.267-6.762,7.353-14.885,8.98-23.696      c1.715-8.986,1.859-18.687,0.43-28.836c-1.603-8.572-3.184-17.766-3.334-27.369      C127.771,176.948,128.968,169.024,131.561,161.688z"/>
			</g>
            <g>
				<path style="fill:#42757E;" d="M133.174,158.881c-2.438,4.018-4.231,8.403-5.518,12.902c-1.331,4.491-2.043,9.157-2.147,13.826      c-0.072,4.664,0.621,9.33,1.201,13.984c0.619,4.656,1.253,9.317,1.744,13.998c0.933,9.356,1.339,18.829,0.27,28.208      c-0.523,4.684-1.431,9.328-2.78,13.842c-1.369,4.507-3.183,8.878-5.472,12.983c2.182-4.164,3.875-8.568,5.12-13.085      c1.27-4.512,2.109-9.139,2.559-13.802c0.944-9.33,0.547-18.746-0.441-28.07c-0.468-4.669-1.078-9.324-1.675-13.987      c-0.294-2.332-0.582-4.667-0.81-7.012c-0.224-2.342-0.395-4.708-0.29-7.074C125.272,176.15,128.169,166.832,133.174,158.881z"/>
			</g>
		</g>
        <g>
			<g>
				<path style="fill:#6CBDBD;" d="M109.929,270.188c-3.464-5.199-6.25-10.849-8.544-16.713c-2.271-5.87-4.022-11.989-5.1-18.314      c-0.534-3.159-0.9-6.381-0.978-9.598l-0.112-2.418l-0.052-1.211l0.035-1.201l0.148-4.812c0.432-6.373,1.276-12.706,2.574-18.834      c2.478-12.322,6.196-24.04,9.206-35.76c1.605-5.858,2.837-11.726,3.928-17.683c1.064-5.967,1.524-11.996,1.83-18.255      c0.798,2.984,1.77,6.032,2.117,9.15c0.217,1.554,0.513,3.126,0.609,4.695l0.283,4.731c0.126,6.304-0.245,12.663-1.152,18.854      c-1.686,12.447-4.772,24.424-7.153,36.233l-0.906,4.423l-0.756,4.414c-0.296,1.47-0.496,2.937-0.688,4.405      c-0.182,1.467-0.439,2.94-0.585,4.404l-0.415,4.4l-0.104,1.102l-0.041,1.097l-0.09,2.197c-0.165,2.937-0.161,5.866-0.01,8.822      c0.273,5.909,1.034,11.879,2.061,17.861C107.05,258.164,108.425,264.128,109.929,270.188z"/>
                <path style="fill:#42757E;" d="M111.107,272.857l-1.594-2.392c-3.289-4.938-6.1-10.435-8.594-16.809      c-2.359-6.096-4.084-12.29-5.127-18.412c-0.589-3.486-0.912-6.649-0.985-9.67l-0.163-3.619l0.183-6.051      c0.445-6.56,1.314-12.92,2.584-18.922c1.651-8.207,3.873-16.23,6.023-23.989c1.072-3.869,2.181-7.87,3.188-11.792      c1.417-5.174,2.662-10.779,3.92-17.648c1.132-6.346,1.557-12.756,1.823-18.19l0.157-3.195l0.826,3.091      c0.156,0.582,0.318,1.168,0.482,1.756c0.671,2.419,1.366,4.921,1.649,7.468c0.058,0.414,0.123,0.842,0.189,1.272      c0.173,1.126,0.351,2.29,0.422,3.448l0.283,4.732c0.129,6.465-0.26,12.836-1.157,18.957c-1.169,8.631-3.026,17.109-4.822,25.308      c-0.788,3.6-1.604,7.321-2.335,10.951l-0.907,4.425l-0.753,4.398c-0.293,1.461-0.492,2.908-0.686,4.386      c-0.073,0.591-0.159,1.187-0.245,1.782c-0.125,0.87-0.251,1.74-0.338,2.607l-0.519,5.499l-0.129,3.267      c-0.162,2.88-0.165,5.748-0.01,8.776c0.248,5.367,0.919,11.189,2.054,17.802c1.098,6.455,2.583,12.709,3.89,17.975      L111.107,272.857z M113.197,128.489c-0.282,4.736-0.738,10.004-1.672,15.242c-1.264,6.9-2.515,12.533-3.937,17.727      c-1.008,3.923-2.117,7.929-3.19,11.803c-2.145,7.742-4.363,15.748-6.008,23.924c-1.262,5.961-2.124,12.274-2.565,18.769      l-0.182,5.995l0.163,3.591c0.073,2.983,0.391,6.1,0.972,9.538c1.032,6.056,2.739,12.185,5.074,18.217      c2.045,5.228,4.305,9.858,6.871,14.068c-1.113-4.604-2.277-9.782-3.182-15.101c-1.142-6.653-1.818-12.516-2.068-17.922      c-0.157-3.061-0.153-5.965,0.011-8.873l0.13-3.284l0.521-5.53c0.088-0.884,0.215-1.768,0.343-2.653      c0.085-0.588,0.17-1.177,0.243-1.765c0.196-1.5,0.397-2.965,0.694-4.443l0.754-4.4l0.909-4.439      c0.733-3.637,1.549-7.362,2.338-10.966c1.791-8.18,3.645-16.638,4.809-25.233c0.889-6.072,1.275-12.388,1.148-18.778      l-0.282-4.711c-0.068-1.112-0.243-2.253-0.412-3.357c-0.066-0.434-0.133-0.867-0.193-1.299      C114.255,132.542,113.743,130.491,113.197,128.489z"/>
			</g>
            <g>
				<path style="fill:#589C9E;" d="M112.863,125.387c0.493,6.149,0.659,12.325,0.523,18.499c-0.198,6.167-0.673,12.355-1.991,18.416      c-1.346,6.044-3.277,11.916-5.019,17.827c-1.77,5.904-3.415,11.843-4.678,17.866c-2.607,12.021-3.414,24.448-1.992,36.676      c0.675,6.115,1.891,12.17,3.565,18.097c1.643,5.936,3.727,11.752,6.146,17.426c-2.531-5.625-4.733-11.405-6.498-17.325      c-1.752-5.923-3.035-11.991-3.785-18.13c-1.552-12.283-0.731-24.808,1.83-36.899c1.292-6.049,2.965-12.003,4.758-17.907      c1.778-5.907,3.685-11.778,5.109-17.758c1.375-5.988,1.915-12.152,2.187-18.301      C113.277,137.718,113.234,131.544,112.863,125.387z"/>
			</g>
		</g>
        <g>
			<g>
				<g>
					<path style="fill:#B0B6B0;" d="M114.217,248.069c-3.132-2.4-8.324-3.247-11.728-1.113c-0.842,0.528-1.517,1.188-2.095,1.916       c-1.105,1.392-3.104,1.915-4.947,1.406c-2.095-0.579-4.437-0.547-6.438,0.222c-3.097,1.19-5.099,4.154-4.494,6.924       c0.76,3.478,4.966,5.719,9.072,6.747c5.542,1.388,11.452,1.346,17.234,1.057c4.98-0.25,9.728-1.877,9.37-6.72       C119.936,255.074,117.24,250.385,114.217,248.069z"/>
                    <path style="fill:#767A75;" d="M105.108,265.892c-3.897,0-7.849-0.286-11.643-1.236c-5.221-1.308-8.75-3.971-9.438-7.125       c-0.65-2.973,1.415-6.196,4.803-7.498c2.023-0.776,4.484-0.863,6.751-0.237c1.687,0.465,3.465-0.03,4.422-1.235       c0.676-0.852,1.403-1.516,2.221-2.029c3.721-2.333,9.174-1.252,12.298,1.14l0,0c3.138,2.405,5.905,7.249,6.168,10.799       c0.124,1.684-0.322,3.114-1.326,4.252c-1.969,2.229-5.718,2.864-8.517,3.004C108.964,265.822,107.043,265.892,105.108,265.892z        M92.51,250.38c-1.167,0-2.307,0.196-3.323,0.587c-2.931,1.126-4.729,3.856-4.185,6.35c0.606,2.775,3.86,5.155,8.705,6.369       c5.551,1.39,11.493,1.323,17.087,1.042c2.607-0.13,6.08-0.699,7.818-2.667c0.82-0.928,1.183-2.111,1.079-3.516       c-0.245-3.304-2.837-7.826-5.779-10.08c-2.853-2.186-7.806-3.188-11.158-1.086c-0.721,0.452-1.365,1.042-1.969,1.803       c-1.203,1.515-3.401,2.148-5.472,1.577C94.396,250.506,93.445,250.38,92.51,250.38z"/>
				</g>
                <g>
					<path style="fill:#9DA29D;" d="M129.821,250.424c-3.714-2.39-8.778-3.057-13.137-1.73c-3.161,0.963-5.856,2.864-8.958,3.97       c-2.411,0.86-5.047,1.22-7.635,1.043c-2.778-0.189-20.556,3.475-20.778,6.219c-0.074,0.916-5.118,8.347,30.104,10.267       c7.33,0.4,15.014,0.482,21.545-2.507c3.725-1.705,5.542-4.066,4.736-7.629C134.824,256.188,133.624,252.872,129.821,250.424z"/>
                    <path style="fill:#767A75;" d="M115.635,270.893c-2.13,0-4.23-0.091-6.245-0.201c-17.369-0.947-27.52-3.358-30.169-7.166       c-1.06-1.523-0.639-2.879-0.459-3.459c0.025-0.08,0.047-0.145,0.055-0.192c0.277-3.421,18.882-6.815,21.309-6.668       c2.517,0.174,5.087-0.179,7.433-1.015c1.397-0.498,2.747-1.179,4.051-1.838c1.564-0.79,3.182-1.607,4.93-2.14       c4.51-1.373,9.704-0.688,13.553,1.788l0,0c4.155,2.674,5.289,6.378,6.095,9.944c0.813,3.597-0.828,6.277-5.016,8.194       C126.373,270.337,120.911,270.893,115.635,270.893z M99.707,254.195c-4.204,0-19.739,3.845-19.895,5.771       c-0.01,0.12-0.048,0.242-0.096,0.397c-0.17,0.55-0.455,1.47,0.325,2.592c1.695,2.436,8.171,5.582,29.403,6.739       c6.886,0.374,14.781,0.525,21.31-2.463c3.743-1.713,5.159-3.958,4.456-7.064c-0.927-4.104-2.198-7.095-5.661-9.324       c-3.609-2.322-8.483-2.962-12.721-1.672c-1.665,0.507-3.244,1.304-4.77,2.075c-1.332,0.672-2.709,1.368-4.166,1.888       c-2.474,0.882-5.185,1.251-7.837,1.071C99.952,254.199,99.835,254.195,99.707,254.195z"/>
				</g>
                <g>
					<path style="fill:#B0B6B0;" d="M139.804,262.451c2.936,3.071,4.193,7.105,3.866,10.997c-0.042,0.499-0.125,1.03-0.519,1.412       c-0.481,0.467-1.287,0.584-2.026,0.667c-9.331,1.042-18.798,1.262-28.186,0.655c-0.86-0.056-1.817-0.159-2.36-0.709       c-0.365-0.369-0.46-0.866-0.521-1.339c-0.302-2.34-0.083-4.725,0.644-7c0.701-2.195,1.922-4.343,3.96-5.876       c3.362-2.528,8.841-2.902,13.18-3.464C132.417,257.2,137.051,259.571,139.804,262.451z"/>
                    <path style="fill:#767A75;" d="M123.3,277.015c-3.47,0-6.938-0.112-10.393-0.335c-0.95-0.061-2.019-0.184-2.684-0.856       c-0.457-0.463-0.587-1.056-0.662-1.627c-0.313-2.428-0.09-4.856,0.664-7.216c0.841-2.632,2.232-4.692,4.136-6.124       c3.069-2.308,7.723-2.87,11.828-3.365c0.542-0.065,1.073-0.129,1.588-0.196c5.117-0.665,9.871,2.176,12.388,4.809       c2.897,3.03,4.355,7.179,4.002,11.385c-0.051,0.611-0.168,1.243-0.668,1.729c-0.586,0.569-1.466,0.71-2.318,0.805       C135.263,276.684,129.28,277.015,123.3,277.015z M129.306,258.199c-0.462,0-0.929,0.029-1.399,0.09       c-0.518,0.067-1.052,0.131-1.597,0.197c-3.98,0.48-8.492,1.024-11.347,3.171c-1.734,1.305-3.008,3.199-3.785,5.629       c-0.709,2.22-0.919,4.503-0.624,6.784c0.061,0.473,0.146,0.813,0.381,1.052c0.417,0.423,1.27,0.511,2.036,0.561       c9.349,0.604,18.804,0.385,28.098-0.653c0.68-0.076,1.373-0.179,1.733-0.528c0.251-0.243,0.327-0.599,0.369-1.095       c0.329-3.92-1.03-7.787-3.729-10.609l0,0C137.321,260.577,133.511,258.199,129.306,258.199z"/>
				</g>
                <g>
					<path style="fill:#9DA29D;" d="M99.703,257.236c-4.871-0.355-9.878,1.627-12.302,4.785c-0.663,0.864-1.365,1.927-2.693,2.052       c-0.878,0.083-1.699-0.296-2.468-0.621c-1.9-0.805-4.032-1.375-6.22-1.373c-2.188,0.002-4.433,0.631-5.822,1.886       c-1.189,1.074-1.685,2.515-2.97,3.526c-1.318,1.037-3.262,1.469-4.893,2.222c-1.632,0.753-3.072,2.184-2.396,3.519       c0.62,1.224,2.614,1.656,4.344,1.901c14.409,2.042,29.241,2.432,43.808,1.151c1.219-0.107,2.496-0.244,3.476-0.793       c1.465-0.822,1.857-2.331,1.845-3.695c-0.028-3.189-2.043-6.272-3.689-9.146C108.037,259.705,103.972,257.547,99.703,257.236z"/>
                    <path style="fill:#747774;" d="M91.196,277.525c-9.039,0-18.064-0.633-26.983-1.897c-1.929-0.273-3.998-0.745-4.72-2.171       c-0.26-0.514-0.294-1.083-0.098-1.647c0.335-0.964,1.356-1.917,2.731-2.552c0.577-0.266,1.192-0.494,1.786-0.713       c1.133-0.419,2.203-0.815,3.007-1.448c0.628-0.494,1.056-1.109,1.51-1.76c0.412-0.592,0.839-1.205,1.435-1.744       c1.394-1.26,3.695-2.013,6.156-2.015c0.003,0,0.006,0,0.009,0c2.038,0,4.193,0.476,6.406,1.413l0.141,0.06       c0.681,0.291,1.384,0.59,2.086,0.524c1.007-0.096,1.607-0.888,2.188-1.655l0.156-0.204c2.527-3.294,7.764-5.346,12.734-4.98       h0.001c4.479,0.327,8.665,2.603,10.418,5.664l0.54,0.933c1.567,2.694,3.189,5.479,3.214,8.457       c0.017,1.926-0.709,3.356-2.1,4.135c-1.037,0.582-2.331,0.736-3.677,0.855C102.5,277.277,96.844,277.525,91.196,277.525z        M76.029,262.579c-0.002,0-0.005,0-0.008,0c-2.22,0.001-4.271,0.658-5.487,1.757c-0.511,0.462-0.887,1.002-1.285,1.573       c-0.475,0.683-0.966,1.389-1.712,1.975c-0.928,0.73-2.123,1.172-3.279,1.6c-0.576,0.213-1.172,0.434-1.714,0.684       c-1.099,0.507-1.965,1.281-2.206,1.972c-0.107,0.309-0.092,0.593,0.046,0.867c0.522,1.033,2.515,1.426,3.968,1.632       c14.416,2.043,29.118,2.429,43.694,1.148c1.233-0.109,2.411-0.247,3.275-0.731c1.069-0.599,1.604-1.694,1.589-3.254       c-0.023-2.713-1.577-5.382-3.079-7.963l-0.544-0.939c-1.595-2.785-5.462-4.861-9.623-5.165       c-4.654-0.343-9.534,1.549-11.869,4.591l-0.151,0.2c-0.644,0.85-1.446,1.909-2.89,2.046c-0.955,0.097-1.813-0.276-2.572-0.6       l-0.138-0.059C79.956,263.028,77.932,262.579,76.029,262.579z"/>
				</g>
			</g>
		</g>
        <g>
			<path style="fill:#767A75;" d="M110.532,248.964c-0.059,0-0.119-0.01-0.177-0.032c-1.374-0.52-2.816-0.787-4.285-0.793     c-0.276-0.001-0.499-0.226-0.498-0.502c0.001-0.276,0.273-0.515,0.502-0.498c1.589,0.007,3.149,0.295,4.635,0.857     c0.258,0.098,0.389,0.387,0.291,0.645C110.925,248.841,110.734,248.964,110.532,248.964z"/>
		</g>
        <g>
			<path style="fill:#767A75;" d="M107.82,250.478c-0.07,0-0.141-0.015-0.208-0.045c-0.905-0.415-1.914-0.595-2.899-0.528     c-0.283,0.026-0.515-0.189-0.534-0.463c-0.019-0.276,0.188-0.515,0.464-0.534c1.156-0.085,2.33,0.132,3.386,0.616     c0.251,0.115,0.361,0.412,0.246,0.663C108.191,250.37,108.009,250.478,107.82,250.478z"/>
		</g>
        <g>
			<path style="fill:#747774;" d="M70.944,268.638c-0.119,0-0.237-0.042-0.333-0.126c-0.206-0.184-0.225-0.5-0.041-0.706     c0.843-0.947,1.93-1.645,3.142-2.016c0.35-0.107,0.71-0.187,1.071-0.266c0.642-0.141,1.248-0.274,1.768-0.569     c0.242-0.136,0.545-0.052,0.682,0.188c0.137,0.24,0.053,0.545-0.188,0.682c-0.651,0.371-1.361,0.526-2.048,0.677     c-0.334,0.073-0.668,0.146-0.992,0.246c-1.037,0.317-1.966,0.914-2.688,1.725C71.218,268.581,71.081,268.638,70.944,268.638z"/>
		</g>
        <g>
			<path style="fill:#747774;" d="M72.968,269.641c-0.182,0-0.357-0.1-0.446-0.273c-0.126-0.246-0.028-0.547,0.218-0.672     l2.575-1.315c0.247-0.125,0.547-0.027,0.673,0.218c0.125,0.246,0.028,0.547-0.218,0.673l-2.576,1.315     C73.122,269.623,73.044,269.641,72.968,269.641z"/>
		</g>
        <g>
			<path style="fill:#767A75;" d="M135.852,265.128c-0.174,0-0.343-0.09-0.435-0.252c-0.739-1.295-1.811-2.375-3.101-3.122     c-0.239-0.139-0.32-0.444-0.182-0.684c0.138-0.239,0.443-0.321,0.684-0.182c1.442,0.836,2.641,2.043,3.467,3.492     c0.137,0.24,0.054,0.545-0.187,0.682C136.021,265.107,135.936,265.128,135.852,265.128z"/>
		</g>
        <g>
			<path style="fill:#767A75;" d="M134.751,268.663c-0.218,0-0.419-0.144-0.481-0.365c-0.461-1.645-1.335-3.161-2.526-4.385     c-0.192-0.198-0.188-0.514,0.01-0.707c0.197-0.192,0.514-0.189,0.707,0.01c1.307,1.342,2.266,3.006,2.773,4.812     c0.075,0.266-0.081,0.542-0.346,0.617C134.841,268.657,134.796,268.663,134.751,268.663z"/>
		</g>
        <g>
			<path style="fill:#767A75;" d="M112.874,258.077c-0.112,0-0.226-0.038-0.319-0.116l-2.222-1.847     c-0.212-0.176-0.241-0.492-0.064-0.704c0.176-0.211,0.491-0.241,0.704-0.064l2.222,1.847c0.212,0.176,0.241,0.492,0.064,0.704     C113.16,258.015,113.017,258.077,112.874,258.077z"/>
		</g>
        <g>
			<path style="fill:#767A75;" d="M115.187,256.783c-0.069,0-0.139-0.014-0.206-0.045c-1.021-0.463-1.918-1.182-2.592-2.079     c-0.166-0.221-0.122-0.534,0.099-0.7c0.222-0.166,0.535-0.121,0.7,0.099c0.575,0.763,1.338,1.376,2.207,1.77     c0.251,0.114,0.363,0.41,0.248,0.662C115.559,256.674,115.377,256.783,115.187,256.783z"/>
		</g>
        <g>
			<path style="fill:#767A75;" d="M123.948,253.449c-0.276,0-0.5-0.224-0.5-0.5v-0.129c0-0.276,0.224-0.5,0.5-0.5s0.5,0.224,0.5,0.5     v0.129C124.448,253.225,124.224,253.449,123.948,253.449z"/>
		</g>
        <g>
			<path style="fill:#767A75;" d="M138.134,268.795c-0.128,0-0.256-0.049-0.354-0.146l-0.129-0.129     c-0.195-0.195-0.195-0.512,0-0.707c0.195-0.195,0.512-0.195,0.707,0l0.129,0.129c0.195,0.195,0.195,0.512,0,0.707     C138.39,268.746,138.262,268.795,138.134,268.795z"/>
		</g>
        <g>
			<path style="fill:#747774;" d="M69.654,272.019c-0.276,0-0.5-0.224-0.5-0.5v-0.129c0-0.276,0.224-0.5,0.5-0.5     c0.276,0,0.5,0.224,0.5,0.5v0.129C70.154,271.796,69.93,272.019,69.654,272.019z"/>
		</g>
	</g></svg>