<svg version="1.1" x="0px" y="0px" viewBox="268.068 358.684 172.57800000000015 61.20100000000002" style="enable-background:new 0 0 500 500;" xml:space="preserve" id="svg637" sodipodi:docname="fishs1.svg" inkscape:version="1.1 (c68e22c387, 2021-05-23)" xmlns:inkscape="http://www.inkscape.org/namespaces/inkscape" xmlns:sodipodi="http://sodipodi.sourceforge.net/DTD/sodipodi-0.dtd" xmlns="http://www.w3.org/2000/svg" xmlns:svg="http://www.w3.org/2000/svg"><defs id="defs641"/><g id="fish5">
		
        <g id="g573">
			<g id="g565">
				<g id="g437">
					<path style="fill:#6B3D26;" d="M435.161,389.286c0,0,14.661-15.741,32.464-15.603c0,0-4.213,2.309-4.757,5.435       c0,0-4.074,11.01-10.599,12.501c0,0,7.612,2.581,10.737,14.403c0,0,1.492,3.94,4.618,5.98c0,0-18.186-0.568-32.464-18.97       V389.286z" id="path385"/>
                    <path style="fill:#E1C49C;" d="M271.185,391.202c0,0,53.201-41.574,169.462,0c0,0-96.881,35.232-171.578,4.933l5.839-1.059       L271.185,391.202z" id="path387"/>
                    <path style="opacity:0.4;fill:#6B3D26;" d="M316.602,387.696c0,0,12.006-4.831,22.549,1.318c0,0-8.052,8.152-16.984,5.834       C322.166,394.849,317.918,392.82,316.602,387.696z" id="path389"/>
                    <g id="g401">
						<g id="g399">
							<g id="g393">
								<path style="fill:#D5806B;" d="M269.068,396.135c74.697,30.299,171.578-4.933,171.578-4.933          S343.852,415.232,269.068,396.135z" id="path391"/>
							</g>
                            <g id="g397">
								<path style="fill:#E1C49C;" d="M274.907,395.076l-5.839,1.059c12.87,5.221,26.401,8.495,39.979,10.34          c6.569-14.064-2.925-24.128-8.083-28.275c-20.102,5.447-29.779,13.003-29.779,13.003L274.907,395.076z" id="path395"/>
							</g>
						</g>
					</g>
                    <path style="fill:#BF9076;" d="M302.79,393.049c0,0,8.47,4.757,2.136,12.819c2.188,0.346,4.379,0.648,6.57,0.917       c4.182-5.257,10.264-17.263-7.831-29.287c-2.466,0.616-4.791,1.265-6.972,1.936       C300.063,381.783,305.015,386.519,302.79,393.049z" id="path403"/>
                    <g id="g411">
						<g id="g409">
							<g id="g407">
								<path style="fill:#8F6744;" d="M440.646,391.202c-116.261-41.574-169.462,0-169.462,0S319.972,359.684,440.646,391.202z" id="path405"/>
							</g>
						</g>
					</g>
                    <path style="fill:#6B3D26;" d="M274.907,395.076l6.026,2.863c0,0-4.825,0.224-11.865-1.805L274.907,395.076z" id="path413"/>
                    <path style="fill:#6B3D26;" d="M302.79,393.049c8.594,7.19,0.198,12.351,0.009,12.465c0.974,0.165,1.947,0.327,2.922,0.476       C314.344,397.535,302.79,393.049,302.79,393.049z" id="path415"/>
                    <g id="g425">
						<path style="fill:#6B3D26;" d="M354.836,372.961l0.023-0.005c-7.186-3.444-13.199-13.272-13.199-13.272l-4.077,4.485        l-1.224-2.854c-4.894,3.806-7.498,12.078-7.498,12.078l0.007,0.004C336.694,372.734,345.346,372.523,354.836,372.961z" id="path417"/>
                        <path style="fill:#6B3D26;" d="M412.231,382.302h0.035l3.042-2.369c-7.475-1.495-15.084-10.056-15.084-10.056        c-2.445,1.493-7.285,7.888-7.285,7.888l0.019,0.011C399.136,379.017,405.559,380.516,412.231,382.302z" id="path419"/>
                        <path style="fill:#6B3D26;" d="M392.349,403.473l-0.002,0.004c0,0,2.441,5.535,8.285,8.39l14.677-13.272l-0.002-0.002        C408.635,400.242,400.888,401.952,392.349,403.473z" id="path421"/>
                        <path style="fill:#6B3D26;" d="M331.732,408.315c-2.995-0.092-6.004-0.241-9.021-0.452l-0.004,0.007        c0,0,3.055,8.482,8.218,12.015c0,0,2.167-6.009,0.811-11.565L331.732,408.315z" id="path423"/>
					</g>
                    <path style="fill:#6B3D26;" d="M315.849,385.897c0,0,12.007-4.833,22.551,1.318c0,0-8.054,8.15-16.986,5.833       C321.413,393.049,317.167,391.022,315.849,385.897z" id="path427"/>
                    <path style="opacity:0.4;fill:#6B3D26;" d="M321.413,390.109c0,0-3.36-1.2-5.521-4.072c1.36,5.017,5.521,7.012,5.521,7.012       c8.933,2.317,16.986-5.833,16.986-5.833S330.346,392.428,321.413,390.109z" id="path429"/>
                    <g id="g435">
						<path style="fill:#FFD855;stroke:#594135;stroke-miterlimit:10;" d="M296.698,391.202c0,3.212-2.602,5.813-5.813,5.813        c-3.212,0-5.814-2.6-5.814-5.813c0-3.212,2.602-5.815,5.814-5.815C294.097,385.387,296.698,387.99,296.698,391.202z" id="path431"/>
                        <path style="fill:#594135;" d="M293.898,391.202c0,1.666-1.351,3.013-3.014,3.013c-1.665,0-3.014-1.347-3.014-3.013        c0-1.668,1.349-3.016,3.014-3.016C292.548,388.186,293.898,389.534,293.898,391.202z" id="path433"/>
					</g>
				</g>
                <path style="fill:#8F6744;" d="M346.545,390.427c0,1.176-0.953,2.127-2.127,2.127c-1.176,0-2.129-0.951-2.129-2.127      c0-1.176,0.953-2.13,2.129-2.13C345.592,388.297,346.545,389.251,346.545,390.427z" id="path439"/>
                <path style="fill:#8F6744;" d="M353.76,390.427c0,1.176-0.953,2.127-2.128,2.127c-1.175,0-2.128-0.951-2.128-2.127      c0-1.176,0.953-2.13,2.128-2.13C352.807,388.297,353.76,389.251,353.76,390.427z" id="path441"/>
                <path style="fill:#8F6744;" d="M360.975,390.427c0,1.176-0.952,2.127-2.125,2.127c-1.178,0-2.131-0.951-2.131-2.127      c0-1.176,0.953-2.13,2.131-2.13C360.022,388.297,360.975,389.251,360.975,390.427z" id="path443"/>
                <path style="fill:#8F6744;" d="M368.189,390.427c0,1.176-0.952,2.127-2.127,2.127s-2.129-0.951-2.129-2.127      c0-1.176,0.954-2.13,2.129-2.13S368.189,389.251,368.189,390.427z" id="path445"/>
                <path style="fill:#8F6744;" d="M375.404,390.427c0,1.176-0.952,2.127-2.127,2.127s-2.129-0.951-2.129-2.127      c0-1.176,0.954-2.13,2.129-2.13S375.404,389.251,375.404,390.427z" id="path447"/>
                <path style="fill:#8F6744;" d="M382.62,390.427c0,1.176-0.953,2.127-2.126,2.127c-1.177,0-2.131-0.951-2.131-2.127      c0-1.176,0.954-2.13,2.131-2.13C381.667,388.297,382.62,389.251,382.62,390.427z" id="path449"/>
                <path style="fill:#8F6744;" d="M389.835,390.427c0,1.176-0.953,2.127-2.128,2.127s-2.129-0.951-2.129-2.127      c0-1.176,0.954-2.13,2.129-2.13S389.835,389.251,389.835,390.427z" id="path451"/>
                <path style="fill:#8F6744;" d="M397.05,390.427c0,1.176-0.953,2.127-2.128,2.127c-1.175,0-2.129-0.951-2.129-2.127      c0-1.176,0.954-2.13,2.129-2.13C396.097,388.297,397.05,389.251,397.05,390.427z" id="path453"/>
                <path style="fill:#8F6744;" d="M404.265,390.427c0,1.176-0.953,2.127-2.126,2.127c-1.177,0-2.131-0.951-2.131-2.127      c0-1.176,0.954-2.13,2.131-2.13C403.311,388.297,404.265,389.251,404.265,390.427z" id="path455"/>
                <g id="g507">
					<g id="g461">
						<path style="fill:#8F6744;" d="M345.852,385.373c0,0.794-0.642,1.437-1.434,1.437c-0.793,0-1.436-0.643-1.436-1.437        c0-0.791,0.643-1.435,1.436-1.435C345.211,383.938,345.852,384.582,345.852,385.373z" id="path457"/>
                        <path style="fill:#8F6744;" d="M345.135,381.87c0,0.399-0.322,0.72-0.717,0.72c-0.398,0-0.718-0.32-0.718-0.72        c0-0.393,0.319-0.716,0.718-0.716C344.813,381.154,345.135,381.477,345.135,381.87z" id="path459"/>
					</g>
                    <g id="g467">
						<path style="fill:#8F6744;" d="M353.066,385.373c0,0.794-0.642,1.437-1.435,1.437c-0.794,0-1.435-0.643-1.435-1.437        c0-0.791,0.641-1.435,1.435-1.435C352.425,383.938,353.066,384.582,353.066,385.373z" id="path463"/>
                        <path style="fill:#8F6744;" d="M352.349,381.87c0,0.399-0.319,0.72-0.717,0.72c-0.397,0-0.718-0.32-0.718-0.72        c0-0.393,0.32-0.716,0.718-0.716C352.029,381.154,352.349,381.477,352.349,381.87z" id="path465"/>
					</g>
                    <g id="g473">
						<path style="fill:#8F6744;" d="M360.283,385.373c0,0.794-0.643,1.437-1.434,1.437c-0.795,0-1.438-0.643-1.438-1.437        c0-0.791,0.644-1.435,1.438-1.435C359.641,383.938,360.283,384.582,360.283,385.373z" id="path469"/>
                        <path style="fill:#8F6744;" d="M359.564,381.87c0,0.399-0.32,0.72-0.715,0.72c-0.4,0-0.721-0.32-0.721-0.72        c0-0.393,0.32-0.716,0.721-0.716C359.244,381.154,359.564,381.477,359.564,381.87z" id="path471"/>
					</g>
                    <g id="g479">
						<path style="fill:#8F6744;" d="M367.497,385.373c0,0.794-0.642,1.437-1.435,1.437c-0.795,0-1.435-0.643-1.435-1.437        c0-0.791,0.641-1.435,1.435-1.435C366.855,383.938,367.497,384.582,367.497,385.373z" id="path475"/>
                        <path style="fill:#8F6744;" d="M366.779,381.87c0,0.399-0.321,0.72-0.717,0.72c-0.398,0-0.718-0.32-0.718-0.72        c0-0.393,0.319-0.716,0.718-0.716C366.458,381.154,366.779,381.477,366.779,381.87z" id="path477"/>
					</g>
                    <g id="g485">
						<path style="fill:#8F6744;" d="M374.711,385.373c0,0.794-0.642,1.437-1.434,1.437c-0.795,0-1.435-0.643-1.435-1.437        c0-0.791,0.641-1.435,1.435-1.435C374.069,383.938,374.711,384.582,374.711,385.373z" id="path481"/>
                        <path style="fill:#8F6744;" d="M373.993,381.87c0,0.399-0.319,0.72-0.716,0.72c-0.396,0-0.719-0.32-0.719-0.72        c0-0.393,0.322-0.716,0.719-0.716C373.674,381.154,373.993,381.477,373.993,381.87z" id="path483"/>
					</g>
                    <g id="g491">
						<path style="fill:#8F6744;" d="M381.928,385.373c0,0.794-0.643,1.437-1.434,1.437c-0.794,0-1.438-0.643-1.438-1.437        c0-0.791,0.645-1.435,1.438-1.435C381.285,383.938,381.928,384.582,381.928,385.373z" id="path487"/>
                        <path style="fill:#8F6744;" d="M381.209,381.87c0,0.399-0.32,0.72-0.715,0.72c-0.399,0-0.721-0.32-0.721-0.72        c0-0.393,0.321-0.716,0.721-0.716C380.889,381.154,381.209,381.477,381.209,381.87z" id="path489"/>
					</g>
                    <g id="g497">
						<path style="fill:#8F6744;" d="M389.142,385.373c0,0.794-0.642,1.437-1.435,1.437c-0.793,0-1.436-0.643-1.436-1.437        c0-0.791,0.643-1.435,1.436-1.435C388.5,383.938,389.142,384.582,389.142,385.373z" id="path493"/>
                        <path style="fill:#8F6744;" d="M388.424,381.87c0,0.399-0.321,0.72-0.717,0.72c-0.397,0-0.718-0.32-0.718-0.72        c0-0.393,0.32-0.716,0.718-0.716C388.102,381.154,388.424,381.477,388.424,381.87z" id="path495"/>
					</g>
                    <g id="g501">
						<path style="fill:#8F6744;" d="M396.356,385.373c0,0.794-0.642,1.437-1.435,1.437c-0.794,0-1.436-0.643-1.436-1.437        c0-0.791,0.642-1.435,1.436-1.435C395.714,383.938,396.356,384.582,396.356,385.373z" id="path499"/>
					</g>
                    <g id="g505">
						<path style="fill:#8F6744;" d="M403.573,385.373c0,0.794-0.643,1.437-1.434,1.437c-0.795,0-1.439-0.643-1.439-1.437        c0-0.791,0.644-1.435,1.439-1.435C402.93,383.938,403.573,384.582,403.573,385.373z" id="path503"/>
					</g>
				</g>
                <g id="g559">
					<g id="g513">
						<path style="fill:#8F6744;" d="M345.851,395.782c0-0.795-0.641-1.438-1.435-1.438c-0.794,0-1.435,0.643-1.435,1.438        c0,0.791,0.641,1.436,1.435,1.436C345.21,397.218,345.851,396.573,345.851,395.782z" id="path509"/>
                        <path style="fill:#8F6744;" d="M345.133,399.283c0-0.397-0.321-0.718-0.717-0.718c-0.397,0-0.717,0.32-0.717,0.718        c0,0.396,0.319,0.718,0.717,0.718C344.811,400.001,345.133,399.679,345.133,399.283z" id="path511"/>
					</g>
                    <g id="g519">
						<path style="fill:#8F6744;" d="M353.066,395.782c0-0.795-0.643-1.438-1.436-1.438c-0.794,0-1.435,0.643-1.435,1.438        c0,0.791,0.641,1.436,1.435,1.436C352.424,397.218,353.066,396.573,353.066,395.782z" id="path515"/>
                        <path style="fill:#8F6744;" d="M352.349,399.283c0-0.397-0.32-0.718-0.718-0.718c-0.397,0-0.718,0.32-0.718,0.718        c0,0.396,0.32,0.718,0.718,0.718C352.028,400.001,352.349,399.679,352.349,399.283z" id="path517"/>
					</g>
                    <g id="g525">
						<path style="fill:#8F6744;" d="M360.28,395.782c0-0.795-0.641-1.438-1.435-1.438c-0.793,0-1.436,0.643-1.436,1.438        c0,0.791,0.643,1.436,1.436,1.436C359.64,397.218,360.28,396.573,360.28,395.782z" id="path521"/>
                        <path style="fill:#8F6744;" d="M359.563,399.283c0-0.397-0.32-0.718-0.718-0.718c-0.398,0-0.717,0.32-0.717,0.718        c0,0.396,0.319,0.718,0.717,0.718C359.243,400.001,359.563,399.679,359.563,399.283z" id="path523"/>
					</g>
                    <g id="g531">
						<path style="fill:#8F6744;" d="M367.495,395.782c0-0.795-0.641-1.438-1.434-1.438c-0.795,0-1.435,0.643-1.435,1.438        c0,0.791,0.641,1.436,1.435,1.436C366.854,397.218,367.495,396.573,367.495,395.782z" id="path527"/>
                        <path style="fill:#8F6744;" d="M366.777,399.283c0-0.397-0.32-0.718-0.716-0.718c-0.398,0-0.718,0.32-0.718,0.718        c0,0.396,0.319,0.718,0.718,0.718C366.457,400.001,366.777,399.679,366.777,399.283z" id="path529"/>
					</g>
                    <g id="g537">
						<path style="fill:#8F6744;" d="M374.711,395.782c0-0.795-0.642-1.438-1.434-1.438c-0.795,0-1.436,0.643-1.436,1.438        c0,0.791,0.641,1.436,1.436,1.436C374.068,397.218,374.711,396.573,374.711,395.782z" id="path533"/>
                        <path style="fill:#8F6744;" d="M373.993,399.283c0-0.397-0.32-0.718-0.717-0.718c-0.398,0-0.719,0.32-0.719,0.718        c0,0.396,0.321,0.718,0.719,0.718C373.673,400.001,373.993,399.679,373.993,399.283z" id="path535"/>
					</g>
                    <g id="g543">
						<path style="fill:#8F6744;" d="M381.925,395.782c0-0.795-0.641-1.438-1.434-1.438c-0.794,0-1.436,0.643-1.436,1.438        c0,0.791,0.643,1.436,1.436,1.436C381.284,397.218,381.925,396.573,381.925,395.782z" id="path539"/>
                        <path style="fill:#8F6744;" d="M381.208,399.283c0-0.397-0.32-0.718-0.717-0.718c-0.397,0-0.718,0.32-0.718,0.718        c0,0.396,0.32,0.718,0.718,0.718C380.888,400.001,381.208,399.679,381.208,399.283z" id="path541"/>
					</g>
                    <g id="g549">
						<path style="fill:#8F6744;" d="M389.14,395.782c0-0.795-0.641-1.438-1.434-1.438c-0.794,0-1.436,0.643-1.436,1.438        c0,0.791,0.642,1.436,1.436,1.436C388.499,397.218,389.14,396.573,389.14,395.782z" id="path545"/>
                        <path style="fill:#8F6744;" d="M388.422,399.283c0-0.397-0.319-0.718-0.716-0.718c-0.397,0-0.718,0.32-0.718,0.718        c0,0.396,0.32,0.718,0.718,0.718C388.102,400.001,388.422,399.679,388.422,399.283z" id="path547"/>
					</g>
                    <g id="g553">
						<path style="fill:#8F6744;" d="M396.356,395.782c0-0.795-0.643-1.438-1.435-1.438c-0.794,0-1.436,0.643-1.436,1.438        c0,0.791,0.642,1.436,1.436,1.436C395.713,397.218,396.356,396.573,396.356,395.782z" id="path551"/>
					</g>
                    <g id="g557">
						<path style="fill:#8F6744;" d="M403.57,395.782c0-0.795-0.642-1.438-1.435-1.438c-0.793,0-1.438,0.643-1.438,1.438        c0,0.791,0.645,1.436,1.438,1.436C402.929,397.218,403.57,396.573,403.57,395.782z" id="path555"/>
					</g>
				</g>
                <path style="opacity:0.5;fill:#6B3D26;" d="M415.309,398.595l-0.002-0.002c-6.672,1.649-14.419,3.359-22.958,4.88l-0.002,0.004      c0,0,0.495,1.114,1.564,2.6c6.147-1.125,11.872-2.34,17.053-3.551L415.309,398.595z" id="path561"/>
                <path style="opacity:0.5;fill:#6B3D26;" d="M331.735,408.318l-0.003-0.004c-2.995-0.092-6.004-0.241-9.021-0.452l-0.004,0.007      c0,0,0.448,1.24,1.289,2.97c2.725,0.174,5.444,0.294,8.15,0.372C332.095,410.254,331.971,409.279,331.735,408.318z" id="path563"/>
			</g>
            <g id="g571">
				<path style="opacity:0.4;fill:#FFFFFF;" d="M373.633,382.33c-0.197,2.495-10.382,3.729-22.75,2.757      c-12.367-0.971-22.234-3.782-22.038-6.276c0.196-2.494,10.381-3.727,22.749-2.756      C363.961,377.027,373.828,379.836,373.633,382.33z" id="path567"/>
                <path style="opacity:0.4;fill:#FFFFFF;" d="M386.011,388.132c0,2.393-1.938,4.33-4.329,4.33c-2.392,0-4.33-1.938-4.33-4.33      c0-2.391,1.938-4.328,4.33-4.328C384.072,383.804,386.011,385.741,386.011,388.132z" id="path569"/>
			</g>
		</g>
	</g></svg>