<svg version="1.1" x="0px" y="0px" viewBox="28.221000000000004 63.07000000000001 202.17540851205112 79.62239970594898" style="enable-background:new 0 0 500 500;" xml:space="preserve" id="svg637" sodipodi:docname="fishs1.svg" inkscape:version="1.1 (c68e22c387, 2021-05-23)" xmlns:inkscape="http://www.inkscape.org/namespaces/inkscape" xmlns:sodipodi="http://sodipodi.sourceforge.net/DTD/sodipodi-0.dtd" xmlns="http://www.w3.org/2000/svg" xmlns:svg="http://www.w3.org/2000/svg"><defs id="defs641"/><g id="fish2">
		
        <g id="g120">
			<g id="g112">
				<g id="g108">
					<g id="g104">
						<path style="fill:#F4673C;" d="M29.222,120.682c0,0,38.055-37.426,72.965-36.797c0,0,37.742,5.032,64.475,13.837        c0,0,18.556,7.234,29.249-0.314c0,0,8.492,12.58,0,23.273c0,0-17.299-0.943-33.023,5.976c0,0-17.297,11.322-68.248,8.177        l-44.032-1.572c0,0-15.411-2.831-21.387-5.976l4.088-2.516L29.222,120.682z" id="path70"/>
                        <path style="opacity:0.5;fill:#F4673C;" d="M94.641,134.835c50.95,3.145,68.248-8.177,68.248-8.177        c15.725-6.919,33.023-5.976,33.023-5.976c3.061-3.854,3.909-7.952,3.75-11.619c-15.09,3.595-32.999,1.434-32.999,1.434        c-26.733-8.806-64.475-13.838-64.475-13.838c-22.903-0.412-53.424,14.78-71.71,25.278l2.833,2.833l-4.088,2.516        c5.976,3.145,21.387,5.976,21.387,5.976L94.641,134.835z" id="path72"/>
                        <g id="g80">
							<g id="g78">
								<g id="g76">
									<path style="fill:#F2B171;" d="M162.889,121.389c0,0-17.297,11.321-68.248,8.176l-44.032-1.573           c0,0-12.064-2.217-18.983-4.907l1.685,1.685l-4.088,2.516c5.976,3.145,21.387,5.976,21.387,5.976l44.032,1.572           c50.95,3.145,68.248-8.177,68.248-8.177c15.725-6.919,33.023-5.976,33.023-5.976c1.456-1.832,2.402-3.719,2.988-5.59           C192.741,115.141,175.578,115.805,162.889,121.389z" id="path74"/>
								</g>
							</g>
						</g>
                        <path style="fill:#B23F2A;" d="M33.311,124.771l-4.088,2.516c5.976,3.145,21.387,5.976,21.387,5.976l4.613,0.164        c3.418-0.955,5.555-1.77,5.555-1.77c17.174-12.87,5.245-24.263,5.245-24.263s-4.355-3.695-11.481-6.607        c-14.911,9.671-25.318,19.896-25.318,19.896L33.311,124.771z" id="path82"/>
                        <path style="fill:#B23F2A;" d="M73.584,130.117c0,0,23.574,7.232,17.598,14.152c0,0-8.806,5.661-25.161-14.152H73.584z" id="path84"/>
                        <path style="fill:#B23F2A;" d="M114.454,132.947l-5.48,2.423c14.018,10.286,23.723,7.642,23.723,7.642        C135.214,126.343,114.454,132.947,114.454,132.947z" id="path86"/>
                        <path style="fill:#7D2C1D;" d="M70.929,117.837h-0.007c0.226-2.932-1.038-6.402-4.9-10.443c0,0,10.263,12.559-8.53,22.723        c0,0,4.359-1.343,8.118-4.117c-1.161,2.073-2.725,4.14-4.832,5.657c0,0,8.275-3.491,9.946-12.538        c0.09-0.381,0.152-0.771,0.188-1.172C70.915,117.909,70.925,117.876,70.929,117.837z" id="path88"/>
                        <g id="g96">
							<path style="fill:#B23F2A;" d="M102.188,83.885c0,0,37.742,5.032,64.475,13.837c38.684-6.604-20.757-16.354-20.757-16.354         c-25.476-2.516-20.443-17.298-20.443-17.298c-16.983,1.887-24.846,19.813-24.846,19.813l0.04,0.025         C101.166,83.902,101.679,83.876,102.188,83.885z" id="path90"/>
                            <path style="fill:#B23F2A;" d="M215.097,109.632c19.186-11.05,14.782-22.781,14.782-22.781         c-15.412-5.525-33.967,10.558-33.967,10.558s8.492,12.58,0,23.273c13.838,14.153,34.403,13.523,34.403,13.523         C231.694,121.94,215.097,109.632,215.097,109.632z" id="path92"/>
                            <path style="fill:#B23F2A;" d="M177.354,122.239c-4.602,0.896-9.609,2.282-14.466,4.419c0,0-2.476,1.617-8.296,3.458v0.001         c0,0,23.079,18.871,32.514,10.379C187.106,140.496,187.099,125.055,177.354,122.239z" id="path94"/>
						</g>
                        <g id="g102">
							<path style="fill:#FBB03B;" d="M54.63,116.019c0,3.155-2.556,5.711-5.71,5.711c-3.153,0-5.709-2.556-5.709-5.711         c0-3.154,2.556-5.711,5.709-5.711C52.074,110.308,54.63,112.864,54.63,116.019z" id="path98"/>
                            <path style="fill:#7D2C1D;" d="M51.88,116.019c0,1.635-1.325,2.96-2.96,2.96c-1.634,0-2.961-1.325-2.961-2.96         c0-1.635,1.327-2.96,2.961-2.96C50.556,113.059,51.88,114.383,51.88,116.019z" id="path100"/>
						</g>
					</g>
                    <path style="fill:#F79274;" d="M60.52,100.787c31.821-17.163,67.686-9.437,67.686-9.437       C88.781,78.762,60.52,100.787,60.52,100.787z" id="path106"/>
				</g>
                <path style="opacity:0.5;fill:#B23F2A;" d="M177.354,122.239c-4.602,0.896-9.609,2.282-14.466,4.419      c0,0-2.476,1.617-8.296,3.458v0.001c0,0,2.254,1.842,5.64,4.117c1.828-0.814,2.656-1.357,2.656-1.357      c7.245-3.188,14.819-4.704,20.886-5.415C182.34,125.087,180.292,123.088,177.354,122.239z" id="path110"/>
			</g>
            <g id="g118">
				<path style="opacity:0.2;fill:#FFFFFF;" d="M125.18,100.124c-0.196,2.494-10.381,3.729-22.749,2.757      c-12.368-0.972-22.234-3.782-22.039-6.276c0.196-2.494,10.381-3.728,22.748-2.756C115.508,94.822,125.375,97.63,125.18,100.124z      " id="path114"/>
                <circle style="opacity:0.2;fill:#FFFFFF;" cx="133.229" cy="105.926" r="4.329" id="circle116"/>
			</g>
		</g>
	</g></svg>