<svg version="1.1" x="0px" y="0px" viewBox="267.34800000000007 54.37731957231234 200.99791454980425 90.81761517519149" style="enable-background:new 0 0 500 500;" xml:space="preserve" id="svg637" sodipodi:docname="fishs1.svg" inkscape:version="1.1 (c68e22c387, 2021-05-23)" xmlns:inkscape="http://www.inkscape.org/namespaces/inkscape" xmlns:sodipodi="http://sodipodi.sourceforge.net/DTD/sodipodi-0.dtd" xmlns="http://www.w3.org/2000/svg" xmlns:svg="http://www.w3.org/2000/svg"><defs id="defs641"/><g id="fish3">
		
        <g id="g269">
			<g id="g261">
				<g id="g253">
					<path style="fill:#D2D3E8;" d="M268.349,110.701c0,0,35.939-40.102,80.201-34.049c0,0,39.345,7.188,65.45,21.563       c0,0,12.104,6.054,28.373,5.297c0,0,13.617,7.945-1.514,15.132c0,0-13.239-0.377-32.912,5.296c0,0-46.156,17.023-95.338,5.674       C312.609,129.616,268.35,123.944,268.349,110.701z" id="path125"/>
                    <path style="fill:#D2D3E8;" d="M319.622,108.122c0,0,20.226-16.124,22.231,0.334c0,0-3.243,20.814-23.54,5.635       C318.314,114.09,322.966,110.53,319.622,108.122z" id="path127"/>
                    <path style="fill:#CDBEC3;" d="M407.947,115.249c0,0-46.156,17.024-95.338,5.673c0,0-31.443-4.03-41.325-13.227       c-1.9,1.855-2.936,3.006-2.936,3.006c0.001,13.243,44.261,18.915,44.261,18.915c49.182,11.349,95.338-5.674,95.338-5.674       c19.673-5.674,32.912-5.296,32.912-5.296c5.767-2.739,7.351-5.586,7.111-8.063       C439.696,110.568,422.346,111.096,407.947,115.249z" id="path129"/>
                    <g id="g221">
						<path style="fill:#B6966D;" d="M400.242,126.345c-0.144,0.042-0.287,0.082-0.434,0.122        C399.957,126.427,400.098,126.387,400.242,126.345z" id="path131"/>
                        <path style="fill:#B6966D;" d="M404.918,124.956c-0.096,0.031-0.19,0.06-0.29,0.092        C404.728,125.015,404.821,124.986,404.918,124.956z" id="path133"/>
                        <path style="fill:#B6966D;" d="M405.973,124.617c-0.084,0.028-0.178,0.057-0.266,0.086        C405.797,124.673,405.888,124.645,405.973,124.617z" id="path135"/>
                        <path style="fill:#B6966D;" d="M407.512,124.096c-0.048,0.016-0.096,0.033-0.15,0.053        C407.423,124.128,407.462,124.114,407.512,124.096z" id="path137"/>
                        <path style="fill:#B6966D;" d="M436.06,118.799c0.299-0.019,0.593-0.037,0.865-0.052        C436.65,118.762,436.361,118.78,436.06,118.799z" id="path139"/>
                        <path style="fill:#B6966D;" d="M407.856,123.975c-0.022,0.009-0.063,0.022-0.093,0.033        C407.809,123.991,407.828,123.984,407.856,123.975z" id="path141"/>
                        <path style="fill:#B6966D;" d="M395.958,127.487c-0.184,0.047-0.374,0.094-0.558,0.141        C395.586,127.581,395.774,127.534,395.958,127.487z" id="path143"/>
                        <path style="fill:#B6966D;" d="M438.674,118.67c0.216-0.007,0.415-0.012,0.601-0.016        C439.088,118.659,438.893,118.664,438.674,118.67z" id="path145"/>
                        <path style="fill:#B6966D;" d="M437.49,118.718c0.256-0.013,0.503-0.023,0.731-0.032        C437.992,118.695,437.751,118.706,437.49,118.718z" id="path147"/>
                        <path style="fill:#B6966D;" d="M439.61,118.647c0.186-0.004,0.347-0.004,0.494-0.005        C439.956,118.643,439.802,118.644,439.61,118.647z" id="path149"/>
                        <path style="fill:#B6966D;" d="M407.947,123.942c1.165-0.336,2.303-0.647,3.42-0.942        C410.25,123.295,409.112,123.606,407.947,123.942z" id="path151"/>
                        <path style="fill:#B6966D;" d="M401.928,125.865c-0.13,0.037-0.266,0.076-0.396,0.114        C401.664,125.94,401.797,125.902,401.928,125.865z" id="path153"/>
                        <path style="fill:#B6966D;" d="M353.095,133.446c-0.351,0.01-0.699,0.02-1.052,0.027        C352.395,133.466,352.744,133.456,353.095,133.446z" id="path155"/>
                        <path style="fill:#B6966D;" d="M356.9,133.307c-0.336,0.017-0.676,0.029-1.014,0.044        C356.225,133.335,356.564,133.323,356.9,133.307z" id="path157"/>
                        <path style="fill:#B6966D;" d="M268.543,110.489c0.381-0.413,1.318-1.405,2.741-2.794        c9.882,9.197,41.325,13.227,41.325,13.227c12.299,2.838,24.4,3.902,35.648,3.902c33.725,0,59.69-9.575,59.69-9.575        c14.219-4.101,31.31-4.667,39.707-4.667c0.107,0,0.212,0,0.316,0c0.014,0.121,0.016,0.244,0.019,0.367        c-0.027-1.247-0.525-2.405-1.222-3.421c-9.155,0.041-25.679,0.749-39.668,4.784l-0.104,0.031l-0.105,0.038        c-0.254,0.094-25.897,9.387-58.632,9.387c-12.207,0-23.969-1.287-34.962-3.823l-0.147-0.035l-0.15-0.02        c-8.427-1.081-31.837-5.394-39.49-12.309C270.78,108.107,269.071,109.917,268.543,110.489z" id="path159"/>
                        <path style="fill:#B6966D;" d="M268.537,110.496c-0.066,0.073-0.107,0.116-0.135,0.146        C268.434,110.607,268.478,110.559,268.537,110.496z" id="path161"/>
                        <path style="fill:#B6966D;" d="M364.992,132.749c-0.318,0.029-0.637,0.059-0.957,0.086        C364.355,132.808,364.673,132.778,364.992,132.749z" id="path163"/>
                        <path style="fill:#B6966D;" d="M375.869,131.468c-0.28,0.039-0.561,0.081-0.844,0.122        C375.308,131.549,375.587,131.509,375.869,131.468z" id="path165"/>
                        <path style="fill:#B6966D;" d="M368.51,132.403c-0.304,0.033-0.611,0.064-0.914,0.095        C367.898,132.467,368.206,132.436,368.51,132.403z" id="path167"/>
                        <path style="fill:#B6966D;" d="M379.029,130.982c-0.266,0.043-0.537,0.086-0.807,0.128        C378.492,131.068,378.763,131.026,379.029,130.982z" id="path169"/>
                        <path style="fill:#B6966D;" d="M388.246,129.27c-0.224,0.047-0.455,0.095-0.683,0.142        C387.791,129.364,388.021,129.317,388.246,129.27z" id="path171"/>
                        <path style="fill:#B6966D;" d="M393.713,128.04c-0.198,0.047-0.395,0.095-0.597,0.143        C393.32,128.135,393.515,128.088,393.713,128.04z" id="path173"/>
                        <path style="fill:#B6966D;" d="M385.513,129.823c-0.239,0.048-0.479,0.094-0.724,0.141        C385.034,129.917,385.273,129.871,385.513,129.823z" id="path175"/>
                        <path style="fill:#B6966D;" d="M445.189,115.994c0.084-0.069,0.159-0.138,0.237-0.206        C445.349,115.855,445.273,115.925,445.189,115.994z" id="path177"/>
                        <path style="fill:#B6966D;" d="M446.471,114.742c0.061-0.07,0.126-0.14,0.182-0.209        C446.597,114.602,446.531,114.672,446.471,114.742z" id="path179"/>
                        <path style="fill:#B6966D;" d="M447.058,113.976c0.059-0.087,0.107-0.175,0.158-0.261        C447.167,113.801,447.116,113.889,447.058,113.976z" id="path181"/>
                        <path style="fill:#B6966D;" d="M444.258,116.701c0.052-0.036,0.108-0.073,0.158-0.109        C444.367,116.628,444.31,116.665,444.258,116.701z" id="path183"/>
                        <path style="fill:#B6966D;" d="M447.398,113.392c0.051-0.099,0.1-0.197,0.145-0.294        C447.498,113.194,447.449,113.293,447.398,113.392z" id="path185"/>
                        <path style="fill:#B6966D;" d="M446.109,115.144c-0.076,0.078-0.157,0.156-0.238,0.236        C445.952,115.3,446.033,115.222,446.109,115.144z" id="path187"/>
                        <path style="fill:#B6966D;" d="M447.657,112.814c0.038-0.101,0.08-0.203,0.111-0.304        C447.737,112.611,447.695,112.713,447.657,112.814z" id="path189"/>
                        <path style="fill:#B6966D;" d="M447.992,111.121c-0.003,0.116-0.008,0.235-0.018,0.352        C447.984,111.354,447.989,111.237,447.992,111.121z" id="path191"/>
                        <path style="fill:#B6966D;" d="M442.065,118.036c0.119-0.063,0.229-0.126,0.344-0.19        C442.295,117.909,442.184,117.973,442.065,118.036z" id="path193"/>
                        <path style="fill:#B6966D;" d="M443.166,117.408c0.111-0.067,0.223-0.133,0.329-0.2        C443.389,117.275,443.277,117.341,443.166,117.408z" id="path195"/>
                        <path style="fill:#B6966D;" d="M447.826,112.291c0.057-0.211,0.097-0.418,0.123-0.624        C447.923,111.873,447.883,112.081,447.826,112.291z" id="path197"/>
                        <path style="fill:#B6966D;" d="M434.36,118.925c0.358-0.029,0.714-0.059,1.044-0.082        C435.073,118.866,434.72,118.896,434.36,118.925z" id="path199"/>
                        <path style="fill:#B6966D;" d="M424.685,120.139c0.553-0.092,1.085-0.175,1.615-0.255        C425.77,119.965,425.238,120.046,424.685,120.139z" id="path201"/>
                        <path style="fill:#B6966D;" d="M427.23,119.742c0.603-0.086,1.177-0.165,1.744-0.238        C428.407,119.578,427.833,119.655,427.23,119.742z" id="path203"/>
                        <path style="fill:#B6966D;" d="M429.576,119.422c0.748-0.094,1.461-0.177,2.141-0.249        C431.037,119.245,430.324,119.329,429.576,119.422z" id="path205"/>
                        <path style="fill:#B6966D;" d="M421.951,120.619c0.565-0.105,1.116-0.202,1.658-0.296        C423.066,120.417,422.518,120.514,421.951,120.619z" id="path207"/>
                        <path style="fill:#B6966D;" d="M440.719,118.643c0.085,0.001,0.141,0.002,0.141,0.002S440.811,118.644,440.719,118.643z" id="path209"/>
                        <path style="fill:#B6966D;" d="M432.267,119.119c0.482-0.049,0.957-0.096,1.401-0.137        C433.224,119.022,432.749,119.069,432.267,119.119z" id="path211"/>
                        <path style="fill:#B6966D;" d="M412.475,122.718c0.733-0.186,1.464-0.372,2.175-0.542        C413.938,122.346,413.208,122.531,412.475,122.718z" id="path213"/>
                        <path style="fill:#B6966D;" d="M440.321,118.64c-0.009,0-0.027,0-0.035,0c0.133,0,0.226,0.001,0.312,0.003        C440.515,118.641,440.443,118.64,440.321,118.64z" id="path215"/>
                        <path style="fill:#B6966D;" d="M415.903,121.884c0.632-0.146,1.263-0.29,1.877-0.423        C417.166,121.594,416.537,121.738,415.903,121.884z" id="path217"/>
                        <path style="fill:#B6966D;" d="M419.034,121.195c0.587-0.122,1.168-0.238,1.735-0.351        C420.202,120.957,419.623,121.073,419.034,121.195z" id="path219"/>
					</g>
                    <path style="fill:#D2D3E8;" d="M268.349,110.701c0,6.979,12.291,11.853,23.919,14.903l3.743-3.097       c0,0,15.982-8.14,5.473-20.621c0,0,2.801-9.28-8.395-11.248C277.855,100.113,268.349,110.701,268.349,110.701z" id="path223"/>
                    <g id="g237">
						<g id="g235">
							<path style="fill:#65535F;" d="M336.397,133.109l-0.011-0.009c-4.322-0.299-8.728-0.78-13.186-1.468l-0.017,0.01         c0,0-7.729,27.763,5.08,21.01C328.264,152.652,354.08,146.634,336.397,133.109z" id="path225"/>
                            <path style="fill:#65535F;" d="M314.213,80.441c10.413-3.587,22.053-5.47,34.337-3.789c0,0,16.811,3.072,35.743,9.213h0.004         l1.721-7.502c-24.686-28.877-66.605-22.354-66.605-22.354c-5.588,10.247-5.208,24.43-5.208,24.43L314.213,80.441z" id="path227"/>
                            <path style="fill:#65535F;" d="M386.184,86.491c9.47,3.151,19.339,7.057,27.816,11.725c0,0,2.554,1.268,6.858,2.569         c0.02-0.045,2.211-4.968,7.544-8.214c0,0-6.057-17.633-28.18-20.927c0,0-8.617,6.589-14.205,14.573L386.184,86.491z" id="path229"/>
                            <path style="fill:#65535F;" d="M466.826,124.242c-4.191-8.384-3.262-20.729-3.262-20.729c8.152-30.977-21.191,0-21.191,0         s13.617,7.945-1.514,15.132C477.783,144.023,466.826,124.242,466.826,124.242z" id="path231"/>
                            <path style="fill:#65535F;" d="M415.618,121.948c-2.431,0.565-4.984,1.22-7.671,1.994c0,0-4.385,1.614-11.868,3.514         l-0.004,0.002c0,0,22.08,32.646,27.901,9.358C423.977,136.817,427.843,130.033,415.618,121.948z" id="path233"/>
						</g>
					</g>
                    <path style="fill:#4E3F42;" d="M301.483,101.886c9.078,15.13-14.297,22.251-14.32,22.258c1.771,0.551,3.571,1.063,5.352,1.527       l0,0C318.246,113.36,301.483,101.886,301.483,101.886z" id="path239"/>
                    <path style="fill:#4E3F42;" d="M278.174,111.677c-3.204-5.075-7.432-3.441-7.446-3.435c-1.546,1.533-2.379,2.46-2.379,2.46       c0,0.88,0.208,1.724,0.573,2.536c2.117-2.97,7.11,1.249,7.11,1.249c8.295,6.422,11.131,3.211,11.131,3.211       C283.443,118.767,278.174,111.677,278.174,111.677z" id="path241"/>
                    <path style="fill:#65535F;" d="M316.574,107.133c0,0,21.941-17.394,23.948-0.937c0,0-1.069,18.463-22.209,7.894       C318.314,114.09,319.918,109.541,316.574,107.133z" id="path243"/>
                    <path style="fill:#897A81;" d="M412.634,110.665c0,0,2.124-5.286,0.005-13.176C386.55,83.602,348.55,76.652,348.55,76.652       c-16.855-2.305-32.496,2.089-45.411,8.407c0.044,0.038,4.123,3.485,5.181,6.653c0,0,4.337-1.969,2.174-5.498       c0,0,13.222,5.063,14.284,14.57c0,0,6.103-10.4,5.838-19.159c0,0,14.332,12.158,14.865,29.038c0,0,10.582-14.97,4.627-29.038       c0,0,7.49,7.904,8.066,17.223c0,0,6.416-4.763,4.825-12.984c0,0,8.228,10.624,5.574,30.266c0,0,11.681-10.037,8.495-26.386       c0,0,12.949,6.743,13.109,17.095c0,0,3.375-6.779,2.816-12.476c0,0,8.657,7.384,7.646,16.299c0,0,4.031-4.942,2.173-11.815       C402.813,98.85,410.778,103.076,412.634,110.665z" id="path245"/>
                    <g id="g251">
						<path style="fill:#FFD855;stroke:#4E3F42;stroke-miterlimit:10;" d="M291.73,103.419c0,2.523-2.044,4.568-4.567,4.568        c-2.523,0-4.568-2.044-4.568-4.568c0-2.524,2.045-4.569,4.568-4.569C289.686,98.85,291.73,100.895,291.73,103.419z" id="path247"/>
                        <path style="fill:#4E3F42;" d="M289.532,103.419c0,1.308-1.061,2.368-2.369,2.368c-1.308,0-2.367-1.06-2.367-2.368        c0-1.309,1.06-2.369,2.367-2.369C288.471,101.05,289.532,102.11,289.532,103.419z" id="path249"/>
					</g>
				</g>
                <path style="opacity:0.3;fill:#FFFFFF;" d="M301.643,89.746c0,0,31.986-23.627,83.508,0.893      C385.15,90.638,337.445,77.299,301.643,89.746z" id="path255"/>
                <path style="opacity:0.3;fill:#65535F;" d="M341.853,139.108c-0.874-1.807-2.585-3.802-5.456-5.999l-0.011-0.009      c-4.322-0.299-8.728-0.78-13.186-1.468l-0.017,0.01c0,0-0.653,2.356-1.267,5.522      C328.717,138.273,335.396,138.873,341.853,139.108z" id="path257"/>
                <path style="opacity:0.3;fill:#65535F;" d="M421.09,126.503c-1.311-1.442-3.079-2.974-5.472-4.556      c-2.431,0.565-4.984,1.22-7.671,1.994c0,0-4.385,1.614-11.868,3.514l-0.004,0.002c0,0,1.394,2.06,3.571,4.775      c5.287-1.461,8.301-2.569,8.301-2.569C412.745,128.279,417.154,127.26,421.09,126.503z" id="path259"/>
			</g>
            <g id="g267">
				<path style="opacity:0.3;fill:#FFFFFF;" d="M366.314,94.889c-0.197,2.494-10.382,3.729-22.75,2.757      c-12.367-0.972-22.234-3.782-22.038-6.276c0.196-2.494,10.381-3.728,22.749-2.756C356.643,89.586,366.51,92.395,366.314,94.889z      " id="path263"/>
                <path style="opacity:0.3;fill:#FFFFFF;" d="M378.692,100.691c0,2.392-1.939,4.329-4.329,4.329c-2.392,0-4.33-1.938-4.33-4.329      c0-2.392,1.938-4.329,4.33-4.329C376.754,96.362,378.692,98.299,378.692,100.691z" id="path265"/>
			</g>
		</g>
	</g></svg>