<svg version="1.1" x="0px" y="0px" viewBox="267.92699999999996 202.993 178.77044444444448 91.91000000000003" style="enable-background:new 0 0 500 500;" xml:space="preserve" id="svg637" sodipodi:docname="fishs1.svg" inkscape:version="1.1 (c68e22c387, 2021-05-23)" xmlns:inkscape="http://www.inkscape.org/namespaces/inkscape" xmlns:sodipodi="http://sodipodi.sourceforge.net/DTD/sodipodi-0.dtd" xmlns="http://www.w3.org/2000/svg" xmlns:svg="http://www.w3.org/2000/svg"><defs id="defs641"/><g id="fish4">
		
        <g id="g380">
			<g id="g372">
				<g id="g276">
					<path style="fill:#627E96;" d="M467.766,219.865c-18.759,1.444-27.601,25.756-27.601,25.756v6.956       c11.363,25.495,26.397,25.972,26.397,25.972C436.74,248.486,467.766,219.865,467.766,219.865z" id="path274"/>
				</g>
                <g id="g280">
					<path style="fill:#C4D6EC;" d="M268.928,252.577c0,0,51.905-60.468,171.237-6.956c0,0,14.698,4.019,0,6.956       c0,0-107.019,48.851-171.237,7.913l9.242-3.443L268.928,252.577z" id="path278"/>
				</g>
                <g style="opacity:0.5;" id="g284">
					<path style="fill:#C4D6EC;" d="M323.938,248.508c0,0,20.444-6.834,36.077,1.824c0,0-7.215,8.463-22.126,10.484       C337.89,260.816,326.163,257.047,323.938,248.508z" id="path282"/>
				</g>
                <g style="opacity:0.5;" id="g290">
					<g id="g288">
						<path style="fill:#C4D6EC;" d="M276.397,257.707l-7.47,2.783c55.35,35.283,142.485,3.871,165.5-5.48        C398.72,265.535,324.77,282.203,276.397,257.707z" id="path286"/>
					</g>
				</g>
                <g id="g294">
					<path style="fill:#E2CD8C;" d="M440.165,245.621c-119.332-53.512-171.237,6.956-171.237,6.956l4.614,2.231       c11.381-6.917,38.402-20.156,78.417-20.156c27.625,0,56.85,6.23,86.923,18.492c0.838-0.363,1.283-0.567,1.283-0.567       C454.863,249.64,440.165,245.621,440.165,245.621z" id="path292"/>
				</g>
                <g id="g300">
					<g id="g298">
						<path style="fill:#3C4A77;" d="M444.465,251.4c6.854-2.729-4.3-5.779-4.3-5.779c-119.332-53.512-171.237,6.956-171.237,6.956        l0.632,0.306C287.929,241.078,348.912,210.792,444.465,251.4z" id="path296"/>
					</g>
				</g>
                <g id="g304">
					<path style="fill:#DEECF3;" d="M268.928,252.577l9.242,4.47l-9.242,3.443c9.275,5.913,19.448,9.943,30.06,12.527       c5.76,0.064,8.676-0.811,8.676-0.811c17.779-4.807,11.851-23.699,11.851-23.699c-2.198-7.625-9.355-13.043-17.445-16.839       C279.502,240.266,268.928,252.577,268.928,252.577z" id="path302"/>
				</g>
                <g id="g352">
					<g id="g308">
						<path style="fill:#023859;" d="M278.17,257.047l-9.242,3.443c4.889,0.955,15.24,1.32,15.24,1.32L278.17,257.047z" id="path306"/>
					</g>
                    <g id="g312">
						<path style="fill:#023859;" d="M319.514,248.508c0,0,3.117,19.021-11.851,23.699        C307.663,272.207,326.997,272.207,319.514,248.508z" id="path310"/>
					</g>
                    <g id="g316">
						<path style="fill:#627E96;" d="M323.938,248.508c0,0,20.444-10.604,36.077-1.945c0,0-7.215,8.463-22.126,10.484        C337.89,257.047,330.435,256.467,323.938,248.508z" id="path314"/>
					</g>
                    <g style="opacity:0.5;" id="g322">
						<g id="g320">
							<path style="fill:#627E96;" d="M337.89,253.391c0,0-7.484-0.107-13.747-4.651c6.445,7.727,13.747,8.308,13.747,8.308         c13.971-1.893,21.185-9.442,22.04-10.387C355.107,248.939,347.076,252.146,337.89,253.391z" id="path318"/>
						</g>
					</g>
                    <g id="g326">
						<path style="fill:#627E96;" d="M368.692,224.716l0.006-0.008c-18.975-5.258-37.543-20.715-37.543-20.715        c-6.012,7.937-6.122,21.48-6.122,21.48l0.014,0.003C337.412,223.38,351.926,222.745,368.692,224.716z" id="path324"/>
					</g>
                    <g id="g330">
						<path style="fill:#627E96;" d="M384.741,227.289l0.003-0.002c-0.283-4.362-3.473-6.7-3.473-6.7l11.212-13.948        c-12.506,1.924-22.422,18.234-22.422,18.234l0.008,0.01C374.784,225.473,379.67,226.261,384.741,227.289z" id="path328"/>
					</g>
                    <g id="g334">
						<path style="fill:#627E96;" d="M390.424,269.225l-0.005-0.002c-3.464,0.854-7.043,1.674-10.713,2.438v0.002        c0,0,5.804,9.531,21.435,9.773C401.141,281.435,390.529,278.66,390.424,269.225z" id="path332"/>
					</g>
                    <g id="g338">
						<path style="fill:#627E96;" d="M340.535,276.69c-5.925,0.232-11.889,0.199-17.819-0.17l-0.003,0.002        c0,0,5.797,13.33,14.455,18.381c0,0,7.461-11.414,3.369-18.213H340.535z" id="path336"/>
					</g>
                    <g id="g350">
						<g id="g344">
							<path style="fill:#4685A5;" d="M299.845,247.822c0,3.342-2.709,6.051-6.052,6.051c-3.343,0-6.051-2.709-6.051-6.051         c0-3.344,2.708-6.053,6.051-6.053C297.136,241.77,299.845,244.479,299.845,247.822z" id="path340"/>
                            <path style="fill:#023859;" d="M293.793,254.496c-3.682,0-6.676-2.993-6.676-6.674c0-3.682,2.994-6.676,6.676-6.676         c3.681,0,6.676,2.994,6.676,6.676C300.469,251.503,297.474,254.496,293.793,254.496z M293.793,242.393         c-2.993,0-5.428,2.436-5.428,5.43c0,2.992,2.435,5.428,5.428,5.428c2.993,0,5.429-2.436,5.429-5.428         C299.222,244.828,296.786,242.393,293.793,242.393z" id="path342"/>
						</g>
                        <g id="g348">
							<path style="fill:#023859;" d="M296.931,247.822c0,1.731-1.406,3.137-3.138,3.137c-1.733,0-3.137-1.405-3.137-3.137         c0-1.734,1.404-3.139,3.137-3.139C295.524,244.684,296.931,246.088,296.931,247.822z" id="path346"/>
						</g>
					</g>
				</g>
                <g style="opacity:0.5;" id="g358">
					<g id="g356">
						<path style="fill:#627E96;" d="M341.743,281.264c-0.037-1.625-0.376-3.195-1.206-4.574h-0.002        c-5.925,0.232-11.889,0.199-17.819-0.17l-0.003,0.002c0,0,0.874,2.006,2.445,4.754        C330.685,281.533,336.232,281.516,341.743,281.264z" id="path354"/>
					</g>
				</g>
                <g style="opacity:0.5;" id="g364">
					<g id="g362">
						<path style="fill:#627E96;" d="M390.419,269.223c-3.464,0.854-7.043,1.674-10.713,2.438v0.002c0,0,1.099,1.797,3.615,3.852        c2.74-0.605,5.427-1.238,8.042-1.891c-0.561-1.275-0.921-2.726-0.939-4.398L390.419,269.223z" id="path360"/>
					</g>
				</g>
                <g style="opacity:0.5;" id="g370">
					<g id="g368">
						<path style="fill:#FFFFFF;" d="M316.458,231.669c0,0,30.757-11.35,71.906,0C388.364,231.669,355.06,225.621,316.458,231.669z" id="path366"/>
					</g>
				</g>
			</g>
            <g id="g378">
				<path style="opacity:0.4;fill:#FFFFFF;" d="M373.156,239.095c-0.197,2.495-10.382,3.73-22.75,2.757      c-12.367-0.971-22.234-3.782-22.038-6.276c0.196-2.494,10.381-3.727,22.749-2.756      C363.484,233.792,373.352,236.601,373.156,239.095z" id="path374"/>
                <path style="opacity:0.4;fill:#FFFFFF;" d="M385.534,244.896c0,2.393-1.938,4.33-4.329,4.33c-2.392,0-4.33-1.938-4.33-4.33      c0-2.391,1.938-4.328,4.33-4.328C383.596,240.568,385.534,242.506,385.534,244.896z" id="path376"/>
			</g>
		</g>
	</g></svg>