<svg version="1.1" x="0px" y="0px" viewBox="29.229 352.3046386329195 200.1604444444444 73.95741731395736" style="enable-background:new 0 0 500 500;" xml:space="preserve" id="svg637" sodipodi:docname="fishs1.svg" inkscape:version="1.1 (c68e22c387, 2021-05-23)" xmlns:inkscape="http://www.inkscape.org/namespaces/inkscape" xmlns:sodipodi="http://sodipodi.sourceforge.net/DTD/sodipodi-0.dtd" xmlns="http://www.w3.org/2000/svg" xmlns:svg="http://www.w3.org/2000/svg"><defs id="defs641"/><g id="fish6">
		
        <g id="g634">
			<g id="g628">
				<path style="fill:#E9CCD0;" d="M30.229,394.523c0,0,66.878-44.354,145.886-11.088c0,0,8.317,2.428,22.524,1.733      c0,0,11.434,5.543,2.772,14.9c0,0-23.563-2.08-50.592,5.197c0,0-69.998,14.207-120.59-2.08l8.664-3.117L30.229,394.523z" id="path578"/>
                <path style="opacity:0.5;fill:#3A4445;" d="M80.137,395.366c0,0,38.401-9.05,24.141,7.219c0,0-8.436,6.829-20.286,0      C83.991,402.585,76.12,397.695,80.137,395.366z" id="path580"/>
                <path style="fill:#708976;" d="M198.64,385.168c-14.207,0.695-22.524-1.733-22.524-1.733      c-78.199-32.926-144.504,10.18-145.853,11.067h174.277C205.624,388.555,198.64,385.168,198.64,385.168z" id="path582"/>
                <path style="fill:#3A4445;" d="M176.115,387.767c0,0,11.666,4.2,27.703,2.263c-1.647-3.137-5.179-4.861-5.179-4.861      c-14.207,0.695-22.524-1.733-22.524-1.733c-78.199-32.926-144.504,10.18-145.853,11.067h7.568      C57.485,384.21,112.916,361.157,176.115,387.767z" id="path584"/>
                <path style="fill:#C4A7AC;" d="M38.894,400.068l-8.664,3.117c11.051,3.559,23.028,5.66,34.999,6.774      c20.004-12.682,2.881-24.563-5.646-29.187c-18.35,6.454-29.353,13.751-29.353,13.751L38.894,400.068z" id="path586"/>
                <path style="fill:#E9CCD0;" d="M60.667,387.277c0,0,8.838,14.461-5.223,15.867C55.444,403.145,76.533,404.75,60.667,387.277z" id="path588"/>
                <path style="fill:#A9AA98;" d="M80.351,395.23c0,0,36.557-11.164,22.296,5.104c0,0-8.436,6.83-20.286,0      C82.36,400.334,76.334,397.56,80.351,395.23z" id="path590"/>
                <g id="g606">
					<path style="fill:#B0A869;" d="M176.115,383.435c0,0,0.702,0.201,2.007,0.467l6.475-3.656       c-5.021-11.449-27.117-20.891-27.117-20.891c-10.846,2.611-18.94,13.453-18.94,13.453l0.019,0.01       C150.593,374.639,163.189,377.992,176.115,383.435z" id="path592"/>
                    <path style="fill:#B0A869;" d="M224.569,373.016c-15.467,0.803-25.93,12.152-25.93,12.152s11.434,5.543,2.772,14.9       c0,0-1.424-0.127-3.96-0.205c13.654,13.586,27.118,12.32,27.118,12.32c10.645-7.633,0-21.148,0-21.148       C235.415,377.721,224.569,373.016,224.569,373.016z" id="path594"/>
                    <g style="opacity:0.4;" id="g598">
						<path style="fill:#B0A869;" d="M224.569,406.846c0,0-10.376,0.973-22.148-7.98c-0.304,0.395-0.631,0.794-1.01,1.203        c0,0-1.424-0.127-3.96-0.205c13.654,13.586,27.118,12.32,27.118,12.32c4.615-3.311,5.226-7.725,4.439-11.665        C228.479,402.789,227.155,404.992,224.569,406.846z" id="path596"/>
					</g>
                    <path style="fill:#B0A869;" d="M134.167,372.215l0.014-0.004c-21.29-30.326-49.012-15.068-49.012-15.068       c-6.629,7.232-7.476,18.336-7.476,18.336l0.008,0.002C93.749,371.719,113.017,369.633,134.167,372.215z" id="path600"/>
                    <path style="fill:#A9AA98;" d="M97.829,410.877c-4.117,0.117-8.353,0.16-12.659,0.103l-0.001,0.002       c3.816,19.885,14.262,14.66,14.262,14.66C114.875,416.416,97.879,410.893,97.829,410.877z" id="path602"/>
                    <path style="fill:#A9AA98;" d="M150.819,405.266c0,0-1.488,0.301-4.173,0.766c0.003,0.002,8.224,7.76,20.071,9.166       c0,0,11.252-2.783,6.832-14.246C166.637,401.76,158.885,403.094,150.819,405.266z" id="path604"/>
				</g>
                <g id="g616">
					<g id="g612">
						<path style="fill:#FFEB79;" d="M57.497,393.48c0,3.078-2.493,5.568-5.568,5.568c-3.074,0-5.567-2.49-5.567-5.568        c0-3.076,2.493-5.569,5.567-5.569C55.004,387.911,57.497,390.404,57.497,393.48z" id="path608"/>
                        <path style="fill:#3A4445;" d="M51.929,399.682c-3.419,0-6.2-2.781-6.2-6.201c0-3.42,2.781-6.203,6.2-6.203        c3.419,0,6.201,2.783,6.201,6.203C58.13,396.9,55.348,399.682,51.929,399.682z M51.929,388.545        c-2.721,0-4.934,2.214-4.934,4.936c0,2.721,2.213,4.935,4.934,4.935c2.722,0,4.935-2.215,4.935-4.935        C56.863,390.759,54.65,388.545,51.929,388.545z" id="path610"/>
					</g>
                    <path style="fill:#3A4445;" d="M54.814,393.48c0,1.596-1.292,2.888-2.886,2.888c-1.594,0-2.888-1.292-2.888-2.888       s1.294-2.887,2.888-2.887C53.522,390.594,54.814,391.885,54.814,393.48z" id="path614"/>
				</g>
                <path style="opacity:0.6;fill:#A9AA98;" d="M97.829,410.877c-4.117,0.117-8.353,0.16-12.659,0.103l-0.001,0.002      c0.31,1.611,0.666,3.043,1.054,4.341c6.325,0.059,12.485-0.093,18.333-0.38C102.262,412.32,97.854,410.885,97.829,410.877z" id="path618"/>
                <path style="opacity:0.6;fill:#A9AA98;" d="M174.544,405.166c-0.088-1.256-0.392-2.652-0.994-4.215      c-6.913,0.809-14.665,2.143-22.73,4.314c0,0-1.488,0.301-4.173,0.766c0.001,0,1.69,1.586,4.621,3.45      C159.558,407.277,167.512,405.947,174.544,405.166z" id="path620"/>
                <path style="fill:#3A4445;" d="M65.398,384.395c0.111,0.1,13.336,11.875,3.674,22.751      C79.745,398.07,72.741,389.67,65.398,384.395z" id="path622"/>
                <polygon style="fill:#3A4445;" points="30.229,403.185 35.842,398.115 38.894,400.068     " id="polygon624"/>
                <path style="fill:#3A4445;" d="M77.693,377.965l7.476,5.938l1.663-8.422l5.627,7.302l2.403-7.863l3.124,3.985l2.99-3.985      l8.636,7.863l3.653-9.026l2.823,4.65l4.339-4.65l2.803,7.078l2.159-7.078l6.975,9.026l2.657-7.302l4.816,7.302l4.484-7.302      l1.495,7.302l2.989-5.206l3.155,6.326l3.155-4.998l5.479,7.308l2.327-5.378l3.986,7.077l1.826-5.129l4.65,8.253l2.325-5.487      l-0.715-2.568c-40.877-16.857-78.422-13.043-105.028-5.502v2.237l7.726,8.196V377.965z" id="path626"/>
			</g>
            <path style="opacity:0.2;fill:#FFFFFF;" d="M130.446,376.072c0.377,3.159-12.016,7.241-27.683,9.116     c-15.666,1.874-28.673,0.831-29.051-2.327c-0.377-3.16,12.016-7.24,27.682-9.114     C117.061,371.873,130.067,372.914,130.446,376.072z" id="path630"/>
            <circle style="opacity:0.2;fill:#FFFFFF;" cx="132.01" cy="383.902" r="4.329" id="circle632"/>
		</g>
	</g></svg>