<svg viewBox="185.70084292863413 325.3674594904136 71.30934722004366 102.67454050958645" id="svg8" version="1.1" xmlns="http://www.w3.org/2000/svg" xmlns:cc="http://creativecommons.org/ns#" xmlns:dc="http://purl.org/dc/elements/1.1/" xmlns:inkscape="http://www.inkscape.org/namespaces/inkscape" xmlns:rdf="http://www.w3.org/1999/02/22-rdf-syntax-ns#" xmlns:sodipodi="http://sodipodi.sourceforge.net/DTD/sodipodi-0.dtd" xmlns:svg="http://www.w3.org/2000/svg"><g><path d="M244.677,428.042c-0.825,0-1.678-0.038-2.581-0.129c-0.001,0-0.002,0-0.004,0l0.102-0.995      c-0.158-0.015-0.285,0.098-0.308,0.179c0.218-0.734-1.583-5.542-2.02-6.438c-0.657-1.345-1.479-2.285-2.44-2.793      c-1.543-0.815-3.586-1.161-5.561-1.496c-1.258-0.213-2.56-0.434-3.697-0.775c-8.454-2.539-16.354-6.418-23.482-11.528l0,0      c-9.157-6.566-15.059-13.987-17.54-22.058c-0.732-2.378-0.772-5.547,1.522-6.652c2.067-0.999,4.315,0.568,5.47,1.59      c1.891,1.673,3.514,3.644,5.082,5.549c0.582,0.706,1.164,1.413,1.759,2.105c8.263,9.605,18.519,15.395,28.877,16.3      c0.317,0.027,0.661,0.036,0.809-0.108c0.176-0.17,0.136-0.627,0.123-0.778c-0.298-3.438-2.349-6.902-6.271-10.59      c-0.803-0.755-1.633-1.489-2.463-2.222c-2.404-2.124-4.889-4.319-6.691-7.058c-1.137-1.729-1.672-3.278-1.636-4.737      c0.042-1.679,1.062-3.636,2.932-4.127c1.581-0.416,3.411,0.325,5.019,2.031c0.339,0.36,0.662,0.741,0.984,1.121      c0.797,0.942,1.55,1.832,2.544,2.398c0.445,0.254,1.028,0.36,1.232,0.096c0.104-0.133,0.131-0.382,0.148-0.604      c0.254-3.236-0.534-6.546-2.22-9.32c-0.684-1.125-1.529-2.188-2.345-3.214c-0.71-0.892-1.443-1.814-2.085-2.791      c-2.838-4.318-3.846-9.694-2.765-14.748c0.596-2.79,2.518-5.413,5.056-5.019c1.596,0.247,2.687,1.661,3.175,2.901      c0.354,0.9,0.513,1.848,0.667,2.763c0.067,0.401,0.135,0.802,0.219,1.199c0.372,1.761,1.099,3.481,2.103,4.975      c0.798,1.189,1.607,1.895,2.473,2.159c1.352,0.41,2.821-0.292,3.679-1.174c1.105-1.136,1.638-2.741,1.944-3.849      c1.121-4.069,1.042-8.418,0.964-12.622c-0.044-2.373-0.089-4.826,0.078-7.229c0.072-1.025,0.213-2.189,0.99-3.039      c1.137-1.245,3.072-1.136,4.315-0.404c1.391,0.819,2.183,2.281,2.658,3.31c3.216,6.965,1.595,15.135,0.095,20.674      c-0.404,1.493-0.846,2.983-1.287,4.475c-1.502,5.071-3.055,10.315-3.05,15.621c0,0.314,0.01,0.611,0.134,0.809      c0.158,0.251,0.576,0.398,1.085,0.381c1.54-0.033,3.151-1.016,4.42-2.697c0.678-0.898,1.236-1.921,1.775-2.91      c0.369-0.677,0.75-1.377,1.173-2.045c1.034-1.634,2.922-3.28,4.838-2.536c1.552,0.602,2.045,2.399,2.201,3.417      c0.811,5.29-2.057,10.869-8.524,16.581l-0.283,0.25c-2.31,2.036-4.699,4.14-5.175,7c-0.328,1.97,0.312,4.215,1.901,6.674      c0.933,1.443,2.053,2.806,3.137,4.125c1.161,1.413,2.362,2.873,3.359,4.459c4.212,6.699,4.547,15.29,4.817,22.193l0.02,0.513      l-0.514,0.006c-1.998,0.023-3.788,0.229-5.52,0.427C248.295,427.844,246.563,428.042,244.677,428.042z M242.87,426.976      c2.567,0.188,4.781-0.065,7.113-0.332c1.608-0.184,3.267-0.374,5.107-0.423c-0.276-7.011-0.672-14.871-4.645-21.19      c-0.963-1.532-2.143-2.968-3.285-4.356c-1.101-1.34-2.24-2.725-3.204-4.216c-1.729-2.675-2.418-5.158-2.048-7.381      c0.535-3.211,3.172-5.536,5.5-7.586l0.282-0.25c6.196-5.472,8.954-10.747,8.198-15.679c-0.124-0.804-0.492-2.216-1.574-2.636      c-1.356-0.525-2.8,0.824-3.632,2.138c-0.405,0.64-0.779,1.326-1.14,1.989c-0.557,1.021-1.132,2.077-1.855,3.034      c-1.455,1.927-3.349,3.055-5.196,3.095c-0.907,0.004-1.597-0.281-1.954-0.848c-0.266-0.422-0.288-0.894-0.288-1.341      c-0.005-5.451,1.569-10.765,3.091-15.905c0.439-1.484,0.879-2.967,1.281-4.453c1.458-5.389,3.041-13.324-0.039-19.994      c-0.666-1.441-1.383-2.353-2.258-2.868c-0.917-0.54-2.316-0.607-3.069,0.217c-0.56,0.612-0.67,1.577-0.73,2.434      c-0.164,2.358-0.119,4.79-0.076,7.141c0.079,4.276,0.16,8.698-1,12.906c-0.334,1.215-0.926,2.98-2.191,4.281      c-1.304,1.342-3.143,1.906-4.688,1.433c-1.095-0.334-2.08-1.171-3.011-2.558c-1.075-1.6-1.853-3.441-2.251-5.326      c-0.087-0.41-0.157-0.825-0.227-1.24c-0.152-0.905-0.296-1.76-0.612-2.563c-0.387-0.982-1.219-2.097-2.397-2.279      c-1.889-0.29-3.439,1.965-3.926,4.24c-1.025,4.794-0.069,9.893,2.623,13.99c0.617,0.939,1.336,1.843,2.031,2.718      c0.836,1.051,1.701,2.138,2.417,3.317c1.794,2.952,2.633,6.474,2.363,9.918c-0.029,0.367-0.083,0.788-0.357,1.14      c-0.593,0.762-1.692,0.628-2.517,0.159c-1.148-0.655-1.994-1.654-2.812-2.621c-0.311-0.367-0.622-0.735-0.948-1.082      c-0.639-0.677-2.309-2.202-4.037-1.749c-1.378,0.362-2.154,1.911-2.186,3.185c-0.031,1.248,0.451,2.61,1.472,4.163      c1.728,2.628,4.163,4.778,6.517,6.858c0.838,0.74,1.676,1.481,2.487,2.243c4.109,3.865,6.262,7.539,6.582,11.232      c0.041,0.464,0.041,1.134-0.424,1.583c-0.497,0.48-1.238,0.417-1.591,0.385c-10.621-0.929-21.114-6.839-29.548-16.644      c-0.601-0.698-1.187-1.41-1.773-2.122c-1.544-1.875-3.141-3.815-4.974-5.436c-0.969-0.858-2.827-2.185-4.373-1.439      c-1.722,0.83-1.615,3.459-1,5.458c2.416,7.856,8.192,15.103,17.167,21.539c7.038,5.046,14.839,8.875,23.187,11.382      c1.077,0.324,2.291,0.53,3.576,0.747c2.053,0.348,4.175,0.708,5.86,1.598c1.153,0.609,2.12,1.698,2.872,3.238      C240.791,420.272,242.862,425.031,242.87,426.976z" id="path8867" stroke="blue" fill="red"/></g></svg>